<?xml version="1.0" encoding="UTF-8"?>
<!DOCTYPE svg PUBLIC "-//W3C//DTD SVG 1.1//EN" "http://www.w3.org/Graphics/SVG/1.1/DTD/svg11.dtd">
<!-- Creator: CorelDRAW X7 -->
<svg xmlns="http://www.w3.org/2000/svg" xml:space="preserve" width="3in" height="3in" version="1.1" style="shape-rendering:geometricPrecision; text-rendering:geometricPrecision; image-rendering:optimizeQuality; fill-rule:evenodd; clip-rule:evenodd"
viewBox="0 0 3000 3000"
 xmlns:xlink="http://www.w3.org/1999/xlink"
 enable-background="new 0 0 512 512"
 data-name="Layer 1">
 <defs>
  <style type="text/css">
   <![CDATA[
    .fil10 {fill:#2F9B76}
    .fil6 {fill:#8CCFFF}
    .fil4 {fill:#AF5E40}
    .fil1 {fill:#B4E2FA}
    .fil3 {fill:#C07354}
    .fil11 {fill:#CD8D73}
    .fil2 {fill:#D3EEFC}
    .fil5 {fill:#D3EEFC}
    .fil7 {fill:#FF4C2B}
    .fil8 {fill:#FF7C2A}
    .fil9 {fill:#FFB809}
    .fil0 {fill:white}
    .fil12 {fill:red;fill-rule:nonzero}
   ]]>
  </style>
 </defs>
 <g id="Layer_x0020_1">
  <metadata id="CorelCorpID_0Corel-Layer"/>
  <g id="_830683312">
   <rect class="fil0" transform="matrix(1.36583 0.257828 -0.257828 1.36583 2682.53 540.15)" width="227" height="1402"/>
   <polygon class="fil1" points="2600,2384 2286,2358 2461,417 2763,443 "/>
   <circle class="fil2" cx="1473" cy="1530" r="1444"/>
   <path class="fil3" d="M710 1120l-196 159c0,0 -63,36 -82,127 -48,224 -157,431 -316,596l-7 4c14,39 29,78 46,116l289 36 123 -104c0,0 234,-176 316,-433l-173 -501z"/>
   <path class="fil4" d="M683 1420c0,0 -85,39 -96,93l42 48 94 -80 -40 -61z"/>
   <path class="fil5" d="M2321 2455l225 42c41,-45 80,-94 115,-145l218 -1155c-43,-183 -121,-352 -226,-501l-332 1759z"/>
   <path class="fil1" d="M2286 2358l314 26 131 -1564c-76,-134 -173,-255 -286,-358l-159 1896z"/>
   <path class="fil6" d="M2418 2615l-92 -7 -1724 -145 185 -2204c204,-111 438,-173 686,-173 380,0 725,146 983,386l-58 694 127 172 -100 1189 -7 88z"/>
   <polygon class="fil0" points="1022,840 2141,933 2181,462 1062,368 "/>
   <path class="fil7" d="M1485 615l103 134 -168 -14c4,-49 29,-92 65,-120z"/>
   <path class="fil8" d="M1485 615l103 134 0 0 14 -168c-5,-1 -9,-1 -14,-1 -39,0 -75,13 -103,35z"/>
   <path class="fil9" d="M1712 635l-124 114 0 0 14 -168c43,3 82,23 110,54z"/>
   <path class="fil10" d="M1711 634l-123 115 168 14c0,-5 1,-10 1,-14 0,-45 -18,-85 -46,-115z"/>
   <path class="fil0" d="M1617 748c0,-16 -13,-29 -29,-29 -16,0 -29,13 -29,29 0,16 13,30 29,30 16,0 29,-14 29,-30z"/>
   <polygon class="fil1" points="1222,502 1319,510 1335,320 1238,312 "/>
   <polygon class="fil1" points="1910,560 2007,568 2023,378 1926,369 "/>
   <polygon class="fil0" points="903,2240 2021,2334 2129,1047 1010,953 "/>
   <polygon class="fil2" points="1099,1540 1240,1552 1252,1411 1111,1399 "/>
   <polygon class="fil2" points="1078,1781 1219,1793 1231,1652 1090,1640 "/>
   <polygon class="fil2" points="1055,2037 1197,2050 1210,1908 1068,1896 "/>
   <polygon class="fil2" points="1119,1311 1260,1324 1272,1183 1131,1170 "/>
   <path class="fil3" d="M587 1513c0,0 102,-12 285,-155 136,-106 188,-95 207,-75 32,32 35,70 -6,108 -28,26 -123,98 -179,154 -26,25 -43,58 -50,93 -14,74 -81,243 -237,383l-71 -242 51 -266z"/>
   <path class="fil11" d="M957 1339l52 64c2,4 6,5 11,5 3,0 5,0 8,-2 26,-18 92,-67 71,-105 -37,-67 -114,-6 -141,19 -3,2 -5,6 -5,10 0,4 2,7 4,9l0 0z"/>
   <path class="fil0" d="M214 1830l248 340c4,6 5,13 5,20 0,10 -4,19 -11,27l-155 157c-98,-136 -173,-290 -219,-456 44,-32 85,-62 118,-89 2,-2 4,-3 6,-3 3,0 6,2 8,4l0 0z"/>
   <polygon class="fil6" points="787,259 806,24 2482,165 2456,471 2029,281 1308,224 "/>
   <path class="fil12" d="M1404 1285c5,1 8,3 10,5 3,4 4,7 4,12 0,3 -2,6 -4,9 -2,3 -5,5 -9,6 -4,1 -9,1 -17,0l-31 -2 0 -2 2 0c3,0 5,0 7,-2 0,-1 1,-4 1,-7l4 -43c0,-4 0,-7 -1,-8 -1,-2 -3,-2 -5,-3l-3 0 1 -2 28 3c6,0 10,1 13,2 5,2 8,4 11,7 2,4 3,7 3,11 -1,3 -2,6 -4,9 -3,2 -6,4 -10,5zm-25 -5c1,0 2,0 4,1 2,0 3,0 5,0 5,1 8,0 11,0 2,-1 4,-3 6,-5 1,-2 2,-4 2,-6 1,-4 -1,-8 -3,-11 -3,-3 -8,-4 -14,-5 -3,0 -6,0 -9,0l-2 26zm-3 31c4,2 8,2 11,3 6,0 11,-1 14,-3 3,-2 5,-6 6,-10 0,-2 -1,-5 -2,-7 -1,-3 -3,-5 -6,-6 -3,-2 -7,-3 -12,-3 -2,-1 -4,-1 -5,-1 -1,0 -3,0 -3,0l-3 27z"/>
   <path id="1" class="fil12" d="M1442 1252c2,0 3,1 4,2 1,1 1,2 1,3 0,2 -1,3 -2,4 -1,1 -2,1 -3,1 -2,0 -3,-1 -4,-2 -1,-1 -1,-2 -1,-3 0,-2 1,-3 2,-4 1,-1 2,-1 3,-1zm2 24l-3 36c0,3 0,4 0,5 1,1 1,2 2,3 1,0 2,1 4,1l0 1 -22 -1 1 -2c2,0 3,0 4,0 1,-1 2,-1 2,-2 1,-1 1,-3 1,-6l2 -17c0,-5 0,-8 0,-10 0,-1 0,-2 -1,-2 0,0 -1,-1 -2,-1 -1,0 -2,0 -3,1l-1 -2 14 -4 2 0z"/>
   <path id="2" class="fil12" d="M1474 1255l-5 59c0,3 0,5 0,6 1,1 1,1 2,2 1,1 2,1 5,1l-1 2 -21 -2 0 -2c2,0 3,0 4,0 1,0 1,-1 2,-2 0,-1 1,-3 1,-6l4 -40c0,-5 0,-8 0,-10 0,-1 0,-2 -1,-2 0,0 -1,-1 -2,-1 -1,0 -2,0 -3,1l-1 -2 14 -4 2 0z"/>
   <path id="3" class="fil12" d="M1502 1257l-5 60c0,2 0,4 0,5 0,1 1,2 2,2 1,1 2,1 4,2l0 1 -22 -2 0 -1c3,0 4,0 5,-1 1,0 1,-1 2,-2 0,0 1,-2 1,-5l3 -41c1,-5 1,-8 1,-9 0,-1 -1,-2 -1,-3 -1,0 -1,0 -2,0 -1,0 -2,0 -3,0l-1 -2 14 -4 2 0z"/>
   <path id="4" class="fil12" d="M1598 1336l-18 -2 -19 -33c-2,0 -3,0 -5,0 0,0 0,0 -1,0 0,0 -1,0 -1,0l-2 19c0,4 0,7 1,8 1,1 3,2 5,2l3 1 -1 1 -28 -2 0 -2 3 0c3,1 5,0 6,-2 1,-1 1,-3 2,-7l3 -43c1,-4 0,-7 0,-8 -2,-1 -3,-2 -6,-2l-2 -1 0 -1 24 2c7,0 12,1 15,3 4,1 6,3 8,6 2,3 3,6 3,10 0,4 -2,8 -5,10 -3,3 -7,5 -13,6l12 20c3,5 5,8 8,9 2,2 5,3 8,4l0 2zm-44 -39c0,1 1,1 1,1 1,0 1,0 2,0 6,0 11,-1 14,-3 4,-3 6,-6 6,-10 0,-4 -1,-8 -3,-11 -2,-2 -6,-4 -10,-4 -2,-1 -4,0 -8,0l-2 27z"/>
   <path id="5" class="fil12" d="M1610 1309c0,6 1,12 4,16 3,4 6,6 11,6 3,1 5,0 8,-1 2,-2 4,-4 6,-8l1 1c-1,4 -3,8 -7,12 -4,3 -8,4 -13,4 -5,-1 -10,-3 -13,-8 -3,-4 -5,-10 -4,-17 0,-8 3,-13 7,-17 4,-4 10,-6 16,-5 5,0 9,2 11,6 3,3 5,8 4,13l-31 -2zm0 -3l21 2c0,-3 0,-5 0,-7 -1,-1 -2,-3 -4,-4 -1,-1 -3,-2 -5,-2 -2,0 -5,0 -7,2 -2,2 -4,5 -5,9z"/>
   <path id="6" class="fil12" d="M1645 1299l14 -4 2 0 -1 10c3,-3 5,-6 8,-7 2,-2 5,-2 7,-2 5,0 9,2 11,6 3,5 5,11 4,18 0,7 -3,13 -8,18 -4,4 -9,6 -14,5 -3,0 -5,-1 -7,-1 -1,-1 -2,-2 -4,-4l-1 14c0,3 0,5 0,6 0,1 1,1 2,2 1,0 2,1 5,1l0 2 -24 -2 0 -2 2 0c1,0 3,0 4,-1 1,0 2,0 2,-1 0,-1 1,-3 1,-6l4 -42c0,-3 0,-5 0,-6 0,-1 -1,-1 -1,-2 -1,0 -2,-1 -3,-1 0,0 -1,0 -3,1l0 -2zm15 9l-2 17c0,4 0,6 0,7 1,2 2,4 3,5 2,2 4,3 7,3 3,0 6,-1 8,-3 3,-3 5,-8 5,-14 1,-7 0,-12 -3,-16 -2,-3 -4,-4 -7,-4 -2,0 -3,0 -5,0 -1,1 -3,3 -6,5z"/>
   <path id="7" class="fil12" d="M1721 1300c6,0 12,4 15,9 3,5 5,10 4,16 0,4 -1,8 -4,12 -2,4 -5,6 -9,8 -3,2 -7,3 -11,2 -7,0 -12,-3 -15,-9 -3,-5 -5,-10 -4,-16 0,-4 2,-8 4,-12 2,-4 5,-6 9,-8 3,-2 7,-2 11,-2zm-2 3c-2,0 -4,0 -6,1 -1,1 -3,3 -4,5 -2,3 -2,6 -3,10 0,6 1,12 3,17 2,5 5,8 9,8 3,0 6,-1 9,-3 2,-3 3,-7 4,-13 0,-8 -1,-15 -4,-20 -2,-3 -5,-5 -8,-5z"/>
   <path id="8" class="fil12" d="M1762 1304l-1 10c4,-7 8,-10 12,-9 2,0 4,0 5,2 1,1 1,2 1,3 0,2 0,3 -1,4 -1,0 -2,1 -4,1 -1,0 -2,-1 -3,-2 -2,-2 -3,-2 -3,-2 -1,0 -2,0 -2,0 -2,2 -4,4 -5,7l-2 21c0,3 0,5 0,6 1,1 1,2 2,2 1,1 3,1 5,2l0 1 -23 -2 0 -1c2,0 4,-1 5,-1 1,-1 2,-1 2,-2 0,-1 0,-3 1,-5l1 -18c1,-5 1,-8 1,-9 0,-1 -1,-2 -1,-2 -1,-1 -2,-1 -2,-1 -1,0 -3,0 -4,0l0 -1 14 -5 2 1z"/>
   <path id="9" class="fil12" d="M1796 1293l-1 15 10 1 0 3 -10 -1 -3 29c0,3 0,5 1,6 1,1 2,2 3,2 1,0 2,0 3,-1 1,0 2,-1 3,-3l2 1c-2,3 -4,5 -6,6 -2,2 -4,2 -6,2 -2,0 -3,0 -5,-1 -1,-1 -2,-3 -3,-4 0,-2 0,-4 0,-7l3 -31 -7 0 0 -2c2,0 3,-1 5,-3 3,-2 4,-3 6,-6 1,-1 2,-3 4,-6l1 0z"/>
   <path id="10" class="fil12" d="M1385 1508c4,1 8,3 10,6 3,3 4,7 3,11 0,3 -1,6 -3,9 -3,3 -6,5 -10,6 -3,1 -9,1 -16,1l-32 -3 0 -2 3 0c3,1 5,0 6,-2 1,-1 2,-3 2,-7l4 -43c0,-4 0,-7 -1,-8 -1,-1 -3,-2 -6,-2l-2 -1 0 -1 29 2c5,1 9,1 12,2 5,2 9,4 11,8 2,3 3,6 3,10 0,4 -2,6 -4,9 -2,2 -5,4 -9,5zm-26 -5c2,0 3,1 5,1 1,0 3,0 5,1 4,0 8,0 10,-1 3,-1 5,-2 6,-4 2,-2 3,-4 3,-7 0,-4 -1,-7 -4,-10 -3,-3 -7,-5 -13,-6 -4,0 -7,0 -9,1l-3 25zm-2 32c3,1 7,2 11,2 6,1 10,0 14,-3 3,-2 5,-5 5,-9 0,-3 0,-5 -1,-8 -2,-2 -4,-4 -7,-6 -3,-2 -7,-3 -11,-3 -2,0 -4,0 -5,0 -2,0 -3,0 -4,0l-2 27z"/>
   <path id="11" class="fil12" d="M1423 1475c1,1 2,1 3,2 1,1 2,2 1,4 0,1 0,2 -1,3 -1,1 -3,1 -4,1 -1,0 -2,0 -3,-1 -1,-2 -2,-3 -1,-4 0,-1 0,-3 1,-3 1,-1 3,-2 4,-2zm2 24l-3 36c0,3 0,5 0,6 0,1 1,1 2,2 0,1 2,1 4,1l0 2 -22 -2 0 -2c2,0 4,0 5,0 0,0 1,-1 2,-2 0,-1 0,-3 1,-6l1 -17c1,-5 1,-8 1,-9 -1,-1 -1,-2 -1,-3 -1,0 -1,0 -2,0 -1,0 -2,0 -4,0l0 -2 14 -4 2 0z"/>
   <path id="12" class="fil12" d="M1455 1478l-5 60c-1,2 -1,4 0,5 0,1 1,2 1,2 1,1 3,1 5,2l0 1 -22 -2 0 -1c2,0 4,0 4,-1 1,0 2,-1 2,-2 1,-1 1,-2 1,-5l4 -41c0,-5 1,-8 0,-9 0,-1 0,-2 0,-3 -1,0 -1,0 -2,0 -1,-1 -2,0 -4,0l0 -2 14 -4 2 0z"/>
   <path id="13" class="fil12" d="M1483 1481l-6 59c0,3 0,5 1,6 0,1 0,1 1,2 1,0 3,1 5,1l0 2 -22 -2 0 -2c2,0 3,0 4,0 1,-1 2,-1 2,-2 1,-1 1,-3 1,-6l4 -40c0,-5 0,-9 0,-10 0,-1 0,-2 -1,-2 0,-1 -1,-1 -1,-1 -1,0 -2,0 -4,0l0 -1 13 -5 3 1z"/>
   <path id="14" class="fil12" d="M1577 1491l0 22 -2 0c-1,-7 -4,-12 -7,-15 -4,-4 -8,-5 -13,-6 -5,0 -9,1 -13,2 -3,2 -7,6 -9,10 -2,5 -4,11 -5,18 0,6 0,12 2,16 1,5 4,8 8,11 3,3 8,4 13,5 4,0 8,0 11,-2 4,-2 8,-5 12,-10l1 1c-3,6 -8,10 -12,12 -5,2 -10,3 -16,3 -11,-1 -20,-6 -25,-15 -4,-6 -5,-13 -5,-22 1,-6 3,-12 6,-18 4,-5 8,-9 14,-11 5,-3 11,-4 17,-3 5,0 9,2 14,4 1,1 2,2 3,2 1,0 1,-1 2,-1 1,-1 2,-2 2,-4l2 1z"/>
   <path id="15" class="fil12" d="M1607 1555c-5,3 -8,5 -10,5 -1,1 -3,1 -5,1 -3,0 -6,-1 -8,-4 -1,-2 -2,-5 -2,-8 0,-3 1,-4 2,-6 2,-2 4,-4 8,-6 3,-1 9,-3 17,-5l0 -2c0,-4 0,-8 -2,-9 -1,-2 -3,-3 -5,-3 -3,-1 -4,0 -5,1 -2,1 -3,2 -3,3l0 3c0,2 0,3 -1,4 -1,0 -2,1 -3,1 -2,0 -3,-1 -3,-2 -1,-1 -1,-2 -1,-3 0,-3 2,-6 5,-8 3,-2 7,-3 12,-2 4,0 7,1 10,3 2,1 3,2 4,5 0,1 0,4 0,8l-1 16c-1,4 -1,6 -1,7 0,1 0,2 1,2 0,1 0,1 1,1 0,0 1,0 1,0 1,-1 2,-2 5,-3l-1 2c-4,5 -7,7 -11,7 -1,0 -3,-1 -3,-2 -1,-1 -2,-3 -1,-6zm0 -3l1 -17c-5,1 -8,2 -9,3 -3,1 -5,3 -6,4 -2,2 -2,3 -2,5 -1,2 0,4 1,6 1,2 3,3 5,3 2,0 6,-1 10,-4z"/>
   <path id="16" class="fil12" d="M1641 1528c6,-6 11,-9 16,-9 3,1 5,1 6,3 2,1 3,3 4,6 1,2 1,5 0,9l-1 19c-1,3 -1,5 0,6 0,1 1,2 1,2 1,1 3,1 5,1l0 2 -23 -2 1 -2 1 1c2,0 3,0 4,-1 1,-1 2,-2 2,-3 0,0 0,-2 1,-4l1 -19c1,-4 0,-7 -1,-9 -1,-2 -2,-3 -5,-3 -4,0 -8,2 -12,5l-2 24c0,3 0,5 0,6 1,1 1,1 2,2 1,1 2,1 5,1l-1 2 -22 -2 0 -2 1 0c3,0 4,0 5,-1 1,-1 2,-3 2,-7l1 -16c1,-6 1,-9 1,-10 0,-1 0,-2 -1,-3 0,0 -1,0 -2,0 -1,0 -2,0 -3,0l-1 -2 14 -4 2 0 -1 10z"/>
   <path id="17" class="fil12" d="M1715 1554c-2,6 -5,10 -9,13 -3,3 -7,4 -12,3 -5,0 -9,-2 -12,-7 -4,-5 -5,-11 -5,-18 1,-7 4,-12 8,-16 5,-5 10,-6 16,-6 4,1 8,2 10,5 3,2 4,5 4,7 0,2 -1,3 -1,3 -1,1 -2,1 -4,1 -2,0 -3,-1 -4,-2 -1,-1 -1,-2 -1,-4 0,-2 0,-4 -1,-5 -1,-1 -3,-1 -5,-2 -3,0 -6,1 -8,3 -3,3 -5,7 -5,13 -1,5 0,10 2,14 3,4 6,7 11,7 3,0 6,0 8,-2 2,-2 4,-4 6,-8l2 1z"/>
   <path id="18" class="fil12" d="M1730 1544c-1,7 0,12 3,16 3,4 7,6 11,7 3,0 6,-1 8,-2 2,-1 4,-4 6,-8l1 1c-1,5 -3,9 -7,12 -3,3 -7,5 -12,4 -6,0 -10,-3 -14,-7 -3,-5 -5,-10 -4,-17 1,-8 3,-14 8,-18 4,-4 9,-5 15,-5 5,0 9,2 12,6 3,4 4,8 4,14l-31 -3zm0 -3l21 2c0,-3 -1,-5 -1,-6 -1,-2 -2,-4 -3,-5 -2,-1 -3,-2 -5,-2 -3,0 -5,1 -8,3 -2,2 -3,5 -4,8z"/>
   <path id="19" class="fil12" d="M1786 1507l-6 59c0,3 0,5 0,6 1,1 1,2 2,2 1,1 3,1 5,1l0 2 -22 -2 0 -2c2,1 3,1 4,0 1,0 2,-1 2,-2 1,-1 1,-3 1,-5l4 -41c0,-5 0,-8 0,-9 0,-1 0,-2 -1,-3 0,0 -1,0 -2,-1 0,0 -1,1 -3,1l-1 -2 14 -4 3 0z"/>
   <path id="20" class="fil12" d="M1813 1509l-5 60c0,3 0,5 0,5 1,1 1,2 2,3 1,0 2,1 5,1l-1 2 -21 -2 0 -2c2,0 3,0 4,0 1,-1 1,-1 2,-2 0,-1 1,-3 1,-6l4 -41c0,-5 0,-8 0,-9 0,-1 0,-2 -1,-2 0,-1 -1,-1 -2,-1 -1,0 -2,0 -3,0l-1 -1 14 -5 2 0z"/>
   <path id="21" class="fil12" d="M1830 1553c-1,6 0,12 3,16 3,4 7,6 11,7 3,0 6,-1 8,-2 2,-2 4,-4 6,-8l2 1c-2,4 -4,8 -7,12 -4,3 -8,5 -13,4 -6,0 -10,-3 -14,-7 -3,-5 -4,-11 -4,-18 1,-7 3,-13 8,-17 4,-4 9,-6 15,-5 5,0 9,2 12,6 3,3 4,8 4,14l-31 -3zm0 -3l21 2c0,-3 0,-5 -1,-6 -1,-2 -2,-4 -3,-5 -2,-1 -3,-2 -5,-2 -3,0 -5,1 -8,3 -2,1 -3,4 -4,8z"/>
   <path id="22" class="fil12" d="M1896 1582c-2,2 -5,3 -7,4 -2,1 -4,1 -7,1 -4,-1 -9,-3 -12,-7 -3,-5 -4,-10 -4,-17 1,-6 3,-12 8,-17 4,-5 10,-7 16,-6 4,0 7,2 9,4l1 -8c1,-5 1,-8 1,-9 -1,-2 -1,-2 -1,-3 -1,0 -1,-1 -2,-1 -1,0 -2,0 -4,1l0 -2 14 -4 2 0 -5 52c0,5 0,8 0,9 0,1 0,2 1,3 0,0 1,1 2,1 1,0 2,0 3,-1l1 2 -14 4 -2 0 0 -6zm0 -4l2 -23c0,-2 0,-4 -1,-6 -1,-2 -2,-3 -3,-4 -2,-2 -3,-2 -5,-2 -3,-1 -5,0 -8,3 -3,3 -5,8 -6,14 0,7 1,12 3,16 3,4 6,6 9,6 3,0 6,-1 9,-4z"/>
   <path id="23" class="fil12" d="M1365 1731c5,2 8,4 10,6 3,3 4,7 4,11 0,4 -2,7 -4,10 -2,2 -5,4 -9,5 -4,1 -10,2 -17,1l-31 -3 0 -2 2 1c3,0 5,-1 7,-2 0,-1 1,-4 1,-8l4 -42c0,-5 0,-7 -1,-8 -1,-2 -3,-3 -5,-3l-3 0 1 -2 28 3c6,0 10,1 13,2 5,1 8,4 11,7 2,3 3,7 3,11 -1,3 -2,6 -4,8 -3,3 -6,4 -10,5zm-25 -5c1,1 2,1 4,1 2,1 3,1 5,1 5,0 8,0 11,-1 2,0 4,-2 6,-4 1,-2 2,-4 2,-7 1,-4 -1,-7 -4,-10 -2,-3 -7,-5 -13,-5 -3,-1 -6,0 -9,0l-2 25zm-3 32c4,1 8,2 11,2 6,1 11,0 14,-2 3,-3 5,-6 6,-10 0,-2 -1,-5 -2,-7 -1,-3 -3,-5 -6,-7 -3,-1 -7,-2 -12,-3 -2,0 -4,0 -5,0 -1,0 -3,0 -3,0l-3 27z"/>
   <path id="24" class="fil12" d="M1403 1699c2,0 3,0 4,2 1,1 1,2 1,3 0,1 -1,3 -2,4 -1,0 -2,1 -3,1 -2,0 -3,-1 -4,-2 -1,-1 -1,-2 -1,-4 0,-1 1,-2 2,-3 1,-1 2,-1 3,-1zm2 24l-3 35c0,3 0,5 0,6 1,1 1,2 2,2 1,1 2,1 4,1l0 2 -22 -2 1 -1c2,0 3,0 4,-1 1,0 2,-1 2,-2 1,-1 1,-2 1,-5l2 -17c0,-5 0,-8 0,-10 0,-1 0,-2 -1,-2 0,-1 -1,-1 -2,-1 -1,0 -2,0 -3,0l-1 -1 14 -5 2 1z"/>
   <path id="25" class="fil12" d="M1435 1702l-5 59c0,3 0,5 0,6 1,0 1,1 2,2 1,0 2,1 5,1l-1 2 -22 -2 1 -2c2,0 3,0 4,0 1,-1 1,-1 2,-2 0,-1 1,-3 1,-6l4 -40c0,-6 0,-9 0,-10 0,-1 0,-2 -1,-2 0,-1 -1,-1 -2,-1 -1,0 -2,0 -3,0l-1 -1 14 -5 2 1z"/>
   <path id="26" class="fil12" d="M1463 1704l-5 59c0,3 0,5 0,6 0,1 1,2 2,2 1,1 2,1 4,1l0 2 -22 -2 0 -2c2,1 4,0 5,0 0,0 1,-1 2,-2 0,-1 1,-3 1,-5l3 -41c1,-5 1,-8 1,-9 0,-2 -1,-2 -1,-3 -1,0 -1,-1 -2,-1 -1,0 -2,0 -3,1l-1 -2 14 -4 2 0z"/>
   <path id="27" class="fil12" d="M1493 1777l0 -2 3 0c2,0 5,0 6,-2 1,-1 1,-4 2,-7l3 -43c1,-4 0,-7 0,-8 -2,-2 -3,-2 -6,-3l-2 0 0 -2 27 3c10,1 17,2 22,5 5,3 9,7 12,12 2,6 3,12 3,19 -1,9 -5,17 -11,22 -7,7 -16,9 -29,8l-30 -2zm19 -4c4,2 8,2 11,3 7,0 14,-2 19,-7 6,-4 9,-11 10,-21 0,-9 -2,-16 -6,-22 -5,-6 -11,-9 -19,-9 -3,-1 -6,-1 -10,0l-5 56z"/>
   <path id="28" class="fil12" d="M1610 1742l-2 27c-1,5 -1,8 -1,9 0,2 1,2 1,3 1,0 1,1 2,1 1,0 2,0 3,-1l1 2 -14 4 -2 0 1 -9c-5,3 -8,6 -10,7 -2,1 -4,1 -6,1 -3,0 -5,-1 -7,-3 -1,-2 -3,-4 -3,-6 -1,-2 -1,-5 0,-10l1 -20c1,-2 1,-3 0,-4 0,-1 -1,-2 -2,-2 -1,-1 -2,-1 -5,-1l1 -2 15 1 -2 30c-1,4 0,7 1,9 1,1 3,2 5,2 2,0 3,0 5,-1 2,0 4,-2 7,-4l2 -26c0,-2 0,-4 -1,-5 -1,-1 -3,-2 -6,-2l1 -2 15 2z"/>
   <path id="29" class="fil12" d="M1627 1760c-1,7 0,12 3,16 3,4 7,7 11,7 3,0 6,0 8,-2 2,-1 4,-4 6,-8l2 1c-1,5 -4,9 -7,12 -4,3 -8,5 -13,5 -6,-1 -10,-3 -13,-8 -4,-4 -5,-10 -5,-17 1,-8 3,-14 8,-18 4,-4 9,-5 15,-5 5,1 9,3 12,6 3,4 4,8 4,14l-31 -3zm0 -3l21 2c0,-3 0,-5 -1,-6 0,-2 -2,-3 -3,-5 -2,-1 -3,-1 -5,-2 -3,0 -5,1 -8,3 -2,2 -3,5 -4,8z"/>
   <path id="30" class="fil12" d="M1694 1748l-1 15 -2 0c-1,-5 -2,-8 -4,-10 -1,-2 -4,-3 -7,-4 -2,0 -4,1 -6,2 -1,1 -2,2 -2,4 0,1 0,3 1,4 1,2 3,3 6,5l7 4c6,4 9,9 9,14 -1,4 -3,7 -6,9 -3,3 -7,3 -11,3 -2,0 -5,-1 -9,-2 -1,-1 -2,-1 -2,-1 -1,0 -2,0 -2,1l-2 0 1 -16 2 0c1,5 2,9 4,11 3,3 6,4 9,4 2,0 4,0 5,-1 2,-1 3,-3 3,-5 0,-2 0,-4 -2,-6 -1,-1 -4,-4 -9,-6 -4,-3 -7,-5 -9,-7 -1,-2 -1,-5 -1,-8 0,-3 2,-6 4,-9 3,-2 7,-3 11,-2 1,0 3,0 6,1 1,1 3,1 3,1 1,0 1,0 1,0 1,0 1,-1 2,-1l1 0z"/>
   <path id="31" class="fil12" d="M1790 1803l-18 -2 -20 -33c-1,0 -3,0 -4,0 0,0 -1,0 -1,0 -1,0 -1,-1 -2,-1l-1 20c-1,4 0,6 0,8 1,1 3,2 6,2l2 0 0 2 -28 -2 0 -2 2 0c3,0 5,0 7,-2 0,-1 1,-3 1,-7l4 -43c0,-4 0,-7 -1,-8 -1,-1 -3,-2 -5,-2l-3 -1 1 -2 24 3c7,0 12,1 15,2 3,2 6,4 8,7 2,3 3,6 3,10 -1,4 -2,8 -5,10 -3,3 -7,5 -13,6l12 20c3,4 5,8 7,9 2,2 5,3 9,4l0 2zm-44 -39c0,0 1,0 1,1 1,0 1,0 1,0 7,0 12,-1 15,-3 3,-3 5,-6 6,-10 0,-4 -1,-8 -3,-11 -3,-3 -6,-4 -10,-4 -2,-1 -5,-1 -8,0l-2 27z"/>
   <path id="32" class="fil12" d="M1802 1775c-1,7 0,12 3,17 3,4 7,6 11,6 3,0 6,0 8,-2 3,-1 5,-4 6,-7l2 1c-1,4 -4,8 -7,11 -4,4 -8,5 -13,5 -5,-1 -10,-3 -13,-8 -4,-4 -5,-10 -5,-17 1,-8 4,-13 8,-17 4,-4 9,-6 15,-6 5,1 9,3 12,6 3,4 4,9 4,14l-31 -3zm0 -2l21 1c0,-2 0,-4 -1,-6 0,-2 -1,-3 -3,-4 -1,-2 -3,-2 -5,-2 -3,-1 -5,0 -7,2 -3,2 -4,5 -5,9z"/>
   <path id="33" class="fil12" d="M1837 1766l14 -4 2 0 -1 10c3,-4 5,-6 8,-7 2,-2 5,-2 7,-2 5,0 8,2 11,6 3,5 5,10 4,17 -1,8 -3,14 -8,19 -4,4 -9,5 -15,5 -2,0 -4,-1 -6,-2 -1,0 -2,-1 -4,-3l-1 14c0,3 0,5 0,6 0,0 1,1 2,2 1,0 2,1 5,1l-1 2 -23 -2 0 -2 1 0c2,0 4,0 5,-1 1,0 1,0 2,-1 0,-1 0,-3 1,-6l3 -43c1,-3 1,-4 1,-5 -1,-1 -1,-2 -2,-2 0,0 -1,-1 -2,-1 -1,0 -2,0 -3,1l0 -2zm15 9l-2 17c0,3 0,6 0,7 0,2 1,4 3,5 2,2 4,3 6,3 4,0 6,-1 9,-3 3,-3 4,-8 5,-14 0,-7 -1,-12 -3,-16 -2,-3 -4,-4 -7,-4 -2,-1 -4,0 -5,0 -1,1 -3,2 -6,5z"/>
   <path id="34" class="fil12" d="M1912 1767c7,0 12,3 16,9 3,5 4,10 4,16 0,4 -2,8 -4,11 -2,4 -5,7 -9,9 -3,2 -7,3 -11,2 -7,0 -12,-4 -16,-9 -3,-5 -4,-10 -3,-16 0,-4 1,-8 4,-12 2,-4 5,-7 9,-8 3,-2 7,-3 10,-2zm-1 3c-2,0 -4,0 -6,1 -2,1 -3,2 -5,5 -1,2 -2,6 -2,10 -1,6 0,12 2,17 3,5 6,8 10,8 3,0 6,-1 8,-3 2,-3 4,-7 4,-14 1,-7 0,-14 -3,-19 -2,-3 -5,-5 -8,-5z"/>
   <path id="35" class="fil12" d="M1954 1770l-1 10c4,-6 8,-9 12,-9 2,1 3,1 4,2 1,2 2,3 2,4 0,2 -1,3 -2,3 -1,1 -2,2 -3,2 -1,-1 -2,-1 -4,-2 -1,-2 -2,-2 -3,-2 0,0 -1,0 -2,0 -1,2 -3,4 -5,7l-2 21c0,2 0,4 1,6 0,1 1,1 2,2 1,1 3,1 5,1l-1 2 -23 -2 1 -2c2,1 4,0 5,0 1,-1 1,-1 2,-3 0,0 0,-2 0,-4l2 -18c0,-5 1,-8 0,-9 0,-1 0,-2 -1,-2 0,-1 -1,-1 -2,-1 -1,0 -2,0 -3,0l0 -2 14 -4 2 0z"/>
   <path id="36" class="fil12" d="M1988 1760l-1 15 10 1 0 3 -11 -1 -2 29c0,3 0,5 1,6 0,1 1,2 3,2 1,0 2,0 3,-1 1,0 2,-1 2,-3l2 1c-1,3 -3,5 -5,6 -2,2 -5,2 -7,2 -1,0 -3,-1 -4,-1 -1,-1 -2,-3 -3,-4 0,-2 -1,-4 0,-8l2 -30 -7 0 0 -2c2,0 4,-2 6,-3 2,-2 4,-3 6,-6 1,-1 2,-3 3,-6l2 0z"/>
  </g>
 </g>
</svg>
