<?xml version="1.0" encoding="UTF-8"?>
<!DOCTYPE svg PUBLIC "-//W3C//DTD SVG 1.1//EN" "http://www.w3.org/Graphics/SVG/1.1/DTD/svg11.dtd">
<!-- Creator: CorelDRAW X7 -->
<svg xmlns="http://www.w3.org/2000/svg" xml:space="preserve" width="3in" height="3in" version="1.1" style="shape-rendering:geometricPrecision; text-rendering:geometricPrecision; image-rendering:optimizeQuality; fill-rule:evenodd; clip-rule:evenodd"
viewBox="0 0 3000 3000"
 xmlns:xlink="http://www.w3.org/1999/xlink">
 <defs>
  <style type="text/css">
   <![CDATA[
    .fil2 {fill:#CCCCCC}
    .fil1 {fill:#FF9966}
    .fil0 {fill:#FFCC00}
    .fil3 {fill:#FFFFCC}
   ]]>
  </style>
 </defs>
 <g id="Layer_x0020_1">
  <metadata id="CorelCorpID_0Corel-Layer"/>
  <g id="_819793104">
   <path class="fil0" d="M818 93l-41 83c-11,21 -11,20 -36,25 -16,3 -34,8 -52,10 -5,5 -49,17 -57,17 -5,4 1,5 -15,4 -9,0 -17,-9 -28,-15l-96 -59c-1,-1 -8,-5 -9,-6 -9,-7 -3,-1 -8,-8 -16,-3 -25,-13 -40,-20 -14,5 -11,9 -25,13 -9,15 -106,85 -122,97 -12,9 -26,19 -39,29 0,13 9,37 13,53 6,17 31,97 31,112 9,9 5,5 9,21 10,34 4,23 -13,50 -58,94 -37,102 -90,113 -31,6 -56,15 -86,19 -15,5 -37,12 -53,9 -5,5 3,1 -10,6 -52,21 -18,-4 -33,45 -5,14 5,-3 -5,7 5,16 -1,33 -3,48l-17 138 58 37c13,0 62,31 77,40 15,8 24,12 38,19 19,10 21,15 20,41l7 19c2,9 4,15 6,24 29,126 31,36 -49,188 -13,24 -40,51 -39,74 10,6 56,70 68,86 12,15 21,27 34,46 8,11 30,31 31,44 34,3 66,-18 98,-21 5,-5 53,-18 63,-21 65,-23 42,-14 125,31 75,43 54,10 74,102 8,9 21,82 22,93l13 46 204 28 27 1c15,-17 29,-54 38,-66l8 -9c4,-21 34,-69 45,-89 11,-20 8,-25 36,-30 14,-2 46,-12 56,-7 8,-8 -2,-1 11,-8 5,-2 7,-2 11,-3 38,-12 49,-23 63,-2 13,2 58,33 69,40 17,10 64,37 68,43 16,7 17,10 29,15 22,-9 27,-27 49,-30 2,-6 0,-3 5,-9 0,0 7,-6 8,-6 14,-12 46,-37 58,-41 4,-9 23,-20 30,-26 8,-7 24,-21 36,-25 -2,-33 -21,-61 -21,-90 -8,-8 -7,-10 -9,-21 -3,-11 -5,-16 -7,-26 -6,-16 -12,-34 -14,-50 -17,-29 24,-68 56,-130 14,-28 3,-24 60,-37 20,-5 68,-21 84,-16 12,-10 61,-19 76,-21l3 -7 9 -74c1,-11 1,-19 5,-24l6 -49c2,-26 10,-60 6,-84l-25 -14c-20,-8 -43,-22 -64,-32 -20,-10 -41,-23 -60,-34 -35,-19 -36,-7 -44,-51 -4,-31 -14,-52 -18,-78 -21,-38 -11,-44 9,-74 6,-10 32,-58 41,-64 11,-27 46,-62 45,-91 -7,-3 -34,-41 -37,-48 -13,-8 -42,-50 -52,-63 -14,-20 -38,-48 -48,-68l-68 19 -72 23c-8,3 -27,9 -38,7 -20,25 -46,2 -59,-6 -127,-85 -90,-13 -122,-135l-30 -133 -102 -14c-9,0 -84,-8 -95,-16 -16,4 -20,-1 -37,-1l-50 87zm-378 118c-12,5 -99,72 -108,81 2,21 51,162 54,185 4,16 -31,52 -53,90 -64,112 -24,92 -88,108 -26,6 -144,29 -155,40 -7,11 -19,114 -19,132l177 96c9,35 9,70 21,108 35,120 52,59 -23,181 -60,101 -62,68 -10,137 13,17 27,37 41,52 20,-1 120,-34 152,-42 69,-20 17,-20 123,42 22,13 42,24 65,33 49,21 32,12 62,134 2,12 6,26 9,39 1,5 2,14 4,21l8 17c14,8 108,17 130,18 13,-14 59,-102 72,-128 5,-9 10,-19 16,-30 16,-35 27,-15 113,-38 127,-35 58,-59 205,33 89,55 41,52 172,-43 -7,-42 -31,-104 -43,-147 -20,-69 -22,-24 41,-127 84,-138 -29,-76 245,-147 4,-29 20,-109 17,-135l-177 -97c-5,-37 -11,-78 -21,-110 -10,-32 -35,-84 -27,-97 5,-10 17,-28 25,-40l75 -124c-7,-14 -68,-94 -81,-105 -39,1 -181,64 -202,49 -51,-34 -57,-46 -124,-76 -13,-7 -34,-13 -47,-23 -14,-41 -32,-169 -49,-195 -31,-7 -67,-10 -102,-14 -34,-6 -28,-11 -62,55 -15,27 -29,52 -43,77 -28,51 -9,38 -69,49 -44,8 -96,23 -136,39 -21,10 -21,4 -40,-8l-148 -90z"/>
   <path class="fil0" d="M2297 665c-4,18 -41,125 -54,131 -18,10 -43,14 -65,26 -12,6 -20,13 -34,10 -10,-1 -23,-9 -28,-15 -11,-1 -11,-1 -23,-7 -8,-3 -4,-1 -9,-4 -10,-8 -1,1 -3,-3 -26,-8 -55,-29 -77,-26 -4,10 -102,105 -109,108 3,28 23,53 31,81 6,6 5,6 6,16 9,8 13,21 17,33 9,19 4,21 -4,37 -6,13 -25,63 -31,71 -3,9 6,2 -10,10 -4,3 -10,4 -13,5 -11,3 -18,6 -29,11l-73 26 -12 3c-10,18 -5,51 -5,75l0 72 1 23 16 8c22,5 66,24 88,32 47,21 30,-3 55,64 17,47 33,34 9,84 -8,16 -26,66 -37,77l-9 26c12,19 41,43 58,61 12,12 44,47 59,56 26,-10 50,-22 75,-31 26,-10 62,-37 70,-22 14,1 29,11 43,16 9,4 40,14 44,16 10,7 34,75 34,88l4 6c10,14 11,28 16,38 9,19 -1,6 10,12l162 0 19 -46c4,-18 21,-67 30,-86 6,-15 20,-15 37,-20 15,-7 24,-12 40,-17 6,-5 21,-15 35,-10 9,3 27,9 32,16l98 40c11,-9 107,-102 116,-117 -13,-33 -33,-66 -41,-97 -6,-7 -17,-27 -18,-38 -1,-7 9,-28 14,-31 6,-16 12,-33 18,-48 8,-26 4,-20 31,-31 26,-10 64,-27 89,-33l29 -12 -2 -168c-27,-14 -79,-29 -110,-41 -33,-12 -28,-8 -38,-37 -5,-13 -20,-43 -20,-53 -15,-13 -14,-22 -5,-38l53 -122c-7,-10 -102,-107 -116,-117l-33 13c-4,6 -17,10 -27,13 -12,6 -17,10 -27,11l-22 12c-18,9 -37,22 -60,-5 -15,0 -28,-9 -46,-16 -26,-8 -22,-2 -31,-29 -7,-19 -32,-71 -32,-91 -10,-10 -2,-3 -9,-16 -6,-13 0,-7 -9,-13l-164 1 -4 12zm-274 170c-13,8 -22,21 -35,33 -8,8 -26,25 -32,33 3,21 32,76 42,99 9,22 19,25 7,46 -19,34 -32,61 -41,99 -9,33 -10,22 -40,34 -26,11 -82,28 -100,41l0 93c32,13 68,28 103,40 48,18 18,0 55,86 6,14 15,31 23,46 12,20 1,28 -8,49 -9,19 -40,81 -41,97 24,20 42,47 67,65 31,-10 65,-28 95,-42 66,-29 30,2 146,34 30,8 24,8 35,38 13,32 25,69 39,101 19,4 72,4 94,1 12,-16 32,-78 40,-101 22,-56 7,-20 85,-57 74,-33 51,-37 95,-16 25,11 73,36 98,42 13,-9 60,-57 66,-68 -6,-24 -30,-69 -42,-95 -27,-60 1,-30 36,-149 7,-27 10,-22 36,-31 32,-12 72,-31 104,-40l0 -93c-11,-7 -85,-35 -101,-41 -25,-9 -33,-4 -39,-30 -8,-32 -25,-73 -42,-100 -10,-19 -12,-13 6,-51 11,-22 40,-80 41,-101 -24,-17 -41,-45 -65,-62 -79,22 -114,68 -148,49 -31,-19 -65,-33 -99,-42 -25,-7 -22,-17 -32,-41 -48,-120 -11,-98 -133,-98l-47 123c-9,21 -23,11 -75,34 -69,29 -51,39 -94,19l-99 -44z"/>
   <path class="fil1" d="M653 880c0,130 99,221 217,221 122,0 217,-97 217,-221 0,-112 -94,-213 -220,-213 -112,0 -214,93 -214,213z"/>
   <path class="fil2" d="M1160 663c4,12 16,27 23,39 65,106 65,247 7,353 -55,102 -164,191 -323,191 -194,1 -360,-162 -360,-351 1,-126 34,-143 44,-189 -7,-8 -49,-30 -61,-33 -37,49 -55,155 -55,228 0,135 88,271 179,335 21,15 46,30 66,40 288,137 625,-70 625,-392 0,-93 -38,-202 -88,-260 -13,2 -19,9 -29,17 -9,8 -18,14 -28,22z"/>
   <path class="fil2" d="M2150 1369l-43 17c6,41 65,99 90,119 136,114 346,74 439,-62 123,-181 34,-408 -156,-469 -21,-8 -73,-18 -93,-13 -2,54 -11,44 35,51 175,25 279,219 184,385 -76,133 -285,184 -420,28 -17,-19 -23,-40 -36,-56z"/>
   <path class="fil2" d="M2090 1201l46 9c27,-97 90,-169 188,-193 0,-16 -5,-37 -11,-47 -54,6 -120,53 -147,82 -16,16 -35,42 -47,64 -8,13 -13,26 -19,39l-11 34c0,1 0,2 0,3l1 9z"/>
   <polygon class="fil2" points="2086,1337 2135,1328 2128,1267 2080,1266 "/>
   <path class="fil1" d="M2234 1259c0,214 304,206 304,8l0 -3c0,-46 -16,-76 -40,-102 -85,-97 -264,-41 -264,97z"/>
   <path class="fil2" d="M686 495l28 58c35,-3 143,-67 292,-5 41,17 88,51 95,53 14,-18 32,-37 40,-53 -14,-21 -84,-58 -110,-68 -102,-40 -226,-42 -327,3 -14,5 -12,2 -18,12z"/>
   <path class="fil2" d="M533 614c19,11 36,33 55,41 32,-32 12,-19 59,-56 -5,-19 -29,-44 -40,-58 -20,9 -66,51 -74,73z"/>
   <polygon class="fil3" points="1827,2247 1868,2255 1873,2196 1831,2195 "/>
   <path class="fil0" d="M1426 1747c-15,-5 -12,-6 -24,-15 -19,6 -33,19 -51,29l-67 45c0,24 11,62 17,87 10,51 8,30 -17,67 -18,27 -17,42 -53,48 -25,3 -63,13 -88,9 -10,10 -10,2 -16,21l-5 24c-1,0 -2,2 -2,2 0,-1 -1,1 -1,2 2,17 -7,35 -9,50l-7 46c10,3 38,21 48,28 81,56 48,27 63,88 2,8 8,26 7,33 0,18 -12,21 -16,23l1 -1c-6,15 -30,47 -42,62 -3,4 -5,8 -9,11l-7 8c2,13 29,50 38,67 11,12 27,41 33,53 29,-4 64,-12 92,-18 52,-10 37,-2 71,21 35,22 37,14 44,60 4,28 8,61 11,91 10,0 46,5 53,13 21,-1 58,10 81,14 14,-8 5,-8 16,-17 8,-17 24,-38 35,-55 19,-29 10,-31 49,-37 24,-3 55,-16 72,-4 12,8 42,29 48,41 13,2 30,19 41,27l22 -9c10,-12 34,-24 50,-35 16,-12 35,-20 45,-33l-6 -40 -4 -26c-6,-5 0,3 -4,-6 -24,-66 6,-61 27,-100 17,-27 10,-25 47,-28 25,-4 47,-8 71,-10 20,-2 21,-1 27,-21l25 -120c-17,-7 -39,-24 -55,-35 -63,-42 -49,-18 -58,-87 -9,-35 -11,-29 -1,-45 16,-25 70,-83 66,-101 -4,-1 -64,-89 -66,-103 -28,-4 -61,9 -89,12 -7,5 -37,12 -48,4 -12,-7 -26,-20 -39,-30 -21,-13 -28,-9 -31,-37 -3,-20 -7,-40 -9,-59 -1,-10 -2,-20 -4,-29 -4,-18 -3,-13 -12,-22 -38,3 -86,-24 -128,-22 -16,19 -29,43 -42,62 -34,52 -9,35 -100,54 -19,3 -23,-4 -35,-13l-55 -44zm-29 37c-21,7 -42,30 -66,38 1,26 12,72 19,98 9,42 -13,26 -55,102 -11,20 -7,19 -33,24 -100,14 -100,-7 -112,91 11,10 34,24 49,34 76,51 39,18 57,101 4,21 18,44 8,61 -12,21 -58,67 -64,87 9,17 29,51 42,65 23,0 46,-7 66,-11 11,-2 18,-4 29,-6 16,-4 18,-7 30,2 29,21 41,41 92,62 2,26 9,98 19,116 7,10 64,18 76,20l57 -87c13,-19 31,-13 54,-16 23,-3 39,-8 60,-13 25,-6 57,27 90,51 23,18 18,19 42,2 18,-11 28,-17 45,-29 0,-21 -12,-70 -18,-93 -11,-45 11,-26 52,-102 12,-21 7,-21 33,-25 23,-4 77,-8 98,-15l17 -76c-16,-19 -76,-50 -100,-69 -2,-66 -24,-111 -14,-129 14,-22 56,-65 63,-88 -11,-19 -27,-40 -37,-62 -26,-2 -73,10 -99,16 -42,10 -19,-7 -99,-53 -21,-11 -23,-7 -26,-32 -4,-21 -9,-82 -17,-97l-75 -19c-25,27 -55,97 -73,101 -16,3 -39,3 -56,7 -51,8 -46,23 -84,-6 -19,-14 -51,-40 -70,-50z"/>
   <path class="fil1" d="M1583 2077c-167,58 -89,288 66,247 107,-28 130,-170 37,-232 -22,-14 -70,-27 -103,-15z"/>
   <path class="fil2" d="M1561 2449l8 -36 -13 -7c-4,-1 -8,-2 -13,-5 -154,-55 -183,-258 -74,-355 134,-123 327,-42 358,115l41 -9c-30,-192 -283,-279 -429,-136 -163,159 -45,413 122,433z"/>
   <path class="fil2" d="M1625 2414l-4 43c52,0 105,-20 141,-45 27,-19 78,-69 85,-105l-38 -17c-16,52 -72,95 -119,111 -28,10 -39,9 -65,13z"/>
  </g>
 </g>
</svg>
