<?xml version="1.0" encoding="UTF-8"?>
<!DOCTYPE svg PUBLIC "-//W3C//DTD SVG 1.1//EN" "http://www.w3.org/Graphics/SVG/1.1/DTD/svg11.dtd">
<!-- Creator: CorelDRAW X7 -->
<svg xmlns="http://www.w3.org/2000/svg" xml:space="preserve" width="3in" height="3in" version="1.1" style="shape-rendering:geometricPrecision; text-rendering:geometricPrecision; image-rendering:optimizeQuality; fill-rule:evenodd; clip-rule:evenodd"
viewBox="0 0 3000 3000"
 xmlns:xlink="http://www.w3.org/1999/xlink"
 enable-background="new 0 0 512 512">
 <defs>
  <style type="text/css">
   <![CDATA[
    .str0 {stroke:black;stroke-width:13.8858}
    .fil4 {fill:#155F69}
    .fil7 {fill:#1E7882}
    .fil9 {fill:#5BB171}
    .fil6 {fill:#6C7A85}
    .fil10 {fill:#8A9AA0}
    .fil12 {fill:#C85E5B}
    .fil3 {fill:#CBD8DF}
    .fil0 {fill:#CBD8DF}
    .fil8 {fill:#CE8F3B}
    .fil11 {fill:#E4A43E}
    .fil2 {fill:#E5BC94}
    .fil13 {fill:#F0F0ED}
    .fil15 {fill:#FDD57A}
    .fil5 {fill:white}
    .fil1 {fill:white}
    .fil14 {fill:#2980BA;fill-rule:nonzero}
   ]]>
  </style>
 </defs>
 <g id="Layer_x0020_1">
  <metadata id="CorelCorpID_0Corel-Layer"/>
  <g id="_829479648">
   <rect class="fil0" x="1880" y="603" width="659" height="1053" rx="32" ry="32"/>
   <path class="fil1" d="M768 1616c12,-13 15,-31 19,-50 5,-29 1,-101 2,-135 1,-53 34,11 65,-45l-63 -1 -1 -221 283 0 0 220 -117 1 9 25 107 0c6,25 6,204 -1,223l-130 0 -4 26 137 -1 -2 219c-15,16 -127,2 -158,6 -25,3 -11,-7 -18,12 5,15 -2,7 14,11l173 0c80,0 548,4 586,-3 22,-15 28,-20 28,-72l0 -1094c1,-100 -18,-91 -110,-91 -99,0 -771,-5 -790,4 -40,19 -28,117 -28,168 0,69 4,749 -1,798z"/>
   <path class="fil1" d="M716 411c-4,109 0,225 0,335 0,110 -5,986 3,1015 10,-25 50,-112 49,-145 5,-49 1,-729 1,-798 0,-51 -12,-149 28,-168 19,-9 691,-4 790,-4 92,0 111,-9 110,91l0 1094c0,52 -6,57 -28,72 -28,15 -682,6 -772,6l-5 53c63,1 828,7 849,-4 33,-19 21,-102 21,-150l0 -1371c0,-75 -45,-57 -111,-57 -53,0 -118,-3 -169,1 5,17 -1,32 -7,44 -31,6 -441,7 -470,0 -16,-9 -14,-31 -12,-44 -46,-4 -107,-1 -155,-1 -89,0 -110,-11 -122,31z"/>
   <path class="fil2" d="M434 1804c-10,9 -19,75 -19,95 -1,37 -6,69 -10,102 -15,117 -5,149 -53,261l264 113c28,12 67,24 90,38 4,-23 16,-33 22,-56l46 33c-14,9 -28,0 -45,4 2,55 -8,3 31,41 6,7 -5,2 10,9l22 -27c7,-6 15,-13 12,-36 -3,-24 -7,-21 -20,-29 -9,-6 -20,-15 -23,-17 13,-9 19,5 40,-9 -3,-28 12,-22 -22,-23 -3,-21 -7,-20 8,-45l3 -10c70,20 102,108 61,184l-4 8c-22,31 -58,52 -96,45l-23 -6c-1,0 -2,-1 -4,-1 -7,13 -12,23 -9,39 39,23 75,11 114,-3 16,-8 15,-15 28,-28 28,-26 8,-3 25,-35 33,-61 31,-158 -23,-205 -7,-7 -9,-8 -15,-13l-24 -21c-6,-4 -9,-3 -9,-3l10 -18c15,-38 44,-96 49,-134l231 1 -229 -2 20 -94 5 -53c90,0 744,9 772,-6 -38,7 -506,3 -586,3l-173 0c-16,-4 -9,4 -14,-11 7,-19 -7,-9 18,-12 31,-4 143,10 158,-6 -27,8 -139,3 -175,3l4 -67c10,-87 9,-47 22,-106 5,-21 6,-33 14,-48l4 -26 130 0c7,-19 7,-198 1,-223l-107 0 -9 -25c-15,-15 -25,-24 -51,-25 -11,-1 -21,2 -31,8 -10,6 -15,11 -20,18 -31,56 -64,-8 -65,45 -1,34 3,106 -2,135 -4,19 -7,37 -19,50 1,33 -39,120 -49,145 -8,-29 -3,-905 -3,-1015 0,-110 -4,-226 0,-335 -4,8 -9,1242 -2,1355l-60 -2 1 -1444c-10,30 -3,240 -3,289 0,97 1,195 0,291 -2,96 -2,195 -2,291 0,94 -3,197 2,290l-36 33c-35,35 -30,23 -67,70 -33,42 -24,18 -53,77 -20,40 -57,92 -62,143z"/>
   <path class="fil2" d="M2285 1448c1,27 -6,80 0,110 4,26 11,67 11,100 2,46 27,258 2,287 -22,-6 -25,-23 -38,-42 -9,-16 -15,-30 -24,-48 -15,-29 -51,-68 -89,-36 -34,29 -9,74 6,105l71 152c19,45 47,222 86,276 15,21 48,71 67,84 1,4 -5,6 21,3 119,-14 258,-49 388,-64 14,-42 22,-138 19,-185 -3,-58 -13,-364 -32,-396 -12,-20 -41,-40 -70,-28 -35,15 -27,41 -39,64 -4,-47 4,-94 -31,-118 -41,-29 -71,7 -92,39 -4,-51 -4,-88 -44,-103 -20,-8 -41,-3 -52,5 -14,9 -15,26 -26,41 -11,-21 -5,-66 -5,-95 -3,-6 -2,-16 -1,-18l-8 -116c14,5 9,26 12,19 0,0 0,3 1,4 16,-28 -5,-8 25,-29 -2,-1 -3,-1 -4,-2 -1,0 -3,-1 -4,-1 0,-1 -2,-2 -3,-2 -4,-3 -1,6 -11,-16l-5 0c-9,19 -2,12 -13,15 -11,-84 -26,-59 -29,-75 -1,-1 -2,-2 -3,-3l-17 -4c-37,-7 -13,14 -49,-6l-1 6c-1,35 -25,23 -19,77z"/>
   <path class="fil3" d="M1902 892l-2 127c7,21 0,32 -1,54 -2,24 2,37 5,59 4,43 -10,73 -3,118 7,49 -4,69 -2,113 0,23 5,35 5,59 0,19 -13,135 6,164 17,25 145,11 163,10 24,0 37,3 59,5 39,3 79,-6 123,-4l0 61 41 0c0,-33 -7,-74 -11,-100 -6,-30 1,-83 0,-110l-30 0c11,-108 -26,-117 50,-117 19,1 33,-2 48,4l1 36 17 4c-3,-46 -10,-44 43,-44 60,1 55,-14 54,46 -1,60 5,147 -2,203l-53 1c-1,2 -2,12 1,18 38,7 67,-9 104,-9 1,-95 -9,-49 -17,-68l-1 -59c13,-11 -18,-9 18,-9 1,-95 -9,-49 -17,-68l-1 -59c13,-11 -18,-9 18,-9 0,-14 1,-28 1,-41 0,-26 -12,-20 -14,-25 -1,-2 -3,-1 -4,-2l-1 -59c13,-11 -18,-9 18,-9 1,-66 5,-53 -17,-68l0 -60c11,-10 -19,-9 17,-9 1,-95 -9,-49 -17,-68l-1 -59c13,-11 -18,-9 18,-9l0 -59 -16 0 0 40 -600 2z"/>
   <path class="fil4" d="M688 287c-23,3 -29,7 -33,33l-1 1444 60 2c-7,-113 -2,-1347 2,-1355 12,-42 33,-31 122,-31 48,0 109,-3 155,1 -2,13 -4,35 12,44 29,7 439,6 470,0 6,-12 12,-27 7,-44 -13,-10 -14,-21 -19,-42 -4,-18 -8,-26 -3,-38l-6 -16c-5,-36 24,-40 -8,-67l-82 -3c2,-69 -15,-95 -49,-132 -16,-17 -3,-6 -21,-16 -89,-50 -186,15 -186,149 -31,0 -62,-3 -86,5 -11,23 1,39 2,66l-336 0z"/>
   <path class="fil4" d="M1482 381c51,-4 116,-1 169,-1 66,0 111,-18 111,57l0 1371c0,48 12,131 -21,150 -21,11 -786,5 -849,4l-20 94 229 2 30 -2 75 1 60 -1 76 -1 34 1 3 27c26,-41 33,-28 151,-28 -15,26 -96,86 -119,112 45,-5 34,5 102,-60 61,-58 51,-51 109,-51 2,13 -13,56 -10,96l69 -5c-29,-16 -26,-43 -17,-70 8,-23 -4,-13 14,-22 21,0 34,-2 54,4 -13,16 -45,17 -37,46 21,3 16,-1 34,-6 34,-8 29,12 96,-32 -12,-33 -12,-7 -4,-47l2 -195 -1 -38 0 -91c18,9 28,22 39,35l19 -17c-6,-4 -44,-41 -50,-49 -14,-19 -7,-61 -7,-88 0,-64 1,-128 0,-191 -1,-126 -3,-259 0,-385l-1 -164c1,-154 -3,-310 0,-464 2,-104 -4,-87 -144,-86 -51,0 -182,6 -224,-2l6 16c-5,12 -1,20 3,38 5,21 6,32 19,42z"/>
   <path class="fil5" d="M1339 2226c-7,4 -24,18 -28,24 -7,10 -14,75 -74,74l13 169c65,2 64,44 83,84 89,-3 190,-12 277,-21 89,-8 186,-9 275,-23 -2,-70 31,-82 69,-98l-9 -165c-34,-3 -44,-6 -59,-25 -15,-19 -13,-27 -19,-44l-7 -18 -521 43z"/>
   <path class="fil6" d="M1900 838l2 54 600 -2 0 -40c0,-45 2,-91 1,-136 -2,-43 11,-89 -39,-91 -81,-4 -177,-1 -259,-1 -302,4 -308,-31 -305,87 2,42 1,87 0,129z"/>
   <path class="fil7" d="M74 2839c10,9 13,9 23,10l255 -1 18 -54c3,-11 6,-18 9,-27l93 -286c0,-1 1,-4 1,-5l15 -50c-37,-11 -87,-35 -123,-50 -168,-70 -126,-60 -174,80l-117 383z"/>
   <path class="fil4" d="M74 2839l-2 13 567 2 70 -216c7,-26 19,-49 25,-75 10,-49 -73,-63 -108,-80 -42,-21 -99,-36 -138,-57l-15 50c0,1 -1,4 -1,5l-93 286c-3,9 -6,16 -9,27l-18 54 -255 1c-10,-1 -13,-1 -23,-10z"/>
   <path class="fil7" d="M2618 2515c-7,6 0,1 -9,6 -4,1 -9,2 -14,5l46 322 305 0 -44 -326c-7,-67 -46,-48 -125,-32l-159 25z"/>
   <path class="fil4" d="M2946 2848l-305 0 -46 -322c5,-3 10,-4 14,-5 9,-5 2,0 9,-6 -54,8 -108,18 -161,27 -190,32 -169,-23 -117,312l595 -2c12,-2 4,1 11,-4z"/>
   <path class="fil8" d="M1029 2639c20,-1 46,41 115,21 21,-6 33,-16 49,-29 13,-10 22,-30 34,-37 15,-36 24,-60 23,-101l-13 -169c60,1 67,-64 74,-74 4,-6 21,-20 28,-24 7,-15 12,-24 21,-34 3,-20 10,-30 14,-51 4,-20 2,-39 5,-58l-3 -27 -34 -1c16,68 1,157 -71,180 -48,14 -95,0 -121,-40 -23,-34 -28,-64 -26,-105 1,-22 1,-17 7,-34l-30 2c-11,57 -8,95 18,142 29,55 54,52 91,73l6 117c-12,-7 -13,-11 -23,-20 -61,-55 -149,-39 -190,26 -59,92 -29,168 26,243z"/>
   <path class="fil3" d="M1945 686l0 148c21,17 75,10 110,10l390 0c10,-16 15,-10 15,-30 0,-45 2,-87 -2,-130 -22,-10 -257,-5 -290,-6 -31,0 -204,-3 -223,8z"/>
   <path class="fil5" d="M166 1027c-20,84 16,96 10,125 -1,6 -5,14 -7,17 0,2 -4,9 -5,10l-7 12c-9,-2 -70,-1 -89,8 -21,9 -50,35 -57,55l259 150c10,-91 3,-99 -33,-158 -16,-25 -3,-31 1,-60 28,-8 52,-10 73,-31 24,-23 3,-16 31,-27 15,-6 17,0 25,-24 4,-12 19,-91 -1,-124 -23,-38 -6,-47 -36,-67 -23,-16 -65,-43 -114,-11 -18,11 -78,94 -58,116l8 9z"/>
   <path class="fil9" d="M1360 2192c-9,10 -14,19 -21,34l521 -43 7 18c6,17 4,25 19,44 15,19 25,22 59,25l9 165c-38,16 -71,28 -69,98 -89,14 -186,15 -275,23 -87,9 -188,18 -277,21 -19,-40 -18,-82 -83,-84 1,41 -8,65 -23,101l0 24c64,-1 129,-12 197,-16 170,-10 348,-30 522,-40 10,-1 16,0 25,-2l15 -5c7,-18 -18,-358 -21,-408 -32,-11 -528,47 -605,45z"/>
   <polygon class="fil5" points="1094,1883 1376,1883 1376,1658 1094,1658 "/>
   <path class="fil5" d="M1395 1883c52,-1 235,6 268,-4 20,-11 14,-73 14,-102 0,-39 -2,-80 0,-118l-282 -1 0 225z"/>
   <path class="fil5" d="M1071 1138l1 -222 -281 0 -1 189c0,32 -7,34 24,34 84,0 174,2 257,-1z"/>
   <path class="fil1" d="M790 891l284 0 -1 -222 -249 -1c-24,0 -30,9 -33,32l-1 191z"/>
   <path class="fil5" d="M1094 1139l282 -1c0,-42 5,-193 -3,-222l-276 0 -3 223z"/>
   <polygon class="fil5" points="1094,1633 1376,1633 1376,1599 1376,1504 1376,1454 1376,1411 1094,1411 "/>
   <polygon class="fil5" points="1395,1633 1677,1633 1676,1613 1677,1431 1677,1411 1395,1411 "/>
   <path class="fil5" d="M1395 891l282 -1c-1,-38 0,-78 0,-117 0,-150 12,-95 -282,-105l0 223z"/>
   <polygon class="fil5" points="1094,1368 1095,1386 1375,1385 1376,1182 1376,1164 1094,1164 "/>
   <polygon class="fil5" points="1396,1139 1675,1138 1677,916 1397,916 "/>
   <path class="fil5" d="M1395 1368l0 18c91,-3 190,2 281,-1l1 -221 -282 0 0 204z"/>
   <path class="fil5" d="M854 1386c5,-7 10,-12 20,-18 10,-6 20,-9 31,-8 26,1 36,10 51,25l117 -1 0 -220 -283 0 1 221 63 1z"/>
   <path class="fil9" d="M1574 2238c-111,30 -130,178 -55,256 83,88 221,-6 199,-139 -12,-67 -66,-137 -144,-117z"/>
   <path class="fil5" d="M1086 2379c-31,8 -50,24 -64,50 -13,24 -21,61 -16,92 17,119 139,142 191,55 56,-94 -7,-225 -111,-197z"/>
   <path class="fil9" d="M1726 2140c41,19 125,-31 156,-51 21,-13 49,-25 67,-37 18,-11 58,-29 67,-37 25,25 20,57 100,45 22,39 35,97 55,139 -40,35 -44,49 -35,117 -46,29 -94,46 -137,78l0 28 237 -128 -140 -355c-35,17 -60,33 -92,51 -32,17 -57,32 -91,49l-137 76c-2,1 -5,3 -6,4 -17,10 -21,15 -44,21z"/>
   <path class="fil5" d="M1072 1877l2 -219 -137 1c-8,15 -9,27 -14,48 -13,59 -12,19 -22,106l-4 67c36,0 148,5 175,-3z"/>
   <path class="fil8" d="M1093 2393c-23,8 -38,10 -58,44 -52,87 18,199 102,170 118,-42 61,-247 -44,-214z"/>
   <path class="fil1" d="M942 1630l130 0 -1 -217 -106 1c20,67 -11,158 -23,216z"/>
   <path class="fil10" d="M2371 1375c1,1 2,2 3,3 3,16 18,-9 29,75 11,-3 4,4 13,-15l5 0c10,22 7,13 11,16 1,0 3,1 3,2 1,0 3,1 4,1 1,1 2,1 4,2 -30,21 -9,1 -25,29 -1,-1 -1,-4 -1,-4 -3,7 2,-14 -12,-19l8 116 53 -1c7,-56 1,-143 2,-203 1,-60 6,-45 -54,-46 -53,0 -46,-2 -43,44z"/>
   <path class="fil9" d="M1822 1787l1 38c14,-7 15,-8 23,-21 29,31 55,55 104,20l45 67c9,15 31,43 33,60 0,0 0,2 0,2l27 -9c-4,-20 -58,-98 -69,-117 -12,-19 -25,-36 -38,-57l-38 -59c-15,15 -71,68 -88,76z"/>
   <path class="fil11" d="M706 2413c31,19 15,20 25,52 31,9 46,14 76,-6 66,-44 62,-133 14,-180 -14,-14 -18,-9 -34,-21 -15,25 -11,24 -8,45 34,1 19,-5 22,23 -21,14 -27,0 -40,9 3,2 14,11 23,17 13,8 17,5 20,29 3,23 -5,30 -12,36l-22 27c-15,-7 -4,-2 -10,-9 -39,-38 -29,14 -31,-41 17,-4 31,5 45,-4l-46 -33c-6,23 -18,33 -22,56z"/>
   <path class="fil10" d="M2369 1038c112,0 102,25 99,-97l-1 -17c-21,-6 -57,-3 -81,-3 -25,0 -16,39 -16,55 0,24 0,36 -1,62z"/>
   <path class="fil10" d="M2030 1448c29,2 65,5 93,-1 11,-28 3,-83 5,-116 -36,0 -89,-6 -96,10 -4,10 -2,90 -2,107z"/>
   <path class="fil10" d="M2373 1301c13,2 84,7 93,-6 7,-22 7,-86 -2,-106 -16,-3 -54,-3 -73,-2 -27,2 -21,11 -21,32 0,25 -6,55 3,82z"/>
   <path class="fil10" d="M2375 1057c-14,26 -2,80 -6,114l97 0c4,-41 2,-61 2,-103 0,-20 -17,-13 -41,-13 -17,0 -38,-1 -52,2z"/>
   <path class="fil10" d="M2030 1038c30,0 68,5 96,-3l1 -113c-126,-9 -94,-1 -97,116z"/>
   <path class="fil10" d="M2144 1086l-1 86c115,-4 97,33 97,-116 -101,-5 -96,-5 -96,30z"/>
   <path class="fil10" d="M2256 1304c47,-4 89,5 96,-8 5,-20 6,-88 -1,-106 -18,-5 -85,-9 -92,6 -6,11 -3,90 -3,108z"/>
   <path class="fil10" d="M2142 1450l97 -1 1 -116c-114,-9 -97,2 -96,48 0,24 1,45 -2,69z"/>
   <path class="fil10" d="M2030 1581c30,0 70,7 96,-5l1 -112c-128,0 -94,-12 -97,117z"/>
   <path class="fil10" d="M2030 1171c29,1 70,7 96,-4l1 -111c-17,-1 -33,-1 -50,-1 -22,0 -39,-5 -45,9 -4,9 -2,90 -2,107z"/>
   <path class="fil10" d="M2255 1038c17,0 33,0 50,1 21,0 32,3 46,-7l3 -108c-22,-6 -57,-3 -81,-3 -29,0 -12,61 -18,117z"/>
   <path class="fil10" d="M2255 1172l99 -1 0 -114c-16,-3 -32,-2 -49,-2 -79,0 -38,9 -50,117z"/>
   <path class="fil10" d="M2142 1581l97 0c2,-25 1,-55 1,-82 1,-45 3,-35 -44,-35 -37,0 -52,-10 -52,31 -1,29 1,56 -2,86z"/>
   <path class="fil10" d="M2142 1040c39,-4 80,5 97,-9l1 -108c-29,-5 -50,-2 -81,-2 -22,0 -15,28 -15,52 0,23 1,44 -2,67z"/>
   <path class="fil10" d="M2030 1304c29,-3 78,4 96,-5l1 -112c-17,1 -33,1 -50,0 -20,0 -38,-4 -44,9 -6,12 -3,89 -3,108z"/>
   <path class="fil10" d="M1927 1188c-14,24 -7,81 -5,112 13,4 81,6 89,0 10,-8 6,-95 4,-113l-88 1z"/>
   <path class="fil10" d="M2143 1304c24,-2 37,-2 56,-2 44,0 44,25 40,-113 -14,-2 -33,-1 -48,-2 -69,0 -42,2 -48,117z"/>
   <polygon class="fil10" points="1920,1040 2014,1038 2017,921 1924,921 "/>
   <path class="fil12" d="M1925 1579l89 0c3,-15 5,-86 3,-102 -4,-19 -17,-14 -39,-13 -18,0 -36,-1 -53,1 -6,19 -7,99 0,114z"/>
   <path class="fil10" d="M1920 1173c29,-2 65,3 94,-5l3 -114 -93 1 -4 118z"/>
   <path class="fil12" d="M1925 1447l89 0 3 -113 -94 -3c-2,24 -6,104 2,116z"/>
   <path class="fil13" d="M1219 100c-68,41 -19,134 35,109 25,-11 38,-45 30,-73 -7,-22 -32,-56 -65,-36z"/>
   <polygon class="fil1" points="1472,808 1617,807 1616,750 1472,750 "/>
   <path class="fil10" d="M2285 1448c-6,-54 18,-42 19,-77l1 -6c36,20 12,-1 49,6l-1 -36c-15,-6 -29,-3 -48,-4 -76,0 -39,9 -50,117l30 0z"/>
   <path class="fil13" d="M2380 2675c-29,9 -36,36 -31,57 2,9 12,25 16,29 8,8 22,13 37,8 45,-15 36,-112 -22,-94z"/>
   <polygon class="fil1" points="1157,1050 1293,1051 1293,1004 1157,1005 "/>
   <path class="fil13" d="M571 2680c-57,21 -29,107 18,92 55,-18 27,-109 -18,-92z"/>
   <polygon class="fil1" points="836,1038 1012,1040 1013,1007 835,1005 "/>
   <path class="fil13" d="M601 2562c-50,27 -15,110 32,86 41,-21 21,-115 -32,-86z"/>
   <polygon class="fil1" points="1160,800 1306,799 1305,766 1162,766 "/>
   <polygon class="fil1" points="874,1291 990,1290 991,1252 874,1250 "/>
   <polygon class="fil1" points="1161,1516 1304,1516 1307,1486 1161,1486 "/>
   <polygon class="fil1" points="856,817 953,818 953,778 857,778 "/>
   <path class="fil14" d="M784 589l17 0c9,0 15,1 19,3 4,1 7,4 10,8 2,4 3,8 3,13 0,6 -1,11 -4,14 -3,4 -8,7 -13,8 -3,1 -8,2 -16,2l0 34 -16 0 0 -82zm16 32l5 0c4,0 6,0 8,0 2,-1 3,-2 4,-3 1,-1 1,-3 1,-5 0,-3 -1,-5 -4,-7 -2,-1 -5,-1 -10,-1l-4 0 0 16z"/>
   <path id="1" class="fil14" d="M873 589l16 0 32 82 -17 0 -6 -17 -34 0 -6 17 -16 0 31 -82zm8 22l-11 28 22 0 -11 -28z"/>
   <polygon id="2" class="fil14" points="925,589 970,589 970,605 955,605 955,671 939,671 939,605 925,605 "/>
   <polygon id="3" class="fil14" points="981,589 997,589 997,620 1024,620 1024,589 1040,589 1040,671 1024,671 1024,635 997,635 997,671 981,671 "/>
   <path id="4" class="fil14" d="M1097 587c12,0 22,5 30,13 8,8 13,19 13,31 0,12 -4,22 -13,30 -8,8 -18,12 -30,12 -12,0 -22,-4 -30,-12 -8,-9 -13,-19 -13,-31 0,-7 2,-15 6,-21 4,-7 9,-12 16,-16 6,-4 14,-6 21,-6zm0 16c-8,0 -14,2 -19,8 -5,5 -8,12 -8,20 0,9 3,16 10,21 5,4 11,6 17,6 8,0 14,-2 19,-8 5,-5 8,-12 8,-19 0,-8 -3,-15 -8,-20 -5,-6 -12,-8 -19,-8z"/>
   <polygon id="5" class="fil14" points="1154,589 1170,589 1170,657 1193,657 1193,671 1154,671 "/>
   <path id="6" class="fil14" d="M1243 587c12,0 22,5 30,13 9,8 13,19 13,31 0,12 -4,22 -12,30 -9,8 -19,12 -30,12 -13,0 -23,-4 -31,-12 -8,-9 -12,-19 -12,-31 0,-7 2,-15 5,-21 4,-7 9,-12 16,-16 7,-4 14,-6 21,-6zm0 16c-7,0 -14,2 -19,8 -5,5 -8,12 -8,20 0,9 4,16 10,21 5,4 11,6 17,6 8,0 14,-2 19,-8 6,-5 8,-12 8,-19 0,-8 -3,-15 -8,-20 -5,-6 -11,-8 -19,-8z"/>
   <path id="7" class="fil14" d="M1377 603l-11 11c-7,-8 -16,-11 -25,-11 -8,0 -15,2 -20,8 -5,5 -8,11 -8,19 0,8 3,15 8,20 6,6 13,8 21,8 6,0 10,-1 14,-3 4,-2 7,-6 9,-11l-24 0 0 -14 41 0 0 3c0,7 -1,14 -5,21 -4,6 -9,11 -15,14 -6,4 -13,5 -20,5 -9,0 -17,-1 -23,-5 -7,-4 -12,-9 -16,-16 -4,-7 -6,-14 -6,-22 0,-11 4,-20 11,-28 8,-10 19,-15 33,-15 7,0 14,2 20,4 5,2 11,6 16,12z"/>
   <polygon id="8" class="fil14" points="1391,589 1407,589 1423,619 1438,589 1455,589 1431,636 1431,671 1415,671 1415,636 "/>
   <path id="9" class="fil14" d="M785 790l17 0c9,0 16,1 19,2 4,2 7,5 10,8 2,4 3,9 3,14 0,5 -1,10 -4,13 -2,4 -6,7 -11,8l19 37 -17 0 -18 -35 -2 0 0 35 -16 0 0 -82zm16 32l5 0c5,0 8,-1 10,-2 2,-1 3,-4 3,-7 0,-1 0,-3 -1,-4 -1,-2 -2,-3 -4,-3 -2,-1 -5,-1 -9,-1l-4 0 0 17z"/>
   <path id="10" class="fil14" d="M876 790l15 0 32 82 -16 0 -7 -17 -33 0 -7 17 -16 0 32 -82zm8 22l-12 28 23 0 -11 -28z"/>
   <path id="11" class="fil14" d="M935 790l19 0c12,0 21,1 26,4 6,3 11,8 15,15 3,6 5,14 5,23 0,6 -1,12 -3,17 -2,6 -5,10 -9,14 -3,3 -7,6 -12,7 -4,1 -11,2 -22,2l-19 0 0 -82zm16 15l0 52 7 0c7,0 12,-1 16,-3 3,-1 5,-4 7,-8 2,-4 3,-9 3,-14 0,-9 -2,-16 -7,-21 -4,-4 -11,-6 -21,-6l-5 0z"/>
   <polygon id="12" class="fil14" points="1014,790 1030,790 1030,872 1014,872 "/>
   <path id="13" class="fil14" d="M1086 788c11,0 21,4 30,12 8,9 12,19 12,31 0,12 -4,22 -12,30 -8,9 -18,13 -30,13 -12,0 -23,-4 -31,-13 -8,-8 -12,-18 -12,-30 0,-8 2,-15 6,-22 3,-6 9,-12 15,-15 7,-4 14,-6 22,-6zm0 15c-8,0 -14,3 -20,8 -5,5 -7,12 -7,20 0,9 3,16 9,22 6,4 11,6 18,6 7,0 13,-3 19,-8 5,-6 7,-12 7,-20 0,-8 -2,-14 -7,-20 -6,-5 -12,-8 -19,-8z"/>
   <polygon id="14" class="fil14" points="1143,790 1158,790 1158,857 1181,857 1181,872 1143,872 "/>
   <path id="15" class="fil14" d="M1232 788c12,0 22,4 30,12 8,9 12,19 12,31 0,12 -4,22 -12,30 -8,9 -18,13 -30,13 -12,0 -22,-4 -31,-13 -8,-8 -12,-18 -12,-30 0,-8 2,-15 6,-22 4,-6 9,-12 16,-15 6,-4 13,-6 21,-6zm0 15c-8,0 -14,3 -19,8 -5,5 -8,12 -8,20 0,9 3,16 10,22 5,4 11,6 17,6 7,0 14,-3 19,-8 5,-6 8,-12 8,-20 0,-8 -3,-14 -8,-20 -5,-5 -12,-8 -19,-8z"/>
   <path id="16" class="fil14" d="M1365 803l-11 11c-7,-7 -15,-11 -24,-11 -8,0 -15,3 -20,8 -6,5 -9,12 -9,20 0,8 3,14 9,20 5,5 12,8 21,8 5,0 10,-1 13,-3 4,-3 7,-6 9,-11l-23 0 0 -15 41 0 0 4c0,7 -2,14 -6,20 -3,7 -8,11 -14,15 -6,3 -13,5 -21,5 -8,0 -16,-2 -23,-6 -6,-3 -12,-9 -16,-15 -3,-7 -5,-15 -5,-23 0,-10 3,-20 10,-28 9,-9 20,-14 34,-14 7,0 13,1 20,4 5,2 10,6 15,11z"/>
   <polygon id="17" class="fil14" points="1379,790 1396,790 1411,819 1426,790 1443,790 1419,836 1419,872 1403,872 1403,836 "/>
   <path id="18" class="fil14" d="M823 988c12,0 22,4 30,13 8,8 12,18 12,31 0,12 -4,22 -12,30 -8,8 -18,12 -30,12 -12,0 -22,-4 -31,-12 -8,-9 -12,-19 -12,-31 0,-8 2,-15 6,-21 4,-7 9,-12 16,-16 6,-4 13,-6 21,-6zm0 16c-8,0 -14,2 -19,7 -5,6 -8,12 -8,21 0,9 3,16 10,21 5,4 11,6 17,6 7,0 14,-2 19,-8 5,-5 8,-12 8,-20 0,-7 -3,-14 -8,-19 -5,-6 -12,-8 -19,-8z"/>
   <polygon id="19" class="fil14" points="872,990 918,990 918,1006 903,1006 903,1072 887,1072 887,1006 872,1006 "/>
   <polygon id="20" class="fil14" points="928,990 944,990 944,1021 971,1021 971,990 987,990 987,1072 971,1072 971,1036 944,1036 944,1072 928,1072 "/>
   <polygon id="21" class="fil14" points="1006,990 1051,990 1051,1006 1022,1006 1022,1020 1051,1020 1051,1035 1022,1035 1022,1057 1051,1057 1051,1072 1006,1072 "/>
   <path id="22" class="fil14" d="M1066 990l17 0c9,0 16,1 19,3 4,1 7,4 10,8 2,4 3,8 3,13 0,6 -1,10 -4,14 -2,3 -6,6 -11,8l19 36 -17 0 -18 -34 -2 0 0 34 -16 0 0 -82zm16 32l5 0c5,0 8,0 10,-2 2,-1 3,-3 3,-6 0,-2 0,-3 -1,-5 -1,-1 -2,-2 -4,-3 -2,0 -4,0 -9,0l-4 0 0 16z"/>
   <path id="23" class="fil14" d="M1175 1001l-12 11c-4,-6 -8,-9 -12,-9 -2,0 -4,1 -5,2 -2,1 -2,2 -2,4 0,1 0,2 1,3 1,2 5,6 12,11 6,5 9,8 11,9 3,4 5,7 6,10 2,3 2,6 2,9 0,7 -2,12 -7,17 -4,4 -10,6 -18,6 -6,0 -11,-1 -15,-4 -5,-3 -8,-7 -11,-13l13 -8c4,7 8,11 13,11 3,0 5,-1 7,-3 2,-1 3,-3 3,-5 0,-2 -1,-4 -2,-6 -2,-2 -5,-4 -9,-8 -9,-8 -15,-13 -18,-17 -2,-4 -4,-8 -4,-12 0,-6 3,-11 7,-15 4,-4 10,-6 16,-6 4,0 8,1 12,3 3,2 7,5 12,10z"/>
   <rect class="fil15 str0" x="1595" y="579" width="99.852" height="99.5213"/>
   <rect class="fil15 str0" x="1595" y="785" width="99.852" height="99.5213"/>
   <rect class="fil15 str0" x="1595" y="983" width="99.852" height="99.5213"/>
  </g>
 </g>
</svg>
