<?xml version="1.0" encoding="UTF-8"?>
<!DOCTYPE svg PUBLIC "-//W3C//DTD SVG 1.1//EN" "http://www.w3.org/Graphics/SVG/1.1/DTD/svg11.dtd">
<!-- Creator: CorelDRAW X7 -->
<svg xmlns="http://www.w3.org/2000/svg" xml:space="preserve" width="3in" height="3in" version="1.1" style="shape-rendering:geometricPrecision; text-rendering:geometricPrecision; image-rendering:optimizeQuality; fill-rule:evenodd; clip-rule:evenodd"
viewBox="0 0 3000 3000"
 xmlns:xlink="http://www.w3.org/1999/xlink">
 <defs>
  <style type="text/css">
   <![CDATA[
    .str0 {stroke:#FFFF99;stroke-width:27.7756}
    .fil7 {fill:#009933}
    .fil4 {fill:#CCCCCC}
    .fil6 {fill:#FEFEFE}
    .fil9 {fill:red}
    .fil3 {fill:#FFCC99}
    .fil2 {fill:#FFFF99}
    .fil0 {fill:#FFFF99}
    .fil5 {fill:#FFFFCC}
    .fil1 {fill:white}
    .fil8 {fill:#FFFF99;fill-rule:nonzero}
   ]]>
  </style>
 </defs>
 <g id="Layer_x0020_1">
  <metadata id="CorelCorpID_0Corel-Layer"/>
  <g id="_719393312">
   <path class="fil0" d="M834 559l-38 76c-10,20 -10,19 -33,23 -15,3 -31,8 -48,10 -5,4 -45,15 -53,15 -4,4 1,5 -13,4 -9,0 -16,-8 -26,-14l-89 -54c-1,-1 -7,-5 -8,-6 -8,-6 -3,-1 -7,-7 -15,-3 -23,-12 -37,-19 -13,5 -10,9 -23,12 -9,14 -98,79 -113,90 -11,8 -24,17 -36,27 0,12 9,34 12,48 6,16 29,90 29,104 8,8 4,4 8,19 9,31 4,21 -12,46 -53,87 -34,94 -83,104 -28,6 -51,14 -79,18 -14,4 -34,11 -49,8 -5,5 3,1 -9,6 -48,19 -17,-4 -31,41 -4,13 5,-3 -4,7 4,14 -1,30 -3,44l-16 127 54 34c12,0 57,29 71,37 14,7 22,11 35,18 17,9 19,13 18,37l7 18c2,8 3,14 5,22 27,116 29,33 -45,173 -12,22 -37,47 -36,69 9,5 52,64 63,79 11,14 19,25 31,42 8,10 28,29 29,41 31,3 61,-17 90,-20 5,-4 49,-16 58,-19 60,-21 39,-13 115,29 70,39 50,9 69,94 7,8 19,75 20,85l12 43 188 26 25 1c14,-16 27,-50 35,-61l7 -9c4,-19 32,-63 42,-82 10,-18 7,-23 33,-27 13,-2 42,-11 52,-7 7,-7 -2,-1 10,-7 4,-2 6,-2 10,-3 35,-11 45,-21 58,-2 12,2 53,31 64,37 15,9 59,34 62,40 15,6 16,9 27,14 20,-9 25,-25 45,-28 2,-6 0,-3 5,-8 0,0 6,-6 7,-6 13,-11 43,-34 54,-38 3,-8 21,-18 27,-24 8,-6 22,-19 33,-23 -1,-30 -19,-56 -19,-83 -7,-7 -6,-9 -8,-19 -3,-10 -5,-15 -7,-24 -5,-15 -11,-31 -13,-46 -15,-27 23,-63 52,-120 13,-26 3,-22 55,-34 19,-5 63,-19 78,-15 11,-9 56,-17 70,-19l3 -7 8 -68c1,-10 1,-17 5,-22l5 -45c2,-24 9,-55 6,-78l-23 -12c-19,-8 -40,-21 -59,-30 -19,-9 -38,-21 -56,-31 -32,-18 -33,-7 -40,-47 -4,-29 -13,-48 -17,-72 -19,-35 -10,-41 8,-68 6,-10 30,-54 38,-59 10,-25 43,-58 42,-84 -7,-3 -32,-38 -34,-45 -12,-7 -39,-46 -48,-58 -13,-18 -35,-44 -45,-62l-62 17 -67 21c-7,3 -25,9 -35,7 -18,23 -42,2 -54,-6 -117,-78 -83,-12 -113,-124l-27 -123 -94 -13c-9,0 -78,-7 -88,-14 -15,3 -18,-1 -34,-1l-46 80z"/>
   <path class="fil1" d="M485 668c-11,4 -91,66 -99,74 2,20 47,150 50,171 3,15 -29,48 -49,83 -59,103 -22,85 -81,99 -24,6 -133,27 -143,37 -7,10 -18,105 -18,122l163 88c9,33 9,65 20,100 32,111 48,54 -21,167 -56,93 -58,63 -10,126 12,16 25,34 38,48 19,-1 111,-31 140,-39 64,-18 16,-18 114,39 20,12 38,22 60,31 45,19 29,11 57,123 2,11 5,24 8,36 1,5 2,13 4,19l7 16c13,7 100,16 120,17 12,-13 54,-94 66,-118 5,-9 10,-18 15,-28 15,-32 25,-14 104,-35 117,-32 54,-54 189,30 82,51 38,48 159,-39 -7,-39 -29,-96 -40,-136 -18,-63 -20,-22 38,-117 77,-127 -27,-70 226,-135 4,-27 18,-101 16,-125l-164 -89c-4,-34 -10,-72 -19,-102 -9,-29 -32,-77 -25,-89 5,-9 16,-26 23,-37l69 -114c-6,-13 -62,-87 -74,-97 -36,1 -167,59 -187,45 -47,-31 -52,-42 -114,-70 -12,-6 -31,-12 -43,-21 -13,-38 -30,-156 -45,-180 -29,-6 -62,-9 -94,-13 -32,-5 -26,-10 -58,51 -13,25 -26,48 -39,71 -26,47 -9,35 -64,45 -40,7 -88,21 -125,36 -20,9 -20,4 -37,-7l-137 -83z"/>
   <path class="fil2" d="M2197 1086c-3,17 -37,115 -49,121 -17,9 -40,13 -60,24 -11,5 -19,12 -32,9 -9,-1 -21,-8 -25,-14 -11,-1 -11,-1 -22,-6 -7,-3 -3,-1 -8,-4 -9,-7 -1,1 -3,-3 -24,-7 -50,-26 -71,-24 -3,10 -94,97 -100,100 3,26 21,49 28,75 6,5 5,5 6,14 8,8 12,20 16,31 8,17 3,19 -4,34 -6,12 -23,58 -29,65 -2,9 6,2 -9,10 -4,2 -9,3 -12,4 -10,3 -16,6 -27,10l-67 24 -11 3c-9,17 -5,47 -5,69l0 67 1 21 15 7c20,5 61,22 81,30 44,19 28,-3 51,59 16,43 30,31 8,77 -7,15 -24,61 -34,71l-8 24c11,18 38,40 53,56 11,11 41,44 55,52 24,-9 46,-20 69,-29 24,-9 57,-34 64,-20 13,1 27,10 40,15 8,4 37,13 41,15 9,6 31,69 31,81l4 5c9,13 10,26 14,35 9,18 -1,6 10,11l149 0 17 -42c4,-17 20,-62 28,-79 6,-14 19,-14 34,-19 14,-6 22,-11 37,-15 6,-5 19,-14 32,-10 9,3 25,9 30,15l90 37c10,-8 99,-94 107,-108 -12,-30 -30,-61 -38,-89 -5,-7 -15,-25 -16,-35 -1,-7 8,-26 13,-29 5,-15 11,-30 16,-44 8,-24 4,-19 29,-29 24,-9 59,-25 82,-30l27 -11 -2 -155c-25,-13 -73,-27 -102,-38 -30,-11 -25,-7 -35,-34 -4,-12 -18,-40 -18,-49 -14,-12 -13,-20 -5,-35l49 -112c-6,-10 -94,-99 -107,-108l-30 12c-4,5 -16,9 -25,12 -11,5 -16,9 -25,10l-20 11c-17,8 -34,20 -56,-5 -13,0 -25,-8 -42,-14 -24,-8 -20,-2 -29,-27 -6,-18 -29,-66 -29,-84 -9,-9 -2,-3 -8,-15 -6,-12 0,-6 -9,-12l-151 1 -4 11z"/>
   <path class="fil1" d="M1945 1243c-12,7 -20,19 -32,30 -8,8 -24,23 -30,31 3,19 30,70 39,91 8,20 17,23 6,42 -17,32 -29,57 -38,92 -8,30 -9,20 -36,31 -24,10 -76,26 -93,38l0 86c30,12 63,25 95,36 45,17 17,0 51,80 6,13 14,28 21,42 11,19 1,26 -7,45 -8,18 -37,75 -38,90 22,18 39,43 62,60 28,-10 60,-26 87,-39 61,-27 28,2 135,31 28,8 22,8 32,35 12,30 23,64 36,93 18,4 67,4 87,1 11,-14 29,-72 37,-93 20,-51 6,-18 78,-52 68,-31 47,-34 88,-15 23,10 67,33 90,39 12,-9 55,-53 61,-63 -6,-22 -28,-64 -39,-88 -25,-55 1,-27 33,-137 7,-25 10,-20 34,-29 29,-11 66,-28 95,-36l0 -86c-10,-7 -78,-32 -93,-38 -23,-8 -30,-4 -36,-28 -7,-29 -23,-67 -38,-92 -10,-17 -11,-12 5,-47 10,-20 37,-74 38,-93 -22,-16 -38,-41 -60,-57 -73,20 -105,63 -136,45 -29,-17 -60,-30 -92,-39 -23,-6 -20,-15 -29,-37 -44,-111 -10,-91 -123,-91l-43 114c-8,19 -21,10 -69,31 -64,27 -47,36 -87,17l-91 -40z"/>
   <path class="fil3" d="M682 1284c0,120 91,204 200,204 112,0 200,-89 200,-204 0,-103 -87,-196 -203,-196 -103,0 -197,86 -197,196z"/>
   <path class="fil4" d="M1149 1084c4,11 15,25 21,36 60,98 60,228 7,326 -51,94 -151,176 -298,176 -179,1 -332,-150 -332,-324 1,-116 32,-132 41,-174 -7,-7 -45,-28 -56,-30 -35,45 -51,142 -51,210 0,124 81,250 165,309 19,13 42,27 61,36 265,127 576,-64 576,-361 0,-86 -35,-186 -81,-240 -12,2 -18,9 -27,16 -8,7 -17,13 -26,20z"/>
   <path class="fil4" d="M2062 1735l-40 16c6,38 60,91 83,110 126,105 319,68 405,-58 113,-166 31,-376 -144,-432 -19,-7 -67,-17 -86,-12 -1,50 -10,41 33,47 161,23 257,202 169,355 -70,123 -262,170 -387,26 -16,-18 -21,-37 -33,-52z"/>
   <path class="fil4" d="M2007 1580l42 9c25,-90 83,-156 173,-178 0,-15 -4,-34 -10,-44 -50,6 -110,49 -135,76 -15,15 -33,39 -44,59 -7,12 -12,24 -17,36l-10 31c0,1 0,2 0,3l1 8z"/>
   <polygon class="fil4" points="2003,1706 2048,1697 2042,1641 1997,1640 "/>
   <path class="fil3" d="M2139 1634c0,197 281,190 281,7l0 -3c0,-42 -15,-70 -37,-94 -79,-89 -244,-37 -244,90z"/>
   <path class="fil4" d="M712 929l26 54c32,-3 132,-62 269,-5 38,16 81,47 88,49 13,-16 29,-34 37,-49 -13,-19 -78,-53 -102,-62 -94,-37 -208,-39 -301,2 -13,5 -11,2 -17,11z"/>
   <path class="fil4" d="M571 1039c18,10 33,31 51,38 29,-30 11,-18 54,-52 -4,-17 -26,-40 -37,-53 -18,8 -60,47 -68,67z"/>
   <polygon class="fil5" points="1764,2545 1802,2552 1807,2498 1768,2497 "/>
   <path class="fil0" d="M1394 2084c-13,-5 -11,-6 -22,-14 -17,5 -30,17 -47,27l-61 41c0,22 10,57 15,80 9,47 8,28 -15,62 -17,25 -16,39 -49,44 -23,3 -58,12 -81,9 -10,9 -10,1 -15,19l-5 22c-1,0 -2,2 -2,2 0,-1 -1,1 -1,2 2,15 -6,32 -8,46l-6 42c9,3 35,20 44,26 75,52 44,25 58,81 2,8 7,24 6,31 0,16 -11,19 -14,21l1 -1c-6,14 -28,43 -39,57 -3,4 -5,7 -8,10l-7 8c2,12 27,46 35,61 10,11 25,38 31,49 26,-3 59,-11 84,-16 48,-10 35,-2 66,19 32,20 34,13 40,55 4,26 8,57 11,84 9,0 42,5 48,12 20,-1 54,9 75,13 13,-7 5,-7 15,-16 7,-15 22,-35 32,-50 18,-27 9,-29 45,-34 22,-3 51,-15 67,-4 11,7 38,27 44,38 12,2 28,17 38,25l20 -9c9,-11 31,-22 46,-32 15,-11 32,-18 42,-30l-6 -37 -4 -24c-5,-5 0,3 -3,-6 -22,-61 5,-56 25,-92 15,-25 9,-23 43,-26 23,-3 43,-7 65,-9 19,-2 20,-1 25,-19l23 -111c-15,-6 -36,-22 -50,-32 -58,-39 -46,-17 -54,-80 -8,-33 -10,-27 -1,-42 15,-23 65,-76 61,-93 -4,-1 -59,-82 -61,-95 -26,-4 -56,8 -82,11 -6,5 -34,11 -44,4 -11,-7 -24,-19 -36,-28 -19,-12 -26,-8 -29,-34 -2,-18 -6,-37 -8,-54 -1,-10 -2,-19 -4,-27 -3,-17 -2,-12 -11,-20 -35,2 -79,-23 -118,-21 -14,18 -26,40 -38,57 -32,48 -9,33 -93,50 -17,3 -21,-3 -32,-12l-51 -40z"/>
   <path class="fil6" d="M1368 2118c-20,6 -39,27 -61,35 1,24 11,66 17,90 9,39 -12,24 -50,94 -10,19 -7,18 -31,22 -92,13 -92,-6 -103,84 10,9 31,22 45,32 70,47 36,16 53,93 3,19 16,40 7,56 -11,19 -53,62 -59,80 8,16 27,47 39,60 21,0 42,-6 61,-10 10,-2 16,-4 26,-6 15,-3 17,-6 28,2 27,20 38,38 85,57 2,24 8,91 17,107 7,10 59,17 70,19l53 -80c12,-18 29,-12 50,-15 21,-3 36,-8 55,-12 23,-6 53,25 83,47 21,16 17,17 39,2 16,-10 26,-16 41,-27 0,-19 -11,-65 -16,-86 -10,-41 10,-24 48,-94 11,-19 6,-19 30,-23 21,-4 71,-7 90,-14l16 -70c-15,-17 -70,-46 -92,-63 -2,-61 -22,-103 -13,-119 13,-21 52,-60 58,-81 -10,-18 -25,-37 -34,-58 -24,-1 -67,10 -91,15 -39,9 -18,-6 -92,-49 -19,-10 -21,-6 -24,-29 -3,-20 -8,-76 -15,-90l-69 -17c-23,25 -51,89 -68,93 -14,3 -36,3 -51,6 -47,8 -43,22 -78,-5 -17,-13 -47,-37 -64,-46z"/>
   <path class="fil3" d="M1539 2388c-154,53 -82,265 61,228 99,-26 120,-157 34,-214 -20,-13 -64,-25 -95,-14z"/>
   <path class="fil4" d="M1519 2731l7 -33 -12 -7c-3,-1 -7,-2 -12,-4 -142,-51 -168,-238 -68,-328 124,-113 302,-38 330,106l38 -8c-28,-177 -261,-257 -396,-125 -150,146 -41,380 113,399z"/>
   <path class="fil4" d="M1578 2699l-4 39c48,0 97,-18 130,-41 25,-18 72,-64 79,-97l-35 -16c-15,48 -67,88 -110,103 -26,9 -36,8 -60,12z"/>
   <circle class="fil7 str0" cx="381" cy="142" r="111"/>
   <path class="fil8" d="M547 216l59 -152 22 0 62 152 -24 0 -17 -46 -65 0 -16 46 -21 0zm44 -62l52 0 -16 -42c-5,-13 -8,-24 -11,-32 -2,9 -5,19 -8,30l-17 44z"/>
   <path id="_1" class="fil8" d="M776 176l18 3c-2,13 -7,22 -16,30 -7,6 -18,10 -29,10 -15,0 -28,-5 -37,-15 -9,-10 -14,-24 -14,-42 0,-12 3,-23 6,-32 4,-9 10,-15 18,-19 8,-6 17,-8 27,-8 11,0 21,3 29,10 8,6 12,15 14,25l-18 4c-1,-8 -4,-13 -8,-17 -5,-4 -10,-6 -16,-6 -10,0 -17,3 -24,10 -6,7 -8,18 -8,32 0,15 2,25 8,33 5,6 13,9 23,9 7,0 12,-2 18,-6 5,-4 8,-12 9,-21z"/>
   <path id="_2" class="fil8" d="M851 200l3 16c-5,1 -11,2 -15,2 -6,0 -12,-1 -15,-3 -4,-2 -6,-5 -8,-8 -1,-4 -2,-11 -2,-23l0 -64 -14 0 0 -14 14 0 0 -27 19 -12 0 39 18 0 0 14 -18 0 0 65c0,6 0,9 1,11 0,1 1,2 3,3 1,1 3,1 6,1 2,0 5,0 8,0z"/>
   <path id="_3" class="fil8" d="M870 85l0 -21 18 0 0 21 -18 0zm0 131l0 -110 18 0 0 110 -18 0z"/>
   <path id="_4" class="fil8" d="M948 216l-43 -110 20 0 24 66c3,7 5,14 7,23 2,-7 5,-13 8,-21l24 -68 19 0 -42 110 -17 0z"/>
   <path id="_5" class="fil8" d="M1099 181l19 2c-2,12 -8,20 -17,27 -7,6 -18,9 -31,9 -16,0 -28,-5 -38,-15 -10,-10 -15,-24 -15,-42 0,-18 5,-33 15,-43 10,-10 22,-16 37,-16 15,0 27,6 36,15 10,11 14,25 14,43 0,1 0,3 0,5l-83 0c1,12 4,21 11,28 6,6 14,9 23,9 7,0 13,-1 17,-5 6,-3 9,-10 12,-17zm-62 -30l62 0c0,-9 -3,-17 -6,-21 -7,-8 -14,-11 -24,-11 -8,0 -16,2 -21,9 -6,5 -10,14 -11,23z"/>
   <circle class="fil9 str0" cx="1782" cy="142" r="111"/>
   <polygon class="fil8" points="1969,216 1969,64 1989,64 1989,216 "/>
   <path id="_1_0" class="fil8" d="M2023 216l0 -110 16 0 0 15c8,-11 20,-18 35,-18 7,0 13,1 19,4 5,3 10,6 12,10 3,3 5,9 6,14 0,3 1,9 1,18l0 67 -19 0 0 -67c0,-7 0,-13 -2,-17 -1,-3 -4,-6 -7,-9 -5,-2 -9,-3 -13,-3 -9,0 -15,2 -22,8 -5,4 -8,14 -8,28l0 60 -18 0z"/>
   <path id="_2_1" class="fil8" d="M2214 202c-8,7 -14,11 -21,13 -6,3 -14,4 -21,4 -12,0 -21,-3 -28,-9 -6,-6 -9,-13 -9,-23 0,-5 1,-10 3,-15 3,-4 6,-7 10,-10 4,-3 8,-4 13,-7 5,-1 10,-2 17,-2 15,-2 27,-4 33,-6 0,-3 0,-4 0,-5 0,-8 -1,-13 -5,-16 -4,-5 -12,-7 -21,-7 -9,0 -15,1 -19,4 -5,4 -8,9 -10,17l-18 -3c1,-7 4,-14 8,-19 4,-4 9,-8 16,-11 8,-2 16,-4 26,-4 10,0 17,1 23,3 6,4 10,6 13,9 2,4 4,8 6,13 1,3 1,9 1,18l0 24c0,17 1,29 1,33 1,5 2,9 5,13l-20 0c-2,-3 -3,-8 -3,-14zm-3 -41c-6,3 -17,5 -29,7 -9,1 -14,2 -17,4 -4,2 -6,4 -8,6 -1,3 -2,5 -2,9 0,5 1,9 5,12 5,3 10,5 17,5 7,0 13,-2 20,-5 5,-3 9,-7 11,-13 2,-4 3,-9 3,-18l0 -7z"/>
   <path id="_3_2" class="fil8" d="M2332 176l18 3c-2,13 -6,22 -15,30 -8,6 -18,10 -31,10 -15,0 -27,-5 -36,-15 -10,-10 -14,-24 -14,-42 0,-12 2,-23 6,-32 4,-9 10,-15 19,-19 7,-6 16,-8 25,-8 13,0 23,3 30,10 7,6 13,15 15,25l-18 4c-2,-8 -6,-13 -10,-17 -4,-4 -9,-6 -16,-6 -9,0 -17,3 -23,10 -6,7 -9,18 -9,32 0,15 3,25 9,33 5,6 13,9 22,9 8,0 14,-2 18,-6 6,-4 9,-12 10,-21z"/>
   <path id="_4_3" class="fil8" d="M2407 200l3 16c-6,1 -10,2 -14,2 -8,0 -13,-1 -16,-3 -4,-2 -7,-5 -8,-8 -2,-4 -3,-11 -3,-23l0 -64 -14 0 0 -14 14 0 0 -27 19 -12 0 39 19 0 0 14 -19 0 0 65c0,6 0,9 1,11 1,1 3,2 4,3 1,1 3,1 6,1 2,0 4,0 8,0z"/>
   <path id="_5_4" class="fil8" d="M2426 85l0 -21 19 0 0 21 -19 0zm0 131l0 -110 19 0 0 110 -19 0z"/>
   <path id="_6" class="fil8" d="M2503 216l-41 -110 20 0 24 66c2,7 4,14 6,23 2,-7 4,-13 7,-21l25 -68 19 0 -42 110 -18 0z"/>
   <path id="_7" class="fil8" d="M2656 181l19 2c-3,12 -9,20 -17,27 -9,6 -19,9 -32,9 -16,0 -29,-5 -38,-15 -10,-10 -14,-24 -14,-42 0,-18 4,-33 14,-43 9,-10 22,-16 37,-16 15,0 26,6 36,15 10,11 14,25 14,43 0,1 0,3 0,5l-82 0c1,12 4,21 11,28 5,6 13,9 22,9 7,0 13,-1 18,-5 4,-3 9,-10 12,-17zm-62 -30l62 0c-1,-9 -3,-17 -8,-21 -5,-8 -14,-11 -23,-11 -9,0 -16,2 -21,9 -7,5 -10,14 -10,23z"/>
  </g>
 </g>
</svg>
