<?xml version="1.0" encoding="UTF-8"?>
<!DOCTYPE svg PUBLIC "-//W3C//DTD SVG 1.1//EN" "http://www.w3.org/Graphics/SVG/1.1/DTD/svg11.dtd">
<!-- Creator: CorelDRAW X7 -->
<svg xmlns="http://www.w3.org/2000/svg" xml:space="preserve" width="3in" height="3in" version="1.1" style="shape-rendering:geometricPrecision; text-rendering:geometricPrecision; image-rendering:optimizeQuality; fill-rule:evenodd; clip-rule:evenodd"
viewBox="0 0 3000 3000"
 xmlns:xlink="http://www.w3.org/1999/xlink">
 <defs>
  <style type="text/css">
   <![CDATA[
    .str0 {stroke:black;stroke-width:27.7756}
    .fil4 {fill:#009933}
    .fil6 {fill:#009933}
    .fil2 {fill:#285680}
    .fil3 {fill:#2980BA}
    .fil0 {fill:#2FA8CC}
    .fil1 {fill:#67B9CC}
    .fil5 {fill:red}
    .fil8 {fill:red}
    .fil7 {fill:black;fill-rule:nonzero}
   ]]>
  </style>
 </defs>
 <g id="Layer_x0020_1">
  <metadata id="CorelCorpID_0Corel-Layer"/>
  <g id="_829474112">
   <g>
    <path id="Shape" class="fil0" d="M1211 1898l-239 89c-23,9 -48,-1 -61,-22l-108 -187c-12,-22 -7,-49 11,-65l197 -161c16,138 88,263 200,346l0 0z"/>
    <path id="Shape_0" class="fil1" d="M2011 1435c-16,-137 -88,-262 -200,-345 -31,-23 -64,-43 -100,-58 -128,-55 -272,-55 -400,0 -35,15 -69,35 -100,58 -112,83 -184,208 -200,345 -5,39 -5,78 0,117 16,138 88,263 200,346 31,23 65,42 100,57 128,56 272,56 400,0 36,-15 69,-34 100,-57 112,-83 184,-208 200,-346 5,-39 5,-78 0,-117zm-500 260c-111,0 -201,-90 -201,-201 0,-111 90,-202 201,-202 111,0 201,91 201,202 0,53 -21,104 -59,142 -37,38 -89,59 -142,59l0 0z"/>
    <circle id="Oval" class="fil2" cx="1511" cy="1494" r="201"/>
    <path id="Shape_1" class="fil0" d="M1711 1032c-128,-55 -272,-55 -400,0l42 -251c4,-24 25,-42 50,-42l216 0c25,0 46,18 50,42l42 251z"/>
    <path id="Shape_2" class="fil0" d="M1711 1955l-42 252c-1,6 -3,13 -7,18 -9,15 -25,24 -43,24l-216 0c-25,0 -46,-18 -50,-42l-42 -252c128,56 272,56 400,0l0 0z"/>
    <path id="Shape_3" class="fil0" d="M1211 1090c-112,83 -184,208 -200,345l-197 -161c-18,-16 -23,-43 -11,-64l67 -116 41 -71c13,-22 38,-31 61,-22l183 68 56 21z"/>
    <path id="Shape_4" class="fil0" d="M2219 1778l-108 187c-12,21 -38,31 -61,22l-239 -89c112,-83 184,-208 200,-346l197 161c19,16 23,43 11,65l0 0z"/>
    <path id="Shape_5" class="fil0" d="M2208 1274l-197 161c-16,-137 -88,-262 -200,-345l239 -89c23,-9 49,0 61,22l108 187c12,21 8,48 -11,64l0 0z"/>
    <path id="Shape_6" class="fil3" d="M1511 1746c-139,0 -252,-113 -252,-252 0,-139 113,-252 252,-252 139,0 252,113 252,252 0,139 -113,251 -252,252zm0 -403c-83,0 -151,67 -151,151 0,83 68,151 151,151 83,0 151,-68 151,-151 0,-84 -68,-151 -151,-151z"/>
   </g>
   <rect class="fil4" x="573" y="302" width="157" height="603"/>
   <rect class="fil4" transform="matrix(-1.66968E-014 -0.630435 -0.630435 1.66968E-014 953.043 681.833)" width="250" height="957"/>
   <rect class="fil5" transform="matrix(-1.66968E-014 -0.630435 -0.630435 1.66968E-014 2613.04 681.833)" width="250" height="957"/>
   <circle class="fil6 str0" cx="471" cy="2551" r="104"/>
   <path class="fil7" d="M627 2621l55 -143 21 0 58 143 -22 0 -16 -43 -61 0 -15 43 -20 0zm41 -58l49 0 -15 -40c-5,-12 -8,-22 -10,-30 -2,9 -5,18 -8,28l-16 42z"/>
   <path id="1" class="fil7" d="M842 2583l17 3c-2,12 -7,21 -15,28 -7,6 -17,10 -28,10 -14,0 -26,-5 -34,-14 -9,-10 -13,-23 -13,-40 0,-11 2,-21 5,-30 4,-8 10,-14 17,-18 8,-5 16,-7 25,-7 11,0 20,3 28,9 7,6 11,14 13,24l-17 3c-1,-7 -4,-12 -8,-16 -4,-3 -9,-5 -15,-5 -9,0 -16,3 -22,9 -6,7 -8,17 -8,30 0,14 2,24 8,31 5,6 12,9 21,9 7,0 12,-2 17,-6 5,-4 8,-11 9,-20z"/>
   <path id="2" class="fil7" d="M912 2606l3 15c-5,1 -10,2 -14,2 -6,0 -11,-1 -14,-3 -4,-2 -6,-5 -8,-8 -1,-3 -2,-10 -2,-21l0 -60 -13 0 0 -13 13 0 0 -26 18 -11 0 37 17 0 0 13 -17 0 0 61c0,5 0,8 1,10 0,1 1,2 3,3 1,1 3,1 6,1 2,0 4,0 7,0z"/>
   <path id="3" class="fil7" d="M930 2498l0 -20 17 0 0 20 -17 0zm0 123l0 -103 17 0 0 103 -17 0z"/>
   <path id="4" class="fil7" d="M1003 2621l-40 -103 19 0 22 62c3,6 5,13 7,21 2,-6 4,-12 7,-20l23 -63 18 0 -40 103 -16 0z"/>
   <path id="5" class="fil7" d="M1145 2588l18 2c-2,11 -8,19 -16,25 -7,6 -17,9 -29,9 -15,0 -27,-5 -36,-14 -9,-10 -14,-23 -14,-40 0,-17 5,-31 14,-40 9,-10 21,-15 35,-15 14,0 25,5 34,14 9,10 13,23 13,40 0,1 0,3 0,5l-78 0c1,11 4,20 10,26 6,6 13,9 22,9 6,0 12,-1 16,-5 5,-3 8,-9 11,-16zm-58 -28l58 0c0,-9 -3,-16 -6,-20 -6,-7 -13,-10 -22,-10 -8,0 -15,2 -20,8 -6,5 -9,13 -10,22z"/>
   <circle class="fil8 str0" cx="1786" cy="2551" r="104"/>
   <polygon class="fil7" points="1961,2621 1961,2478 1980,2478 1980,2621 "/>
   <path id="1" class="fil7" d="M2012 2621l0 -103 15 0 0 14c8,-11 19,-17 33,-17 7,0 12,1 18,4 5,2 9,5 11,9 3,3 5,8 6,13 0,3 1,9 1,17l0 63 -18 0 0 -63c0,-7 0,-12 -2,-16 -1,-3 -4,-6 -7,-8 -4,-2 -8,-3 -12,-3 -8,0 -14,2 -20,7 -5,4 -8,13 -8,27l0 56 -17 0z"/>
   <path id="2" class="fil7" d="M2191 2608c-7,6 -13,10 -19,12 -6,3 -13,4 -20,4 -11,0 -20,-3 -26,-9 -6,-5 -9,-12 -9,-21 0,-5 1,-10 3,-14 3,-4 6,-7 9,-10 4,-3 8,-4 13,-6 4,-1 9,-2 16,-2 14,-2 25,-4 31,-6 0,-3 0,-4 0,-5 0,-7 -1,-12 -5,-15 -4,-4 -11,-6 -20,-6 -8,0 -14,1 -18,4 -4,3 -7,8 -9,16l-17 -3c1,-7 4,-13 8,-18 3,-4 8,-8 15,-10 7,-2 15,-4 24,-4 9,0 16,1 22,3 5,3 9,5 12,8 2,4 4,8 5,12 1,3 1,9 1,17l0 23c0,16 1,27 1,31 1,4 2,8 5,12l-19 0c-2,-3 -3,-8 -3,-13zm-2 -39c-6,3 -16,5 -28,7 -8,1 -13,2 -16,4 -3,1 -5,3 -7,5 -1,3 -2,5 -2,9 0,4 1,8 5,11 4,3 9,5 16,5 6,0 12,-2 18,-5 5,-3 9,-7 11,-12 2,-4 3,-9 3,-17l0 -7z"/>
   <path id="3" class="fil7" d="M2302 2583l17 3c-2,12 -6,21 -14,28 -8,6 -17,10 -29,10 -14,0 -25,-5 -34,-14 -9,-10 -13,-23 -13,-40 0,-11 2,-21 6,-30 3,-8 9,-14 17,-18 7,-5 15,-7 24,-7 12,0 21,3 28,9 7,6 12,14 14,24l-17 3c-2,-7 -5,-12 -9,-16 -4,-3 -9,-5 -15,-5 -9,0 -16,3 -22,9 -5,7 -8,17 -8,30 0,14 3,24 8,31 5,6 12,9 21,9 7,0 13,-2 17,-6 5,-4 8,-11 9,-20z"/>
   <path id="4" class="fil7" d="M2373 2606l2 15c-5,1 -9,2 -13,2 -7,0 -12,-1 -15,-3 -4,-2 -6,-5 -7,-8 -2,-3 -3,-10 -3,-21l0 -60 -13 0 0 -13 13 0 0 -26 18 -11 0 37 18 0 0 13 -18 0 0 61c0,5 0,8 1,10 1,1 2,2 3,3 1,1 3,1 6,1 2,0 4,0 8,0z"/>
   <path id="5" class="fil7" d="M2390 2498l0 -20 18 0 0 20 -18 0zm0 123l0 -103 18 0 0 103 -18 0z"/>
   <path id="6" class="fil7" d="M2463 2621l-39 -103 19 0 22 62c2,6 4,13 6,21 2,-6 4,-12 7,-20l23 -63 18 0 -39 103 -17 0z"/>
   <path id="7" class="fil7" d="M2606 2588l18 2c-3,11 -8,19 -16,25 -8,6 -18,9 -30,9 -15,0 -27,-5 -36,-14 -9,-10 -13,-23 -13,-40 0,-17 4,-31 13,-40 9,-10 21,-15 35,-15 14,0 25,5 34,14 9,10 13,23 13,40 0,1 0,3 0,5l-77 0c1,11 4,20 10,26 5,6 13,9 21,9 7,0 12,-1 17,-5 4,-3 8,-9 11,-16zm-58 -28l58 0c-1,-9 -3,-16 -7,-20 -5,-7 -13,-10 -22,-10 -8,0 -15,2 -20,8 -6,5 -9,13 -9,22z"/>
  </g>
 </g>
</svg>
