<?xml version="1.0" encoding="UTF-8"?>
<!DOCTYPE svg PUBLIC "-//W3C//DTD SVG 1.1//EN" "http://www.w3.org/Graphics/SVG/1.1/DTD/svg11.dtd">
<!-- Creator: CorelDRAW X7 -->
<svg xmlns="http://www.w3.org/2000/svg" xml:space="preserve" width="3in" height="3in" version="1.1" style="shape-rendering:geometricPrecision; text-rendering:geometricPrecision; image-rendering:optimizeQuality; fill-rule:evenodd; clip-rule:evenodd"
viewBox="0 0 3000 3000"
 xmlns:xlink="http://www.w3.org/1999/xlink"
 enable-background="new 0 0 512 512"
 data-name="Layer 1">
 <defs>
  <style type="text/css">
   <![CDATA[
    .fil1 {fill:#1A1C1B}
    .fil7 {fill:#27A08F}
    .fil2 {fill:#36586D}
    .fil6 {fill:#387C64}
    .fil5 {fill:#4ABA92}
    .fil10 {fill:#4B4A4B}
    .fil8 {fill:#906DB1}
    .fil3 {fill:#ACB0B1}
    .fil9 {fill:#F37F42}
    .fil0 {fill:#F7F6F7}
    .fil4 {fill:#FBC3A8}
   ]]>
  </style>
 </defs>
 <g id="Layer_x0020_1">
  <metadata id="CorelCorpID_0Corel-Layer"/>
  <path class="fil0" d="M702 1608c27,28 22,63 0,89 3,116 -28,195 87,195l847 0c75,0 93,-21 93,-96 0,-64 0,-128 0,-192 -9,-19 -20,-21 -18,-53 1,-31 20,-27 18,-57 -1,-24 -18,-24 -19,-55 -1,-32 18,-34 19,-58 -45,-4 -109,-1 -157,-1 -23,0 -50,4 -70,-7 -17,-10 -27,-26 -29,-52 -59,4 -256,1 -331,1 -31,0 -322,4 -328,-3 -6,-7 -2,-362 -2,-427 0,-23 -8,-51 19,-45 12,32 -2,379 3,452l87 1 0 -390 106 -2 1 392 48 -1 0 -273 105 0 0 272 48 2 0 -454 106 0 2 454 46 -1 0 -194 107 0c5,15 2,141 2,168 24,-8 18,-12 52,-13 49,0 146,3 185,0 1,-31 3,-419 -2,-446 -10,-52 -61,-53 -94,-53 -197,2 -395,1 -592,0 -47,0 -266,-5 -293,4 -45,14 -46,51 -46,104 0,241 6,504 0,739z"/>
  <path class="fil0" d="M2057 1490l-1 309 -251 0c-2,23 -3,82 1,103l241 0c14,-5 4,3 10,-15 12,1 24,5 34,12 3,23 -3,7 -4,23 0,6 1,27 2,33l368 103c11,2 51,9 41,27 -8,16 -72,-9 -99,-16l-311 -84 0 38c63,15 134,35 197,53 48,14 162,39 196,56l0 17c-20,10 -76,-12 -99,-19 -88,-23 -214,-62 -294,-80l0 39c64,17 132,35 196,53l147 40c15,5 45,9 30,28 -9,10 -16,4 -46,-4l-327 -90 0 37 284 80c16,4 31,8 47,12 22,5 35,5 26,29 -20,7 -69,-13 -92,-19 -29,-7 -59,-17 -90,-25 -24,-6 -163,-47 -174,-45l0 35 261 73c15,4 29,7 45,12 19,6 33,3 37,23 -14,17 -45,2 -83,-8 -29,-9 -60,-17 -88,-24l-172 -47 -1 95c47,12 390,111 423,114l261 -950 -381 -109c-17,-3 -25,-5 -39,-9 -39,-11 -175,-52 -197,-52 -2,12 -7,20 -11,34l-23 86c-2,7 -3,11 -5,19l-8 26c-15,-5 -34,-12 -51,-13z"/>
  <path class="fil1" d="M1726 658c31,2 45,10 60,26 18,20 15,28 20,45 2,10 5,11 8,16 0,1 -1,1 -2,2 -4,22 -5,-24 -6,59 0,20 -5,52 3,67 20,1 457,125 524,144 27,7 57,20 76,-5 16,-18 37,-115 47,-148l83 -302c13,-48 48,-117 -6,-137 -79,-29 -584,-154 -603,-167 -100,-19 -83,-43 -137,154 -13,49 -60,210 -67,246z"/>
  <path class="fil2" d="M2772 1508l-261 950c-33,-3 -376,-102 -423,-114l1 -95 172 47c28,7 59,15 88,24 38,10 69,25 83,8 -4,-20 -18,-17 -37,-23 -16,-5 -30,-8 -45,-12l-261 -73 0 -35c11,-2 150,39 174,45 31,8 61,18 90,25 23,6 72,26 92,19 9,-24 -4,-24 -26,-29 -16,-4 -31,-8 -47,-12l-284 -80 0 -37 327 90c30,8 37,14 46,4 15,-19 -15,-23 -30,-28l-147 -40c-64,-18 -132,-36 -196,-53l0 -39c80,18 206,57 294,80 23,7 79,29 99,19l0 -17c-34,-17 -148,-42 -196,-56 -63,-18 -134,-38 -197,-53l0 -38 311 84c27,7 91,32 99,16 10,-18 -30,-25 -41,-27l-368 -103c-1,-6 -2,-27 -2,-33 1,-16 7,0 4,-23 -10,-7 -22,-11 -34,-12 -6,18 4,10 -10,15l-241 0c-43,0 -34,41 -34,79l1 551c0,72 -2,148 0,220l315 0 0 -402 509 138 263 -959c-10,-7 -76,-24 -83,-23l-5 2z"/>
  <path class="fil3" d="M619 837c0,5 -1,3 5,4l2 533 -19 6 19 -1 0 97c3,34 -2,73 0,104 2,20 16,11 39,12 15,1 31,7 37,16 6,-235 0,-498 0,-739 0,-53 1,-90 46,-104 27,-9 246,-4 293,-4 197,1 395,2 592,0 33,0 84,1 94,53 5,27 3,415 2,446l76 -1c5,-96 -2,-198 0,-291l0 -73c0,-14 -1,-16 4,-22 -8,-15 -3,-47 -3,-67 1,-83 2,-37 6,-59 1,-1 2,-1 2,-2 -3,-5 -6,-6 -8,-16 -5,-17 -2,-25 -20,-45 -15,-16 -29,-24 -60,-26 -101,5 -217,0 -319,0l-644 0c-59,0 -99,-6 -125,35 -19,29 -11,91 -12,129 -1,15 3,12 -7,15z"/>
  <path class="fil2" d="M342 2159l0 593 316 -1 1 -566c0,-64 3,-67 -68,-67l-187 0c-43,0 -62,-5 -62,41z"/>
  <path class="fil3" d="M702 1697c-18,16 -33,15 -53,15l-22 3 1 257c17,41 40,56 94,55l452 0c100,2 203,1 303,0 50,0 100,1 150,0 46,-1 105,9 142,-11 6,57 -37,168 -50,230l49 12c5,25 1,205 2,248 1,42 -1,83 0,125 1,28 -7,108 3,121 -2,-72 0,-148 0,-220l-1 -551c0,-38 -9,-79 34,-79 -4,-21 -3,-80 -1,-103l-3 -182c-13,-1 -28,1 -42,-1 -16,-3 -19,-8 -31,-12 0,64 0,128 0,192 0,75 -18,96 -93,96l-847 0c-115,0 -84,-79 -87,-195z"/>
  <path class="fil4" d="M1473 1321c2,26 12,42 29,52 20,11 47,7 70,7 48,0 112,-3 157,1 -1,24 -20,26 -19,58 1,31 18,31 19,55 2,30 -17,26 -18,57 -2,32 9,34 18,53 12,4 15,9 31,12 14,2 29,0 42,1l3 182 251 0 1 -309c3,-19 1,-74 3,-105 0,-10 2,4 -2,-8 -6,-16 -5,-31 -13,-47 -44,-98 -156,-62 -240,-71l-76 1c-39,3 -136,0 -185,0 -34,1 -28,5 -52,13 0,-27 3,-153 -2,-168 2,37 0,80 0,118 0,100 -8,26 -17,98z"/>
  <path class="fil5" d="M233 1370l37 -3c4,16 2,20 10,30 24,9 276,-17 327,-17l19 -6 -2 -533 1 28 -305 -99c-9,24 -25,30 -57,29l-37 112c20,21 31,8 30,60l369 121 -1 29c-40,-8 -35,-17 -85,-13 -31,2 -63,4 -94,6 -38,3 -161,7 -187,14 -11,42 -11,30 -43,50l9 116c35,17 30,5 49,45l352 -24 -2 30c-65,2 -132,8 -197,13 -33,2 -68,2 -100,6 -44,5 -77,-3 -93,6z"/>
  <path class="fil4" d="M628 1972l-1 -257 22 -3c20,0 35,1 53,-15 22,-26 27,-61 0,-89 -6,-9 -22,-15 -37,-16 -23,-1 -37,8 -39,-12 -2,-31 3,-70 0,-104 -111,-2 -202,74 -235,161 -22,59 -17,112 -17,181 0,44 -5,161 2,196l249 0 3 -42z"/>
  <path class="fil0" d="M1877 307c-29,13 -37,69 -34,84 7,32 41,34 75,44l464 128c54,15 107,42 123,-16 22,-74 2,-76 -64,-94l-464 -128c-24,-7 -77,-27 -100,-18z"/>
  <path class="fil6" d="M1473 1321c9,-72 17,2 17,-98 0,-38 2,-81 0,-118l-107 0 0 194 -46 1 -108 0 -48 -2 0 -272 -105 0 0 273 -48 1 -107 0 -87 -1c-5,-73 9,-420 -3,-452 -27,-6 -19,22 -19,45 0,65 -4,420 2,427 6,7 297,3 328,3 75,0 272,3 331,-1z"/>
  <path class="fil7" d="M1930 258c19,13 524,138 603,167 54,20 19,89 6,137l-83 302c-10,33 -31,130 -47,148 30,3 66,27 92,6 18,-14 24,-53 32,-80 16,-59 32,-116 48,-175l72 -262c22,-80 -11,-73 -109,-100 -29,-8 -58,-17 -87,-24l-483 -133c-30,-2 -25,14 -44,14z"/>
  <path class="fil6" d="M233 1370c16,-9 49,-1 93,-6 32,-4 67,-4 100,-6 65,-5 132,-11 197,-13l2 -30 -352 24c-19,-40 -14,-28 -49,-45l-9 -116c32,-20 32,-8 43,-50 26,-7 149,-11 187,-14 31,-2 63,-4 94,-6 50,-4 45,5 85,13l1 -29 -369 -121c1,-52 -10,-39 -30,-60l37 -112c32,1 48,-5 57,-29l305 99 -1 -28c-6,-1 -5,1 -5,-4l-263 -86c-19,-7 -70,-29 -91,-23 -9,5 -85,231 -79,243 12,18 49,17 70,30 26,17 194,71 223,77 -5,5 -1,2 -8,5l-65 6c-24,1 -49,4 -75,5 -25,1 -49,3 -74,5 -86,7 -75,-19 -62,154 1,24 3,48 5,72 2,34 -5,45 33,45z"/>
  <path class="fil5" d="M2257 1831l41 -144 147 39c28,-68 -24,-138 -54,-162 -103,-81 -269,5 -243,148 10,58 65,117 109,119z"/>
  <polygon class="fil8" points="1229,1300 1337,1300 1335,846 1229,846 "/>
  <polygon class="fil9" points="921,1300 1028,1300 1027,908 921,910 "/>
  <path class="fil10" d="M2341 727c-11,10 -40,131 -46,154 -7,26 -26,62 0,71 13,5 68,22 79,15 9,-8 40,-132 46,-154 7,-24 26,-63 2,-73 -16,-6 -69,-23 -81,-13z"/>
  <path class="fil9" d="M2276 1863c48,10 85,4 122,-19 26,-15 60,-52 65,-90l-145 -39c-7,11 -39,129 -42,148z"/>
  <path class="fil10" d="M1960 855c10,-13 28,-67 25,-90 -10,-10 -69,-28 -91,-25 -7,9 -31,73 -23,89 5,11 72,28 89,26z"/>
  <path class="fil10" d="M2122 803c-10,-11 -68,-28 -91,-25 -11,15 -15,40 -22,63 -11,38 9,34 39,43 27,7 50,22 59,-9 4,-16 17,-56 15,-72z"/>
  <path class="fil10" d="M2258 841c-11,-13 -83,-29 -90,-25 -11,14 -17,44 -22,66 -10,35 13,32 42,40 24,7 47,22 56,-11 5,-16 19,-57 14,-70z"/>
  <path class="fil10" d="M1995 722c12,-6 28,-70 26,-88 -12,-11 -47,-18 -65,-23 -37,-10 -34,14 -42,42 -9,31 -21,47 12,57 15,4 58,19 69,12z"/>
  <path class="fil10" d="M2080 608c11,7 72,28 88,23 14,-11 17,-43 23,-63 11,-36 -6,-34 -36,-42 -26,-7 -52,-24 -61,8 -5,17 -18,55 -14,74z"/>
  <path class="fil10" d="M1859 687c10,-13 10,-21 16,-40 18,-65 18,-52 -54,-73 -38,-11 -35,9 -43,38 -7,27 -23,50 8,59 17,5 55,17 73,16z"/>
  <path class="fil10" d="M1942 570c10,6 74,31 90,23 8,-5 30,-76 25,-87 -5,-11 -25,-14 -39,-18 -12,-3 -37,-13 -49,-9 -13,5 -29,72 -27,91z"/>
  <path class="fil10" d="M2469 620c-8,-16 -80,-30 -89,-26 -9,4 -31,75 -25,88 5,10 76,30 88,25 11,-5 13,-26 17,-39 4,-16 13,-33 9,-48z"/>
  <path class="fil10" d="M2217 646c9,6 75,29 88,23 10,-5 30,-78 26,-87 -4,-11 -25,-15 -38,-18 -12,-4 -40,-13 -50,-9 -13,4 -30,72 -26,91z"/>
  <path class="fil10" d="M1829 444c-11,9 -10,18 -16,41 -4,13 -13,35 -7,46 5,9 79,31 91,23 7,-6 27,-79 22,-88 -5,-9 -78,-32 -90,-22z"/>
  <path class="fil10" d="M2158 672c-13,-11 -78,-30 -90,-24 -9,5 -30,77 -25,88 6,12 80,29 88,26 12,-5 29,-70 27,-90z"/>
  <path class="fil10" d="M2208 685c-19,11 -30,82 -28,87 5,15 81,31 88,28 14,-6 30,-80 26,-89 -4,-11 -77,-30 -86,-26z"/>
 </g>
</svg>
