<?xml version="1.0" encoding="UTF-8"?>
<!DOCTYPE svg PUBLIC "-//W3C//DTD SVG 1.1//EN" "http://www.w3.org/Graphics/SVG/1.1/DTD/svg11.dtd">
<!-- Creator: CorelDRAW X7 -->
<svg xmlns="http://www.w3.org/2000/svg" xml:space="preserve" width="3in" height="3in" version="1.1" style="shape-rendering:geometricPrecision; text-rendering:geometricPrecision; image-rendering:optimizeQuality; fill-rule:evenodd; clip-rule:evenodd"
viewBox="0 0 3000 3000"
 xmlns:xlink="http://www.w3.org/1999/xlink"
 enable-background="new 0 0 512 512">
 <defs>
  <style type="text/css">
   <![CDATA[
    .fil4 {fill:#4C7790}
    .fil3 {fill:#5B5E71}
    .fil1 {fill:#BAC1CE}
    .fil0 {fill:#DCE0ED}
    .fil2 {fill:#FDD57A}
    .fil7 {fill:#003399;fill-rule:nonzero}
    .fil6 {fill:#285680;fill-rule:nonzero}
    .fil5 {fill:red;fill-rule:nonzero}
   ]]>
  </style>
 </defs>
 <g id="Layer_x0020_1">
  <metadata id="CorelCorpID_0Corel-Layer"/>
  <g id="_838762400">
   <path class="fil0" d="M2945 2429c-15,-19 -51,-34 -77,-50 -31,-19 -57,-33 -86,-49 -51,-31 -101,-82 -101,-162l-7 -37c-6,-9 -13,-52 -24,-74 -80,-156 -325,-210 -394,-286 -24,-5 -66,-30 -87,-46l-21 -10 -86 -53 -30 -12c-2,-3 -5,-2 -7,-3 -13,-20 -52,-30 -73,-47 -29,-15 -31,-2 -77,-33l-20 -16c-1,-1 -2,-2 -3,-3 -74,-88 -64,-46 -68,-203l0 -89c-2,-79 9,-144 -20,-216 -12,-30 -24,-48 -43,-71 -19,-23 -42,-38 -53,-58l-34 -18c-34,-11 -68,-36 -101,-55 -38,-2 -87,36 -117,55l-617 363c-26,15 -83,41 -98,65l114 74c44,24 69,54 94,92 27,44 38,92 37,151 -1,63 9,120 3,180 -2,23 -5,61 -1,89 8,39 17,47 30,67 20,29 13,33 42,55 52,41 93,50 152,85 49,32 88,61 146,90 33,17 61,27 93,51 84,67 317,148 373,240 109,175 17,153 96,269 32,47 225,149 233,149l832 -484z"/>
   <path class="fil1" d="M124 2309l826 479c70,40 136,78 206,118 91,53 172,-16 237,-52 68,-40 137,-81 206,-119 34,-20 65,-39 102,-60 34,-20 75,-40 106,-60l3 59c43,85 20,114 165,198 35,21 110,71 145,80 113,-76 466,-270 615,-360 34,-20 68,-38 103,-59 37,-22 71,-44 107,-62l0 -42 -832 484c-8,0 -201,-102 -233,-149 -79,-116 13,-94 -96,-269 -56,-92 -289,-173 -373,-240 -32,-24 -60,-34 -93,-51 -58,-29 -97,-58 -146,-90 -59,-35 -100,-44 -152,-85 -29,-22 -22,-26 -42,-55 -13,-20 -22,-28 -30,-67 -4,-28 -1,-66 1,-89 6,-60 -4,-117 -3,-180 1,-59 -10,-107 -37,-151 -25,-38 -50,-68 -94,-92l-114 -74c15,-24 72,-50 98,-65l617 -363c30,-19 79,-57 117,-55 30,-21 91,-60 128,-75l1 113c-21,8 -15,2 -28,17l34 18 29 -24 -1 -181 -561 321c-55,31 -556,328 -550,310l0 194c10,2 105,-55 123,-66 60,-36 71,-63 128,-24 88,61 89,180 79,318l-1 91 -788 451c-2,-334 -3,-667 -3,-1001 0,-257 -27,-255 147,-354 315,-176 634,-369 952,-550l477 -275c44,-25 120,-80 171,-81 -17,-11 -65,-43 -83,-45 -35,-6 -53,15 -89,37 -320,188 -676,381 -988,569 -28,17 -51,31 -81,48l-249 144c-66,37 -279,146 -314,199 -35,55 -24,154 -24,240 0,352 7,684 7,1036 20,4 58,30 75,41z"/>
   <path class="fil2" d="M915 1759c10,-138 9,-257 -79,-318 -57,-39 -68,-12 -128,24 -18,11 -113,68 -123,66l-107 -60 0 -192c29,-24 112,-68 147,-87l764 -441c50,-30 102,-57 154,-89 43,-26 36,-32 78,-7 26,17 58,28 75,51l1 181 -29 24c11,20 34,35 53,58 19,23 31,41 43,71 29,72 18,137 20,216l30 -18 -3 -1084c-26,4 -499,285 -572,326l-862 498c-150,89 -174,71 -174,166l2 569c0,145 -6,308 2,451l708 -405z"/>
   <path class="fil3" d="M915 1759l-708 405c-8,-143 -2,-306 -2,-451l-2 -569c0,-95 24,-77 174,-166l862 -498c73,-41 546,-322 572,-326l3 1084 -30 18 0 89 112 -61 0 -1107c0,-69 13,-103 -26,-137 -51,1 -127,56 -171,81l-477 275c-318,181 -637,374 -952,550 -174,99 -147,97 -147,354 0,334 1,667 3,1001l788 -451 1 -91z"/>
   <path class="fil1" d="M1784 1345c4,157 -6,115 68,203 1,1 2,2 3,3l20 16c46,31 48,18 77,33 39,-26 83,-48 125,-73 38,-22 45,-38 125,23 -16,20 -146,94 -177,97 2,1 5,0 7,3l30 12c26,-23 90,-52 124,-73 71,-44 57,-6 125,21 -6,7 -3,4 -12,11l-30 18c-16,10 -25,16 -42,26 -27,15 -60,28 -79,50l21 10c19,-20 96,-57 126,-75 27,-17 36,-40 109,16 1,1 2,2 3,3l11 11 -162 91c69,76 314,130 394,286 11,22 18,65 24,74 -2,-23 5,-20 21,-31 66,-40 223,-118 263,-158l0 -40c-120,-81 -397,-231 -528,-310l-534 -308 -112 61z"/>
   <path class="fil0" d="M585 1531l0 -194c-6,18 495,-279 550,-310l561 -321c-17,-23 -49,-34 -75,-51 -42,-25 -35,-19 -78,7 -52,32 -104,59 -154,89l-764 441c-35,19 -118,63 -147,87l0 192 107 60z"/>
   <path class="fil3" d="M1810 2674l-3 -59c-31,20 -72,40 -106,60 -37,21 -68,40 -102,60 -69,38 -138,79 -206,119 -65,36 -146,105 -237,52 -70,-40 -136,-78 -206,-118l-826 -479 0 108c180,95 433,237 623,331 36,18 66,36 106,56l206 111c191,96 152,113 441,-62l310 -179z"/>
   <path class="fil3" d="M620 2494c11,10 73,48 85,47l271 -159c-101,-61 -74,-54 -176,7 -58,33 -127,68 -180,105z"/>
   <path class="fil3" d="M517 2430l80 50 228 -132c-9,-8 -65,-43 -75,-45 -22,-4 -60,24 -80,37 -52,30 -104,56 -153,90z"/>
   <path class="fil3" d="M301 2305c91,82 91,44 283,-63 -18,-21 -53,-37 -82,-51l-201 114z"/>
   <path class="fil3" d="M2674 2131l7 37 166 -93c121,-70 118,-53 111,-133 -40,40 -197,118 -263,158 -16,11 -23,8 -21,31z"/>
   <path class="fil3" d="M2169 1725c21,16 63,41 87,46l162 -91 -11 -11c-1,-1 -2,-2 -3,-3 -73,-56 -82,-33 -109,-16 -30,18 -107,55 -126,75z"/>
   <path class="fil3" d="M1759 2509c-18,-33 -94,-68 -138,-94 -29,-17 -52,-29 -77,-45 -22,-12 -64,-48 -78,-12 -16,38 71,73 127,105 50,27 107,82 166,46z"/>
   <path class="fil3" d="M1952 1600c21,17 60,27 73,47 31,-3 161,-77 177,-97 -80,-61 -87,-45 -125,-23 -42,25 -86,47 -125,73z"/>
   <path class="fil3" d="M2062 1662l86 53c19,-22 52,-35 79,-50 17,-10 26,-16 42,-26l30 -18c9,-7 6,-4 12,-11 -68,-27 -54,-65 -125,-21 -34,21 -98,50 -124,73z"/>
   <path class="fil3" d="M409 2369c12,15 33,24 53,35 31,19 37,10 64,-5 39,-23 83,-44 115,-71l-55 -36c-31,-17 -38,-8 -64,8 -29,17 -91,49 -113,69z"/>
   <path class="fil3" d="M1874 1524c3,3 5,4 11,10 2,1 12,7 13,8 11,7 16,9 26,16 32,20 27,19 60,0l110 -68c-12,-10 -31,-22 -49,-34 -27,-16 -33,-16 -60,0 -36,20 -79,44 -111,68z"/>
   <path class="fil3" d="M1138 2322c73,69 101,41 168,-1l24 -19c-21,-20 -68,-53 -95,-41 -11,5 -35,20 -48,28l-49 33z"/>
   <path class="fil3" d="M999 2398c15,15 73,53 92,46 13,-4 92,-53 99,-62 -73,-65 -93,-51 -191,16z"/>
   <path class="fil3" d="M866 2477c24,24 67,55 97,42 25,-10 69,-41 94,-54 -14,-19 -70,-55 -97,-45 -13,4 -87,51 -94,57z"/>
   <path class="fil3" d="M727 2557c25,16 70,54 99,41 14,-6 88,-52 95,-59 -23,-16 -71,-54 -99,-40 -15,7 -87,51 -95,58z"/>
   <path class="fil4" d="M624 1361l-3 109c30,-12 116,-57 130,-75 -23,-17 -70,-45 -92,-54l-35 20z"/>
   <path class="fil4" d="M1533 838c33,19 67,44 101,55 13,-15 7,-9 28,-17l-1 -113c-37,15 -98,54 -128,75z"/>
   <path class="fil3" d="M1030 2261c71,31 65,75 167,-4 -67,-51 -89,-62 -156,-6 -8,6 -6,5 -11,10z"/>
   <path class="fil3" d="M875 2221c12,12 63,49 81,49 12,0 69,-35 86,-45 -99,-83 -94,-36 -167,-4z"/>
   <path class="fil3" d="M1827 1429c63,47 78,67 163,-1 -12,-11 -66,-45 -81,-46 -16,0 -25,9 -41,17l-30 19c-7,6 -7,7 -11,11z"/>
   <path class="fil3" d="M694 2202c8,9 68,47 81,48 14,1 29,-12 42,-19 19,-11 30,-15 44,-31 -89,-41 -56,-71 -167,2z"/>
   <path class="fil3" d="M768 2288c16,10 69,45 86,44 15,-2 73,-41 81,-50 -16,-9 -74,-45 -86,-44 -12,1 -74,42 -81,50z"/>
   <path class="fil3" d="M923 2322c15,9 70,45 86,44 14,-2 70,-41 80,-49 -15,-8 -72,-46 -83,-45 -19,1 -73,39 -83,50z"/>
   <path class="fil3" d="M588 2270c20,8 71,42 83,41 10,0 66,-34 84,-42 -16,-18 -70,-51 -83,-51 -13,0 -26,11 -43,20 -19,11 -27,15 -41,32z"/>
   <path class="fil3" d="M635 2116c16,11 70,46 83,45 16,-1 74,-39 83,-49 -95,-54 -73,-61 -166,4z"/>
   <path class="fil3" d="M742 2053c16,11 65,43 80,44 18,3 73,-34 84,-46 -14,-12 -65,-45 -79,-45 -15,0 -74,37 -85,47z"/>
   <path class="fil3" d="M982 2158c3,2 4,2 5,4l32 23c14,9 27,17 45,25l86 -47c-89,-77 -97,-41 -168,-5z"/>
   <path class="fil3" d="M526 2175c105,78 67,47 166,5 -12,-13 -63,-50 -81,-50 -12,0 -69,36 -85,45z"/>
   <path class="fil3" d="M802 2139l79 51 88 -48c-90,-65 -80,-52 -167,-3z"/>
   <path class="fil3" d="M910 2077c7,10 55,41 70,46 24,7 61,-19 75,-31 -23,-23 -44,-31 -71,-56l-74 41z"/>
   <path class="fil3" d="M853 1988l82 52 35 -20c-7,-23 -7,-15 -20,-38 -7,-15 -9,-22 -22,-38l-75 44z"/>
   <path class="fil5" d="M1147 1214c10,-3 17,-4 22,-4 7,1 12,4 16,10 5,6 6,13 3,21 -3,9 -10,18 -22,26l-43 28 -2 -2c4,-3 7,-5 8,-6 1,-2 1,-4 1,-5 0,-2 -2,-5 -5,-9l-37 -55c-3,-5 -5,-7 -6,-8 -2,-1 -3,-1 -5,-1 -2,0 -5,2 -9,4l-1 -2 40 -27c10,-7 17,-10 23,-11 5,-1 10,-1 14,1 5,2 8,5 11,9 3,4 4,8 3,14 -1,5 -5,11 -11,17zm-23 14c5,-4 9,-8 11,-11 2,-3 3,-6 3,-10 0,-3 -1,-7 -4,-10 -2,-4 -5,-7 -8,-8 -3,-2 -7,-2 -10,-1 -4,0 -9,3 -15,7l23 33zm3 5l18 27 2 3c1,2 3,4 5,4 2,0 4,0 6,-2 3,-2 6,-5 8,-8 2,-3 2,-7 2,-11 0,-4 -2,-7 -4,-11 -3,-4 -6,-7 -10,-8 -4,-2 -8,-3 -12,-2 -4,1 -9,3 -15,8z"/>
   <path id="1" class="fil5" d="M1250 1207l2 2 -44 29 -2 -2 3 -2c2,-1 4,-3 5,-5 1,-1 1,-3 1,-5 -1,-1 -2,-4 -5,-8l-37 -56c-3,-4 -5,-6 -6,-7 -1,-1 -3,-1 -5,-1 -2,0 -4,1 -6,2l-3 2 -1 -2 44 -29 1 2 -3 2c-2,1 -4,3 -5,5 0,1 0,3 0,5 0,1 2,4 4,8l37 56c3,4 5,6 6,7 2,1 3,1 5,1 2,0 4,-1 7,-2l2 -2z"/>
   <path id="2" class="fil5" d="M1315 1124l17 31 -75 50 -1 -2 2 -2c3,-1 4,-3 5,-5 1,-1 1,-3 1,-5 0,-1 -2,-4 -5,-8l-37 -56c-2,-4 -5,-6 -6,-7 -1,-1 -2,-1 -4,-1 -2,0 -4,1 -7,2l-3 2 -1 -2 45 -30 1 2 -3 3c-3,1 -4,3 -5,5 -1,1 -1,3 -1,5 0,1 2,4 5,8l35 54c3,4 5,7 7,7 1,1 3,2 4,1 2,0 4,-2 8,-4l7 -5c5,-3 8,-6 10,-10 2,-3 3,-8 3,-12 0,-5 -2,-12 -4,-20l2 -1z"/>
   <path id="3" class="fil5" d="M1400 1067l17 32 -75 49 -2 -2 3 -2c3,-1 4,-3 5,-5 1,-1 1,-3 1,-5 0,-1 -2,-4 -5,-8l-37 -55c-3,-5 -5,-7 -6,-8 -1,-1 -3,-1 -5,-1 -1,0 -4,1 -6,2l-3 2 -1 -2 45 -30 1 2 -3 3c-3,1 -5,3 -5,5 -1,1 -1,3 -1,5 0,1 2,4 5,8l35 54c3,4 5,7 7,8 1,0 2,1 4,0 2,0 4,-2 8,-4l7 -5c5,-3 8,-6 10,-10 2,-3 3,-7 3,-12 0,-5 -2,-12 -4,-20l2 -1z"/>
   <path id="4" class="fil6" d="M1218 1408c3,-2 6,-2 9,-2 4,1 6,3 8,6 2,2 3,6 2,9 -1,3 -2,6 -5,8 -3,2 -6,2 -10,2 -3,-1 -5,-3 -7,-6 -2,-2 -3,-6 -2,-9 0,-3 2,-6 5,-8z"/>
   <path id="5" class="fil6" d="M1250 1387c3,-2 6,-3 9,-2 4,1 6,2 8,5 2,3 3,6 2,10 -1,3 -3,6 -5,8 -3,1 -6,2 -10,1 -3,0 -6,-2 -8,-5 -2,-3 -2,-6 -1,-9 0,-4 2,-6 5,-8z"/>
   <path id="6" class="fil6" d="M1282 1365c3,-1 6,-2 9,-1 3,0 6,2 8,5 2,3 2,6 2,9 -1,4 -3,6 -6,8 -2,2 -6,3 -9,2 -3,-1 -6,-2 -8,-5 -2,-3 -2,-6 -2,-10 1,-3 3,-6 6,-8z"/>
   <path id="7" class="fil6" d="M1313 1344c3,-2 6,-2 10,-2 3,1 6,3 8,6 2,2 2,6 2,9 -1,3 -3,6 -6,8 -3,2 -6,2 -9,2 -3,-1 -6,-3 -8,-6 -2,-2 -3,-6 -2,-9 1,-3 3,-6 5,-8z"/>
   <path id="8" class="fil6" d="M1345 1323c3,-2 6,-3 10,-2 3,1 6,2 8,5 1,3 2,6 1,10 0,3 -2,6 -5,8 -3,1 -6,2 -9,1 -4,0 -6,-2 -8,-5 -2,-3 -3,-6 -2,-9 1,-4 2,-6 5,-8z"/>
   <path id="9" class="fil6" d="M1377 1301c3,-1 6,-2 9,-1 4,0 6,2 8,5 2,3 3,6 2,9 -1,4 -2,6 -5,8 -3,2 -6,3 -9,2 -4,-1 -6,-2 -8,-5 -2,-3 -3,-6 -2,-10 0,-3 2,-6 5,-8z"/>
   <path id="10" class="fil6" d="M1409 1280c3,-2 6,-2 9,-2 4,1 6,3 8,6 2,2 3,6 2,9 -1,3 -3,6 -5,8 -3,2 -6,2 -10,2 -3,-1 -6,-3 -8,-6 -2,-2 -2,-6 -1,-9 0,-3 2,-6 5,-8z"/>
   <path id="11" class="fil6" d="M1441 1259c3,-2 6,-3 9,-2 3,1 6,2 8,5 2,3 2,6 2,10 -1,3 -3,6 -6,8 -2,1 -6,2 -9,1 -3,0 -6,-2 -8,-5 -2,-3 -2,-6 -2,-9 1,-4 3,-6 6,-8z"/>
   <path id="12" class="fil6" d="M1472 1237c3,-1 6,-2 10,-1 3,0 6,2 8,5 2,3 2,6 2,9 -1,4 -3,6 -6,8 -3,2 -6,3 -9,2 -3,-1 -6,-2 -8,-5 -2,-3 -3,-6 -2,-10 1,-3 3,-6 5,-8z"/>
   <path id="13" class="fil6" d="M1504 1216c3,-2 6,-2 10,-2 3,1 6,3 8,6 1,2 2,6 1,9 0,3 -2,6 -5,8 -3,2 -6,2 -9,2 -4,-1 -6,-3 -8,-6 -2,-2 -3,-6 -2,-9 1,-3 2,-6 5,-8z"/>
   <path id="14" class="fil6" d="M1536 1195c3,-2 6,-3 9,-2 4,1 6,2 8,5 2,3 3,6 2,10 -1,3 -2,6 -5,8 -3,1 -6,2 -9,1 -4,0 -6,-2 -8,-5 -2,-3 -3,-6 -2,-9 0,-4 2,-6 5,-8z"/>
   <path id="15" class="fil6" d="M1312 1549c3,-2 7,-3 10,-2 3,1 6,3 8,5 2,3 2,6 2,10 -1,3 -3,6 -6,8 -3,2 -6,2 -9,2 -3,-1 -6,-3 -8,-6 -2,-3 -2,-6 -2,-9 1,-3 3,-6 5,-8z"/>
   <path id="16" class="fil6" d="M1344 1528c3,-2 6,-3 10,-2 3,0 6,2 8,5 2,3 2,6 1,9 0,4 -2,6 -5,8 -3,2 -6,3 -9,2 -4,0 -6,-2 -8,-5 -2,-3 -3,-6 -2,-9 1,-4 2,-6 5,-8z"/>
   <path id="17" class="fil6" d="M1376 1506c3,-2 6,-2 10,-2 3,1 6,3 7,6 2,3 3,6 2,9 0,4 -2,6 -5,8 -3,2 -6,3 -9,2 -4,-1 -6,-3 -8,-5 -2,-3 -3,-6 -2,-10 0,-3 2,-6 5,-8z"/>
   <path id="18" class="fil6" d="M1408 1485c3,-2 6,-3 9,-2 4,1 6,3 8,5 2,3 3,6 2,10 -1,3 -2,6 -5,8 -3,2 -6,2 -10,2 -3,-1 -6,-3 -8,-6 -1,-3 -2,-6 -1,-9 0,-3 2,-6 5,-8z"/>
   <path id="19" class="fil6" d="M1440 1464c3,-2 6,-3 9,-2 3,1 6,2 8,5 2,3 3,6 2,9 -1,4 -3,7 -5,8 -3,2 -6,3 -10,2 -3,0 -6,-2 -8,-5 -2,-3 -2,-6 -2,-9 1,-4 3,-6 6,-8z"/>
   <path id="20" class="fil6" d="M1472 1442c2,-2 6,-2 9,-2 3,1 6,3 8,6 2,3 2,6 2,9 -1,4 -3,6 -6,8 -3,2 -6,3 -9,2 -3,-1 -6,-3 -8,-5 -2,-3 -2,-6 -2,-10 1,-3 3,-6 6,-8z"/>
   <path id="21" class="fil6" d="M1503 1421c3,-2 6,-3 10,-2 3,1 6,3 8,5 2,3 2,6 1,10 0,3 -2,6 -5,8 -3,2 -6,2 -9,2 -4,-1 -6,-3 -8,-6 -2,-3 -3,-6 -2,-9 1,-3 2,-6 5,-8z"/>
   <path id="22" class="fil6" d="M1535 1400c3,-2 6,-3 10,-2 3,1 6,2 7,5 2,3 3,6 2,9 0,4 -2,7 -5,8 -3,2 -6,3 -9,2 -4,0 -6,-2 -8,-5 -2,-3 -3,-6 -2,-9 0,-4 2,-6 5,-8z"/>
   <path id="23" class="fil6" d="M1567 1378c3,-2 6,-2 9,-2 4,1 6,3 8,6 2,3 3,6 2,9 -1,4 -2,6 -5,8 -3,2 -6,3 -10,2 -3,-1 -6,-3 -8,-5 -1,-3 -2,-6 -1,-10 0,-3 2,-6 5,-8z"/>
   <path id="24" class="fil6" d="M1599 1357c3,-2 6,-3 9,-2 3,1 6,3 8,5 2,3 3,6 2,10 -1,3 -3,6 -5,8 -3,2 -6,2 -10,2 -3,-1 -6,-3 -8,-6 -2,-3 -2,-6 -2,-9 1,-3 3,-6 6,-8z"/>
   <path id="25" class="fil6" d="M1631 1336c2,-2 6,-3 9,-2 3,1 6,2 8,5 2,3 2,6 2,10 -1,3 -3,6 -6,7 -3,2 -6,3 -9,2 -3,0 -6,-2 -8,-5 -2,-3 -2,-6 -2,-9 1,-4 3,-6 6,-8z"/>
   <path id="26" class="fil6" d="M1501 1831c3,-2 7,-3 10,-2 3,1 6,2 8,5 2,3 2,6 2,10 -1,3 -3,6 -6,7 -3,2 -6,3 -9,2 -3,0 -6,-2 -8,-5 -2,-3 -2,-6 -2,-9 1,-4 3,-6 5,-8z"/>
   <path id="27" class="fil6" d="M1533 1809c3,-2 6,-2 10,-1 3,0 6,2 8,5 1,3 2,6 1,9 0,4 -2,6 -5,8 -3,2 -6,3 -9,2 -4,-1 -6,-2 -8,-5 -2,-3 -3,-6 -2,-10 1,-3 2,-6 5,-8z"/>
   <path id="28" class="fil6" d="M1565 1788c3,-2 6,-2 9,-2 4,1 6,3 8,6 2,2 3,6 2,9 0,3 -2,6 -5,8 -3,2 -6,2 -9,2 -4,-1 -6,-3 -8,-6 -2,-3 -3,-6 -2,-9 0,-3 2,-6 5,-8z"/>
   <path id="29" class="fil6" d="M1597 1767c3,-2 6,-3 9,-2 4,1 6,2 8,5 2,3 3,6 2,10 -1,3 -2,6 -5,7 -3,2 -6,3 -10,2 -3,0 -6,-2 -8,-5 -1,-3 -2,-6 -1,-9 0,-4 2,-6 5,-8z"/>
   <path id="30" class="fil6" d="M1629 1745c3,-2 6,-2 9,-1 3,0 6,2 8,5 2,3 3,6 2,9 -1,4 -3,6 -6,8 -2,2 -6,3 -9,2 -3,-1 -6,-2 -8,-5 -2,-3 -2,-6 -2,-10 1,-3 3,-6 6,-8z"/>
   <path id="31" class="fil6" d="M1660 1724c3,-2 7,-2 10,-2 3,1 6,3 8,6 2,2 2,6 2,9 -1,3 -3,6 -6,8 -3,2 -6,2 -9,2 -3,-1 -6,-3 -8,-6 -2,-2 -2,-6 -2,-9 1,-3 3,-6 5,-8z"/>
   <path id="32" class="fil6" d="M1692 1703c3,-2 6,-3 10,-2 3,1 6,2 8,5 2,3 2,6 1,10 0,3 -2,6 -5,8 -3,1 -6,2 -9,1 -4,0 -6,-2 -8,-5 -2,-3 -3,-6 -2,-9 1,-4 2,-6 5,-8z"/>
   <path id="33" class="fil6" d="M1724 1681c3,-1 6,-2 9,-1 4,0 6,2 8,5 2,3 3,6 2,9 0,4 -2,6 -5,8 -3,2 -6,3 -9,2 -4,-1 -6,-2 -8,-5 -2,-3 -3,-6 -2,-10 0,-3 2,-6 5,-8z"/>
   <path id="34" class="fil6" d="M1756 1660c3,-2 6,-2 9,-2 4,1 6,3 8,6 2,2 3,6 2,9 -1,3 -2,6 -5,8 -3,2 -6,2 -10,2 -3,-1 -6,-3 -8,-6 -1,-2 -2,-6 -1,-9 0,-3 2,-6 5,-8z"/>
   <path id="35" class="fil6" d="M1788 1639c3,-2 6,-3 9,-2 3,1 6,2 8,5 2,3 3,6 2,10 -1,3 -3,6 -6,8 -2,1 -5,2 -9,1 -3,0 -6,-2 -8,-5 -2,-3 -2,-6 -2,-9 1,-4 3,-6 6,-8z"/>
   <path class="fil7" d="M2111 2809l-34 -57 18 -11c7,-5 12,-7 15,-8 3,-1 7,-1 11,1 4,2 7,5 10,9 2,4 3,7 3,10 0,3 0,6 -1,9 -1,2 -3,4 -5,6 -2,2 -6,5 -11,8l-8 4 13 22 -11 7zm-17 -55l10 17 6 -4c5,-3 7,-5 9,-6 1,-2 1,-4 2,-5 0,-2 -1,-4 -2,-6 -1,-2 -3,-3 -5,-4 -2,0 -4,0 -6,1 -1,0 -4,2 -8,4l-6 3z"/>
   <path id="1" class="fil7" d="M2149 2758c-2,-4 -3,-8 -4,-12 0,-5 1,-9 3,-13 3,-4 6,-7 10,-9 6,-4 12,-5 19,-3 6,2 11,6 15,12 4,6 5,13 3,19 -2,7 -5,12 -12,15 -3,2 -8,4 -12,4 -4,0 -9,-1 -12,-3 -4,-2 -7,-6 -10,-10zm11 -6c3,4 6,6 9,7 3,1 6,1 9,-1 3,-1 5,-4 5,-7 1,-4 0,-7 -2,-11 -3,-4 -6,-7 -9,-8 -3,-1 -6,-1 -9,1 -3,2 -5,4 -5,7 -1,4 0,8 2,12z"/>
   <polygon id="2" class="fil7" points="2221,2744 2183,2711 2194,2704 2217,2727 2209,2696 2219,2689 2242,2712 2234,2681 2245,2674 2256,2723 2245,2730 2223,2707 2231,2738 "/>
   <path id="3" class="fil7" d="M2291 2685l12 -5c1,5 1,10 -1,14 -2,3 -5,7 -9,9 -8,5 -14,5 -20,3 -5,-2 -10,-6 -13,-12 -4,-7 -5,-13 -4,-19 1,-6 4,-11 10,-14 6,-4 12,-5 18,-3 6,2 12,7 16,16l-27 16c2,3 4,5 7,6 3,1 5,1 8,-1 2,-1 3,-2 3,-4 1,-1 1,-4 0,-6zm-6 -11c-1,-4 -4,-5 -6,-6 -3,-1 -5,-1 -7,1 -3,1 -4,3 -5,6 0,3 0,5 2,8l16 -9z"/>
   <path id="4" class="fil7" d="M2330 2680l-11 7 -24 -42 10 -6 3 6c1,-4 1,-6 2,-8 1,-2 2,-3 4,-4 2,-2 5,-3 8,-3l3 12c-3,0 -5,0 -7,1 -1,1 -2,2 -3,4 0,1 0,3 0,6 1,3 4,7 8,14l7 13z"/>
   <path id="5" class="fil7" d="M2367 2641l12 -5c1,5 1,9 -1,13 -2,4 -5,7 -10,10 -7,4 -14,5 -20,2 -5,-2 -9,-6 -12,-11 -4,-7 -6,-14 -4,-20 1,-6 4,-10 10,-14 6,-3 12,-4 18,-2 6,2 11,7 16,16l-27 16c2,3 4,5 7,6 3,1 5,0 8,-1 1,-1 3,-3 3,-4 1,-2 1,-4 0,-6zm-6 -12c-2,-3 -4,-5 -6,-5 -3,-1 -5,-1 -8,0 -2,2 -4,4 -4,7 -1,2 0,5 2,8l16 -10z"/>
   <path id="6" class="fil7" d="M2434 2620l-11 6 -3 -6c-1,3 -2,6 -3,8 -2,3 -4,5 -6,6 -5,3 -10,4 -16,2 -5,-2 -10,-6 -14,-13 -4,-7 -6,-14 -5,-19 1,-6 4,-10 9,-13 5,-3 10,-3 16,-1l-12 -21 11 -7 34 58zm-43 -5c3,5 6,8 8,9 3,2 7,2 10,0 2,-2 4,-4 4,-7 1,-3 0,-7 -3,-11 -2,-5 -5,-8 -8,-9 -3,-1 -6,-1 -9,1 -2,1 -4,3 -4,6 -1,4 0,7 2,11z"/>
   <path id="7" class="fil7" d="M2466 2601l-34 -57 11 -7 13 21c1,-6 4,-10 8,-13 5,-3 10,-4 16,-2 5,2 10,6 14,13 4,7 6,13 5,19 -1,6 -4,10 -9,13 -2,1 -5,2 -8,2 -3,1 -6,0 -9,-1l3 6 -10 6zm-2 -28c3,4 5,7 8,8 4,2 7,2 10,0 3,-2 4,-4 5,-7 0,-3 -1,-7 -4,-11 -2,-5 -5,-8 -8,-9 -3,-1 -6,-1 -9,1 -2,1 -4,4 -5,7 0,3 1,7 3,11z"/>
   <path id="8" class="fil7" d="M2486 2533l12 -6 27 23 -8 -35 12 -7 9 49 1 9c1,3 1,5 1,7 0,1 -1,3 -1,5 -1,1 -2,2 -4,4 -1,1 -3,3 -5,4 -2,1 -4,2 -6,3l-6 -8c2,-1 3,-2 5,-2 2,-2 4,-4 4,-6 0,-2 0,-5 -1,-7l-40 -33z"/>
   <path id="9" class="fil7" d="M2555 2486l-6 -10 11 -7 6 10 -11 7zm28 47l-25 -42 11 -6 24 41 -10 7z"/>
   <path id="10" class="fil7" d="M2629 2477l13 -3c2,7 2,14 0,19 -2,5 -6,10 -13,13 -7,5 -15,6 -23,4 -8,-3 -14,-8 -20,-17 -5,-10 -7,-19 -6,-27 2,-8 7,-14 15,-19 7,-4 14,-6 21,-4 4,1 8,3 12,7l-10 10c-2,-3 -5,-4 -8,-5 -3,0 -7,0 -10,2 -4,3 -6,6 -7,11 -1,4 1,10 5,17 4,7 8,12 13,13 4,2 8,1 12,-1 4,-2 6,-5 7,-8 1,-3 0,-7 -1,-12z"/>
   <path id="11" class="fil7" d="M2654 2452l-11 4c-1,-4 -1,-8 0,-12 2,-3 5,-7 11,-10 5,-3 9,-4 12,-5 3,0 5,0 7,2 2,1 5,4 8,9l7 12c2,4 4,7 5,8 2,2 3,3 6,5l-11 6c-1,-1 -2,-1 -3,-3 -1,0 -1,0 -1,-1 -1,3 -2,6 -4,8 -2,2 -4,4 -6,5 -4,3 -8,4 -12,3 -4,-1 -7,-3 -9,-7 -1,-2 -2,-4 -2,-7 0,-2 1,-5 2,-7 2,-2 4,-5 7,-8 5,-4 8,-7 9,-9l0 -1c-1,-2 -3,-3 -4,-3 -2,-1 -4,0 -7,2 -2,1 -3,2 -4,4 -1,1 -1,3 0,5zm20 1c-1,1 -3,3 -6,5 -3,3 -4,4 -5,6 -1,1 -1,3 0,5 1,1 3,2 4,3 2,0 4,0 6,-1 2,-1 3,-3 4,-6 1,-1 1,-3 1,-5 -1,-1 -1,-3 -3,-5l-1 -2z"/>
   <path id="12" class="fil7" d="M2718 2454l-11 6 -25 -41 10 -6 4 6c0,-4 0,-7 1,-9 1,-1 3,-3 4,-4 3,-1 6,-2 9,-2l2 12c-3,-1 -5,0 -6,1 -2,1 -3,2 -3,3 -1,2 -1,4 0,6 1,3 3,8 7,15l8 13z"/>
   <path id="13" class="fil7" d="M2755 2414l12 -4c1,4 0,9 -2,13 -1,4 -5,7 -9,10 -7,4 -14,5 -20,2 -5,-2 -9,-6 -13,-12 -4,-7 -5,-13 -4,-19 1,-6 5,-11 10,-14 6,-4 12,-5 18,-3 6,2 12,8 16,16l-27 16c2,4 4,6 7,6 3,1 6,1 8,-1 2,-1 3,-2 4,-4 0,-1 0,-3 0,-6zm-6 -11c-2,-3 -5,-5 -7,-6 -3,-1 -5,0 -7,1 -3,1 -4,3 -5,6 0,3 0,6 2,8l17 -9z"/>
  </g>
 </g>
</svg>
