<?xml version="1.0" encoding="UTF-8"?>
<!DOCTYPE svg PUBLIC "-//W3C//DTD SVG 1.1//EN" "http://www.w3.org/Graphics/SVG/1.1/DTD/svg11.dtd">
<!-- Creator: CorelDRAW X7 -->
<svg xmlns="http://www.w3.org/2000/svg" xml:space="preserve" width="3in" height="3in" version="1.1" style="shape-rendering:geometricPrecision; text-rendering:geometricPrecision; image-rendering:optimizeQuality; fill-rule:evenodd; clip-rule:evenodd"
viewBox="0 0 3000 3000"
 xmlns:xlink="http://www.w3.org/1999/xlink"
 enable-background="new 0 0 512 512">
 <defs>
  <style type="text/css">
   <![CDATA[
    .fil18 {fill:#285680}
    .fil19 {fill:#2980BA}
    .fil16 {fill:#2FA8CC}
    .fil17 {fill:#67B9CC}
    .fil3 {fill:#756E78}
    .fil8 {fill:#88A8D8}
    .fil0 {fill:#89808C}
    .fil15 {fill:#A87F7F}
    .fil14 {fill:#B58C8C}
    .fil13 {fill:#C1A0A0}
    .fil11 {fill:#D1CCD3}
    .fil12 {fill:#DB636E}
    .fil10 {fill:#E07F84}
    .fil9 {fill:#E0DDE0}
    .fil7 {fill:#E8AE4D}
    .fil5 {fill:#EDEAED}
    .fil6 {fill:#EFC984}
    .fil1 {fill:#F6E2BF}
    .fil4 {fill:#F7F4F7}
    .fil2 {fill:#FAEFDB}
   ]]>
  </style>
 </defs>
 <g id="Layer_x0020_1">
  <metadata id="CorelCorpID_0Corel-Layer"/>
  <g id="_832433168">
   <path class="fil0" d="M1676 388c0,-137 -111,-248 -248,-248l-829 0c-137,0 -248,111 -248,248 0,307 53,384 53,691l0 760 1219 0 0 -760c0,-307 53,-384 53,-691l0 0z"/>
   <path class="fil1" d="M1532 488l-72 0 0 192 72 0c34,0 62,-28 62,-62l0 -69c0,-34 -28,-61 -62,-61z"/>
   <path class="fil1" d="M844 488l-71 0c-35,0 -62,27 -62,61l0 69c0,34 27,62 62,62l71 0 0 -192z"/>
   <path class="fil2" d="M1152 1828l267 -613c-3,-1 -6,-42 -9,-43 -29,-4 -51,-29 -51,-58l0 -271 -413 0 0 271c0,29 -22,54 -52,58 -2,1 -5,42 -8,43l266 613z"/>
   <path class="fil3" d="M1706 140l-291 0c137,0 248,111 248,248 0,307 -53,384 -53,691l0 760 291 0 0 -760c0,-307 52,-384 52,-691 0,-137 -110,-248 -247,-248l0 0z"/>
   <path class="fil2" d="M1195 918c68,-59 98,-146 100,-236l0 -589c-40,-19 -88,-31 -143,-32 -101,2 -178,43 -233,90 -51,44 -85,103 -100,168l0 358c2,90 32,176 100,235 38,33 88,63 149,78 51,-16 93,-43 127,-72l0 0z"/>
   <path class="fil1" d="M1485 677l0 0 0 -358c-14,-65 -48,-124 -99,-168 -27,-23 -60,-45 -97,-61l-1 587c-2,90 -31,176 -99,235 -36,30 -80,58 -135,74 30,9 62,15 98,15 102,-1 179,-42 234,-89 68,-59 97,-145 99,-235l0 0z"/>
   <path class="fil4" d="M1673 1630c0,-113 -67,-216 -171,-262 -74,-33 -211,-58 -304,-72l-46 35 -225 -174c-9,8 -20,14 -33,15 -87,12 -266,39 -360,81 -104,46 -171,149 -171,262l0 388c0,46 37,83 83,83l1227 0 0 -356 0 0z"/>
   <path class="fil5" d="M1771 1253c-95,-42 -273,-69 -361,-81 -13,-1 -24,-7 -33,-15l-193 150c93,14 222,38 297,72 103,46 170,149 170,262l0 345 207 0c46,0 83,-37 83,-83l0 -388c0,-113 -67,-216 -170,-262l0 0z"/>
   <path class="fil6" d="M1156 260c44,0 88,-7 129,-21l9 -3c0,0 1,0 1,-1l0 -202 -6 -4 -277 0c-140,0 -253,113 -253,253l0 207c5,-1 9,-1 14,-1l58 0c26,-10 45,-35 45,-65l0 -131c0,-36 30,-66 66,-66l14 0c21,0 42,3 61,10l9 3c41,14 85,21 130,21z"/>
   <path class="fil7" d="M1532 488c4,0 9,0 13,1 0,-13 0,-75 0,-207 0,-140 -113,-253 -252,-253l-4 0 -1 209 6 -2c19,-7 40,-10 61,-10l7 0c37,0 66,30 66,66l0 131c0,30 19,55 45,65l59 0 0 0z"/>
   <polygon class="fil8" points="1206,1504 1098,1504 977,1986 1327,1986 "/>
   <path class="fil9" d="M894 1172c-22,3 -51,7 -82,12l81 210c12,30 48,44 77,29l182 -92 -225 -174c-8,8 -20,14 -33,15l0 0z"/>
   <path class="fil9" d="M1198 1296l-46 35 182 92c30,15 65,1 77,-29l20 -51c-73,-21 -165,-36 -233,-47l0 0z"/>
   <path class="fil10" d="M1673 1630c0,-113 -67,-216 -171,-262 -23,-11 -53,-20 -86,-29l-212 520c-19,46 -85,46 -104,0l-275 -677c-74,11 -167,28 -239,51l0 753 1087 0 0 -356 0 0z"/>
   <path class="fil11" d="M1425 1358l68 -174c-32,-5 -60,-9 -83,-12 -13,-1 -24,-7 -33,-15l-193 150c73,11 168,28 241,51z"/>
   <path class="fil12" d="M1480 1182l-70 171c26,8 50,16 71,26 103,46 170,149 170,262l0 345 68 0 0 -753c-73,-23 -166,-40 -239,-51l0 0z"/>
   <path class="fil13" d="M1950 2246l0 -532 -1874 0 0 532c0,33 27,60 60,60l1755 0c33,0 59,-27 59,-60z"/>
   <path class="fil14" d="M1938 1714l0 532c0,33 -26,60 -59,60l290 0c32,0 59,-27 59,-60l0 -532 -290 0z"/>
   <path class="fil14" d="M2013 1809l0 -106 -12 -19 -1925 0c-34,0 -63,28 -63,63l0 62c0,35 29,63 63,63l1874 0c35,0 63,-28 63,-63z"/>
   <path class="fil15" d="M2228 1684l-227 0 0 125c0,35 -28,63 -63,63l290 0c35,0 63,-28 63,-63l0 -62c0,-35 -28,-63 -63,-63z"/>
   <path id="Shape" class="fil16" d="M1940 2618l-246 92c-24,9 -50,-1 -63,-23l-111 -192c-13,-23 -8,-51 11,-67l203 -166c16,142 90,271 206,356l0 0z"/>
   <path id="Shape_0" class="fil17" d="M2763 2141c-16,-141 -90,-269 -206,-355 -32,-23 -66,-44 -103,-59 -131,-57 -280,-57 -411,0 -36,15 -71,36 -103,59 -116,86 -190,214 -206,355 -5,41 -5,81 0,121 16,142 90,271 206,356 32,24 67,43 103,59 131,57 280,57 411,0 37,-16 71,-35 103,-59 116,-85 190,-214 206,-356 5,-40 5,-80 0,-121zm-515 268c-114,0 -206,-93 -206,-207 0,-114 92,-208 206,-208 115,0 207,94 207,208 0,55 -21,107 -60,146 -38,40 -92,61 -147,61l0 0z"/>
   <circle id="Oval" class="fil18" cx="2248" cy="2202" r="207"/>
   <path id="Shape_1" class="fil16" d="M2454 1727c-131,-57 -280,-57 -411,0l43 -259c4,-24 26,-43 51,-43l223 0c25,0 47,19 51,43l43 259z"/>
   <path id="Shape_2" class="fil16" d="M2454 2677l-43 259c-1,6 -3,14 -7,19 -9,15 -26,24 -44,24l-223 0c-25,0 -47,-18 -51,-43l-43 -259c131,57 280,57 411,0l0 0z"/>
   <path id="Shape_3" class="fil16" d="M1940 1786c-116,86 -190,214 -206,355l-203 -165c-19,-17 -24,-45 -11,-66l69 -120 42 -73c13,-22 39,-32 63,-22l188 70 58 21z"/>
   <path id="Shape_4" class="fil16" d="M2977 2495l-111 192c-12,22 -39,32 -63,23l-246 -92c116,-85 190,-214 206,-356l203 166c20,16 24,44 11,67l0 0z"/>
   <path id="Shape_5" class="fil16" d="M2966 1976l-203 165c-16,-141 -90,-269 -206,-355l246 -91c24,-10 51,0 63,22l111 193c13,21 9,49 -11,66l0 0z"/>
   <path id="Shape_6" class="fil19" d="M2248 2462c-143,0 -259,-117 -259,-260 0,-143 116,-259 259,-259 144,0 260,116 260,259 0,143 -116,259 -260,260zm0 -415c-85,0 -155,69 -155,155 0,86 70,156 155,156 86,0 156,-70 156,-156 0,-86 -70,-155 -156,-155z"/>
  </g>
 </g>
</svg>
