<?xml version="1.0" encoding="UTF-8"?>
<!DOCTYPE svg PUBLIC "-//W3C//DTD SVG 1.1//EN" "http://www.w3.org/Graphics/SVG/1.1/DTD/svg11.dtd">
<!-- Creator: CorelDRAW X7 -->
<svg xmlns="http://www.w3.org/2000/svg" xml:space="preserve" width="3in" height="3in" version="1.1" style="shape-rendering:geometricPrecision; text-rendering:geometricPrecision; image-rendering:optimizeQuality; fill-rule:evenodd; clip-rule:evenodd"
viewBox="0 0 3000 3000"
 xmlns:xlink="http://www.w3.org/1999/xlink">
 <defs>
  <style type="text/css">
   <![CDATA[
    .fil1 {fill:#CCCC33}
    .fil3 {fill:red}
    .fil0 {fill:#FFFF99}
    .fil2 {fill:#FFFFCC}
    .fil4 {fill:white}
   ]]>
  </style>
 </defs>
 <g id="Layer_x0020_1">
  <metadata id="CorelCorpID_0Corel-Layer"/>
  <g id="_678434576">
   <path class="fil0" d="M603 1739c27,-13 89,-83 112,-107 70,-74 57,-38 57,-166l0 -1098c0,-44 -9,-184 9,-211 16,-15 1229,-6 1419,-6 85,0 416,-10 470,6 11,40 5,577 5,663 -1,263 7,2001 -5,2016 -33,24 -177,10 -227,10 -247,0 -1646,8 -1662,-6 -18,-26 -9,-113 -9,-151 -25,15 -60,54 -80,75l-78 73c-8,11 -15,17 7,54 11,17 23,30 35,42 79,76 268,50 395,50l1508 0c108,0 172,2 239,-57 61,-55 46,-157 46,-256l0 -2407c0,-113 -1,-168 -79,-217 -72,-45 -181,-32 -273,-32 -401,0 -802,-1 -1203,0 -117,0 -505,-16 -583,19 -103,47 -104,113 -102,196 5,284 -1,618 -1,906 0,199 -5,406 0,604z"/>
   <path class="fil1" d="M1009 2258c-10,-23 -19,-22 -47,-46 -19,-17 -26,-21 -46,-42 -31,-32 -57,-54 -86,-95 -24,-35 -46,-101 -63,-120 -30,-33 -63,-55 -102,-78 -25,16 -65,61 -90,86l-273 273c-42,42 -141,129 -168,190 -48,110 -16,211 42,281 49,60 157,98 261,72 111,-28 214,-177 296,-250 58,-51 244,-248 276,-271z"/>
   <path class="fil1" d="M1123 1418l-384 381c40,43 94,56 133,133 33,64 14,74 113,164 31,28 62,62 99,81 76,-69 132,-132 203,-199 63,-59 125,-131 172,-176 11,-10 19,-14 28,-25 44,23 77,58 145,16 37,-23 65,-87 35,-141 -13,-24 -304,-307 -354,-359 -13,-13 -37,-41 -52,-52 -71,-53 -183,2 -172,104 5,40 25,45 34,73z"/>
   <path class="fil2" d="M1030 266c-104,22 -77,147 -77,256 0,112 0,225 0,337 0,103 -25,234 87,242 56,4 288,7 335,-1 101,-17 75,-158 75,-258 0,-112 0,-224 0,-336 0,-102 26,-235 -90,-242 -49,-3 -295,-5 -330,2z"/>
   <path class="fil3" d="M1585 1913l-128 213c-88,157 -202,342 -95,498 43,61 118,121 230,120 174,-2 329,-167 242,-387 -30,-78 -71,-160 -113,-230l-123 -202c-8,-9 -6,-6 -13,-12z"/>
   <path class="fil2" d="M1725 603c-61,12 -110,80 -69,148 38,61 113,48 201,48 73,0 453,5 490,-2 62,-12 107,-86 65,-150 -40,-62 -116,-46 -201,-46 -69,0 -452,-5 -486,2z"/>
   <path class="fil2" d="M1724 939c-64,13 -107,84 -68,149 38,63 116,47 201,47 75,0 450,5 490,-2 60,-10 107,-84 65,-149 -40,-62 -116,-46 -201,-46 -68,0 -455,-5 -487,1z"/>
   <path class="fil2" d="M1724 266c-63,13 -108,81 -67,148 38,64 110,48 200,48 73,0 454,4 490,-2 60,-11 107,-84 65,-150 -40,-62 -116,-46 -201,-46 -66,0 -457,-4 -487,2z"/>
   <path class="fil4" d="M1544 2155c-30,7 -37,25 -52,51 -208,359 40,476 111,459 25,-5 43,-31 33,-65 -16,-56 -150,-18 -121,-183 23,-127 97,-178 87,-225 -5,-24 -30,-43 -58,-37z"/>
  </g>
 </g>
</svg>
