<svg xmlns="http://www.w3.org/2000/svg" width="579.079" height="396.261" viewBox="0 0 579.079 396.261"><defs><style>.a{fill:#f8f8f8;}.b{fill:#7ac9cd;}.c{fill:#f7ab8b;}.d{fill:#fff;}.e{fill:#045372;}.f{fill:#c6e8f7;}.g{fill:#a6d2e2;}.h{fill:#a0c663;}.i{fill:#febf9e;}.j{fill:#dd4048;}.k{fill:#ebf8ff;}.l{fill:#ea4d50;}.m{fill:#0b4352;}.n{fill:#f7a079;}.o{fill:none;stroke:#f8a17a;stroke-miterlimit:10;}.p{fill:#356880;}.q{fill:#7da3a6;}.r{fill:#285360;}.s{fill:#3d838f;}.t{fill:#eaca2a;}.u{fill:#fbb32a;}.v{fill:#569b99;}.w{fill:#69b7b7;}.x{fill:#0a707e;}.y{fill:#93a9aa;}.z{fill:#0d738e;}.aa{fill:#0cb5b8;}.ab{fill:#e1f1f9;}.ac{fill:#0da0a0;}.ad{fill:#a6774c;}.ae{fill:#8e6342;}</style></defs><g transform="translate(-77.822 -44)"><path class="a" d="M78.044,156.866c1.526-29.826,7.451-60.777,25.547-84.125s51.038-36.5,77.3-23.8c29.654,14.339,52.619,62.31,85.278,65,19.232,1.584,28.712-7.522,43.259-20.566,16.829-15.088,27.253-29.015,48.116-37.173s52.4-5.359,68,11.067c14.678,15.454,23.169,25.179,40.329,37.632,14.385,10.438,28.352,3.765,44.988-2.149s33.168-18.211,50.418-21.731c37.872-7.727,63.1,19.7,77.366,47.944s21.735,74.9,16.734,106.311-12.964,53.5-38.289,86.078c-31.659,40.726-110.953,48.578-157.313,48.5-112.592-.181-314.173,53.75-372.7-137.2C80.794,212.158,76.947,178.291,78.044,156.866Z" transform="translate(-0.036 0)"/><g transform="translate(103.276 102.752)"><g transform="translate(195.48)"><g transform="translate(27.161 27.3)"><path class="b" d="M354.588,152.613c-1.76.364-14.515,7.271-15.788,8.539-2.845,2.835-2.907,7.343-2.782,11.356,1.037,33.616-3.055,95.926-2.887,103.959.03,1.457,41.79,1.679,64.093.271,0-43.446-1.975-80.777-2.295-120.425-.011-1.4-11.28-3.766-17.316-4.532C367.113,150.45,363.563,150.759,354.588,152.613Z" transform="translate(-329.187 -131.407)"/><path class="c" d="M354.863,156.458a26.134,26.134,0,0,0,13.041,2.694c4.524-.251,9.539-2.235,11.01-6.52-2.18.165-3.226-2.581-3.576-4.739-.711-4.372.113-8.937-.6-13.31-3.012-3.595-15.009-6.1-18.737,1.722-.163,2.64.051,8.614.112,11.937C356.195,152.664,355.359,155.481,354.863,156.458Z" transform="translate(-329.463 -131.156)"/><path class="d" d="M333.745,158.494c-1.623,1.581.84,93.193-4.608,128.335-.106.683,49.292,6.694,76.737-1.523-6.185-40.449-4.323-90.98-8.7-131.665-5.522-2.621-13.189-3.7-20.248-3.7,1.025,18.476-.837,39.724-7.7,57.6-9.846-11.941-13.89-51.008-14.689-57.6C348.542,152,339.606,152.786,333.745,158.494Z" transform="translate(-329.137 -131.394)"/><path class="e" d="M353.417,153.552c0,3.708,5.948,11.548,9.255,14.894.688-3.354,2.221-5.572,4.2-8.368a22.14,22.14,0,0,1,4.491,7.83c.176.453,6.111-5.982,6.862-13.675.294-3.019-.795-8.226-3.335-9.885-.765,4.487-3.789,14.819-8.018,14.518s-9.426-9.53-10.845-13.524C354.713,146.109,353.419,151.955,353.417,153.552Z" transform="translate(-329.444 -131.323)"/></g><g transform="translate(0 52.561)"><g transform="translate(51.699 43.002)"><rect class="f" width="12.371" height="6.272" transform="translate(7.053 14.28) rotate(-79.411)"/><path class="f" d="M371.736,223.311a8.906,8.906,0,0,1-3.691,5.7l-12.52-2.341a8.948,8.948,0,1,1,16.211-3.357Z" transform="translate(-353.99 -200.453)"/><rect class="g" width="8.183" height="1.978" transform="translate(8.751 0) rotate(10.589)"/><path class="h" d="M370.679,223.028a7.853,7.853,0,0,1-3.081,4.9l-11.273-2.108a7.859,7.859,0,0,1,6.116-12.077l1.4-7.512,3.819.714-1.4,7.513A7.857,7.857,0,0,1,370.679,223.028Z" transform="translate(-354.003 -200.37)"/></g><path class="i" d="M356.365,209.166c1.276-.4,4.87-.522,5.869-1.41l-.5,2.676a7.423,7.423,0,0,1-1.443.764c2.413.855,9.844,1.608,9.844,2.5,0,1.521-6.345.231-6.219.922.318,1.747,7.31,1.521,7.309,2.655,0,1.858-7.5-.474-7.517.364-.028,1.318,6.663,1.64,6.928,2.6.453,1.64-7.986-.662-8.363-.077-.572.889,5.464,1.864,4.886,2.559-1.489,1.79-13.137-4.784-20.536-4.832l-.608-7.639C353.1,211.442,356.038,209.269,356.365,209.166Z" transform="translate(-302.189 -157.388)"/><path class="d" d="M302.486,216.488c3.007,5.317,48.877,4.043,48.909,3.233.177-4.321.353-7.835.53-12.155-9-.745-20.1-.887-30.106-1.726,4.926-7.18,11.116-15.5,14.793-21.322a28.454,28.454,0,0,0,4.484-17.672c-.769-8.2-2.526-11.932-6.489-9.237C319.888,167.617,296.893,206.6,302.486,216.488Z" transform="translate(-301.627 -156.741)"/></g><g transform="translate(86.202 11.19)"><path class="d" d="M427.417,173.927a26.614,26.614,0,0,1,6.694,7.514c1.85,3.157.335,13.053-8.547,9.461-4.1-1.657-7.965-3.832-11.947-5.747-2.937-1.413-5.879-2.829-8.7-4.468-3.777-2.2-6.635-3.259-9.251-6.759-5.13-6.865-6.266-24.876,2.295-20.248A178.8,178.8,0,0,1,427.417,173.927Z" transform="translate(-388.97 -115.321)"/><rect class="d" width="6.058" height="12.606" transform="translate(6.133 1.91)"/><rect class="j" width="3.75" height="9.144" transform="translate(7.287 5.372)"/><rect class="k" width="7.904" height="1.91" transform="translate(5.21)"/><path class="d" d="M405.287,143.367H390.908a1.97,1.97,0,0,1-1.774-2.826l5.935-12.3h6.058l5.935,12.3A1.97,1.97,0,0,1,405.287,143.367Z" transform="translate(-388.935 -115.009)"/><path class="l" d="M405.254,141.869H390.977a.626.626,0,0,1-.57-.887l5.833-12.745h3.75l5.832,12.745A.626.626,0,0,1,405.254,141.869Z" transform="translate(-388.953 -115.009)"/><path class="i" d="M410.277,127.006a15.414,15.414,0,0,0-3.029-2.741,22.068,22.068,0,0,0-6.557-2.136c-4.158-.774-8.075-1.348-8.277-1.02-.79,1.283,5.565,2.6,6.287,3.156-.093.532-7.506-1.005-7.823-.327-.487,1.045,4.771,2.472,6.1,3.068-1.54-.048-4.395-1.161-5.264-.264-.93.994,5.07,1.875,6.4,2.71-.726.507-6.151-1.185-6.242.228.29.782,3.8,2.267,6.77,2.793,3.022.534,7.073,3.755,8.921,6.205.554.736,10.425-.778,9.088-3.449C415.613,133.155,411.861,128.733,410.277,127.006Z" transform="translate(-388.96 -114.917)"/><path class="d" d="M415.151,132.045c-2.712,0-7.918,2.04-9.713,4.747,7.285,14.376,7.048,28.667,12.951,43.523,1.282,3.226,2.932,6.443,5.649,8.6s6.009,3,8.816.961C446.153,180.208,417.049,132.044,415.151,132.045Z" transform="translate(-389.144 -115.057)"/></g><g transform="translate(44.712)"><path class="i" d="M354.51,139.323c1.474,4.295,7.728,11,15.492,8.752,3.941-1.144,7.065-6.545,7.755-10.59a102.94,102.94,0,0,0,1.527-25.716c-.379-4.715-5.317-4.378-9.91-5.506a22.571,22.571,0,0,0-13.9,1.256c-1.985.821-4.983,2.041-4.4,7.891C352.233,127.051,351.8,131.424,354.51,139.323Z" transform="translate(-346.965 -103.533)"/><path class="m" d="M354.982,117.156c7.742,4.17,19.91-5.065,21.163,3.638a17.672,17.672,0,0,1,.251,5c-.251,2.984.251,3.966,1.792,3.946.529-.007,1.164.413,2.769-2.666.432-.831,1.966-11.426-1.461-17.552-.69-1.234-2.794-3.8-4.115-4.307a26.834,26.834,0,0,0-19.944.437c-2.6,1.057-5.988,2.184-5.2,4.873-1.417,0-2.559,2.843-3.065,4.167s-.146,3.962,0,5.372c.672,6.512.172,9.651,5.326,10.738,1.807,0,1.462-2.533,1.3-3.729C353.475,124.572,354.385,119.164,354.982,117.156Z" transform="translate(-346.913 -103.506)"/><path class="i" d="M352.5,131.077c-.2-4.522-2.348-7.169-4.063-5.745-2.347,1.95-.884,6.241.084,7.57s2.828,2.623,4.217,2.032C353.717,134.561,352.5,131.077,352.5,131.077Z" transform="translate(-346.916 -103.777)"/><path class="n" d="M369.267,135.839c.011-2.227-2.066-3.341-2.643-9.823a1.19,1.19,0,0,0-1.231-1.109,107.257,107.257,0,0,0-.188,11.352C365.21,136.393,369.264,136.387,369.267,135.839Z" transform="translate(-347.144 -103.777)"/><path class="o" d="M363.482,139.837a8.346,8.346,0,0,0,3.272.8,4.941,4.941,0,0,0,3.165-1.018" transform="translate(-347.123 -103.963)"/><path class="o" d="M350.975,128.224c-.806-1.246-1.518-1.132-1.844-.821a.833.833,0,0,0-.194.365,4.463,4.463,0,0,0,2.085,5.1" transform="translate(-346.936 -103.806)"/><path class="i" d="M378.381,130.212c-.095-4.526,1.873-7.308,3.677-6,2.47,1.792,1.291,6.17.413,7.559s-2.65,2.8-4.075,2.3C377.4,133.767,378.381,130.212,378.381,130.212Z" transform="translate(-347.306 -103.764)"/><path class="o" d="M379.76,127.264c.723-1.3,1.441-1.23,1.787-.941a.84.84,0,0,1,.216.352,4.464,4.464,0,0,1-1.747,5.229" transform="translate(-347.329 -103.792)"/></g></g><g transform="translate(356.468 123.533)"><rect class="d" width="7.876" height="13.014" transform="translate(7.296 2.484)"/><path class="d" d="M487.157,252.4a11.174,11.174,0,0,1-3.24,7.885H467.921a11.236,11.236,0,1,1,19.235-7.885Z" transform="translate(-464.681 -228.783)"/><rect class="k" width="10.276" height="2.484" transform="translate(6.096)"/><path class="h" d="M485.806,252.332a9.861,9.861,0,0,1-2.673,6.76h-14.4a9.87,9.87,0,0,1,4.762-16.32V235.7h4.878v7.074A9.868,9.868,0,0,1,485.806,252.332Z" transform="translate(-464.698 -228.713)"/></g><g transform="translate(388.433 117.521)"><rect class="d" width="7.876" height="31.016" transform="translate(3.6 2.484)"/><rect class="l" width="4.876" height="21.115" transform="translate(5.101 12.385)"/><rect class="k" width="10.276" height="2.484" transform="translate(2.4)"/><path class="k" d="M512.132,260.214H497.055l3.6-3.75h7.876Z" transform="translate(-497.055 -222.964)"/></g><g transform="translate(56.728 154.771)"><rect class="m" width="469.236" height="12.054"/><rect class="p" width="417.694" height="148.449" transform="translate(25.771 12.054)"/><g transform="translate(38.824 18.904)"><g transform="translate(240.977)"><rect class="q" width="67.942" height="20.912"/><rect class="r" width="67.942" height="2.853" transform="translate(0 18.059)"/><path class="s" d="M487.148,282.124H470.361a2.428,2.428,0,1,0,0,4.857h16.788a2.428,2.428,0,1,0,0-4.857Z" transform="translate(-444.783 -279.444)"/><g transform="translate(0 27.658)"><rect class="q" width="67.942" height="20.912"/><rect class="r" width="67.942" height="2.853" transform="translate(0 18.059)"/><path class="s" d="M487.148,310.136H470.361a2.429,2.429,0,0,0,0,4.858h16.788a2.429,2.429,0,1,0,0-4.858Z" transform="translate(-444.783 -307.457)"/></g><g transform="translate(0 55.316)"><rect class="q" width="67.942" height="20.912"/><rect class="r" width="67.942" height="2.853" transform="translate(0 18.059)"/><path class="s" d="M487.148,338.149H470.361a2.429,2.429,0,0,0,0,4.858h16.788a2.429,2.429,0,1,0,0-4.858Z" transform="translate(-444.783 -335.469)"/></g><g transform="translate(0 82.974)"><rect class="q" width="67.942" height="20.912"/><rect class="r" width="67.942" height="2.853" transform="translate(0 18.059)"/><path class="s" d="M487.148,366.162H470.361a2.429,2.429,0,1,0,0,4.858h16.788a2.429,2.429,0,1,0,0-4.858Z" transform="translate(-444.783 -363.482)"/></g><g transform="translate(0 110.632)"><rect class="q" width="67.942" height="20.912"/><rect class="r" width="67.942" height="2.853" transform="translate(0 18.059)"/><path class="s" d="M487.148,394.175H470.361a2.429,2.429,0,0,0,0,4.858h16.788a2.429,2.429,0,1,0,0-4.858Z" transform="translate(-444.783 -391.495)"/></g></g><g transform="translate(316.952 0)"><rect class="q" width="75.64" height="131.544" transform="translate(75.64 131.544) rotate(180)"/><rect class="r" width="75.64" height="3.177" transform="translate(75.64 131.544) rotate(180)"/><path class="s" d="M535.5,326.863a2.534,2.534,0,0,1,2.534,2.534v20.192a2.534,2.534,0,0,1-5.069,0V329.4A2.534,2.534,0,0,1,535.5,326.863Z" transform="translate(-521.582 -280.011)"/></g><rect class="q" width="67.942" height="20.912"/><rect class="r" width="67.942" height="2.853" transform="translate(0 18.059)"/><path class="s" d="M243.078,282.124H226.291a2.428,2.428,0,1,0,0,4.857h16.788a2.428,2.428,0,1,0,0-4.857Z" transform="translate(-200.714 -279.444)"/><g transform="translate(0 27.658)"><rect class="q" width="67.942" height="20.912"/><rect class="r" width="67.942" height="2.853" transform="translate(0 18.059)"/><path class="s" d="M243.078,310.136H226.291a2.429,2.429,0,0,0,0,4.858h16.788a2.429,2.429,0,0,0,0-4.858Z" transform="translate(-200.714 -307.457)"/></g><g transform="translate(0 55.316)"><rect class="q" width="67.942" height="20.912"/><rect class="r" width="67.942" height="2.853" transform="translate(0 18.059)"/><path class="s" d="M243.078,338.149H226.291a2.429,2.429,0,0,0,0,4.858h16.788a2.429,2.429,0,0,0,0-4.858Z" transform="translate(-200.714 -335.469)"/></g><g transform="translate(0 82.974)"><rect class="q" width="67.942" height="20.912"/><rect class="r" width="67.942" height="2.853" transform="translate(0 18.059)"/><path class="s" d="M243.078,366.162H226.291a2.429,2.429,0,1,0,0,4.858h16.788a2.429,2.429,0,1,0,0-4.858Z" transform="translate(-200.714 -363.482)"/></g><g transform="translate(0 110.632)"><rect class="q" width="67.942" height="20.912"/><rect class="r" width="67.942" height="2.853" transform="translate(0 18.059)"/><path class="s" d="M243.078,394.175H226.291a2.429,2.429,0,0,0,0,4.858h16.788a2.429,2.429,0,0,0,0-4.858Z" transform="translate(-200.714 -391.495)"/></g><g transform="translate(76.979)"><rect class="q" width="75.64" height="131.544"/><rect class="r" width="75.64" height="3.177" transform="translate(0 128.367)"/><path class="s" d="M340.868,326.863a2.534,2.534,0,0,0-2.534,2.534v20.192a2.535,2.535,0,0,0,5.07,0V329.4A2.535,2.535,0,0,0,340.868,326.863Z" transform="translate(-279.143 -280.011)"/></g><g transform="translate(157.305 0)"><rect class="q" width="75.64" height="131.544" transform="translate(75.64 131.544) rotate(180)"/><rect class="r" width="75.64" height="3.177" transform="translate(75.64 131.544) rotate(180)"/><path class="s" d="M373.8,326.863a2.534,2.534,0,0,1,2.534,2.534v20.192a2.535,2.535,0,0,1-5.07,0V329.4A2.535,2.535,0,0,1,373.8,326.863Z" transform="translate(-359.886 -280.011)"/></g></g></g><g transform="translate(229.225 126.083)"><rect class="f" width="6.761" height="11.172" transform="translate(6.846 2.132)"/><rect class="t" width="4.185" height="7.309" transform="translate(8.133 5.996)"/><rect class="g" width="8.822" height="2.132" transform="translate(5.815)"/><path class="f" d="M354.056,260.112h-16.05a2.2,2.2,0,0,1-1.98-3.154l6.624-13.733h6.761l6.625,13.733A2.2,2.2,0,0,1,354.056,260.112Z" transform="translate(-335.805 -231.359)"/><path class="u" d="M354.019,258.441H338.083a.7.7,0,0,1-.635-.989l6.51-14.225h4.185l6.509,14.225A.7.7,0,0,1,354.019,258.441Z" transform="translate(-335.825 -231.359)"/></g><g transform="translate(99.26 117.521)"><rect class="d" width="7.876" height="31.016" transform="translate(3.6 2.484)"/><rect class="h" width="4.876" height="21.115" transform="translate(5.101 12.385)"/><rect class="g" width="10.276" height="2.484" transform="translate(2.4)"/><path class="k" d="M219.249,260.214H204.172l3.6-3.75h7.876Z" transform="translate(-204.172 -222.964)"/></g><g transform="translate(119.341 117.521)"><rect class="d" width="7.876" height="31.016" transform="translate(3.6 2.484)"/><rect class="u" width="4.876" height="21.115" transform="translate(5.101 12.385)"/><rect class="g" width="10.276" height="2.484" transform="translate(2.4)"/><path class="k" d="M239.588,260.214H224.511l3.6-3.75h7.876Z" transform="translate(-224.511 -222.964)"/></g><g transform="translate(309.406 72.81)"><rect class="v" width="10.625" height="2.25" transform="translate(15.869 66.172) rotate(18.247)"/><path class="w" d="M436.881,252.954l4.013-18.786-19.77-7.477,1.311-3.776,24.158,9.346v20.693Z" transform="translate(-417.067 -177.829)"/><path class="w" d="M464.586,231.235c-3.842,10.136-13.665,15.13-16.616,14.691a5.4,5.4,0,0,1-4.179-3.114c-1.435-3-.054-5.457,3.082-6.083,5.808-1.159,8.422-8.892,8.662-15.5.422-11.625-6.129-12.275-6.129-12.275,1.144-2.8,0,0,1.729-4.24,2.1-5.158,4.4-10.8,4.4-10.8S473.674,207.26,464.586,231.235Z" transform="translate(-417.347 -177.461)"/><rect class="w" width="47.654" height="4.869" transform="translate(0 77.092)"/><rect class="v" width="47.654" height="3.184" transform="translate(0 78.777)"/><rect class="b" width="21.723" height="1.966" transform="translate(4.057 75.126)"/><path class="b" d="M455.539,193.852l-2.518-5.575-9.427,24.331,5.816-3.718Z" transform="translate(-417.352 -177.39)"/><g transform="translate(10.805)"><rect class="v" width="9.925" height="26.093" transform="translate(15.61 7.3) rotate(21.18)"/><rect class="w" width="2.965" height="26.093" transform="translate(15.61 7.3) rotate(21.181)"/><path class="v" d="M453.355,178.6,450,177.3a.731.731,0,0,0-.945.418l-2.989,7.713,4.714,1.827,2.989-7.713A.73.73,0,0,0,453.355,178.6Z" transform="translate(-428.188 -177.25)"/><path class="w" d="M453.38,178.6l-3.353-1.3a.731.731,0,0,0-.945.418l-1.034,2.667,4.714,1.827,1.034-2.667A.73.73,0,0,0,453.38,178.6Z" transform="translate(-428.213 -177.25)"/><rect class="x" width="7.304" height="2.528" transform="translate(17.745 5.417) rotate(21.18)"/><rect class="x" width="16.654" height="3.655" transform="translate(1.321 29.701) rotate(21.18)"/><g transform="translate(0.242 34.041)"><rect class="v" width="4.37" height="5.983" transform="matrix(0.932, 0.361, -0.361, 0.932, 2.162, 0)"/><rect class="x" width="2.934" height="1.411" transform="matrix(0.932, 0.361, -0.361, 0.932, 0.669, 5.838)"/></g><g transform="translate(7.226 36.747)"><rect class="v" width="4.37" height="5.983" transform="matrix(0.932, 0.361, -0.361, 0.932, 2.162, 0)"/><rect class="x" width="2.934" height="1.411" transform="matrix(0.932, 0.361, -0.361, 0.932, 0.669, 5.838)"/></g></g><g transform="translate(27.049 18.25)"><path class="x" d="M455.148,201.1a5.369,5.369,0,1,1-5.368-5.368A5.369,5.369,0,0,1,455.148,201.1Z" transform="translate(-444.411 -195.734)"/><circle class="y" cx="2.917" cy="2.917" r="2.917" transform="translate(2.452 2.452)"/><path class="x" d="M451.445,201.15a1.618,1.618,0,1,1-1.617-1.617A1.618,1.618,0,0,1,451.445,201.15Z" transform="translate(-444.459 -195.782)"/></g><path class="b" d="M443.127,255.087V239.6a3.485,3.485,0,0,1,6.376-1.946c.122.184.245.376.365.581,3,5.056,8.989,16.854,8.989,16.854Z" transform="translate(-417.346 -177.996)"/><g transform="translate(26.634 61.325)"><path class="x" d="M449.775,242.254a2.892,2.892,0,1,1-2.892-2.892A2.892,2.892,0,0,1,449.775,242.254Z" transform="translate(-443.991 -239.362)"/><path class="y" d="M448.471,242.271A1.571,1.571,0,1,1,446.9,240.7,1.571,1.571,0,0,1,448.471,242.271Z" transform="translate(-444.008 -239.379)"/><path class="z" d="M447.781,242.28a.872.872,0,1,1-.872-.872A.872.872,0,0,1,447.781,242.28Z" transform="translate(-444.017 -239.388)"/></g><path class="v" d="M433.706,245.482c-.588,1.785-4.592,2.069-8.941.635s-7.4-4.043-6.812-5.828,4.592-2.069,8.942-.635S434.294,243.7,433.706,245.482Z" transform="translate(-417.026 -178.029)"/></g><g transform="translate(139.564 115.287)"><rect class="b" width="81.066" height="6.114" transform="translate(0 33.37)"/><rect class="w" width="72.725" height="14.5" transform="translate(4.17 18.871)"/><rect class="b" width="72.725" height="18.871" transform="translate(4.17)"/><g transform="translate(9.952 3.372)"><rect class="aa" width="23" height="12.126"/><g transform="translate(26.596)"><rect class="u" width="5.127" height="2.744"/><rect class="u" width="5.127" height="2.744" transform="translate(7.501)"/><rect class="u" width="5.127" height="2.744" transform="translate(15.003)"/><rect class="u" width="5.127" height="2.744" transform="translate(22.504)"/><rect class="u" width="5.127" height="2.744" transform="translate(30.005)"/></g><g transform="translate(26.596 4.691)"><rect class="aa" width="5.127" height="2.744"/><rect class="aa" width="5.127" height="2.744" transform="translate(7.501)"/><rect class="aa" width="5.127" height="2.744" transform="translate(15.003)"/><rect class="aa" width="5.127" height="2.744" transform="translate(22.504)"/><rect class="aa" width="5.127" height="2.744" transform="translate(30.005)"/></g><g transform="translate(26.596 9.382)"><rect class="l" width="5.127" height="2.744"/><rect class="d" width="5.127" height="2.744" transform="translate(7.501)"/><rect class="d" width="5.127" height="2.744" transform="translate(15.003)"/><rect class="d" width="5.127" height="2.744" transform="translate(22.504)"/><rect class="d" width="5.127" height="2.744" transform="translate(30.005)"/></g></g></g><g transform="translate(167.35 88.276)"><path class="k" d="M274.57,196.132v20.635A3.229,3.229,0,0,0,277.8,220h12.524a3.23,3.23,0,0,0,3.23-3.23V196.132Z" transform="translate(-273.154 -192.955)"/><rect class="ab" width="21.815" height="3.178"/><path class="l" d="M276.763,205.462v11.379a1.522,1.522,0,0,0,1.521,1.522h11.609a1.522,1.522,0,0,0,1.522-1.522V205.462Z" transform="translate(-273.182 -193.073)"/></g><g transform="translate(258.183 121.622)"><g transform="translate(2.719)"><path class="f" d="M368.927,228.839v21.114a3.367,3.367,0,0,0,6.734,0V228.839Z" transform="translate(-367.901 -226.716)"/><path class="l" d="M370.226,232.736v17.011a2.084,2.084,0,0,0,4.168,0V232.736Z" transform="translate(-367.918 -226.765)"/><rect class="g" width="8.785" height="2.123"/><g transform="translate(10.869)"><path class="f" d="M379.936,228.839v21.114a3.366,3.366,0,1,0,6.733,0V228.839Z" transform="translate(-378.91 -226.716)"/><path class="u" d="M381.235,232.736v17.011a2.084,2.084,0,0,0,4.168,0V232.736Z" transform="translate(-378.926 -226.765)"/><rect class="g" width="8.785" height="2.123"/></g><g transform="translate(21.738)"><path class="f" d="M390.944,228.839v21.114a3.366,3.366,0,1,0,6.733,0V228.839Z" transform="translate(-389.918 -226.716)"/><path class="h" d="M392.243,232.736v17.011a2.084,2.084,0,0,0,4.168,0V232.736Z" transform="translate(-389.935 -226.765)"/><rect class="g" width="8.785" height="2.123"/></g><g transform="translate(32.607)"><path class="k" d="M401.953,228.839v21.114a3.366,3.366,0,1,0,6.733,0V228.839Z" transform="translate(-400.927 -226.716)"/><path class="aa" d="M403.251,232.736v17.011a2.084,2.084,0,0,0,4.168,0V232.736Z" transform="translate(-400.943 -226.765)"/><rect class="g" width="8.785" height="2.123"/></g></g><g transform="translate(0 8.293)"><rect class="w" width="47.77" height="3.834"/><rect class="w" width="47.77" height="3.834" transform="translate(0 21.022)"/><rect class="w" width="1.587" height="17.188" transform="translate(0 3.834)"/><rect class="w" width="1.587" height="17.188" transform="translate(46.183 3.834)"/></g></g><g transform="translate(386.382 10.961)"><path class="l" d="M576.011,139.336c1.578,7.31-1.692,9.123-.835,13.369,2.131,10.567,14.387,6.673,14.375,17.423-.012,10.3-10.661,20.215-6.208,29.652a2.145,2.145,0,0,1,.319,1.122,1.988,1.988,0,0,1-.918,1.206c-8.411,6.366-20.5,5.66-31.305,4.624l-15.635-1.5a12.182,12.182,0,0,1-5.334-1.347c-2.879-1.8-3.377-5.551-2.926-8.739.983-6.968,5.12-13.617,4.2-20.592-1-7.549-4.241-9.16-6.447-16.486-2.367-7.86,7.02-7.157,2.668-14.182s-4.767-12.943.53-15.852c4.629-2.541,2.869-5.821,9.928-10.48,4.421-2.918,7.685-3.323,13-2.689,3.891.464,8.74,4.4,8.74,4.4,7.643.684,7.308,6.338,8.057,9.373C569.585,134.2,574.027,132.813,576.011,139.336Z" transform="translate(-495.354 -114.607)"/><g transform="translate(30.37 129.502)"><path class="i" d="M548.4,423.425a7.836,7.836,0,0,1-1.73,3.569,37.762,37.762,0,0,1-7.147,4.825c-2.652,1.378-5.678,2.637-7.021,5.306a2,2,0,0,0-.255,1.4,2.207,2.207,0,0,0,1.495,1.255c3.634,1.377,7.669,1.062,11.527.589q6.316-.775,12.562-2.04a1.741,1.741,0,0,0,1.1-.522,47.351,47.351,0,0,0,.281-6.575c-1.95-6.888-1.718-10.453-1.878-18.726a99.683,99.683,0,0,1-10.809,0C546.813,416.487,548.4,420.6,548.4,423.425Z" transform="translate(-525.821 -247.883)"/><path class="ac" d="M546.59,427.18a13.09,13.09,0,0,0,12.542,4.24s2.693,5.786,1.33,9.54c0,0-22.009,3.667-30.818,1.626s-.536-6.653,3.548-8.063S546.59,427.18,546.59,427.18Z" transform="translate(-525.739 -248.069)"/><path class="i" d="M568.111,424.458a7.84,7.84,0,0,1-1.73,3.57,37.743,37.743,0,0,1-7.148,4.825c-2.651,1.378-5.677,2.637-7.02,5.306a2,2,0,0,0-.255,1.4,2.206,2.206,0,0,0,1.495,1.255c3.634,1.377,7.669,1.061,11.527.589q6.317-.775,12.562-2.041a1.735,1.735,0,0,0,1.1-.521,47.339,47.339,0,0,0,.281-6.575c-1.95-6.888-1.718-10.454-1.878-18.726a99.932,99.932,0,0,1-10.809,0C566.521,417.521,568.111,421.631,568.111,424.458Z" transform="translate(-526.071 -247.896)"/><path class="aa" d="M566.3,428.214a13.089,13.089,0,0,0,12.542,4.24s2.693,5.786,1.33,9.54c0,0-22.009,3.667-30.818,1.626s-.536-6.653,3.549-8.062S566.3,428.214,566.3,428.214Z" transform="translate(-525.989 -248.082)"/><path class="d" d="M539.559,334.969c.576,0,34.134-.767,42.572,0s-12.464-53.948-23.97-52.287S539.559,334.969,539.559,334.969Z" transform="translate(-525.914 -246.238)"/><path class="m" d="M546.477,416.559c3.666,2.109,8.343.984,12.943-.741-1.838-26.2-1.018-87.413-1.325-126.692,1.411,20.473,3.678,96.4,7.115,127.59.442,4.015,12.365,4.091,13.52-.128,0-33.317,5.292-101.552,10.641-127.456,3.126-15.137,2.217-29.369-4.35-43.361-18.792,3.722-31.49,5.326-50.589,3.847,0,20.871,2.053,61.91,5.062,98.066C541.836,375.815,545.041,399.835,546.477,416.559Z" transform="translate(-525.849 -245.771)"/></g><g transform="translate(1.995 34.105)"><path class="b" d="M545,166.181c-4.235.642-15.63,6.46-16.485,10.657-1.412,6.929.409,15.049,1.485,22.038,4.559,29.594,6.8,26.129,3.356,64.095,21.956,4.989,31.5,4.463,52.4-3.922-3.507-5.2-1.587-5.148-3.577-11.094-9.2-27.5,3.986-40.079-.662-68.7-.218-1.342-.975-5.826-1.8-6.91-1.287-1.7-9.779-4.933-11.883-5.28-8.073-1.335-6.577-1.84-14.746-1.441C546.634,165.934,546.634,165.934,545,166.181Z" transform="translate(-497.393 -149.357)"/><path class="c" d="M544.766,156.648c1.755,3.344,1.528,9.189-1.106,11.9a6.037,6.037,0,0,0,5.9,3.028c.521-.071,3.794,2.368,10.1-2.383a10.311,10.311,0,0,0,2.094-3.159c.05-1.8-.778-2.622-1.623-4.694-1.353-3.314-.8-8.453-1.353-12.185-4.026,0-9.88,1.135-13.907,1.137a9.228,9.228,0,0,0,.919,6.668" transform="translate(-497.591 -149.15)"/><path class="d" d="M560.793,263.909c1.854,37.466,3.972,41.421,4.339,72.072,10.439.851,21.748-.8,34.913-2.491-1.719-19.481,2.565-23.746-4.12-61.027-1.689-9.421-9.759-24.8-10.542-29.515-1.479-8.908,1.04-12.7,1.067-30.789.012-7.749,1.041-15.49.639-23.228s2.909-13.4-3.353-18.361c-5.111-4.051-20.6-6.3-20.6-6.3-.788,2.442-1.583,15.343-1.9,20.325A734.629,734.629,0,0,0,560.793,263.909Z" transform="translate(-497.797 -149.342)"/><path class="d" d="M502.155,205.808c-1.951,3.032-4.586,10.678-5.1,14.246-.835,5.8,8.16,6.712,11.477,3.091.456-.5,9.219-10.161,17.087-20.882,3.3-4.5,8.236-10.753,10.13-16,4.745-13.148-3.682-14.211-8.137-13.272C515.276,175.591,511.058,191.974,502.155,205.808Z" transform="translate(-497 -149.449)"/><path class="d" d="M547.223,253.711c1.672,36.111,1.8,52.526,2.617,82.925-7.131,2.142-17.336,1.329-21.871-1.921-3.64-59.248,3.4-63.449,3.4-80.006,0-1.474.656-21.082-4.661-38.789-1.734-5.772-2.61-9.709.843-20.12,2.759-8.318.831-16.1,3.946-24.294,3.528-1.4,8.645-4.038,13.473-5.315C544.969,166.19,545.292,211.972,547.223,253.711Z" transform="translate(-497.357 -149.366)"/><path class="e" d="M545.886,162.126s-1.608.469-2.811,4.372c0,0-1.184,7.311,3.28,12.7l3.335-6.847,6.871,5.48s7.247-4.279,7.244-12.412c0,0-.885-4.618-3.917-4.567,0,0,1.322,10.255-9.848,10.481C550.041,171.328,545.86,170.467,545.886,162.126Z" transform="translate(-497.582 -149.298)"/></g><g transform="translate(77.432 54.749)"><path class="i" d="M579.734,262.375a9.222,9.222,0,0,0-1.434,3.21c.156,1.832,3.65-1.554,5.616-3.112-.294,3.742-6.431,13.3-5.367,14.6.931.683,5.536-7.235,6.931-8.93,1.206.725-5.632,11.9-3.916,12.746.858.612,5.543-8.144,6.918-10.593-.825,3.228-3.064,9.562-2.507,10.77.174,1.618,3.779-6.1,5.478-9.749-1.021,3.342-1.763,7.613-.835,7.613,1.021,0,3.5-10.106,3.48-14.014s3.921-6.936,6.422-9.939c.561-.672-5.465-3.3-6.422-4.331-2.294,1.735-3.56,3.45-5.709,4.888C585.532,257.447,581.89,259.141,579.734,262.375Z" transform="translate(-573.467 -171.08)"/><path class="d" d="M617.673,213.633c2.12,7.258-9.384,39.183-18.947,44.779-2.8,1.638-10.331-4.961-9.445-6.895,5.3-12.118,7.645-20.5,9.2-35.55-5.93-4.078-16.764-17.26-20.242-22.347s-6.659-13.9-3.6-19.253c1.578-2.763,6.233-6.038,9.845-3.243,3.3,2.553,8.029,8.389,10.369,10.848C606.869,194.6,616.548,209.781,617.673,213.633Z" transform="translate(-573.405 -170.059)"/></g><g transform="translate(33.137 2.947)"><path class="i" d="M538.891,155.82c3.968,4.449,7.383,8.609,12.546,5.63,4.118-2.377,8.124-6.048,9.046-10.713.773-3.908.285-7.7.459-11.675a24.514,24.514,0,0,0-2.856-12.928c-1.5-3.017-5.01-6-12.142-5.548a34.094,34.094,0,0,0-8.634,2.646C526.881,128.354,532.248,148.373,538.891,155.82Z" transform="translate(-528.578 -117.629)"/><path class="l" d="M541.59,133.912c1.474-2.151,8.368-3.993,14.325-2.059.524,3.621,2.6,9.834,9.981,10.99a24.186,24.186,0,0,0-1.229-10.99c-.884-2.767-.8-5.379-5.845-10.584-5.6-5.78-13.736-3.723-19.712-.765-6.3,3.12-13.915,12.514-8.991,19.251C534.813,146.177,538.995,137.7,541.59,133.912Z" transform="translate(-528.541 -117.592)"/><path class="i" d="M559.4,138.911c-.426,1.241-.155,6.381.924,7.251,2.4,1.931,4.768-.048,4.727-3.348C564.954,134.606,560.566,135.512,559.4,138.911Z" transform="translate(-528.929 -117.831)"/><path class="n" d="M543.725,142a35.182,35.182,0,0,1-.072,6.822c-.372,1.356-1.79,3.678-.831,3.67a12.007,12.007,0,0,0,4.3-.971A68.47,68.47,0,0,0,543.725,142Z" transform="translate(-528.718 -117.901)"/><path class="o" d="M560.757,140.745c-.011-.514.89-2.375,1.4-2.3.656.1,2.406,3.253,1.116,5.992a.96.96,0,0,1-1.206.449" transform="translate(-528.949 -117.856)"/><path class="o" d="M544.138,155.678c2.133,1.146,5.417.341,5.979-1.728" transform="translate(-528.738 -118.053)"/></g><g transform="translate(0 39.432)"><path class="d" d="M495.83,214.718c-1.257,5.946-1.6,9.824,2.379,12.856,4.642,3.54,10.024-1.264,11.5-7.2.756-3.05,1-15.969.5-16.106-2.347-.65-4.771-3.262-6.988-6.313C499.429,204.048,497.029,209.042,495.83,214.718Z" transform="translate(-494.979 -155.095)"/><path class="u" d="M548.769,208.333l-36.205,5.659-7.856-53.544,35.645-5.9,1.419,9.059,2.183-.4a1.193,1.193,0,0,1,1.4,1.011l1.1,8.059a1.194,1.194,0,0,1-.234.886l-2.458,3.222Z" transform="translate(-495.102 -154.545)"/><path class="i" d="M508,183.329a20.8,20.8,0,0,1,.878,3.7c1.887-2.775,6.934-6.912,7.818-6.189,1.254,1.025-5.57,6.5-4.641,7.612,1.477-.963,7.148-6.127,7.521-4.456.278,1.485-6.938,6.22-6.043,6.591,1.09-.151,5.857-2.694,6.879-1.207.278.928-4.685,2.228-6.592,3.806.279,1.95,5.03-1.636,5.85-.64.093,1-3.229,3.09-5.85,3.8a5.037,5.037,0,0,0-4.177,4.55c-.126.673-.747,2.537-.747,2.537-1.227-.068-4.033-3.013-5.034-4.98a24.272,24.272,0,0,0,1.686-3.963A82.188,82.188,0,0,0,508,183.329Z" transform="translate(-495.091 -154.877)"/></g></g><g transform="translate(0 19.888)"><path class="d" d="M118.8,200.184c-4.736,6.807-8.966,16-12.657,23.428-2.16,4.346-3.67,12.866-1.325,17.115,1.135,2.06,3.152,3.463,5.129,4.735a130.949,130.949,0,0,0,31.62,14.806,30.986,30.986,0,0,0,4.777-16.439,221.353,221.353,0,0,1-25.1-10.51c9.774-13.565,16.012-24.651,21.371-38.521.866-2.242,1.748-4.641,1.253-6.993-.821-3.906-2.878-8.391-6.883-8.391C131.024,179.414,123.865,192.911,118.8,200.184Z" transform="translate(-103.638 -124.355)"/><g transform="translate(27.971 178.073)"><g transform="translate(44.702 107.774)"><path class="i" d="M180.967,442.184c9.688.288,13.713.581,17.769-.2,4.127-2.05,2.853-3.868-1.022-4.568-2.947-.531-3.317-.67-6.44-3.109,0,0-1.268-2.1-1.577-2.466a2.106,2.106,0,0,1-.364-1.147c-.582-5.174.17-12.355-.413-17.528-3.376.9-7,.046-10.394.665-.157,1.064,2,12.843,1.044,19.261C178.753,438.576,178.158,442.434,180.967,442.184Z" transform="translate(-177.26 -413.164)"/><path class="x" d="M190.026,431.724c1.542-1.406,1.079,1.921,5.14,3.924,2.354,1.161,8.823,2.751,10.331,3.033,4.264.8,5,4.581,1.17,5.361-1.322.27-19.656.845-25.321.861a7.331,7.331,0,0,1-2.7-.35c-2.8-1.091-.532-6.142-.532-9.306C178.11,430.215,185.863,437.173,190.026,431.724Z" transform="translate(-177.244 -413.395)"/></g><g transform="translate(5.935 108.04)"><path class="i" d="M141.7,442.454c9.688.288,13.713.581,17.769-.2,3.413-1.7.89-4.223-1.022-4.568-2.946-.531-3.317-.67-6.44-3.109,0,0-1.267-2.1-1.577-2.466a2.105,2.105,0,0,1-.363-1.147c-.583-5.173.169-12.355-.414-17.529-3.376.9-7,.046-10.394.666-.157,1.064,2,12.842,1.044,19.261C139.489,438.846,138.894,442.7,141.7,442.454Z" transform="translate(-137.996 -413.433)"/><path class="x" d="M150.762,431.994c1.542-1.406,1.079,1.921,5.14,3.924,2.354,1.161,8.823,2.751,10.331,3.033,4.264.8,5,4.581,1.17,5.361-1.321.27-19.656.845-25.321.861a7.332,7.332,0,0,1-2.7-.35c-2.8-1.091-.532-6.142-.532-9.306C138.846,430.485,146.6,437.443,150.762,431.994Z" transform="translate(-137.98 -413.664)"/></g><path class="e" d="M138.215,423.245c1.713,1.26,11.714,1.038,14.247-.586,3.557-30.3,9.918-71.072,2.825-100.742,2.822,1.332,4.506.073,7.609-.251A584.734,584.734,0,0,1,176.377,423.68c1.895,1.548,13.068,1.285,14.49-.687,2.609-35.763,5.67-81.993-3.851-118.986q-26.839,1.318-53.724,1.094c-2.661,0-.569,32.74-.1,37.473C134.846,359.082,136.777,390.353,138.215,423.245Z" transform="translate(-131.969 -304.007)"/></g><g transform="translate(17.547)"><path class="i" d="M153.758,167.3c3.571,2.976,8.613,5.234,13.417,4.134a12.351,12.351,0,0,0,7.954-6.384,27.818,27.818,0,0,0,2.493-9.392c.8-5.751,1.457-11.632.034-17.293a14.727,14.727,0,0,0-3.235-6.467A16.555,16.555,0,0,0,169,128.173c-11.277-5.121-23.171.493-26.054,10.936C140.442,148.175,146.258,161.048,153.758,167.3Z" transform="translate(-121.676 -123.682)"/><path class="i" d="M149.361,174.7c-1.157.944-2.673,1.8-2.863,3.282-.281,2.184,2.429,3.394,4.594,3.8a92.325,92.325,0,0,0,12.6,1.455c2.777.129,6.1-.158,7.472-2.574-3.1-1.674-4.874-5.105-5.714-8.529s-.931-6.99-1.668-10.437a2.128,2.128,0,0,0-.54-1.184,2.211,2.211,0,0,0-1.265-.418c-4.3-.486-8.968-1.408-13.17-1.151C151.951,163.819,155.118,170,149.361,174.7Z" transform="translate(-121.729 -124.095)"/><path class="ad" d="M173.725,148.358c-2.6,1.31-1.254,2.12-3.147,4.326a81.812,81.812,0,0,0-6.829,9.177c-2.43,4.33-8.545,5.217-12.816,2.684s-6.768-7.741-8.607-12.352c-1.9-4.773-2.844-11.817-1.589-16.8,1.589-6.3,8.249-9.928,14.033-11.054,6.72-1.308,11.639-.795,16.011,1.881C177.7,130.453,184.115,143.111,173.725,148.358Z" transform="translate(-121.649 -123.649)"/><path class="ae" d="M132.6,141.225c-4.274,6.5-.412,15.308-2.129,22.9-1.232,5.444-5.221,9.777-9.057,13.831a19.4,19.4,0,0,0,22.317-19.288c-.013-2.346-.451-4.688-.262-7.026s1.17-4.8,3.224-5.933c1.351-.744,3.047-.855,4.2-1.881,4.358-3.889-2.335-7.362-5.635-7.467C140.556,136.207,135.382,136.989,132.6,141.225Z" transform="translate(-121.411 -123.809)"/><path class="c" d="M173.975,150.4c.252-2.007-1.287-5.491-2.824-4.175-1.931,1.652-1.815,5.6-1.831,7.682-.011,1.554.019,3.238.972,4.466.538.7,2.267,1.109,2.817-.247C173.847,156.3,173.975,150.4,173.975,150.4Z" transform="translate(-122.018 -123.931)"/></g><path class="d" d="M132.84,183.022a11.3,11.3,0,0,0-1.964,5.4c-4.614,26.023-3.76,48.53-5.687,74.888-1.744,23.855-6.511,51.543-6.038,75.457,16.314,8.383,78.809,3.888,90.443-3.666a541.654,541.654,0,0,1-17.687-118.779c-.456-11.367.116-30.416-10.838-36.936C172.295,175.942,142.8,170.922,132.84,183.022Z" transform="translate(-103.835 -124.304)"/><g transform="translate(68.45 55.072)"><g transform="translate(84.283 22.423)"><path class="d" d="M259.529,204.617v24.334a3.88,3.88,0,0,0,7.759,0V204.617Z" transform="translate(-258.347 -202.17)"/><path class="u" d="M261.026,209.108v19.6a2.4,2.4,0,1,0,4.8,0v-19.6Z" transform="translate(-258.366 -202.227)"/><rect class="k" width="10.124" height="2.447"/></g><path class="i" d="M255,215.734c1.557-1.346,2.576-5.63,4.311-4.523.04,1.065,0,2.747.542,3.1,1.438.925,6.114.153,7.217.418.522.125,1.854,1.609.5,2.53a1.445,1.445,0,0,1,.793,1.118c.226,1.252-.476,1.457-.476,1.457a2.641,2.641,0,0,1,.753,1.324,1.417,1.417,0,0,1-.753,1.311c.338.243.236,1.265.041,1.632a1.913,1.913,0,0,1-1.422.8c-7.991,1.8-15.394-.895-21.638,3.318a21.241,21.241,0,0,1-2.608-7.786C242.327,221.047,254.119,216.494,255,215.734Z" transform="translate(-173.845 -179.828)"/><path class="d" d="M181.752,179.433c10.2-.535,33.591,39.077,34.757,39.622,1.132.53,25.093-3.354,35.439-6.589a112.244,112.244,0,0,0,3.822,20.044c-14.759,3.411-39.814,7.837-47.335,4.555-1.033-.451-14.03-14.427-21.42-24.161-1.557-2.052-6.436-8.01-7.455-10.376C172.758,186.721,168.122,180.149,181.752,179.433Z" transform="translate(-172.967 -179.428)"/></g></g></g></g></svg>