<svg id="Capa_1" enable-background="new 0 0 510 510" height="512" viewBox="0 0 510 510" width="512" xmlns="http://www.w3.org/2000/svg"><g><g id="XMLID_289_"><path id="XMLID_1661_" d="m0 420v60l90 15 90-15 15-30-15-30-90-15z" fill="#575f64"/><path id="XMLID_1659_" d="m510 420-90-15-90 15-15 30 15 30 90 15 90-15c0-7.3 0-52.7 0-60z" fill="#474f54"/><path id="XMLID_1657_" d="m0 160v260h180l75-75 7.5-37.5 7.5-37.5c-1.7-12.4-13.2-96.9-15-110l-127.5-16.7z" fill="#474f54"/><path id="XMLID_1656_" d="m510 160-127.5-20.7-127.5 20.7v92.5 92.5l75 75h180c0-7 0-253 0-260z" fill="#32393f"/><path id="XMLID_1601_" d="m180 510c-10 0-170 0-180 0 0-10.5 0-19.5 0-30h180l15 15z" fill="#474f54"/><path id="XMLID_1582_" d="m330 510h180c0-10.5 0-19.5 0-30-10 0-170 0-180 0l-15 15z" fill="#32393f"/><path id="XMLID_578_" d="m0 105v55h255c-6.7-6.7-48.7-48.3-55.5-55-5.4 0-194.2 0-199.5 0z" fill="#575f64"/><path id="XMLID_556_" d="m510 105c-5.4 0-194.1 0-199.5 0-6.7 6.7-48.7 48.3-55.5 55h255c0-20.1 0-34.9 0-55z" fill="#474f54"/><path id="XMLID_489_" d="m180 285v30h75l15-15-15-15c-20.2 0-63.2 0-75 0z" fill="#6cf"/><path id="XMLID_357_" d="m330 285c-20.2 0-63.2 0-75 0v30h75c0-10.5 0-19.5 0-30z" fill="#4596e6"/><path id="XMLID_350_" d="m180 225v30h75l15-15-15-15c-20.2 0-63.2 0-75 0z" fill="#ffda2d"/><path id="XMLID_348_" d="m330 225c-20.2 0-63.2 0-75 0v30h75c0-10.5 0-19.5 0-30z" fill="#fdbf00"/><path id="XMLID_343_" d="m215.7 0c0 19.7-16 35.7-35.7 35.7 0 22 5 42.1 14.3 60.1 15.7 30.4 37.1 45.3 60.7 64.2l15-80-15-80c-13.7 0-25.5 0-39.3 0z" fill="#ff637b"/><path id="XMLID_341_" d="m330 35.7c-19.7 0-35.7-16-35.7-35.7-13.7 0-25.5 0-39.3 0v160c23.3-18.7 44.9-33.6 60.7-64.2 9.3-18 14.3-38.1 14.3-60.1z" fill="#e63950"/><path id="XMLID_1599_" d="m255 345c-20.2 0-63.2 0-75 0v165h75l15-82.5z" fill="#6cf"/><path id="XMLID_490_" d="m330 345c-20.2 0-63.2 0-75 0v165h75c0-4.7 0-160.3 0-165z" fill="#4596e6"/></g><path d="m120 285h30v30h-30z" fill="#ffda2d"/><path d="m60 285h30v30h-30z" fill="#6cf"/><path d="m60 345h30v30h-30z" fill="#ffda2d"/><path d="m60 225h30v30h-30z" fill="#ffda2d"/><path d="m120 345h30v30h-30z" fill="#6cf"/><path d="m120 225h30v30h-30z" fill="#6cf"/><path d="m419.7 285h30v30h-30z" fill="#4596e6"/><path d="m359.7 285h30v30h-30z" fill="#fdbf00"/><path d="m359.7 345h30v30h-30z" fill="#4596e6"/><path d="m359.7 225h30v30h-30z" fill="#4596e6"/><g fill="#fdbf00"><path d="m419.7 345h30v30h-30z"/><path d="m419.7 225h30v30h-30z"/></g></g></svg>