<?xml version="1.0" encoding="iso-8859-1"?>
<!-- Generator: Adobe Illustrator 22.1.0, SVG Export Plug-In . SVG Version: 6.00 Build 0)  -->
<svg xmlns="http://www.w3.org/2000/svg" xmlns:xlink="http://www.w3.org/1999/xlink" version="1.1" id="Layer_3" x="0px" y="0px" viewBox="0 0 64 64" style="enable-background:new 0 0 64 64;" xml:space="preserve" width="512" height="512">
<g>
	<g>
		<path style="fill:#B3B3B3;" d="M44,54H6V32c0-1.105,0.895-2,2-2h34c1.105,0,2,0.895,2,2V54z"/>
	</g>
	<g>
		<rect x="10" y="34" style="fill:#7FCDEE;" width="30" height="16"/>
	</g>
	<g>
		<rect x="10" y="34" style="fill:#A9DDF3;" width="27" height="16"/>
	</g>
	<g>
		<rect x="30" y="2" style="fill:#BF5043;" width="26" height="34"/>
	</g>
	<g>
		<rect x="30" y="2" style="fill:#FF6A59;" width="23" height="34"/>
	</g>
	<g>
		<circle style="fill:#929999;" cx="56" cy="29" r="7"/>
	</g>
	<g>
		<ellipse style="fill:#C2CCCC;" cx="54.5" cy="29" rx="5.5" ry="6.835"/>
	</g>
	<g>
		<rect x="34" y="28" style="fill:#929999;" width="4" height="4"/>
	</g>
	<g>
		<rect x="34" y="28" style="fill:#C2CCCC;" width="2" height="4"/>
	</g>
	<g>
		<rect x="34" y="20" style="fill:#929999;" width="4" height="4"/>
	</g>
	<g>
		<rect x="34" y="20" style="fill:#C2CCCC;" width="2" height="4"/>
	</g>
	<g>
		<rect x="34" y="12" style="fill:#929999;" width="4" height="4"/>
	</g>
	<g>
		<rect x="34" y="12" style="fill:#C2CCCC;" width="2" height="4"/>
	</g>
	<g>
		<rect x="34" y="2" style="fill:#999999;" width="18" height="6"/>
	</g>
	<g>
		<rect x="34" y="2" style="fill:#B3B3B3;" width="15" height="6"/>
	</g>
	<g>
		<path style="fill:#FFF284;" d="M54,46L54,46c1.889-0.63,3.37-2.111,4-4v0v0c0.63,1.889,2.111,3.37,4,4h0h0    c-1.889,0.63-3.37,2.111-4,4v0v0C57.37,48.111,55.889,46.63,54,46L54,46z"/>
	</g>
	<g>
		<path style="fill:#FFF284;" d="M18,20L18,20c1.889-0.63,3.37-2.111,4-4l0,0l0,0c0.63,1.889,2.111,3.37,4,4l0,0l0,0    c-1.889,0.63-3.37,2.111-4,4l0,0l0,0C21.37,22.111,19.889,20.63,18,20L18,20z"/>
	</g>
	<g>
		<path style="fill:#FFF284;" d="M2,6L2,6c1.889-0.63,3.37-2.111,4-4l0,0l0,0c0.63,1.889,2.111,3.37,4,4l0,0l0,0    c-1.889,0.63-3.37,2.111-4,4l0,0l0,0C5.37,8.111,3.889,6.63,2,6L2,6z"/>
	</g>
	<g>
		<rect x="14" y="38" style="fill:#BF5043;" width="12" height="4"/>
	</g>
	<g>
		<rect x="14" y="38" style="fill:#FF6A59;" width="9" height="4"/>
	</g>
	<g>
		<polyline style="fill:#4D4D4D;" points="2,58 6,54 44,54 48,58   "/>
	</g>
	<g>
		<polygon style="fill:#666666;" points="6,54 2,58 44,58 40,54   "/>
	</g>
	<g>
		<path style="fill:#808080;" d="M46,62H4c-1.105,0-2-0.895-2-2v-2h46v2C48,61.105,47.105,62,46,62z"/>
	</g>
	<g>
		<path style="fill:#999999;" d="M45,60v-2H2v2c0,1.105,0.895,2,2,2h39C44.105,62,45,61.105,45,60z"/>
	</g>
	<g>
		<path d="M46,63H4c-1.654,0-3-1.346-3-3v-2c0-0.553,0.447-1,1-1h46c0.553,0,1,0.447,1,1v2C49,61.654,47.654,63,46,63z M3,59v1    c0,0.552,0.448,1,1,1h42c0.552,0,1-0.448,1-1v-1H3z"/>
	</g>
	<g>
		<path d="M47.293,58.707L43.586,55H6.414l-3.707,3.707l-1.414-1.414l4-4C5.48,53.105,5.734,53,6,53h38    c0.266,0,0.52,0.105,0.707,0.293l4,4L47.293,58.707z"/>
	</g>
	<g>
		<rect x="43" y="36" width="2" height="18"/>
	</g>
	<g>
		<path d="M7,54H5V32c0-1.654,1.346-3,3-3h22v2H8c-0.552,0-1,0.449-1,1V54z"/>
	</g>
	<g>
		<path d="M40,51H10c-0.553,0-1-0.447-1-1V34c0-0.553,0.447-1,1-1h20v2H11v14h28V36h2v14C41,50.553,40.553,51,40,51z"/>
	</g>
	<g>
		<path d="M31,34h-2V2c0-0.552,0.447-1,1-1h26c0.553,0,1,0.448,1,1v20h-2V3H31V34z"/>
	</g>
	<g>
		<path d="M56,37H30c-0.553,0-1-0.447-1-1v-2h2v1h25V37z"/>
	</g>
	<g>
		<path d="M38,17h-4c-0.553,0-1-0.448-1-1v-4c0-0.552,0.447-1,1-1h4c0.553,0,1,0.448,1,1v4C39,16.552,38.553,17,38,17z M35,15h2v-2    h-2V15z"/>
	</g>
	<g>
		<path d="M38,25h-4c-0.553,0-1-0.448-1-1v-4c0-0.552,0.447-1,1-1h4c0.553,0,1,0.448,1,1v4C39,24.552,38.553,25,38,25z M35,23h2v-2    h-2V23z"/>
	</g>
	<g>
		<path d="M52,9H34c-0.553,0-1-0.448-1-1V2h2v5h16V2h2v6C53,8.552,52.553,9,52,9z"/>
	</g>
	<g>
		<rect x="41" y="13" width="12" height="2"/>
	</g>
	<g>
		<rect x="41" y="21" width="7" height="2"/>
	</g>
	<g>
		<path d="M38,33h-4c-0.553,0-1-0.448-1-1v-4c0-0.552,0.447-1,1-1h4c0.553,0,1,0.448,1,1v4C39,32.552,38.553,33,38,33z M35,31h2v-2    h-2V31z"/>
	</g>
	<g>
		<rect x="41" y="29" width="8" height="2"/>
	</g>
	<g>
		<path d="M56,37c-4.411,0-8-3.589-8-8s3.589-8,8-8s8,3.589,8,8S60.411,37,56,37z M56,23c-3.309,0-6,2.691-6,6s2.691,6,6,6    s6-2.691,6-6S59.309,23,56,23z"/>
	</g>
	<g>
		<rect x="55" y="25" width="2" height="8"/>
	</g>
	<g>
		<rect x="52" y="28" width="8" height="2"/>
	</g>
	<g>
		<path d="M26,43H14c-0.553,0-1-0.447-1-1v-4c0-0.553,0.447-1,1-1h12c0.553,0,1,0.447,1,1v4C27,42.553,26.553,43,26,43z M15,41h10    v-2H15V41z"/>
	</g>
	<g>
		<rect x="13" y="45" width="24" height="2"/>
	</g>
	<g>
		<path d="M6,11c-0.431,0-0.812-0.275-0.948-0.684C4.523,8.734,3.265,7.476,1.684,6.949C1.275,6.812,1,6.431,1,6    s0.275-0.812,0.684-0.949c1.581-0.527,2.84-1.786,3.368-3.368C5.188,1.275,5.569,1,6,1s0.812,0.275,0.948,0.684    c0.528,1.582,1.787,2.841,3.368,3.368C10.725,5.188,11,5.569,11,6s-0.275,0.812-0.684,0.949c-1.581,0.527-2.84,1.786-3.368,3.368    C6.812,10.725,6.431,11,6,11z M4.196,6C4.896,6.492,5.508,7.104,6,7.804C6.492,7.104,7.104,6.492,7.804,6    C7.104,5.508,6.492,4.896,6,4.196C5.508,4.896,4.896,5.508,4.196,6z"/>
	</g>
	<g>
		<path d="M22,25c-0.431,0-0.812-0.275-0.948-0.684c-0.528-1.582-1.787-2.841-3.368-3.368C17.275,20.812,17,20.431,17,20    s0.275-0.812,0.684-0.949c1.581-0.527,2.84-1.786,3.368-3.368C21.188,15.275,21.569,15,22,15s0.812,0.275,0.948,0.684    c0.528,1.582,1.787,2.841,3.368,3.368C26.725,19.188,27,19.569,27,20s-0.275,0.812-0.684,0.949    c-1.581,0.527-2.84,1.786-3.368,3.368C22.812,24.725,22.431,25,22,25z M20.196,20c0.7,0.492,1.312,1.104,1.804,1.804    c0.492-0.701,1.104-1.312,1.804-1.804c-0.7-0.492-1.312-1.104-1.804-1.804C21.508,18.896,20.896,19.508,20.196,20z"/>
	</g>
	<g>
		<path d="M58,51c-0.431,0-0.812-0.275-0.948-0.684c-0.527-1.581-1.787-2.841-3.368-3.368C53.275,46.812,53,46.431,53,46    s0.275-0.812,0.684-0.948c1.581-0.527,2.841-1.787,3.368-3.368C57.188,41.275,57.569,41,58,41s0.812,0.275,0.948,0.684    c0.527,1.581,1.787,2.841,3.368,3.368C62.725,45.188,63,45.569,63,46s-0.275,0.812-0.684,0.948    c-1.581,0.527-2.841,1.787-3.368,3.368C58.812,50.725,58.431,51,58,51z M56.195,46c0.701,0.492,1.312,1.104,1.805,1.805    c0.492-0.701,1.104-1.312,1.805-1.805c-0.701-0.492-1.312-1.104-1.805-1.805C57.508,44.896,56.896,45.508,56.195,46z"/>
	</g>
</g>
</svg>
