<?xml version="1.0" encoding="UTF-8"?>
<!DOCTYPE svg PUBLIC "-//W3C//DTD SVG 1.1//EN" "http://www.w3.org/Graphics/SVG/1.1/DTD/svg11.dtd">
<!-- Creator: CorelDRAW X7 -->
<svg xmlns="http://www.w3.org/2000/svg" xml:space="preserve" width="8in" height="4in" version="1.1" style="shape-rendering:geometricPrecision; text-rendering:geometricPrecision; image-rendering:optimizeQuality; fill-rule:evenodd; clip-rule:evenodd"
viewBox="0 0 8000 4000"
 xmlns:xlink="http://www.w3.org/1999/xlink"
 enable-background="new 0 0 33.5 37.5">
 <defs>
  <style type="text/css">
   <![CDATA[
    .fil1 {fill:#003399}
    .fil3 {fill:#003399}
    .fil5 {fill:#AAD3C7}
    .fil0 {fill:#CCCCFF}
    .fil4 {fill:white}
    .fil8 {fill:black;fill-rule:nonzero}
    .fil2 {fill:#003399;fill-rule:nonzero}
    .fil6 {fill:#6C7496;fill-rule:nonzero}
    .fil9 {fill:#9ED8A1;fill-rule:nonzero}
    .fil7 {fill:#BEC7ED;fill-rule:nonzero}
    .fil11 {fill:#D19D9B;fill-rule:nonzero}
    .fil10 {fill:#D1CF9B;fill-rule:nonzero}
   ]]>
  </style>
 </defs>
 <g id="Layer_x0020_1">
  <metadata id="CorelCorpID_0Corel-Layer"/>
  <g id="_872229696">
   <path class="fil0" d="M515 23l6966 0c263,0 478,215 478,478l0 3005c0,263 -215,478 -478,478l-6966 0c-263,0 -478,-215 -478,-478l0 -3005c0,-263 215,-478 478,-478z"/>
   <path class="fil1" d="M3940 339l116 0c10,0 18,9 18,19l0 3292c0,10 -8,19 -18,19l-116 0c-10,0 -18,-9 -18,-19l0 -3292c0,-10 8,-19 18,-19z"/>
   <path class="fil2" d="M2166 2346c-27,8 -45,16 -55,25 -9,9 -16,21 -20,35 -3,15 -6,42 -6,80l0 656c0,31 2,55 5,73 3,18 9,32 19,41 9,10 28,18 57,26l0 50 -389 0 0 -50c22,-6 37,-12 46,-16 9,-5 15,-11 20,-18 5,-7 9,-18 11,-33 2,-15 3,-40 3,-74l0 -372c0,-41 1,-90 2,-145 2,-56 3,-95 5,-118l-16 0c-6,20 -13,39 -19,59 -7,20 -20,54 -39,104l-203 548 -134 0 -214 -615c-12,-35 -23,-70 -33,-104l-14 0c5,83 8,182 8,296l0 349c0,37 2,63 5,78 4,15 11,27 21,37 11,9 29,17 56,24l0 50 -287 0 0 -50c19,-5 34,-11 44,-17 11,-6 20,-14 25,-24 6,-10 9,-23 10,-39 2,-16 2,-36 2,-60l0 -656c0,-39 -1,-65 -5,-79 -3,-14 -10,-26 -19,-35 -10,-9 -29,-18 -57,-26l0 -50 377 0 210 623 228 -623 356 0 0 50zm422 342l10 2c37,-44 75,-75 114,-94 39,-20 81,-29 126,-29 31,0 64,3 98,10l0 209 -138 0c-8,-29 -20,-52 -34,-67 -14,-16 -32,-24 -55,-24 -11,0 -24,4 -37,11 -14,6 -26,16 -37,28 -12,13 -20,25 -25,38 -4,13 -8,26 -9,39 -2,13 -2,33 -2,60l0 241c0,49 1,82 5,101 3,20 10,35 21,46 11,10 29,18 54,23l0 50 -374 0 0 -50c24,-7 41,-15 50,-26 10,-11 16,-25 19,-43 4,-18 5,-52 5,-100l0 -312c0,-37 0,-65 -2,-83 -1,-18 -4,-32 -9,-43 -5,-11 -12,-20 -22,-26 -10,-7 -27,-13 -51,-18l0 -52 208 -6 96 0 -11 115zm499 415l0 229 -204 0 0 -229 204 0z"/>
   <path class="fil2" d="M5727 2340c-27,8 -45,16 -55,25 -9,9 -16,21 -20,35 -4,15 -6,42 -6,80l0 656c0,31 2,55 5,73 3,18 9,32 19,41 9,10 28,18 57,26l0 50 -389 0 0 -50c22,-6 37,-12 46,-16 9,-5 15,-11 20,-18 5,-7 9,-18 11,-33 2,-15 3,-40 3,-74l0 -372c0,-41 1,-90 2,-145 2,-56 3,-95 5,-118l-16 0c-6,20 -13,39 -19,59 -7,20 -20,54 -39,104l-203 548 -134 0 -214 -615c-12,-35 -23,-70 -33,-104l-14 0c5,83 8,182 8,296l0 349c0,37 2,63 5,78 4,15 11,27 21,37 11,9 29,17 56,24l0 50 -287 0 0 -50c19,-5 34,-11 44,-17 11,-6 20,-14 25,-24 6,-10 9,-23 10,-39 2,-16 2,-36 2,-60l0 -656c0,-39 -1,-65 -5,-79 -3,-14 -10,-26 -19,-35 -10,-9 -29,-18 -57,-26l0 -50 377 0 210 623 228 -623 356 0 0 50zm422 342l10 2c37,-44 75,-75 114,-94 39,-19 81,-29 126,-29 31,0 64,3 98,10l0 209 -138 0c-8,-29 -20,-52 -34,-67 -14,-16 -32,-24 -55,-24 -11,0 -24,4 -37,11 -14,6 -26,16 -37,28 -12,13 -20,25 -25,38 -4,13 -8,26 -9,39 -2,13 -2,33 -2,60l0 241c0,49 1,82 5,101 3,20 10,35 21,46 11,10 29,18 54,23l0 50 -374 0 0 -50c24,-7 41,-15 50,-26 10,-11 16,-25 19,-43 4,-18 5,-52 5,-100l0 -312c0,-37 0,-65 -2,-83 -1,-18 -4,-32 -9,-43 -5,-11 -12,-20 -22,-26 -10,-7 -27,-13 -51,-18l0 -52 208 -6 96 0 -11 115zm532 439c12,46 31,81 58,104 26,23 61,34 105,34 38,0 67,-9 86,-26 20,-17 30,-42 30,-75 0,-21 -5,-38 -14,-53 -9,-15 -23,-29 -44,-42 -20,-14 -55,-31 -105,-53 -28,-12 -54,-25 -78,-40 -25,-15 -46,-31 -65,-50 -18,-18 -32,-39 -43,-62 -11,-22 -16,-48 -16,-76 0,-45 14,-85 40,-118 26,-33 64,-59 112,-77 49,-17 105,-26 168,-26 37,0 73,1 108,4 36,3 82,10 138,20l0 177 -100 0c-12,-32 -25,-57 -39,-75 -14,-18 -29,-30 -46,-37 -16,-7 -36,-10 -60,-10 -33,0 -60,7 -80,22 -19,16 -29,37 -29,64 0,20 4,36 11,50 7,13 19,27 38,40 18,13 53,30 105,51 48,20 86,41 116,62 30,22 53,47 69,75 15,28 23,60 23,98 0,41 -8,76 -23,106 -15,30 -36,54 -63,73 -28,19 -61,34 -99,43 -38,9 -80,14 -126,14 -84,0 -176,-12 -279,-36l0 -181 102 0zm833 -24l0 229 -205 0 0 -229 205 0z"/>
   <path class="fil3" d="M2555 688c0,-294 -239,-533 -533,-533 -295,0 -534,239 -534,533 0,295 239,534 534,534 294,0 533,-239 533,-534z"/>
   <path class="fil3" d="M1712 1275c-277,0 -501,224 -501,501l0 246 1632 0 0 -246c0,-277 -224,-501 -501,-501l-630 0zm512 672l-74 0 -246 0 64 -405 -64 405 -74 0 -118 -619c11,0 22,0 32,0l566 0c10,0 21,0 32,0l-118 619z"/>
   <path class="fil4" d="M2086 1531l0 0 64 405 74 0 118 -608c-11,0 -22,0 -32,0l-566 0c-10,0 -21,0 -32,0l118 608 74 0 64 -405 0 0 -64 -117 246 0 -64 117 0 0z"/>
   <polygon class="fil5" points="1904,1947 2150,1947 2086,1531 2086,1531 2086,1531 2150,1424 1904,1424 1968,1531 1958,1531 "/>
   <path class="fil3" d="M6002 169c-263,13 -487,236 -500,499 -13,303 224,566 526,566 13,0 13,0 27,0l631 0c13,0 13,-13 0,-13 -79,-26 -132,-118 -132,-224l0 -289 0 0 0 -13c14,-303 -249,-553 -552,-526z"/>
   <path class="fil3" d="M5726 1274c-277,0 -500,223 -500,500l0 236 1618 0 0 -236c0,-277 -224,-500 -500,-500l-618 0zm447 315l105 92 -237 264 -236 -250 105 -93c0,0 -158,-131 -158,-144 -13,-27 92,-92 92,-92l197 592 198 -592c0,0 105,65 92,92 -13,0 -158,131 -158,131z"/>
   <path class="fil4" d="M6041 1945l-197 -592c0,0 -105,65 -92,92 13,13 158,144 158,144l-105 92 236 264z"/>
   <path class="fil4" d="M6331 1445c13,-27 -92,-92 -92,-92l-198 592 237 -250 -105 -93c0,-13 145,-144 158,-157z"/>
  </g>
  <g id="_872239968">
   <g id="icon">
    <path class="fil6" d="M-4227857 4232140l-3208 0c-99,0 -179,-80 -179,-179l0 -81 3566 0 0 81c0,99 -80,179 -179,179z"/>
    <path class="fil6" d="M-4228892 4232731l-1138 0c-59,0 -106,-48 -106,-106l0 0c0,-58 47,-105 106,-105l1138 0c59,0 106,47 106,105l0 0c0,58 -47,106 -106,106z"/>
    <polygon class="fil6" points="-4228996,4232519 -4229926,4232519 -4229845,4232140 -4229077,4232140 "/>
    <path class="fil7" d="M-4227678 4231880l-3566 0 0 -2104c0,-99 80,-180 179,-180l3208 0c99,0 179,81 179,180l0 2104z"/>
    <path class="fil8" d="M-4227638 4231920l-3646 0 0 -2144c0,-122 98,-220 219,-220l3208 0c121,0 219,98 219,220l0 2144zm-3565 -81l3484 0 0 -2063c0,-77 -62,-139 -138,-139l-3208 0c-76,0 -138,62 -138,139l0 2063z"/>
    <path class="fil8" d="M-4227857 4232181l-3208 0c-121,0 -219,-99 -219,-220l0 -122 3646 0 0 122c0,121 -98,220 -219,220zm-3346 -261l0 41c0,76 62,139 138,139l3208 0c76,0 138,-63 138,-139l0 -41 -3484 0z"/>
    <path class="fil8" d="M-4228892 4232771l-1138 0c-81,0 -147,-65 -147,-146 0,-80 66,-146 147,-146l1138 0c81,0 147,66 147,146 0,81 -66,146 -147,146zm-1138 -211c-36,0 -66,29 -66,65 0,36 30,65 66,65l1138 0c36,0 66,-29 66,-65 0,-36 -30,-65 -66,-65l-1138 0z"/>
    <path class="fil8" d="M-4228996 4232560l-930 0c-12,0 -24,-6 -32,-15 -7,-9 -10,-22 -8,-34l81 -379c4,-19 21,-32 40,-32l768 0c19,0 36,13 40,32l81 379c2,12 -1,25 -8,34 -8,9 -20,15 -32,15zm-880 -81l830 0 -64 -298 -702 0 -64 298z"/>
    <path class="fil9" d="M-4229367 4230233l297 0c-4221590,4226427 -4221590,4226427 -4221590,4226427 0,0 0,0 0,0 0,0 0,0 0,0 0,0 0,0 0,0 0,0 0,0 0,0l4221590 -4225899c-4221590,4225899 -4221590,4225899 -4221590,4225899 0,0 0,0 0,0 0,0 0,0 0,0 0,0 0,0 0,0 0,0 0,0 0,0l4221293 -4225899c-4221293,4225899 -4221293,4225899 -4221293,4225899 0,0 0,0 0,0 0,0 0,0 0,0 0,0 0,0 0,0 0,0 0,0 0,0l4221293 -4226427c-4221293,4226427 -4221293,4226427 -4221293,4226427 0,0 0,0 0,0 0,0 0,0 0,0 0,0 0,0 0,0 0,0 0,0 0,0z"/>
    <path class="fil10" d="M-4228865 4229990l298 0c-4222093,4226670 -4222093,4226670 -4222093,4226670 0,0 0,0 0,0 0,0 0,0 0,0 0,0 0,0 0,0 0,0 0,0 0,0l4222093 -4225899c-4222093,4225899 -4222093,4225899 -4222093,4225899 0,0 0,0 0,0 0,0 0,0 0,0 0,0 0,0 0,0 0,0 0,0 0,0l4221795 -4225899c-4221795,4225899 -4221795,4225899 -4221795,4225899 0,0 0,0 0,0 0,0 0,0 0,0 0,0 0,0 0,0 0,0 0,0 0,0l4221795 -4226670c-4221795,4226670 -4221795,4226670 -4221795,4226670 0,0 0,0 0,0 0,0 0,0 0,0 0,0 0,0 0,0 0,0 0,0 0,0z"/>
    <path class="fil11" d="M-4228362 4230425l297 0c-4222595,4226235 -4222595,4226235 -4222595,4226235 0,0 0,0 0,0 0,0 0,0 0,0 0,0 0,0 0,0 0,0 0,0 0,0l4222595 -4225899c-4222595,4225899 -4222595,4225899 -4222595,4225899 0,0 0,0 0,0 0,0 0,0 0,0 0,0 0,0 0,0 0,0 0,0 0,0l4222298 -4225899c-4222298,4225899 -4222298,4225899 -4222298,4225899 0,0 0,0 0,0 0,0 0,0 0,0 0,0 0,0 0,0 0,0 0,0 0,0l4222298 -4226235c-4222298,4226235 -4222298,4226235 -4222298,4226235 0,0 0,0 0,0 0,0 0,0 0,0 0,0 0,0 0,0 0,0 0,0 0,0z"/>
    <path class="fil8" d="M-4229070 4230801l-297 0c-23,0 -41,-18 -41,-40l0 -528c0,-23 18,-41 41,-41l297 0c23,0 41,18 41,41l0 528c0,22 -18,40 -41,40zm-257 -81l217 0 0 -447 -217 0 0 447z"/>
    <path class="fil8" d="M-4228567 4230801l-298 0c-22,0 -41,-18 -41,-40l0 -771c0,-23 19,-41 41,-41l298 0c22,0 40,18 40,41l0 771c0,22 -18,40 -40,40zm-257 -81l216 0 0 -690 -216 0 0 690z"/>
    <path class="fil8" d="M-4228065 4230801l-298 0c-22,0 -40,-18 -40,-40l0 -336c0,-23 18,-41 40,-41l298 0c23,0 41,18 41,41l0 336c0,22 -18,40 -41,40zm-257 -81l217 0 0 -255 -217 0 0 255z"/>
    <path class="fil8" d="M-4229367 4231564c-11,0 -23,-5 -31,-14 -14,-16 -13,-42 3,-57l503 -452c14,-12 36,-13 51,-2l475 350 273 -263c16,-15 42,-15 57,1 16,17 15,42 -1,58l-297 286c-15,14 -37,15 -53,4l-475 -351 -478 429c-8,7 -18,11 -27,11z"/>
    <path class="fil8" d="M-4229864 4230030l-1057 0c-22,0 -40,-18 -40,-40 0,-23 18,-41 40,-41l1057 0c22,0 40,18 40,41 0,22 -18,40 -40,40z"/>
    <path class="fil8" d="M-4229864 4230337l-1057 0c-22,0 -40,-18 -40,-41 0,-22 18,-40 40,-40l1057 0c22,0 40,18 40,40 0,23 -18,41 -40,41z"/>
    <path class="fil8" d="M-4229864 4230644l-1057 0c-22,0 -40,-19 -40,-41 0,-22 18,-40 40,-40l1057 0c22,0 40,18 40,40 0,22 -18,41 -40,41z"/>
    <path class="fil8" d="M-4229864 4230950l-1057 0c-22,0 -40,-18 -40,-40 0,-23 18,-41 40,-41l1057 0c22,0 40,18 40,41 0,22 -18,40 -40,40z"/>
    <path class="fil8" d="M-4229864 4231257l-1057 0c-22,0 -40,-18 -40,-40 0,-23 18,-41 40,-41l1057 0c22,0 40,18 40,41 0,22 -18,40 -40,40z"/>
    <path class="fil8" d="M-4230269 4231564l-652 0c-22,0 -40,-18 -40,-41 0,-22 18,-40 40,-40l652 0c22,0 40,18 40,40 0,23 -18,41 -40,41z"/>
   </g>
  </g>
 </g>
</svg>
