<?xml version="1.0" encoding="UTF-8"?>
<!DOCTYPE svg PUBLIC "-//W3C//DTD SVG 1.1//EN" "http://www.w3.org/Graphics/SVG/1.1/DTD/svg11.dtd">
<!-- Creator: CorelDRAW X7 -->
<svg xmlns="http://www.w3.org/2000/svg" xml:space="preserve" width="4in" height="4in" version="1.1" style="shape-rendering:geometricPrecision; text-rendering:geometricPrecision; image-rendering:optimizeQuality; fill-rule:evenodd; clip-rule:evenodd"
viewBox="0 0 4000 4000"
 xmlns:xlink="http://www.w3.org/1999/xlink">
 <defs>
  <style type="text/css">
   <![CDATA[
    .fil6 {fill:#36404D}
    .fil11 {fill:#66798F}
    .fil8 {fill:#A16A4A}
    .fil10 {fill:#B0C1D4}
    .fil5 {fill:#BA9B48}
    .fil9 {fill:#E8D47B}
    .fil7 {fill:#FFC49C}
    .fil4 {fill:#FFEEA3}
    .fil3 {fill:black;fill-rule:nonzero}
    .fil12 {fill:#66798F;fill-rule:nonzero}
    .fil2 {fill:#7C90B4;fill-rule:nonzero}
    .fil13 {fill:#A16A4A;fill-rule:nonzero}
    .fil0 {fill:#C4CDDF;fill-rule:nonzero}
    .fil1 {fill:#E7ECF6;fill-rule:nonzero}
   ]]>
  </style>
 </defs>
 <g id="Layer_x0020_1">
  <metadata id="CorelCorpID_0Corel-Layer"/>
  <g id="_848814064">
   <g id="icon">
    <path class="fil0" d="M-4232472 4227727c-28,0 -52,-26 -47,-56 25,-163 160,-287 323,-287l237 0 253 343 -766 0z"/>
    <path class="fil1" d="M-4229730 4230406l0 -2688c0,-185 -150,-334 -335,-334l0 0 0 0 -2105 0 0 0 0 0c185,0 335,149 335,334l0 2688 2105 0z"/>
    <path class="fil2" d="M-4230643 4228294l1675 0c-4223692,4228366 -4223692,4228366 -4223692,4228366 0,0 0,0 0,0 0,0 0,0 0,0 0,0 0,0 0,0 0,0 0,0 0,0l4223692 -4225944c-4223692,4225944 -4223692,4225944 -4223692,4225944 0,0 0,0 0,0 0,0 0,0 0,0 0,0 0,0 0,0 0,0 0,0 0,0l4222017 -4225944c-4222017,4225944 -4222017,4225944 -4222017,4225944 0,0 0,0 0,0 0,0 0,0 0,0 0,0 0,0 0,0 0,0 0,0 0,0l4222017 -4228366c-4222017,4228366 -4222017,4228366 -4222017,4228366 0,0 0,0 0,0 0,0 0,0 0,0 0,0 0,0 0,0 0,0 0,0 0,0z"/>
    <path class="fil1" d="M-4230401 4228536l1191 0c-4223450,4228124 -4223450,4228124 -4223450,4228124 0,0 0,0 0,0 0,0 0,0 0,0 0,0 0,0 0,0 0,0 0,0 0,0l4223450 -4227594c-4223450,4227594 -4223450,4227594 -4223450,4227594 0,0 0,0 0,0 0,0 0,0 0,0 0,0 0,0 0,0 0,0 0,0 0,0l4222259 -4227594c-4222259,4227594 -4222259,4227594 -4222259,4227594 0,0 0,0 0,0 0,0 0,0 0,0 0,0 0,0 0,0 0,0 0,0 0,0l4222259 -4228124c-4222259,4228124 -4222259,4228124 -4222259,4228124 0,0 0,0 0,0 0,0 0,0 0,0 0,0 0,0 0,0 0,0 0,0 0,0z"/>
    <path class="fil1" d="M-4230401 4230237l267 0c-4222526,4226423 -4222526,4226423 -4222526,4226423 0,0 0,0 0,0 0,0 0,0 0,0 0,0 0,0 0,0 0,0 0,0 0,0l4222526 -4226186c-4222526,4226186 -4222526,4226186 -4222526,4226186 0,0 0,0 0,0 0,0 0,0 0,0 0,0 0,0 0,0 0,0 0,0 0,0l4222259 -4226186c-4222259,4226186 -4222259,4226186 -4222259,4226186 0,0 0,0 0,0 0,0 0,0 0,0 0,0 0,0 0,0 0,0 0,0 0,0l4222259 -4226423c-4222259,4226423 -4222259,4226423 -4222259,4226423 0,0 0,0 0,0 0,0 0,0 0,0 0,0 0,0 0,0 0,0 0,0 0,0z"/>
    <path class="fil1" d="M-4229477 4229795l267 0c-4223450,4226865 -4223450,4226865 -4223450,4226865 0,0 0,0 0,0 0,0 0,0 0,0 0,0 0,0 0,0 0,0 0,0 0,0l4223450 -4226186c-4223450,4226186 -4223450,4226186 -4223450,4226186 0,0 0,0 0,0 0,0 0,0 0,0 0,0 0,0 0,0 0,0 0,0 0,0l4223183 -4226186c-4223183,4226186 -4223183,4226186 -4223183,4226186 0,0 0,0 0,0 0,0 0,0 0,0 0,0 0,0 0,0 0,0 0,0 0,0l4223183 -4226865c-4223183,4226865 -4223183,4226865 -4223183,4226865 0,0 0,0 0,0 0,0 0,0 0,0 0,0 0,0 0,0 0,0 0,0 0,0z"/>
    <path class="fil1" d="M-4229939 4230237l267 0c-4222988,4226423 -4222988,4226423 -4222988,4226423 0,0 0,0 0,0 0,0 0,0 0,0 0,0 0,0 0,0 0,0 0,0 0,0l4222988 -4226186c-4222988,4226186 -4222988,4226186 -4222988,4226186 0,0 0,0 0,0 0,0 0,0 0,0 0,0 0,0 0,0 0,0 0,0 0,0l4222721 -4226186c-4222721,4226186 -4222721,4226186 -4222721,4226186 0,0 0,0 0,0 0,0 0,0 0,0 0,0 0,0 0,0 0,0 0,0 0,0l4222721 -4226423c-4222721,4226423 -4222721,4226423 -4222721,4226423 0,0 0,0 0,0 0,0 0,0 0,0 0,0 0,0 0,0 0,0 0,0 0,0z"/>
    <path class="fil1" d="M-4230401 4229795l267 0c-4222526,4226865 -4222526,4226865 -4222526,4226865 0,0 0,0 0,0 0,0 0,0 0,0 0,0 0,0 0,0 0,0 0,0 0,0l4222526 -4226628c-4222526,4226628 -4222526,4226628 -4222526,4226628 0,0 0,0 0,0 0,0 0,0 0,0 0,0 0,0 0,0 0,0 0,0 0,0l4222259 -4226628c-4222259,4226628 -4222259,4226628 -4222259,4226628 0,0 0,0 0,0 0,0 0,0 0,0 0,0 0,0 0,0 0,0 0,0 0,0l4222259 -4226865c-4222259,4226865 -4222259,4226865 -4222259,4226865 0,0 0,0 0,0 0,0 0,0 0,0 0,0 0,0 0,0 0,0 0,0 0,0z"/>
    <path class="fil1" d="M-4229939 4229795l267 0c-4222988,4226865 -4222988,4226865 -4222988,4226865 0,0 0,0 0,0 0,0 0,0 0,0 0,0 0,0 0,0 0,0 0,0 0,0l4222988 -4226628c-4222988,4226628 -4222988,4226628 -4222988,4226628 0,0 0,0 0,0 0,0 0,0 0,0 0,0 0,0 0,0 0,0 0,0 0,0l4222721 -4226628c-4222721,4226628 -4222721,4226628 -4222721,4226628 0,0 0,0 0,0 0,0 0,0 0,0 0,0 0,0 0,0 0,0 0,0 0,0l4222721 -4226865c-4222721,4226865 -4222721,4226865 -4222721,4226865 0,0 0,0 0,0 0,0 0,0 0,0 0,0 0,0 0,0 0,0 0,0 0,0z"/>
    <path class="fil1" d="M-4230401 4229353l267 0c-4222526,4227307 -4222526,4227307 -4222526,4227307 0,0 0,0 0,0 0,0 0,0 0,0 0,0 0,0 0,0 0,0 0,0 0,0l4222526 -4227069c-4222526,4227069 -4222526,4227069 -4222526,4227069 0,0 0,0 0,0 0,0 0,0 0,0 0,0 0,0 0,0 0,0 0,0 0,0l4222259 -4227069c-4222259,4227069 -4222259,4227069 -4222259,4227069 0,0 0,0 0,0 0,0 0,0 0,0 0,0 0,0 0,0 0,0 0,0 0,0l4222259 -4227307c-4222259,4227307 -4222259,4227307 -4222259,4227307 0,0 0,0 0,0 0,0 0,0 0,0 0,0 0,0 0,0 0,0 0,0 0,0z"/>
    <path class="fil1" d="M-4229477 4229353l267 0c-4223450,4227307 -4223450,4227307 -4223450,4227307 0,0 0,0 0,0 0,0 0,0 0,0 0,0 0,0 0,0 0,0 0,0 0,0l4223450 -4227069c-4223450,4227069 -4223450,4227069 -4223450,4227069 0,0 0,0 0,0 0,0 0,0 0,0 0,0 0,0 0,0 0,0 0,0 0,0l4223183 -4227069c-4223183,4227069 -4223183,4227069 -4223183,4227069 0,0 0,0 0,0 0,0 0,0 0,0 0,0 0,0 0,0 0,0 0,0 0,0l4223183 -4227307c-4223183,4227307 -4223183,4227307 -4223183,4227307 0,0 0,0 0,0 0,0 0,0 0,0 0,0 0,0 0,0 0,0 0,0 0,0z"/>
    <path class="fil1" d="M-4229939 4229353l267 0c-4222988,4227307 -4222988,4227307 -4222988,4227307 0,0 0,0 0,0 0,0 0,0 0,0 0,0 0,0 0,0 0,0 0,0 0,0l4222988 -4227069c-4222988,4227069 -4222988,4227069 -4222988,4227069 0,0 0,0 0,0 0,0 0,0 0,0 0,0 0,0 0,0 0,0 0,0 0,0l4222721 -4227069c-4222721,4227069 -4222721,4227069 -4222721,4227069 0,0 0,0 0,0 0,0 0,0 0,0 0,0 0,0 0,0 0,0 0,0 0,0l4222721 -4227307c-4222721,4227307 -4222721,4227307 -4222721,4227307 0,0 0,0 0,0 0,0 0,0 0,0 0,0 0,0 0,0 0,0 0,0 0,0z"/>
    <path class="fil3" d="M-4229730 4228334c-23,0 -41,-18 -41,-40l0 -547c0,-178 -145,-323 -323,-323 -23,0 -41,-18 -41,-41 0,-22 18,-40 41,-40 223,0 404,181 404,404l0 547c0,22 -18,40 -40,40z"/>
    <path class="fil3" d="M-4230643 4230449l-1163 0c-22,0 -41,-18 -41,-40l0 -2621 -687 0c-22,0 -41,-18 -41,-41 0,-223 182,-404 405,-404 223,0 405,181 405,404l0 2621 1122 0c23,0 41,19 41,41 0,22 -18,40 -41,40zm-1848 -2742l642 0c-20,-159 -156,-283 -321,-283 -165,0 -301,124 -321,283z"/>
    <path class="fil3" d="M-4230094 4227424l-2076 0c-22,0 -41,-18 -41,-41 0,-22 19,-40 41,-40l2076 0c22,0 40,18 40,40 0,23 -18,41 -40,41z"/>
    <path class="fil3" d="M-4228968 4230757l-1675 0c-22,0 -40,-18 -40,-41l0 -2422c0,-23 18,-41 40,-41l1675 0c22,0 40,18 40,41l0 2422c0,23 -18,41 -40,41zm-1634 -81l1593 0 0 -2342 -1593 0 0 2342z"/>
    <path class="fil3" d="M-4229210 4229106l-1191 0c-22,0 -40,-18 -40,-40l0 -530c0,-23 18,-41 40,-41l1191 0c22,0 40,18 40,41l0 530c0,22 -18,40 -40,40zm-1150 -81l1109 0 0 -449 -1109 0 0 449z"/>
    <path class="fil3" d="M-4230134 4230515l-267 0c-22,0 -40,-19 -40,-41l0 -237c0,-23 18,-41 40,-41l267 0c22,0 40,18 40,41l0 237c0,22 -18,41 -40,41zm-226 -81l185 0 0 -157 -185 0 0 157z"/>
    <path class="fil3" d="M-4229210 4230515l-267 0c-22,0 -40,-19 -40,-41l0 -679c0,-22 18,-40 40,-40l267 0c22,0 40,18 40,40l0 679c0,22 -18,41 -40,41zm-226 -81l185 0 0 -598 -185 0 0 598z"/>
    <path class="fil3" d="M-4229672 4230515l-267 0c-22,0 -40,-19 -40,-41l0 -237c0,-23 18,-41 40,-41l267 0c22,0 40,18 40,41l0 237c0,22 -18,41 -40,41zm-226 -81l185 0 0 -157 -185 0 0 157z"/>
    <path class="fil3" d="M-4230134 4230073l-267 0c-22,0 -40,-18 -40,-40l0 -238c0,-22 18,-40 40,-40l267 0c22,0 40,18 40,40l0 238c0,22 -18,40 -40,40zm-226 -81l185 0 0 -156 -185 0 0 156z"/>
    <path class="fil3" d="M-4229672 4230073l-267 0c-22,0 -40,-18 -40,-40l0 -238c0,-22 18,-40 40,-40l267 0c22,0 40,18 40,40l0 238c0,22 -18,40 -40,40zm-226 -81l185 0 0 -156 -185 0 0 156z"/>
    <path class="fil3" d="M-4230134 4229632l-267 0c-22,0 -40,-19 -40,-41l0 -237c0,-23 18,-41 40,-41l267 0c22,0 40,18 40,41l0 237c0,22 -18,41 -40,41zm-226 -82l185 0 0 -156 -185 0 0 156z"/>
    <path class="fil3" d="M-4229210 4229632l-267 0c-22,0 -40,-19 -40,-41l0 -237c0,-23 18,-41 40,-41l267 0c22,0 40,18 40,41l0 237c0,22 -18,41 -40,41zm-226 -82l185 0 0 -156 -185 0 0 156z"/>
    <path class="fil3" d="M-4229672 4229632l-267 0c-22,0 -40,-19 -40,-41l0 -237c0,-23 18,-41 40,-41l267 0c22,0 40,18 40,41l0 237c0,22 -18,41 -40,41zm-226 -82l185 0 0 -156 -185 0 0 156z"/>
    <path class="fil3" d="M-4230028 4227884l-1480 0c-22,0 -41,-18 -41,-40 0,-23 19,-41 41,-41l1480 0c22,0 41,18 41,41 0,22 -19,40 -41,40z"/>
    <path class="fil3" d="M-4231026 4228310l-482 0c-22,0 -41,-18 -41,-41 0,-22 19,-40 41,-40l482 0c23,0 41,18 41,40 0,23 -18,41 -41,41z"/>
    <path class="fil3" d="M-4231026 4228735l-482 0c-22,0 -41,-18 -41,-40 0,-23 19,-41 41,-41l482 0c23,0 41,18 41,41 0,22 -18,40 -41,40z"/>
    <path class="fil3" d="M-4231026 4229161l-482 0c-22,0 -41,-18 -41,-41 0,-22 19,-40 41,-40l482 0c23,0 41,18 41,40 0,23 -18,41 -41,41z"/>
    <path class="fil3" d="M-4231026 4229586l-482 0c-22,0 -41,-18 -41,-40 0,-23 19,-41 41,-41l482 0c23,0 41,18 41,41 0,22 -18,40 -41,40z"/>
    <path class="fil3" d="M-4231026 4230012l-482 0c-22,0 -41,-18 -41,-41 0,-22 19,-40 41,-40l482 0c23,0 41,18 41,40 0,23 -18,41 -41,41z"/>
   </g>
  </g>
  <g id="_848814416">
   <g>
    <path class="fil4" d="M2870 2312c-67,0 -130,-28 -177,-79l-4 -5 -6 -3c-223,-79 -372,-290 -372,-526l0 -779c0,-140 113,-253 252,-253l614 0c139,0 253,113 253,253l0 779c0,236 -150,447 -372,526l-7 3 -4 5c-47,51 -109,79 -177,79z"/>
    <g>
     <path class="fil5" d="M3177 694c125,0 226,101 226,226l0 779c0,224 -142,426 -354,501l-13 5 -9 10c-41,45 -97,70 -157,70 -60,0 -116,-25 -157,-70l-9 -10 -12 -5c-212,-75 -355,-277 -355,-501l0 -779c0,-125 102,-226 226,-226l614 0 0 0zm0 -54l-614 0c-154,0 -279,125 -279,280l0 779c0,254 163,471 390,552 48,53 118,87 196,87 78,0 148,-34 197,-88 226,-80 389,-297 389,-551l0 -779c0,-155 -125,-280 -279,-280l0 0z"/>
    </g>
    <line class="fil6" x1="3176" y1="1543" x2="2598" y2= "1543" />
    <g>
     <path class="fil7" d="M3510 2258c-149,0 -286,-53 -352,-83 85,-60 272,-221 272,-488l0 -367c0,-202 -217,-331 -227,-337l-23 -14 -14 24c-1,3 -143,257 -499,306 -172,24 -356,146 -356,357l53 5 -53 -1 0 27c0,271 204,438 299,501 -71,27 -208,70 -326,70 -206,0 -307,-95 -339,-133 43,-55 173,-233 173,-365 0,-72 -16,-154 -34,-241 -19,-99 -40,-201 -40,-300 0,-550 392,-879 771,-879 284,0 404,198 405,200l8 13 15 0c245,0 506,196 506,560 0,118 -26,242 -51,362 -21,104 -42,203 -42,285 0,164 166,311 235,365 -60,42 -210,133 -381,133z"/>
     <g>
      <path class="fil8" d="M2815 367c267,0 378,179 382,186l16 27 30 0c233,0 480,186 480,533 0,115 -26,238 -51,357 -22,105 -43,205 -43,290 0,155 136,294 217,363 -69,44 -196,109 -336,109 -118,0 -228,-35 -299,-64 97,-77 245,-237 245,-481l0 -368c0,-216 -229,-353 -239,-359l-48 -28 -26 49c-1,2 -136,244 -480,292 -183,25 -379,156 -379,383l0 4 0 27c0,247 162,411 269,493 -73,24 -177,52 -269,52 -170,0 -264,-69 -304,-108 54,-72 165,-235 165,-364 0,-74 -17,-158 -35,-246 -19,-98 -39,-198 -39,-295 0,-534 378,-852 744,-852l0 0zm0 -54c-396,0 -798,345 -798,906 0,191 75,394 75,541 0,147 -181,365 -181,365 0,0 102,160 373,160 176,0 386,-92 386,-92 0,0 -333,-173 -333,-506 0,-23 0,-27 0,-27l0 1c0,0 0,-1 0,-5 0,-196 173,-308 333,-330 375,-52 520,-320 520,-320 0,0 213,125 213,313 0,82 0,235 0,368 0,327 -299,491 -299,491 0,0 189,107 406,107 234,0 426,-160 426,-160 0,0 -253,-173 -253,-365 0,-171 93,-421 93,-647 0,-384 -281,-587 -533,-587 0,0 -125,-213 -428,-213l0 0z"/>
     </g>
    </g>
   </g>
   <g>
    <path class="fil9" d="M1381 1707c-95,0 -172,-78 -172,-173 0,-95 77,-172 172,-172 123,0 173,32 173,110 0,93 -78,235 -173,235z"/>
    <g>
     <path class="fil5" d="M1381 1375c132,0 159,39 159,97 0,114 -89,222 -159,222 -88,0 -159,-72 -159,-160 0,-87 71,-159 159,-159l0 0zm0 -26c-102,0 -186,83 -186,185 0,103 84,186 186,186 103,0 186,-145 186,-248 0,-102 -83,-123 -186,-123l0 0z"/>
    </g>
    <path class="fil9" d="M267 1707c-95,0 -172,-142 -172,-235 0,-78 50,-110 172,-110 95,0 173,77 173,172 0,95 -78,173 -173,173z"/>
    <g>
     <path class="fil5" d="M267 1375c88,0 159,72 159,159 0,88 -71,160 -159,160 -69,0 -159,-108 -159,-222 0,-58 27,-97 159,-97l0 0zm0 -26c-102,0 -185,21 -185,123 0,103 83,248 185,248 103,0 186,-83 186,-186 0,-102 -83,-185 -186,-185l0 0z"/>
    </g>
    <path class="fil4" d="M824 2317c-59,0 -115,-26 -153,-72l-2 -3 -4 -1c-242,-70 -411,-295 -411,-547l0 -776c0,-146 119,-265 265,-265l611 0c146,0 264,119 264,265l0 776c0,252 -169,477 -411,547l-4 1 -2 3c-38,46 -94,72 -153,72z"/>
    <g>
     <path class="fil5" d="M1130 666c138,0 251,113 251,252l0 776c0,246 -165,466 -401,534l-8 3 -5 6c-36,42 -88,67 -143,67 -55,0 -107,-25 -142,-67l-6 -6 -7 -3c-237,-68 -402,-288 -402,-534l0 -776c0,-139 113,-252 252,-252l611 0 0 0zm0 -26l-611 0c-154,0 -278,124 -278,278l0 776c0,265 177,489 420,560 39,46 98,76 163,76 66,0 124,-30 163,-76 243,-71 421,-295 421,-560l0 -776c0,-154 -125,-278 -278,-278l0 0z"/>
    </g>
    <g>
     <path class="fil10" d="M1394 1601l0 -368c0,-292 -245,-374 -248,-374l-8 -3 -6 7c-1,2 -182,207 -524,207 -106,0 -354,29 -354,301l0 230 -4 0c-23,-59 -155,-416 -155,-657 0,-153 64,-306 175,-420 88,-89 247,-196 501,-196 222,0 339,111 389,178l4 5 7 0c99,0 383,83 383,452 0,189 -133,575 -156,638l-4 0z"/>
     <g>
      <path class="fil11" d="M771 341c216,0 330,108 379,173l8 10 13 0c96,0 369,81 369,439 0,153 -88,436 -132,569l0 -299c0,-158 -70,-254 -128,-308 -64,-58 -127,-78 -130,-79l-16 -5 -12 13c-1,2 -179,203 -514,203 -233,0 -367,114 -367,314l0 166c-45,-124 -133,-397 -133,-593 0,-150 63,-299 172,-410 86,-88 241,-193 491,-193l0 0zm0 -27c-442,0 -689,325 -689,630 0,268 159,670 159,670l26 0c0,0 0,-169 0,-243 0,-226 180,-288 341,-288 353,0 534,-212 534,-212 0,0 239,76 239,362 0,81 0,381 0,381l27 0c0,0 159,-441 159,-651 0,-371 -284,-465 -396,-465 -28,-38 -146,-184 -400,-184l0 0z"/>
     </g>
    </g>
    <line class="fil6" x1="1103" y1="1508" x2="546" y2= "1508" />
   </g>
   <path class="fil12" d="M355 3418l100 -693 8 0 182 437 172 -437 9 0 101 693 -110 0 -41 -307 -129 331 -8 0 -139 -335 -42 311 -103 0zm732 0l-105 0 0 -417 98 0 2 73c12,-29 26,-50 42,-64 16,-13 36,-19 60,-19l8 0 0 155 -11 0 -11 0c-33,0 -55,5 -66,15 -11,11 -17,36 -17,75l0 182zm93 -67c0,-22 6,-41 17,-56 11,-16 24,-23 39,-23 16,0 30,7 41,23 11,15 17,33 17,56 0,21 -6,40 -17,55 -11,15 -25,23 -41,23 -15,0 -28,-8 -39,-23 -11,-16 -17,-34 -17,-55z"/>
   <path class="fil13" d="M2275 3418l100 -693 9 0 182 437 172 -437 8 0 101 693 -109 0 -41 -307 -130 331 -8 0 -139 -335 -42 311 -103 0zm733 0l-105 0 0 -417 98 0 1 73c12,-29 27,-50 43,-64 16,-13 36,-19 60,-19l8 0 0 155 -11 0 -12 0c-32,0 -54,5 -65,15 -12,11 -17,36 -17,75l0 182zm159 -19l0 -115c26,24 47,40 61,48 15,8 29,12 41,12 11,0 20,-3 26,-10 7,-7 10,-15 10,-26 0,-9 -2,-17 -7,-23 -4,-6 -12,-12 -24,-18l-38 -19c-26,-12 -45,-29 -58,-51 -13,-21 -19,-47 -19,-77 0,-42 10,-75 31,-101 21,-25 49,-38 84,-38 17,0 34,3 52,10 18,6 38,16 60,29l-13 101c-13,-15 -28,-28 -43,-37 -16,-9 -31,-13 -45,-13 -10,0 -18,3 -25,10 -6,7 -9,15 -9,25 0,9 1,16 5,21 4,5 12,10 25,16l36 18c28,14 48,31 60,50 12,20 18,46 18,78 0,46 -11,82 -32,109 -22,26 -52,40 -89,40 -19,0 -36,-3 -54,-10 -18,-6 -35,-16 -53,-29zm291 -48c0,-22 6,-41 17,-56 11,-16 24,-23 39,-23 16,0 30,7 41,23 11,15 17,33 17,56 0,21 -6,40 -17,55 -11,15 -25,23 -41,23 -15,0 -28,-8 -39,-23 -11,-16 -17,-34 -17,-55z"/>
  </g>
 </g>
</svg>
