<?xml version="1.0" standalone="no"?>
<!DOCTYPE svg PUBLIC "-//W3C//DTD SVG 20010904//EN"
 "http://www.w3.org/TR/2001/REC-SVG-20010904/DTD/svg10.dtd">
<svg version="1.0" xmlns="http://www.w3.org/2000/svg"
 width="512.000000pt" height="512.000000pt" viewBox="0 0 512.000000 512.000000"
 preserveAspectRatio="xMidYMid meet">

<g transform="translate(0.000000,512.000000) scale(0.100000,-0.100000)"
fill="#000000" stroke="none">
<path d="M4105 5029 c-294 -58 -531 -260 -619 -528 -99 -301 -28 -607 190
-825 156 -156 338 -231 564 -231 225 0 411 76 565 230 154 154 230 340 230
565 0 174 -36 298 -124 432 -113 173 -274 288 -481 345 -68 18 -258 25 -325
12z m262 -165 c252 -52 446 -246 497 -496 20 -97 20 -159 1 -254 -20 -93 -44
-152 -98 -231 -45 -68 -57 -76 -57 -40 0 33 -53 136 -95 185 -20 23 -56 53
-80 67 l-43 26 32 57 c28 51 31 65 31 142 0 102 -22 157 -87 222 -69 70 -127
93 -228 93 -100 0 -159 -23 -225 -90 -67 -66 -90 -125 -90 -225 0 -76 3 -91
31 -142 l32 -57 -43 -26 c-24 -14 -60 -44 -80 -67 -42 -49 -95 -152 -95 -185
0 -37 -13 -27 -63 48 -212 320 -90 755 258 924 127 61 263 78 402 49z m-57
-409 c15 -8 38 -27 50 -42 l21 -27 -61 -60 -60 -61 -62 63 -63 63 37 34 c22
20 32 36 25 39 -7 2 10 5 36 5 26 1 61 -6 77 -14z m-150 -8 c0 -2 -12 -14 -27
-28 l-28 -24 24 28 c23 25 31 32 31 24z m-51 -88 c4 6 32 -14 69 -52 l62 -63
-33 -32 -34 -33 -26 22 c-39 30 -57 71 -56 126 0 26 3 42 6 34 4 -9 8 -10 12
-2z m271 -99 c-6 -16 -24 -39 -38 -52 -15 -12 -24 -19 -20 -14 4 5 -4 18 -18
29 l-26 20 51 51 c28 28 52 58 53 66 1 8 3 -5 5 -29 3 -24 -1 -56 -7 -71z
m-94 -59 c20 -16 21 -20 8 -25 -9 -3 -37 -6 -62 -5 -35 0 -42 2 -27 9 12 4 27
15 34 24 17 20 18 20 47 -3z m-58 -224 c9 -10 -3 -28 -52 -76 l-62 -62 -47 50
c-26 28 -47 53 -47 56 0 3 19 15 43 25 49 23 149 27 165 7z m190 -7 c23 -10
42 -22 42 -25 0 -3 -5 -3 -12 1 -7 4 -8 3 -4 -5 4 -6 12 -9 17 -6 5 4 13 4 18
0 6 -3 -10 -24 -35 -47 l-45 -41 -59 58 c-34 33 -56 63 -53 71 8 20 80 17 131
-6z m-95 -88 l57 -58 -63 -62 -63 -62 -59 60 -59 60 59 60 c33 33 62 60 65 60
3 0 31 -26 63 -58z m-285 -119 l-62 -63 -23 22 c-16 15 -23 33 -23 57 0 35 33
121 45 121 3 0 3 -5 -1 -12 -4 -7 -3 -8 5 -4 6 4 9 12 6 17 -4 5 -3 14 0 19 4
6 31 -13 61 -42 l55 -52 -63 -63z m493 93 c11 -25 19 -64 19 -101 l0 -59 -65
64 -65 64 32 33 c19 19 38 31 47 28 12 -5 12 -3 0 12 -11 14 -11 15 0 9 7 -5
22 -27 32 -50z m-348 -114 l57 -58 -27 -26 c-16 -14 -35 -28 -43 -31 -8 -3 -2
-6 14 -6 18 -1 39 8 54 22 l24 22 18 -22 c10 -13 26 -23 36 -23 15 0 12 5 -11
30 l-29 31 62 62 63 62 62 -64 62 -64 -49 -23 c-70 -32 -174 -47 -281 -41 -96
6 -169 23 -160 37 3 4 -3 6 -13 3 -37 -9 -20 32 36 90 31 31 59 57 62 57 3 0
31 -26 63 -58z m-238 -60 c-8 -8 -25 10 -19 20 4 6 9 5 15 -3 4 -7 6 -15 4
-17z"/>
<path d="M4335 4420 c10 -11 20 -20 23 -20 3 0 -3 9 -13 20 -10 11 -20 20 -23
20 -3 0 3 -9 13 -20z"/>
<path d="M4135 4220 c10 -11 20 -20 23 -20 3 0 -3 9 -13 20 -10 11 -20 20 -23
20 -3 0 3 -9 13 -20z"/>
<path d="M4339 4223 c-13 -16 -12 -17 4 -4 16 13 21 21 13 21 -2 0 -10 -8 -17
-17z"/>
<path d="M320 4880 l0 -80 -80 0 -80 0 0 -80 0 -80 80 0 80 0 0 -80 0 -80 80
0 80 0 0 80 0 80 80 0 80 0 0 80 0 80 -80 0 -80 0 0 80 0 80 -80 0 -80 0 0
-80z m160 -160 l0 -80 -80 0 -80 0 0 80 0 80 80 0 80 0 0 -80z"/>
<path d="M105 3655 l-25 -24 0 -1231 0 -1231 25 -24 24 -25 911 0 911 0 24 25
c25 24 25 27 25 200 l0 175 -80 0 -80 0 0 -120 0 -120 -800 0 -800 0 0 1120 0
1120 800 0 800 0 0 -280 0 -280 80 0 80 0 0 335 0 336 -25 24 -24 25 -911 0
-911 0 -24 -25z"/>
<path d="M3199 3361 c-27 -26 -49 -52 -49 -57 0 -5 50 -59 110 -119 l110 -110
57 58 58 57 -110 110 c-60 60 -114 110 -119 110 -5 0 -31 -22 -57 -49z"/>
<path d="M800 3280 l0 -80 240 0 240 0 0 80 0 80 -240 0 -240 0 0 -80z"/>
<path d="M4090 3346 c-284 -61 -508 -253 -601 -514 -125 -356 3 -736 319 -943
134 -88 258 -124 432 -124 226 0 408 75 564 231 156 156 231 338 231 564 0
174 -36 297 -125 433 -112 173 -271 287 -480 344 -78 21 -260 26 -340 9z m277
-162 c199 -41 360 -166 448 -349 37 -77 65 -196 65 -275 0 -65 -25 -187 -51
-248 -21 -50 -99 -172 -110 -172 -4 0 -10 17 -14 37 -16 85 -93 194 -170 238
l-43 26 32 57 c28 51 31 65 31 142 0 102 -22 157 -87 222 -69 70 -127 93 -228
93 -100 0 -159 -23 -225 -90 -67 -66 -90 -125 -90 -225 0 -76 3 -91 31 -142
l32 -57 -43 -26 c-24 -14 -60 -44 -80 -67 -42 -49 -95 -152 -95 -185 0 -36
-12 -28 -57 40 -54 79 -78 138 -98 231 -19 95 -19 157 1 254 51 250 242 440
499 497 82 18 162 18 252 -1z"/>
<path d="M400 2960 l0 -80 200 0 200 0 0 80 0 80 -200 0 -200 0 0 -80z"/>
<path d="M960 2960 l0 -80 240 0 240 0 0 80 0 80 -240 0 -240 0 0 -80z"/>
<path d="M1933 2782 c-28 -10 -94 -46 -145 -80 l-94 -62 -207 0 -207 0 0 -80
0 -80 233 0 232 0 113 75 c62 41 127 77 145 80 18 3 272 4 566 3 496 -3 535
-4 545 -20 8 -13 8 -23 0 -35 -10 -16 -34 -19 -203 -23 -188 -5 -193 -6 -212
-29 -14 -17 -19 -39 -19 -82 0 -32 -5 -69 -11 -82 -12 -26 -47 -47 -80 -47
-11 0 -31 -11 -44 -25 -22 -21 -25 -33 -25 -92 0 -85 -15 -110 -73 -120 -22
-3 -51 -17 -64 -29 -20 -20 -23 -33 -23 -94 0 -62 -3 -74 -25 -95 -24 -25 -27
-25 -193 -25 l-168 0 -119 40 -119 40 -228 0 -228 0 0 -80 0 -80 213 0 213 0
119 -40 119 -40 184 0 c222 0 249 6 317 75 50 50 75 102 75 159 0 17 5 26 16
26 8 0 39 24 67 53 52 52 77 104 77 161 0 17 5 26 16 26 8 0 39 24 67 53 49
48 77 103 77 150 0 13 23 16 153 19 139 3 155 5 190 27 21 13 50 42 65 64 23
34 27 52 27 107 0 55 -4 73 -27 107 -15 22 -44 51 -65 64 l-38 24 -580 2
c-537 2 -584 1 -632 -15z"/>
<path d="M400 2640 l0 -80 160 0 160 0 0 80 0 80 -160 0 -160 0 0 -80z"/>
<path d="M400 2320 l0 -80 200 0 200 0 0 80 0 80 -200 0 -200 0 0 -80z"/>
<path d="M3256 2011 l-110 -110 44 -48 c24 -26 50 -52 58 -57 11 -6 44 21 126
103 l111 111 -55 55 c-30 30 -57 55 -60 55 -3 0 -54 -49 -114 -109z"/>
<path d="M400 1920 l0 -80 200 0 200 0 0 80 0 80 -200 0 -200 0 0 -80z"/>
<path d="M4090 1666 c-284 -61 -508 -253 -601 -514 -125 -356 3 -736 319 -943
134 -88 258 -124 432 -124 226 0 408 75 564 231 156 156 231 338 231 564 0
174 -36 297 -125 433 -112 173 -271 287 -480 344 -78 21 -260 26 -340 9z m277
-162 c199 -41 360 -166 448 -349 37 -77 65 -196 65 -275 0 -65 -25 -187 -51
-248 -21 -50 -99 -172 -110 -172 -4 0 -10 17 -14 37 -16 85 -93 194 -170 238
l-43 26 32 57 c28 51 31 65 31 142 0 102 -22 157 -87 222 -69 70 -127 93 -228
93 -100 0 -159 -23 -225 -90 -67 -66 -90 -125 -90 -225 0 -76 3 -91 31 -142
l32 -57 -43 -26 c-24 -14 -60 -44 -80 -67 -42 -49 -95 -152 -95 -185 0 -36
-12 -28 -57 39 -113 168 -140 360 -79 554 70 220 246 377 481 429 82 18 162
18 252 -1z m-166 -405 c-13 -5 -32 -20 -43 -34 -11 -14 -29 -30 -41 -37 -21
-11 -21 -10 -6 13 20 30 76 69 98 68 10 0 7 -4 -8 -10z m79 0 c-12 -9 -10 -10
8 -6 13 3 21 3 18 -1 -8 -8 55 -73 65 -67 4 3 5 -3 2 -14 -2 -10 -30 -44 -62
-75 l-57 -56 -59 60 -59 59 50 55 c37 41 56 54 79 55 24 1 27 -1 15 -10z m70
-34 c13 -14 21 -25 18 -25 -2 0 -15 11 -28 25 -13 14 -21 25 -18 25 2 0 15
-11 28 -25z m-253 -77 c-3 -8 -6 -5 -6 6 -1 11 2 17 5 13 3 -3 4 -12 1 -19z
m293 -27 c0 -53 -27 -103 -70 -129 -14 -9 -22 -12 -18 -8 4 5 0 15 -10 22 -15
12 -12 18 36 66 31 32 52 63 52 76 0 12 2 22 5 22 3 0 5 -22 5 -49z m-175
-121 c-18 -19 -18 -20 1 -20 11 0 24 4 30 9 5 6 16 4 28 -5 18 -13 16 -14 -30
-14 -81 0 -154 63 -154 132 0 44 22 38 84 -23 59 -57 60 -58 41 -79z m-1 -236
l18 -26 -58 -59 -58 -59 -57 56 c-38 38 -59 52 -64 44 -5 -7 13 -33 46 -66
l54 -54 -69 -68 c-38 -37 -66 -62 -62 -55 3 6 -3 18 -15 27 -32 22 -24 117 17
182 56 92 204 138 248 78z m75 23 c-2 -1 -11 -8 -20 -15 -13 -10 -19 -9 -29 3
-11 13 -8 15 20 15 19 0 31 -1 29 -3z m129 -17 c23 -10 42 -22 42 -25 0 -3 -5
-3 -12 1 -7 4 -8 3 -4 -5 4 -6 12 -9 17 -5 5 3 16 0 24 -6 12 -10 7 -20 -35
-64 l-50 -51 -62 62 -62 62 24 26 c28 30 60 32 118 5z m-98 -235 l-60 -60 -62
62 -63 63 60 60 59 60 63 -62 63 -63 -60 -60z m210 123 c23 -53 30 -170 10
-176 -8 -3 -10 0 -5 8 5 8 4 11 -2 7 -5 -3 -34 19 -64 49 l-54 55 46 44 c26
24 44 46 41 49 -3 4 -2 6 2 6 4 0 16 -19 26 -42z m-310 -220 c-14 -11 -16 -18
-8 -21 29 -12 -62 -6 -121 8 -103 25 -103 24 -36 94 l59 62 63 -63 c63 -62 63
-63 43 -80z m293 38 c8 5 9 4 2 -4 -19 -20 -140 -54 -215 -60 -70 -5 -74 -4
-61 12 10 12 17 14 25 6 5 -5 21 -10 34 -10 l24 0 -23 19 -24 20 60 61 60 61
53 -56 c31 -31 59 -52 65 -49z"/>
<path d="M4134 1058 l-19 -23 23 19 c21 18 27 26 19 26 -2 0 -12 -10 -23 -22z"/>
<path d="M4334 858 l-19 -23 23 19 c21 18 27 26 19 26 -2 0 -12 -10 -23 -22z"/>
<path d="M4135 860 c10 -11 20 -20 23 -20 3 0 -3 9 -13 20 -10 11 -20 20 -23
20 -3 0 3 -9 13 -20z"/>
<path d="M400 1520 l0 -80 440 0 440 0 0 80 0 80 -440 0 -440 0 0 -80z"/>
<path d="M320 560 l0 -80 -80 0 -80 0 0 -80 0 -80 80 0 80 0 0 -80 0 -80 80 0
80 0 0 80 0 80 80 0 80 0 0 80 0 80 -80 0 -80 0 0 80 0 80 -80 0 -80 0 0 -80z
m160 -160 l0 -80 -80 0 -80 0 0 80 0 80 80 0 80 0 0 -80z"/>
</g>
</svg>
