<svg id="Capa_1" enable-background="new 0 0 512 512" height="512" viewBox="0 0 512 512" width="512" xmlns="http://www.w3.org/2000/svg"><g><path d="m375.467 95.635v143.298l-17.067 17.067 17.067 17.067v51.199c0 9.426-7.641 17.067-17.067 17.067h-17.067l-85.333-17.066-85.333 17.067h-17.067c-9.426 0-17.067-7.641-17.067-17.067v-51.199l17.067-17.068-17.067-17.067v-143.298l119.467-76.233z" fill="#ff4155"/><path d="m351.775 80.517v243.75c0 8.019-5.538 14.727-12.992 16.557l2.551.51h17.066c9.426 0 17.067-7.641 17.067-17.067v-51.2l-17.067-17.067 17.067-17.067v-143.298z" fill="#e80054"/><g><g><path d="m393.033 128.934-132.299-88.2c-2.866-1.911-6.601-1.911-9.467 0l-132.299 88.2c-3.921 2.614-9.22 1.554-11.834-2.367l-9.467-14.201c-2.614-3.921-1.554-9.219 2.367-11.833l146.5-97.667c5.733-3.822 13.201-3.822 18.934 0l146.5 97.667c3.921 2.614 4.981 7.912 2.367 11.833l-9.467 14.201c-2.615 3.921-7.914 4.981-11.835 2.367z" fill="#3c58a0"/></g></g><path d="m411.967 100.533-146.5-97.666c-5.733-3.822-13.201-3.822-18.934 0l-2.378 1.585 144.122 96.081c3.921 2.614 4.981 7.912 2.367 11.833l-6.911 10.367 9.3 6.2c3.921 2.614 9.219 1.555 11.834-2.367l9.467-14.201c2.614-3.92 1.554-9.218-2.367-11.832z" fill="#2a428c"/><path d="m136.533 238.933h26.133c4.418 0 8 3.582 8 8v18.133c0 4.418-3.582 8-8 8h-26.133z" fill="#e9efff"/><path d="m375.467 273.067h-26.133c-4.418 0-8-3.582-8-8v-18.133c0-4.418 3.582-8 8-8h26.133z" fill="#e9efff"/><path d="m351.775 238.933h23.692v34.133h-23.692z" fill="#d3dcfb"/><g><path d="m273.067 366.933v-34.133h-34.133v34.133c0 4.713-3.82 8.533-8.533 8.533h-162.134c-9.426 0-17.067 7.641-17.067 17.067v56.351h34.133v-30.751c0-4.713 3.821-8.533 8.533-8.533h136.534c4.713 0 8.533 3.821 8.533 8.533v30.751h34.133v-30.751c0-4.713 3.82-8.533 8.533-8.533h136.533c4.713 0 8.533 3.821 8.533 8.533v30.751h34.135v-56.351c0-9.426-7.641-17.067-17.067-17.067h-162.133c-4.713.001-8.533-3.82-8.533-8.533z" fill="#9bd8f9"/><g><g><g><path d="m257.94 375.467h23.66c-4.713 0-8.533-3.82-8.533-8.533v-34.134h-23.66v34.133c0 4.713 3.82 8.534 8.533 8.534z" fill="#73c3f9"/></g><g><path d="m443.733 375.467h-23.66c9.426 0 17.067 7.641 17.067 17.067v56.351h23.66v-56.351c0-9.426-7.641-17.067-17.067-17.067z" fill="#73c3f9"/></g></g></g></g><ellipse cx="256" cy="119.467" fill="#9bd8f9" rx="17.067" ry="17.067" transform="matrix(.196 -.981 .981 .196 88.726 347.124)"/><g><path d="m221.867 198.825h68.267v80.217h-68.267z" fill="#4fabf7"/><path d="m248.274 198.825h15.453v80.217h-15.453z" fill="#1886ea"/><path d="m299.2 204.8h-86.4c-4.418 0-8-3.582-8-8v-18.133c0-4.418 3.582-8 8-8h86.4c4.418 0 8 3.582 8 8v18.133c0 4.418-3.582 8-8 8z" fill="#e9efff"/><path d="m298.959 170.667h-23.694c4.552 0 8.241 3.69 8.241 8.242v17.65c0 4.552-3.69 8.241-8.241 8.241h23.694c4.552 0 8.242-3.69 8.242-8.241v-17.65c-.001-4.553-3.691-8.242-8.242-8.242z" fill="#d3dcfb"/></g><path d="m307.2 313.175h-102.4v-32.108c0-4.418 3.582-8 8-8h86.4c4.418 0 8 3.582 8 8z" fill="#e9efff"/><path d="m341.333 341.333h-170.666v-26.133c0-4.418 3.582-8 8-8h154.667c4.418 0 8 3.582 8 8v26.133z" fill="#d3dcfb"/><g fill="#ffdd40"><path d="m103.467 512h-70.4c-8.836 0-16-7.164-16-16v-36.267c0-8.837 7.163-16 16-16h70.4c8.837 0 16 7.163 16 16v36.267c0 8.837-7.164 16-16 16z"/><path d="m291.2 512h-70.4c-8.837 0-16-7.164-16-16v-36.267c0-8.837 7.163-16 16-16h70.4c8.836 0 16 7.163 16 16v36.267c0 8.837-7.163 16-16 16z"/><path d="m478.933 512h-70.4c-8.837 0-16-7.164-16-16v-36.267c0-8.837 7.163-16 16-16h70.4c8.837 0 16 7.163 16 16v36.267c0 8.837-7.163 16-16 16z"/></g><path d="m478.45 443.733h-23.797c9.103 0 16.483 7.38 16.483 16.483v35.301c0 9.103-7.38 16.483-16.483 16.483h23.797c9.103 0 16.483-7.38 16.483-16.483v-35.301c0-9.103-7.379-16.483-16.483-16.483z" fill="#ffb332"/><path d="m290.717 443.733h-23.797c9.103 0 16.483 7.38 16.483 16.483v35.301c0 9.103-7.38 16.483-16.483 16.483h23.797c9.103 0 16.483-7.38 16.483-16.483v-35.301c0-9.103-7.38-16.483-16.483-16.483z" fill="#ffb332"/><path d="m102.984 443.733h-23.798c9.103 0 16.483 7.38 16.483 16.483v35.301c0 9.103-7.38 16.483-16.483 16.483h23.797c9.103 0 16.483-7.38 16.483-16.483v-35.301c.001-9.103-7.379-16.483-16.482-16.483z" fill="#ffb332"/><path d="m298.959 273.067h-23.694c4.552 0 8.241 3.69 8.241 8.241v31.867h23.694v-31.867c0-4.552-3.69-8.241-8.241-8.241z" fill="#d3dcfb"/><path d="m333.092 307.2h-23.694c4.552 0 8.241 3.69 8.241 8.241v25.892h23.694v-25.892c0-4.551-3.689-8.241-8.241-8.241z" fill="#bec8f7"/></g></svg>