<svg id="Capa_1" enable-background="new 0 0 512 512" height="512" viewBox="0 0 512 512" width="512" xmlns="http://www.w3.org/2000/svg"><g><path d="m445.957 10.23h-334.89c22.364 13.05 37.404 37.284 37.404 65.045s-15.039 51.995-37.403 65.045h334.89c35.923 0 65.045-29.122 65.045-65.045-.001-35.923-29.122-65.045-65.046-65.045z" fill="#fee55a"/><path d="m210.554 75.275c0-27.761-15.039-51.995-37.404-65.045h-62.083c22.365 13.05 37.404 37.284 37.404 65.045s-15.039 51.995-37.403 65.045h62.083c22.364-13.049 37.403-37.283 37.403-65.045z" fill="#ffd301"/><path d="m66.043 190.955h334.89c-22.364 13.05-37.403 37.284-37.403 65.045s15.039 51.995 37.403 65.045h-334.89c-35.923 0-65.045-29.122-65.045-65.045 0-35.923 29.121-65.045 65.045-65.045z" fill="#ff9838"/><path d="m63.081 256c0-35.924 29.122-65.046 65.045-65.046h-62.083c-35.923 0-65.045 29.122-65.045 65.045 0 35.923 29.122 65.045 65.045 65.045h62.083c-35.923.001-65.045-29.12-65.045-65.044z" fill="#ff8706"/><path d="m445.957 371.679h-334.89c22.364 13.05 37.403 37.284 37.403 65.045s-15.039 51.995-37.404 65.045h334.89c35.923 0 65.045-29.122 65.045-65.045.001-35.923-29.12-65.045-65.044-65.045z" fill="#ff656f"/><path d="m210.554 436.725c0-27.761-15.039-51.995-37.403-65.045h-62.083c22.364 13.05 37.403 37.284 37.403 65.045s-15.039 51.995-37.404 65.045h62.083c22.365-13.05 37.404-37.285 37.404-65.045z" fill="#ff4756"/><g fill="#dfebfa"><circle cx="76.273" cy="75.276" r="75.276"/><circle cx="435.727" cy="256" r="75.276"/><circle cx="76.273" cy="436.724" r="75.276"/></g><path d="m40.676 75.276c0-34.704 23.492-63.906 55.436-72.614-6.322-1.724-12.969-2.662-19.839-2.662-41.573 0-75.275 33.702-75.275 75.276s33.702 75.276 75.276 75.276c6.869 0 13.516-.938 19.839-2.661-31.944-8.709-55.437-37.911-55.437-72.615z" fill="#b1dbfc"/><path d="m400.13 256c0-34.704 23.492-63.906 55.436-72.614-6.323-1.724-12.97-2.661-19.839-2.661-41.574 0-75.276 33.702-75.276 75.276s33.702 75.276 75.276 75.276c6.869 0 13.516-.938 19.839-2.661-31.944-8.71-55.436-37.912-55.436-72.616z" fill="#b1dbfc"/><path d="m40.676 436.724c0-34.704 23.492-63.906 55.436-72.614-6.323-1.724-12.97-2.661-19.839-2.661-41.574 0-75.276 33.702-75.276 75.276s33.703 75.275 75.276 75.275c6.869 0 13.516-.938 19.839-2.661-31.943-8.709-55.436-37.91-55.436-72.615z" fill="#b1dbfc"/><g><path d="m288.456 414.606h-93.868c-4.25 0-7.696-3.446-7.696-7.696s3.446-7.696 7.696-7.696h93.868c4.25 0 7.696 3.446 7.696 7.696s-3.445 7.696-7.696 7.696z" fill="#fc2d39"/></g><g><path d="m397.854 444.816h-203.266c-4.25 0-7.696-3.446-7.696-7.696s3.446-7.696 7.696-7.696h203.267c4.25 0 7.696 3.446 7.696 7.696s-3.446 7.696-7.697 7.696z" fill="#fc2d39"/></g><g><path d="m397.854 475.026h-203.266c-4.25 0-7.696-3.446-7.696-7.696s3.446-7.696 7.696-7.696h203.267c4.25 0 7.696 3.446 7.696 7.696s-3.446 7.696-7.697 7.696z" fill="#fc2d39"/></g><g><path d="m288.456 52.367h-93.868c-4.25 0-7.696-3.446-7.696-7.696s3.446-7.696 7.696-7.696h93.868c4.25 0 7.696 3.446 7.696 7.696s-3.445 7.696-7.696 7.696z" fill="#ffc20c"/></g><g><path d="m397.854 82.577h-203.266c-4.25 0-7.696-3.446-7.696-7.696s3.446-7.696 7.696-7.696h203.267c4.25 0 7.696 3.446 7.696 7.696s-3.446 7.696-7.697 7.696z" fill="#ffc20c"/></g><g><path d="m397.854 112.786h-203.266c-4.25 0-7.696-3.446-7.696-7.696s3.446-7.696 7.696-7.696h203.267c4.25 0 7.696 3.446 7.696 7.696s-3.446 7.696-7.697 7.696z" fill="#ffc20c"/></g><g><path d="m191.661 233.487h-93.868c-4.25 0-7.696-3.446-7.696-7.696s3.446-7.696 7.696-7.696h93.868c4.25 0 7.696 3.446 7.696 7.696s-3.445 7.696-7.696 7.696z" fill="#f70"/></g><g><path d="m301.059 263.696h-203.266c-4.25 0-7.696-3.446-7.696-7.696s3.446-7.696 7.696-7.696h203.267c4.25 0 7.696 3.446 7.696 7.696s-3.446 7.696-7.697 7.696z" fill="#f70"/></g><g><path d="m301.059 293.906h-203.266c-4.25 0-7.696-3.446-7.696-7.696s3.446-7.696 7.696-7.696h203.267c4.25 0 7.696 3.446 7.696 7.696s-3.446 7.696-7.697 7.696z" fill="#f70"/></g><g><path d="m77.116 112.532c-4.25 0-7.696-3.446-7.696-7.696v-46.954c-3.558 1.072-7.468-.569-9.138-4.021-1.851-3.826-.251-8.428 3.576-10.28l9.907-4.794c2.385-1.155 5.196-1.001 7.441.407 2.245 1.407 3.608 3.871 3.608 6.52v59.12c-.002 4.252-3.448 7.698-7.698 7.698z" fill="#ffd301"/></g><g><path d="m453.778 293.511h-36.103c-3.074 0-5.853-1.829-7.069-4.652s-.635-6.099 1.478-8.333l27.888-29.484c2.445-2.744 3.655-5.918 3.408-8.946-.21-2.588-1.446-4.857-3.572-6.56-2.338-1.872-5.012-1.819-6.845-1.444-3.528.723-6.786 3.164-8.502 6.371-2.006 3.747-6.67 5.159-10.418 3.154-3.747-2.006-5.159-6.67-3.154-10.418 3.877-7.243 10.974-12.547 18.986-14.187 7.152-1.464 14.097.138 19.557 4.511 5.435 4.356 8.734 10.508 9.289 17.325.595 7.317-2.021 14.618-7.368 20.557-.043.047-.085.093-.129.139l-15.678 16.575h18.23c4.25 0 7.696 3.446 7.696 7.696.002 4.25-3.443 7.696-7.694 7.696z" fill="#ff9838"/></g><path d="m104.572 421.817c0-12.463-10.14-22.603-22.604-22.603h-15.4c-4.25 0-7.696 3.446-7.696 7.696s3.446 7.696 7.696 7.696h15.4c3.976 0 7.211 3.235 7.211 7.211s-3.235 7.211-7.211 7.211h-15.4c-4.25 0-7.696 3.446-7.696 7.696s3.446 7.696 7.696 7.696h15.4c3.976 0 7.211 3.235 7.211 7.211s-3.235 7.211-7.211 7.211h-15.4c-4.25 0-7.696 3.446-7.696 7.696s3.446 7.696 7.696 7.696h15.4c12.464 0 22.604-10.14 22.604-22.603 0-5.706-2.125-10.925-5.626-14.907 3.5-3.981 5.626-9.201 5.626-14.907z" fill="#ff656f"/></g></svg>