<svg height="466pt" viewBox="0 0 466 466.51059" width="466pt" xmlns="http://www.w3.org/2000/svg"><path d="m466.058594 466.511719h-312v-24l16-24h280l16 24zm0 0" fill="#e0e0de"/><path d="m354.058594 290.511719h96v128h-96zm0 0" fill="#d6d6d4"/><path d="m234.058594 138.511719h96v40h-96zm0 0" fill="#c7c7c5"/><path d="m298.058594 138.511719h32v40h-32zm0 0" fill="#bfbfbd"/><path d="m450.058594 290.511719h-64v-112h-56v-40h72l48 104zm0 0" fill="#bfbfbd"/><path d="m178.058594 322.511719h176v32h-176zm0 0" fill="#bfbfbd"/><path d="m242.058594 386.511719h80v32h-80zm0 0" fill="#3d4d63"/><path d="m266.058594 210.511719h32v48h-32zm0 0" fill="#3d4d63"/><path d="m226.058594 242.511719-24-24 36.691406-35.3125 22.621094 22.625zm0 0" fill="#3d4d63"/><path d="m338.058594 242.511719-35.308594-36.6875 22.621094-22.625 36.6875 35.3125zm0 0" fill="#3d4d63"/><path d="m234.058594 178.511719c0 17.671875 14.328125 32 32 32h32c17.675781 0 32-14.328125 32-32zm0 0" fill="#3d4d63"/><path d="m290.058594 98.511719h-32c-13.253906 0-24 10.742187-24 24v16h96v-16l64-64-32-32zm0 0" fill="#e0e0de"/><path d="m362.066406 26.511719 24-24 32.003906 32-24.003906 24zm0 0" fill="#3d4d63"/><path d="m330.058594 138.511719h24v40h-24zm0 0" fill="#b0b0ae"/><path d="m450.058594 326.511719-92 92h92zm0 0" fill="#c7c7c5"/><path d="m426.058594 354.511719c0 13.253906-10.742188 24-24 24-13.253906 0-24-10.746094-24-24 0-13.257813 10.746094-24 24-24 13.257812 0 24 10.742187 24 24zm0 0" fill="#3d4d63"/><path d="m466.058594 442.511719-16-24h-64l-48 48h128zm0 0" fill="#d6d6d4"/><path d="m154.058594 442.511719h312v24h-312zm0 0" fill="#d6d6d4"/><path d="m196.917969 216.214844c49.519531-39.324219 60.507812-110.097656 25.242187-162.585938-35.265625-52.484375-104.945312-69.058594-160.066406-38.074218-55.121094 30.988281-77.179688 99.128906-50.667969 156.539062 26.511719 57.40625 92.6875 84.804688 152.019531 62.9375l70.613282 55.480469zm0 0" fill="#60d1e0"/><path d="m163.402344 94.949219c-11.5-17.214844-11.5-39.664063 0-56.878907l13.3125 8.878907c-7.910156 11.839843-7.910156 27.28125 0 39.121093zm0 0" fill="#348fd9"/><path d="m114.429688 122.351562c-20.316407-4.019531-36.195313-19.902343-40.210938-40.21875l15.679688-3.125c2.777343 13.96875 13.695312 24.886719 27.664062 27.664063zm0 0" fill="#348fd9"/><path d="m91.660156 180.292969-3.199218-15.6875c13.988281-2.769531 24.925781-13.703125 27.695312-27.695313l15.6875 3.136719c-4.007812 20.316406-19.875 36.210937-40.183594 40.246094zm0 0" fill="#348fd9"/><path d="m130.058594 217.804688c-10.125-.003907-20.019532-3.007813-28.4375-8.636719l8.878906-13.3125c11.839844 7.914062 27.28125 7.914062 39.121094 0l8.878906 13.3125c-8.417969 5.628906-18.3125 8.632812-28.441406 8.636719zm0 0" fill="#348fd9"/><g fill="#db6ea2"><path d="m121.453125 78.949219-13.3125-8.878907c7.914063-11.839843 7.914063-27.28125 0-39.121093l13.3125-8.878907c11.5 17.214844 11.5 39.664063 0 56.878907zm0 0"/><path d="m49.898438 92.109375-15.679688-3.199219c4.015625-20.3125 19.894531-36.195312 40.210938-40.214844l3.132812 15.6875c-13.984375 2.785157-24.910156 13.734376-27.664062 27.726563zm0 0"/><path d="m50.058594 137.804688c-10.125-.003907-20.019532-3.007813-28.4375-8.636719l8.878906-13.3125c11.839844 7.914062 27.28125 7.914062 39.121094 0l8.878906 13.3125c-8.417969 5.628906-18.3125 8.632812-28.441406 8.636719zm0 0"/><path d="m80.460938 202.351562c-20.3125-4.023437-36.195313-19.902343-40.21875-40.21875l15.691406-3.125c2.785156 13.984376 13.734375 24.910157 27.726562 27.664063zm0 0"/><path d="m208.714844 150.949219-13.3125-8.878907c7.914062-11.839843 7.914062-27.28125 0-39.121093l13.3125-8.878907c11.5 17.214844 11.5 39.664063 0 56.878907zm0 0"/><path d="m172.15625 196.109375c-2.769531-13.988281-13.707031-24.925781-27.695312-27.695313l3.136718-15.6875c20.316406 4.007813 36.207032 19.875 40.246094 40.183594zm0 0"/><path d="m170.429688 138.351562c-20.316407-4.019531-36.195313-19.902343-40.210938-40.21875l15.679688-3.125c2.777343 13.96875 13.695312 24.886719 27.664062 27.664063zm0 0"/></g></svg>