<?xml version="1.0" encoding="iso-8859-1"?>
<!-- Generator: Adobe Illustrator 19.0.0, SVG Export Plug-In . SVG Version: 6.00 Build 0)  -->
<svg version="1.1" id="Capa_1" xmlns="http://www.w3.org/2000/svg" xmlns:xlink="http://www.w3.org/1999/xlink" x="0px" y="0px"
	 viewBox="0 0 192.853 192.853" style="enable-background:new 0 0 192.853 192.853;" xml:space="preserve">
<path style="fill:#FFFFFF;" d="M51.982,79.778v-55.41c0-4.058,3.296-7.347,7.361-7.347h2.862V3.413H7.678v13.606h2.862
	c4.065,0,7.361,3.289,7.361,7.347v74.289H51.98"/>
<path style="fill:#602F75;" d="M51.982,102.069h-34.08c-1.884,0-3.413-1.529-3.413-3.413V24.366c0-2.169-1.772-3.934-3.948-3.934
	H7.678c-1.884,0-3.413-1.529-3.413-3.413V3.413C4.265,1.529,5.794,0,7.678,0h54.526c1.884,0,3.413,1.529,3.413,3.413v13.606
	c0,1.884-1.529,3.413-3.413,3.413h-2.862c-2.178,0-3.948,1.765-3.948,3.934v55.41c0,1.884-1.529,3.413-3.413,3.413
	c-1.884,0-3.413-1.529-3.413-3.413v-55.41c0-5.75,4.538-10.46,10.225-10.747V6.827H11.092v6.793
	c5.687,0.287,10.223,4.997,10.223,10.747v70.876H51.98c1.884,0,3.413,1.529,3.413,3.413
	C55.393,100.54,53.866,102.069,51.982,102.069z"/>
<path style="fill:#EA3457;" d="M17.903,98.656v40.088c0,8.883,6.508,16.816,15.367,17.659c10.163,0.968,18.712-6.984,18.712-16.928
	V98.656H17.903z"/>
<g>
	<path style="fill:#602F75;" d="M34.898,159.892c-0.649,0-1.3-0.031-1.952-0.092c-10.349-0.985-18.456-10.233-18.456-21.057V98.656
		c0-1.884,1.529-3.413,3.413-3.413h34.079c1.884,0,3.413,1.529,3.413,3.413v40.818c0,5.734-2.435,11.237-6.683,15.101
		C44.938,158.007,39.991,159.892,34.898,159.892z M21.315,102.069v36.675c0,7.342,5.393,13.606,12.276,14.259
		c3.901,0.369,7.649-0.864,10.525-3.48c2.828-2.572,4.449-6.234,4.449-10.051v-37.405h-27.25V102.069z"/>
	<path style="fill:#602F75;" d="M28.126,91.865H17.901c-1.884,0-3.413-1.529-3.413-3.413c0-1.884,1.529-3.413,3.413-3.413h10.225
		c1.884,0,3.413,1.529,3.413,3.413C31.539,90.336,30.012,91.865,28.126,91.865z"/>
	<path style="fill:#602F75;" d="M28.126,71.456H17.901c-1.884,0-3.413-1.529-3.413-3.413c0-1.884,1.529-3.413,3.413-3.413h10.225
		c1.884,0,3.413,1.529,3.413,3.413C31.539,69.927,30.012,71.456,28.126,71.456z"/>
	<path style="fill:#602F75;" d="M28.126,112.273H17.901c-1.884,0-3.413-1.529-3.413-3.413c0-1.884,1.529-3.413,3.413-3.413h10.225
		c1.884,0,3.413,1.529,3.413,3.413C31.539,110.744,30.012,112.273,28.126,112.273z"/>
</g>
<path style="fill:#FFFFFF;" d="M127.068,65.44c0,0,10.776-10.755,23.707,2.15c0,0,8.62-2.15,12.931,8.605
	c0,0,19.396,0,17.242,30.116c0,0,12.931,19.36-6.465,32.268c0,0,4.311,17.21-10.776,23.663c0,0,4.311,12.908-8.62,15.058
	c0,0-15.087,25.815-28.018,2.15h-0.089c-12.931,23.663-28.018-2.15-28.018-2.15c-12.931-2.15-8.62-15.058-8.62-15.058
	c-15.087-6.453-10.776-23.663-10.776-23.663c-19.396-12.908-6.465-32.268-6.465-32.268c-2.156-30.116,17.242-30.116,17.242-30.116
	c4.311-10.755,12.931-8.605,12.931-8.605c12.931-12.908,23.707-2.15,23.707-2.15L127.068,65.44L127.068,65.44z"/>
<path style="fill:#602F75;" d="M139.366,192.853c-0.061,0-0.121,0-0.183-0.002c-4.512-0.065-8.586-2.468-12.16-7.158
	c-3.572,4.69-7.646,7.093-12.158,7.158c-0.061,0-0.123,0.002-0.183,0.002c-8.724,0-15.478-8.922-17.836-12.503
	c-3.963-0.966-6.883-2.975-8.694-5.984c-2.15-3.574-2.106-7.59-1.717-10.259c-10.276-5.888-11.612-17.067-10.631-24.016
	c-5.396-4.101-8.718-9.122-9.885-14.952c-1.777-8.881,2.108-16.876,3.705-19.676c-0.657-11.648,1.731-20.471,7.1-26.24
	c3.971-4.265,8.591-5.707,11.303-6.193c3.802-7.533,9.993-9.25,14.077-9.037c10.887-9.861,20.603-5.663,24.922-2.809
	c4.318-2.852,14.034-7.052,24.921,2.809c4.07-0.212,10.274,1.505,14.077,9.037c2.712,0.486,7.332,1.929,11.303,6.193
	c5.369,5.767,7.755,14.592,7.1,26.238c1.597,2.802,5.482,10.795,3.705,19.676c-1.166,5.83-4.487,10.849-9.885,14.952
	c0.98,6.95-0.355,18.128-10.631,24.016c0.391,2.669,0.433,6.685-1.717,10.259c-1.811,3.009-4.731,5.016-8.694,5.984
	C154.846,183.931,148.089,192.853,139.366,192.853z M126.981,176.039c1.248,0,2.485,0.681,3.082,1.777
	c2.951,5.396,6.048,8.16,9.209,8.209c5.492,0.044,11.141-7.514,12.87-10.452c0.512-0.87,1.388-1.475,2.384-1.64
	c2.737-0.456,4.545-1.466,5.521-3.089c1.806-3,0.437-7.477,0.423-7.521c-0.563-1.684,0.261-3.519,1.894-4.219
	c5.106-2.185,8.139-6.103,9.016-11.646c0.679-4.303-0.2-8.013-0.21-8.049c-0.352-1.401,0.217-2.871,1.42-3.671
	c6.81-4.531,9.849-10.417,9.037-17.495c-0.645-5.618-3.495-9.999-3.524-10.044c-0.413-0.626-0.614-1.382-0.561-2.13
	c0.722-10.078-1.082-17.753-5.216-22.192c-3.866-4.152-8.574-4.267-8.62-4.267c-1.394,0-2.649-0.848-3.168-2.144
	c-3.168-7.904-8.706-6.624-8.936-6.564c-1.166,0.292-2.389-0.05-3.238-0.896c-10.102-10.083-18.031-2.976-18.901-2.133
	c-0.637,0.616-1.507,0.98-2.394,0.98h-0.087c-0.905,0-1.772-0.358-2.412-0.997c-0.853-0.824-8.781-7.931-18.884,2.15
	c-0.848,0.847-2.074,1.188-3.238,0.896c-0.546-0.118-5.891-1.033-8.936,6.564c-0.519,1.295-1.773,2.144-3.168,2.144
	c-0.166,0.003-4.857,0.143-8.718,4.372c-4.064,4.453-5.835,12.09-5.12,22.088c0.053,0.756-0.145,1.509-0.567,2.138
	c-0.022,0.036-2.872,4.415-3.517,10.033c-0.814,7.079,2.227,12.966,9.035,17.497c1.203,0.8,1.772,2.27,1.42,3.671
	c-0.14,0.579-3.366,14.488,8.808,19.697c1.633,0.7,2.458,2.534,1.894,4.219c-0.396,1.23-1.102,5.018,0.437,7.545
	c0.98,1.609,2.78,2.611,5.507,3.065c1,0.166,1.876,0.768,2.386,1.644c1.715,2.915,7.34,10.448,12.774,10.448
	c0.032,0,0.061,0,0.094,0c3.161-0.05,6.258-2.813,9.209-8.209C124.585,176.72,125.732,176.039,126.981,176.039z M127.068,65.44
	h0.017H127.068z"/>
<ellipse style="fill:#FFE600;" cx="126.957" cy="125.867" rx="34.079" ry="34.016"/>
<g>
	<ellipse style="fill:#00E7FF;" cx="79.239" cy="51.029" rx="6.816" ry="6.803"/>
	<ellipse style="fill:#00E7FF;" cx="103.098" cy="30.618" rx="6.816" ry="6.803"/>
	<ellipse style="fill:#00E7FF;" cx="75.843" cy="27.221" rx="6.816" ry="6.803"/>
</g>
<path style="fill:#FFFFFF;" d="M103.274,91.255c0,0,0-10.755-12.931-15.058"/>
<g>
	<path style="fill:#602F75;" d="M103.274,94.669c-1.876,0-3.398-1.512-3.413-3.384c-0.01-0.416-0.348-8.439-10.595-11.848
		c-1.789-0.596-2.756-2.528-2.162-4.316c0.596-1.789,2.528-2.756,4.316-2.162c15.094,5.023,15.268,17.758,15.268,18.297
		C106.687,93.14,105.158,94.669,103.274,94.669z"/>
	<path style="fill:#602F75;" d="M88.95,145.797c-3.678,0-7.513-1.505-11.45-4.499c-1.5-1.142-1.792-3.282-0.65-4.784
		c1.14-1.5,3.282-1.792,4.784-0.65c3.463,2.633,6.531,3.594,9.119,2.85c3.89-1.116,6.496-5.997,7.17-7.784
		c0.666-1.76,2.632-2.659,4.391-1.995c1.761,0.659,2.661,2.611,2.009,4.374c-0.145,0.393-3.644,9.626-11.641,11.952
		C91.457,145.62,90.211,145.797,88.95,145.797z"/>
</g>
<path style="fill:#FFFFFF;" d="M105.429,170.849c0,0-2.156-8.605,6.465-17.21"/>
<g>
	<path style="fill:#602F75;" d="M105.426,174.263c-1.529,0-2.92-1.034-3.308-2.586c-0.108-0.427-2.512-10.595,7.364-20.454
		c1.336-1.333,3.497-1.328,4.828,0.003c1.331,1.335,1.33,3.495-0.003,4.828c-7.054,7.04-5.583,13.897-5.567,13.964
		c0.459,1.828-0.652,3.683-2.481,4.14C105.979,174.229,105.701,174.263,105.426,174.263z"/>
	<path style="fill:#602F75;" d="M95.884,119.369c-9.663,0-16.483-8.342-16.826-8.771c-1.179-1.471-0.942-3.62,0.529-4.799
		c1.471-1.176,3.613-0.942,4.792,0.521c0.297,0.365,7.226,8.718,15.474,5.427c4.543-1.812,7.383-4.033,9.665-5.816
		c2.872-2.244,6.129-4.787,10.366-2.671c1.686,0.841,2.372,2.891,1.529,4.579c-0.843,1.688-2.895,2.371-4.579,1.529
		c-0.119-0.06-0.174-0.07-0.174-0.07c-0.445,0.061-1.888,1.188-2.941,2.012c-2.487,1.944-5.89,4.605-11.337,6.779
		C100.113,118.994,97.934,119.369,95.884,119.369z"/>
</g>
<path style="fill:#FFFFFF;" d="M150.688,91.255c0,0,0-10.755,12.931-15.058"/>
<g>
	<path style="fill:#602F75;" d="M150.69,94.648c-0.012,0-0.026,0-0.036,0c-1.87-0.02-3.378-1.524-3.378-3.395
		c0-0.539,0.174-13.274,15.266-18.297c1.787-0.594,3.721,0.372,4.316,2.162c0.596,1.789-0.372,3.721-2.162,4.316
		c-10.298,3.425-10.588,11.511-10.595,11.855C154.063,93.148,152.544,94.648,150.69,94.648z"/>
	<path style="fill:#602F75;" d="M165.013,145.797c-1.263,0-2.507-0.178-3.731-0.532c-7.997-2.326-11.494-11.559-11.639-11.952
		c-0.654-1.768,0.249-3.732,2.017-4.386c1.76-0.652,3.724,0.246,4.381,2.007c0.676,1.785,3.279,6.666,7.17,7.782
		c2.591,0.748,5.658-0.217,9.119-2.85c1.502-1.142,3.642-0.85,4.784,0.65c1.142,1.5,0.85,3.642-0.65,4.784
		C172.525,144.292,168.689,145.797,165.013,145.797z"/>
</g>
<path style="fill:#FFFFFF;" d="M145.475,161.343c0,0,2.156-8.605-6.465-17.21"/>
<g>
	<path style="fill:#602F75;" d="M145.478,164.758c-0.275,0-0.553-0.034-0.831-0.104c-1.818-0.456-2.925-2.289-2.49-4.106
		c0.077-0.353,1.427-7.026-5.559-14c-1.335-1.331-1.336-3.494-0.003-4.828s3.492-1.335,4.828-0.003
		c9.876,9.859,7.472,20.026,7.364,20.454C148.398,163.722,147.007,164.758,145.478,164.758z"/>
	<path style="fill:#602F75;" d="M163.311,122.945c-4.886,0-10.839-1.423-15.123-7.113c-3.526-4.683-5.052-8.721-6.166-11.67
		c-0.468-1.237-1.106-2.927-1.488-3.25c0-0.003-0.056-0.01-0.16-0.019c-1.879-0.154-3.277-1.802-3.121-3.681
		c0.154-1.879,1.806-3.287,3.681-3.121c4.727,0.389,6.187,4.251,7.473,7.66c1.022,2.707,2.295,6.074,5.233,9.977
		c5.391,7.159,15.933,3.42,16.039,3.383c1.772-0.645,3.731,0.266,4.376,2.038c0.645,1.772-0.266,3.731-2.038,4.376
		C171.713,121.631,168.003,122.945,163.311,122.945z"/>
	<path style="fill:#602F75;" d="M126.981,182.866c-1.884,0-3.413-1.529-3.413-3.413V65.44c0-1.884,1.529-3.413,3.413-3.413
		c1.884,0,3.413,1.529,3.413,3.413v114.012C130.395,181.338,128.865,182.866,126.981,182.866z"/>
	<path style="fill:#602F75;" d="M107.58,144.145c-0.649,0-1.306-0.184-1.888-0.572c-12.216-8.129-8.921-23.298-5.472-30.184
		c0.845-1.686,2.898-2.369,4.581-1.524c1.683,0.843,2.365,2.889,1.527,4.574c-0.3,0.608-7.081,14.645,3.145,21.449
		c1.568,1.044,1.995,3.164,0.951,4.733C109.768,143.611,108.684,144.145,107.58,144.145z"/>
</g>
<g>
</g>
<g>
</g>
<g>
</g>
<g>
</g>
<g>
</g>
<g>
</g>
<g>
</g>
<g>
</g>
<g>
</g>
<g>
</g>
<g>
</g>
<g>
</g>
<g>
</g>
<g>
</g>
<g>
</g>
</svg>
