<?xml version="1.0" encoding="iso-8859-1"?>
<!-- Generator: Adobe Illustrator 19.0.0, SVG Export Plug-In . SVG Version: 6.00 Build 0)  -->
<svg version="1.1" id="Capa_1" xmlns="http://www.w3.org/2000/svg" xmlns:xlink="http://www.w3.org/1999/xlink" x="0px" y="0px"
	 viewBox="0 0 480 480" style="enable-background:new 0 0 480 480;" xml:space="preserve">
<g>
	<polygon style="fill:#EBE5DD;" points="68,320 292,320 268,472 92,472 	"/>
	<polygon style="fill:#EBE5DD;" points="84,152 276,152 252,288 108,288 	"/>
	<polygon style="fill:#EBE5DD;" points="108,8 252,8 228,120 132,120 	"/>
</g>
<g>
	<rect x="244" y="8" style="fill:#D4C8B8;" width="88" height="16"/>
	<rect x="268" y="152" style="fill:#D4C8B8;" width="96" height="16"/>
	<rect x="284" y="320" style="fill:#D4C8B8;" width="128" height="16"/>
	<polygon style="fill:#D4C8B8;" points="100,352 116,448 148,448 148,352 	"/>
	<polygon style="fill:#D4C8B8;" points="116,176 132,264 156,264 156,176 	"/>
	<polygon style="fill:#D4C8B8;" points="132,24 148,104 164,104 164,24 	"/>
</g>
<path d="M108,296h144c3.883,0,7.203-2.789,7.879-6.609L282.712,160H372v-16h-96H84c-2.363,0-4.609,1.047-6.129,2.859
	s-2.16,4.203-1.75,6.531l24,136C100.797,293.211,104.117,296,108,296z M266.465,160l-21.176,120H114.711L93.535,160H266.465z"/>
<path d="M132,128h96c3.773,0,7.031-2.633,7.824-6.32L258.47,16H340V0h-88H108c-2.414,0-4.703,1.094-6.223,2.969
	c-1.516,1.883-2.105,4.344-1.602,6.711l24,112C124.969,125.367,128.226,128,132,128z M242.105,16l-20.574,96h-83.063l-20.574-96
	H242.105z"/>
<path d="M420,312H292H68c-2.34,0-4.563,1.023-6.082,2.805c-1.52,1.773-2.184,4.133-1.82,6.445l24,152
	C84.711,477.133,88.062,480,92,480h176c3.938,0,7.289-2.867,7.902-6.75L298.836,328H420V312z M261.164,464H98.836L77.363,328
	h205.273L261.164,464z"/>
<g>
	<rect x="140" y="344" style="fill:#F40E34;" width="40" height="16"/>
	<rect x="164" y="376" style="fill:#F40E34;" width="16" height="16"/>
	<rect x="140" y="408" style="fill:#F40E34;" width="40" height="16"/>
	<rect x="164" y="440" style="fill:#F40E34;" width="16" height="16"/>
	<rect x="140" y="176" style="fill:#F40E34;" width="40" height="16"/>
	<rect x="164" y="208" style="fill:#F40E34;" width="16" height="16"/>
	<rect x="148" y="240" style="fill:#F40E34;" width="32" height="16"/>
	<rect x="148" y="32" style="fill:#F40E34;" width="32" height="16"/>
	<rect x="164" y="64" style="fill:#F40E34;" width="16" height="16"/>
</g>
<g>
</g>
<g>
</g>
<g>
</g>
<g>
</g>
<g>
</g>
<g>
</g>
<g>
</g>
<g>
</g>
<g>
</g>
<g>
</g>
<g>
</g>
<g>
</g>
<g>
</g>
<g>
</g>
<g>
</g>
</svg>
