<?xml version="1.0" encoding="UTF-8"?>
<!DOCTYPE svg PUBLIC "-//W3C//DTD SVG 1.1//EN" "http://www.w3.org/Graphics/SVG/1.1/DTD/svg11.dtd">
<!-- Creator: CorelDRAW X7 -->
<svg xmlns="http://www.w3.org/2000/svg" xml:space="preserve" width="3in" height="3in" version="1.1" style="shape-rendering:geometricPrecision; text-rendering:geometricPrecision; image-rendering:optimizeQuality; fill-rule:evenodd; clip-rule:evenodd"
viewBox="0 0 3000 3000"
 xmlns:xlink="http://www.w3.org/1999/xlink"
 enable-background="new 0 0 64 64">
 <defs>
  <style type="text/css">
   <![CDATA[
    .str0 {stroke:#A0D755;stroke-width:20.8307}
    .fil5 {fill:none}
    .fil1 {fill:#8C5F50}
    .fil0 {fill:#9B735A}
    .fil2 {fill:#F1F4FB}
    .fil4 {fill:#FFDC64}
    .fil3 {fill:#FFF082}
    .fil6 {fill:red;fill-rule:nonzero}
   ]]>
  </style>
 </defs>
 <g id="Layer_x0020_1">
  <metadata id="CorelCorpID_0Corel-Layer"/>
  <g id="_830573936">
   <path class="fil0" d="M2430 232l-804 0c0,64 -51,115 -115,115 -63,0 -115,-51 -115,-115l-804 0c-95,0 -173,77 -173,173l0 2413c0,95 78,172 173,172l1838 0c95,0 173,-77 173,-172l0 -2413c0,-96 -78,-173 -173,-173z"/>
   <path class="fil1" d="M2545 2071c-20,0 -39,1 -57,3l0 -1669c0,-32 -26,-58 -58,-58l-287 0c-32,0 -58,-26 -58,-57l0 -58 -459 0c0,64 -51,115 -115,115 -63,0 -115,-51 -115,-115l-459 0 0 58c0,31 -27,57 -58,57l-287 0c-32,0 -57,26 -57,58l0 2413c0,31 25,57 57,57l1274 0c6,40 17,78 30,115l534 0c95,0 173,-77 173,-172l0 -744c-19,-2 -39,-3 -58,-3z"/>
   <path class="fil2" d="M2315 2760l-1608 0c-32,0 -58,-25 -58,-57l0 -2183c0,-32 26,-58 58,-58l1608 0c33,0 58,26 58,58l0 2183c0,32 -25,57 -58,57z"/>
   <path class="fil3" d="M1856 118l-147 0c-40,-69 -113,-116 -198,-116 -85,0 -157,47 -197,116l-147 0c-65,0 -116,51 -116,114l0 230c0,31 26,58 58,58l804 0c33,0 58,-27 58,-58l0 -230c0,-63 -52,-114 -115,-114zm-345 201c-48,0 -86,-39 -86,-87 0,-47 38,-86 86,-86 48,0 86,39 86,86 0,48 -38,87 -86,87z"/>
   <path class="fil4" d="M1109 520l804 0c33,0 58,-27 58,-58l0 0c0,-32 -25,-57 -58,-57l-804 0c-32,0 -58,25 -58,57l0 0c0,31 26,58 58,58z"/>
   <rect class="fil5 str0" x="824" y="809" width="1381" height="1817"/>
   <rect class="fil5 str0" x="824" y="809" width="220" height="1817"/>
   <rect class="fil5 str0" x="824" y="809" width="1255" height="1817"/>
   <rect class="fil5 str0" x="824" y="988" width="1381" height="1638"/>
   <rect class="fil5 str0" x="824" y="809" width="1381" height="1817"/>
   <rect class="fil5 str0" x="824" y="1124" width="1381" height="1503"/>
   <rect class="fil5 str0" x="824" y="1260" width="1381" height="1367"/>
   <rect class="fil5 str0" x="824" y="1425" width="1381" height="1202"/>
   <rect class="fil5 str0" x="824" y="1568" width="1381" height="1059"/>
   <rect class="fil5 str0" x="824" y="1732" width="1381" height="894"/>
   <rect class="fil5 str0" x="824" y="1875" width="1381" height="751"/>
   <rect class="fil5 str0" x="824" y="2026" width="1381" height="601"/>
   <path class="fil6" d="M1023 633l32 0c6,0 11,1 14,1 3,1 6,2 8,3 3,2 5,4 6,7 2,3 3,6 3,9 0,4 -1,8 -3,11 -2,3 -5,5 -8,7 5,1 8,3 11,7 2,3 4,7 4,12 0,3 -1,7 -3,10 -1,4 -4,7 -7,9 -3,2 -6,3 -10,3 -3,1 -10,1 -20,1l-27 0 0 -80zm16 14l0 18 11 0c6,0 10,0 11,0 3,-1 5,-2 7,-3 1,-2 2,-4 2,-6 0,-3 0,-5 -2,-6 -1,-2 -3,-3 -6,-3 -1,0 -6,0 -14,0l-9 0zm0 31l0 22 15 0c6,0 10,-1 11,-1 3,0 4,-1 6,-3 1,-2 2,-4 2,-7 0,-2 0,-4 -2,-6 -1,-2 -2,-3 -5,-4 -2,0 -6,-1 -14,-1l-13 0z"/>
   <path id="1" class="fil6" d="M1103 648l0 -15 15 0 0 15 -15 0zm0 65l0 -58 15 0 0 58 -15 0z"/>
   <polygon id="2" class="fil6" points="1134,713 1134,633 1149,633 1149,713 "/>
   <polygon id="3" class="fil6" points="1165,713 1165,633 1180,633 1180,713 "/>
   <path id="4" class="fil6" d="M1227 633l29 0c7,0 12,1 15,2 5,1 9,4 12,7 4,4 6,8 8,13 2,5 2,11 2,19 0,6 0,12 -2,17 -2,6 -5,10 -9,14 -2,3 -6,5 -11,6 -3,1 -8,2 -14,2l-30 0 0 -80zm16 14l0 53 12 0c4,0 8,-1 10,-1 2,-1 4,-2 6,-4 2,-1 3,-4 4,-7 1,-4 2,-9 2,-15 0,-6 -1,-11 -2,-14 -1,-3 -2,-6 -4,-8 -2,-1 -5,-3 -8,-3 -2,-1 -6,-1 -13,-1l-7 0z"/>
   <path id="5" class="fil6" d="M1340 695l16 2c-2,6 -6,10 -10,13 -4,3 -9,4 -16,4 -10,0 -17,-3 -22,-9 -4,-6 -5,-12 -5,-20 0,-10 2,-17 7,-23 5,-5 11,-8 19,-8 8,0 15,3 20,9 5,5 8,14 7,26l-38 0c0,4 2,8 4,10 2,3 5,4 9,4 2,0 4,-1 6,-2 1,-1 2,-3 3,-6zm1 -16c0,-4 -1,-8 -3,-10 -2,-2 -5,-3 -8,-3 -3,0 -6,1 -8,3 -3,3 -4,6 -4,10l23 0z"/>
   <path id="6" class="fil6" d="M1395 655l0 12 -10 0 0 24c0,4 0,7 0,8 0,1 1,1 1,2 1,0 2,1 3,1 1,0 3,-1 6,-2l1 12c-3,2 -7,2 -12,2 -2,0 -5,0 -7,-1 -2,-1 -4,-2 -5,-4 -1,-1 -2,-3 -2,-6 0,-1 -1,-5 -1,-10l0 -26 -7 0 0 -12 7 0 0 -11 16 -9 0 20 10 0z"/>
   <path id="7" class="fil6" d="M1417 673l-14 -2c2,-6 5,-10 8,-13 4,-3 10,-4 17,-4 7,0 12,1 15,2 4,2 6,4 8,7 1,2 2,7 2,13l-1 18c0,5 1,9 1,11 1,3 1,5 3,8l-15 0c-1,-1 -1,-3 -2,-4 0,-1 0,-2 0,-2 -3,2 -6,4 -9,5 -3,2 -6,2 -9,2 -6,0 -11,-1 -14,-4 -4,-4 -5,-8 -5,-13 0,-3 1,-6 2,-8 2,-3 4,-5 7,-6 2,-2 6,-3 12,-4 7,-1 12,-2 15,-3l0 -2c0,-3 -1,-5 -3,-6 -1,-2 -4,-2 -8,-2 -3,0 -5,0 -6,1 -2,1 -3,3 -4,6zm21 12c-2,1 -5,2 -10,3 -4,1 -7,2 -8,2 -2,2 -3,4 -3,6 0,2 1,4 2,5 2,2 4,3 6,3 3,0 6,-1 8,-3 2,-1 3,-3 4,-5 0,-1 1,-4 1,-8l0 -3z"/>
   <path id="8" class="fil6" d="M1468 648l0 -15 15 0 0 15 -15 0zm0 65l0 -58 15 0 0 58 -15 0z"/>
   <polygon id="9" class="fil6" points="1498,713 1498,633 1514,633 1514,713 "/>
   <polygon id="10" class="fil6" points="1578,713 1578,647 1555,647 1555,633 1618,633 1618,647 1594,647 1594,713 "/>
   <path id="11" class="fil6" d="M1653 695l15 2c-2,6 -5,10 -9,13 -4,3 -9,4 -16,4 -10,0 -17,-3 -22,-9 -4,-6 -6,-12 -6,-20 0,-10 3,-17 8,-23 5,-5 11,-8 19,-8 8,0 15,3 20,9 5,5 7,14 7,26l-38 0c0,4 1,8 4,10 2,3 5,4 8,4 3,0 5,-1 6,-2 2,-1 3,-3 4,-6zm1 -16c0,-4 -1,-8 -3,-10 -3,-2 -5,-3 -8,-3 -4,0 -6,1 -9,3 -2,3 -3,6 -3,10l23 0z"/>
   <path id="12" class="fil6" d="M1676 697l15 -3c1,3 2,6 4,7 2,2 5,2 9,2 4,0 7,0 9,-2 1,-1 2,-2 2,-4 0,-1 -1,-2 -1,-3 -1,0 -3,-1 -5,-2 -13,-2 -21,-5 -24,-7 -4,-3 -7,-8 -7,-13 0,-5 2,-9 6,-13 4,-3 10,-5 19,-5 7,0 13,1 17,4 4,3 7,6 8,11l-14 3c-1,-2 -2,-4 -4,-5 -2,-1 -4,-2 -7,-2 -4,0 -7,1 -9,2 -1,1 -2,2 -2,3 0,1 1,2 2,3 1,1 6,2 14,4 8,2 14,4 17,7 3,2 5,6 5,11 0,5 -2,10 -7,14 -4,3 -11,5 -19,5 -8,0 -14,-1 -19,-4 -4,-4 -7,-8 -9,-13z"/>
   <path id="13" class="fil6" d="M1770 655l0 12 -11 0 0 24c0,4 0,7 1,8 0,1 0,1 1,2 1,0 2,1 3,1 1,0 3,-1 6,-2l1 12c-4,2 -8,2 -12,2 -3,0 -5,0 -7,-1 -3,-1 -4,-2 -5,-4 -1,-1 -2,-3 -2,-6 -1,-1 -1,-5 -1,-10l0 -26 -7 0 0 -12 7 0 0 -11 15 -9 0 20 11 0z"/>
   <polygon id="14" class="fil6" points="1812,713 1812,634 1828,634 1828,700 1868,700 1868,713 "/>
   <path id="15" class="fil6" d="M1879 648l0 -15 15 0 0 15 -15 0zm0 65l0 -58 15 0 0 58 -15 0z"/>
   <path id="16" class="fil6" d="M1905 697l15 -3c1,3 2,6 4,7 2,2 5,2 8,2 4,0 7,0 9,-2 1,-1 2,-2 2,-4 0,-1 0,-2 -1,-3 -1,0 -2,-1 -5,-2 -12,-2 -20,-5 -23,-7 -5,-3 -7,-8 -7,-13 0,-5 2,-9 6,-13 4,-3 10,-5 18,-5 8,0 14,1 18,4 3,3 6,6 7,11l-14 3c0,-2 -2,-4 -3,-5 -2,-1 -5,-2 -8,-2 -4,0 -7,1 -8,2 -2,1 -2,2 -2,3 0,1 0,2 1,3 2,1 6,2 15,4 8,2 13,4 17,7 3,2 4,6 4,11 0,5 -2,10 -6,14 -5,3 -11,5 -20,5 -8,0 -14,-1 -18,-4 -5,-4 -8,-8 -9,-13z"/>
   <path id="17" class="fil6" d="M1998 655l0 12 -10 0 0 24c0,4 0,7 0,8 0,1 1,1 1,2 1,0 2,1 3,1 1,0 3,-1 6,-2l1 12c-3,2 -7,2 -12,2 -2,0 -5,0 -7,-1 -2,-1 -4,-2 -5,-4 -1,-1 -2,-3 -2,-6 0,-1 -1,-5 -1,-10l0 -26 -7 0 0 -12 7 0 0 -11 16 -9 0 20 10 0z"/>
   <rect class="fil5 str0" x="824" y="809" width="613" height="1817"/>
   <rect class="fil5 str0" x="824" y="809" width="1018" height="1817"/>
  </g>
 </g>
</svg>
