<?xml version="1.0" encoding="UTF-8"?>
<!DOCTYPE svg PUBLIC "-//W3C//DTD SVG 1.1//EN" "http://www.w3.org/Graphics/SVG/1.1/DTD/svg11.dtd">
<!-- Creator: CorelDRAW X7 -->
<svg xmlns="http://www.w3.org/2000/svg" xml:space="preserve" width="3in" height="3in" version="1.1" style="shape-rendering:geometricPrecision; text-rendering:geometricPrecision; image-rendering:optimizeQuality; fill-rule:evenodd; clip-rule:evenodd"
viewBox="0 0 3000 3000"
 xmlns:xlink="http://www.w3.org/1999/xlink"
 enable-background="new 0 0 64 64">
 <defs>
  <style type="text/css">
   <![CDATA[
    .str0 {stroke:#A0D755;stroke-width:20.8307}
    .fil8 {fill:none}
    .fil11 {fill:black}
    .fil1 {fill:#8C5F50}
    .fil0 {fill:#9B735A}
    .fil7 {fill:#A0D755}
    .fil6 {fill:#B4E66E}
    .fil3 {fill:#E4EAF8}
    .fil2 {fill:#F1F4FB}
    .fil10 {fill:red}
    .fil5 {fill:#FFDC64}
    .fil4 {fill:#FFF082}
    .fil9 {fill:#666666;fill-rule:nonzero}
   ]]>
  </style>
 </defs>
 <g id="Layer_x0020_1">
  <metadata id="CorelCorpID_0Corel-Layer"/>
  <g id="_609900400">
   <path class="fil0" d="M2329 205l-724 0c0,57 -46,103 -103,103 -57,0 -104,-46 -104,-103l-724 0c-85,0 -155,69 -155,155l0 2173c0,85 70,155 155,155l1655 0c86,0 156,-70 156,-155l0 -2173c0,-86 -70,-155 -156,-155z"/>
   <path class="fil1" d="M2433 1860c-18,0 -35,1 -52,3l0 -1503c0,-28 -23,-52 -52,-52l-258 0c-29,0 -52,-23 -52,-51l0 -52 -414 0c0,57 -46,103 -103,103 -57,0 -104,-46 -104,-103l-413 0 0 52c0,28 -24,51 -52,51l-259 0c-28,0 -51,24 -51,52l0 2173c0,28 23,51 51,51l1147 0c6,36 16,70 27,104l481 0c86,0 156,-70 156,-155l0 -670c-17,-2 -35,-3 -52,-3z"/>
   <path class="fil2" d="M2226 2481l-1448 0c-29,0 -52,-23 -52,-52l0 -1965c0,-29 23,-52 52,-52l1448 0c29,0 52,23 52,52l0 1965c0,29 -23,52 -52,52z"/>
   <path class="fil3" d="M2278 2429l0 -548c-268,69 -466,311 -466,600l414 0c29,0 52,-23 52,-52z"/>
   <path class="fil4" d="M1812 102l-132 0c-36,-62 -102,-104 -178,-104 -77,0 -142,42 -178,104l-132 0c-58,0 -104,46 -104,103l0 207c0,28 23,52 52,52l724 0c29,0 52,-24 52,-52l0 -207c0,-57 -47,-103 -104,-103zm-310 181c-43,0 -78,-35 -78,-78 0,-43 35,-78 78,-78 43,0 77,35 77,78 0,43 -34,78 -77,78z"/>
   <path class="fil5" d="M1140 464l724 0c29,0 52,-24 52,-52l0 0c0,-29 -23,-52 -52,-52l-724 0c-29,0 -52,23 -52,52l0 0c0,28 23,52 52,52z"/>
   <circle class="fil6" cx="2433" cy="2481" r="517"/>
   <path class="fil7" d="M2692 2895c-286,0 -518,-232 -518,-518 0,-167 80,-316 204,-410 -260,27 -462,247 -462,514 0,286 231,517 517,517 118,0 226,-40 313,-106 -18,2 -36,3 -54,3z"/>
   <rect class="fil8 str0" x="831" y="549" width="1342" height="1766"/>
   <rect class="fil8 str0" x="831" y="549" width="341" height="1766"/>
   <rect class="fil8 str0" x="831" y="549" width="1140" height="1766"/>
   <rect class="fil8 str0" x="831" y="723" width="1342" height="1592"/>
   <rect class="fil8 str0" x="831" y="549" width="1342" height="1766"/>
   <rect class="fil8 str0" x="831" y="855" width="1342" height="1460"/>
   <rect class="fil8 str0" x="831" y="987" width="1342" height="1328"/>
   <rect class="fil8 str0" x="831" y="1147" width="1342" height="1168"/>
   <rect class="fil8 str0" x="831" y="1286" width="1342" height="1029"/>
   <rect class="fil8 str0" x="831" y="1446" width="1342" height="869"/>
   <rect class="fil8 str0" x="831" y="1585" width="1342" height="730"/>
   <rect class="fil8 str0" x="831" y="1731" width="1342" height="584"/>
   <path class="fil9" d="M902 613l25 0c5,0 9,0 12,1 4,1 8,4 11,7 2,2 5,6 6,10 1,5 2,10 2,16 0,6 0,11 -2,15 -2,5 -4,9 -7,12 -2,2 -6,4 -10,5 -3,1 -7,2 -12,2l-25 0 0 -68zm13 11l0 45 10 0c4,0 7,0 9,0 2,-1 4,-2 5,-3 2,-2 3,-4 4,-7 1,-3 1,-7 1,-12 0,-5 0,-9 -1,-12 -1,-3 -2,-5 -4,-7 -2,-1 -4,-2 -6,-3 -2,0 -6,-1 -12,-1l-6 0z"/>
   <path id="1" class="fil9" d="M1031 681l-15 0 -6 -16 -27 0 -6 16 -14 0 26 -68 15 0 27 68zm-25 -27l-10 -25 -9 25 19 0z"/>
   <polygon id="2" class="fil9" points="1046,681 1046,624 1026,624 1026,613 1080,613 1080,624 1060,624 1060,681 "/>
   <polygon id="3" class="fil9" points="1089,681 1089,613 1139,613 1139,624 1102,624 1102,639 1136,639 1136,651 1102,651 1102,669 1140,669 1140,681 "/>
   <path id="4" class="fil9" d="M1414 613l25 0c5,0 10,0 13,1 4,1 7,4 10,7 3,2 5,6 6,10 2,5 3,10 3,16 0,6 -1,11 -3,15 -1,5 -4,9 -7,12 -2,2 -5,4 -9,5 -3,1 -7,2 -12,2l-26 0 0 -68zm14 11l0 45 10 0c4,0 6,0 8,0 2,-1 4,-2 6,-3 1,-2 2,-4 3,-7 1,-3 1,-7 1,-12 0,-5 0,-9 -1,-12 -1,-3 -2,-5 -4,-7 -1,-1 -4,-2 -6,-3 -2,0 -6,-1 -11,-1l-6 0z"/>
   <polygon id="5" class="fil9" points="1482,681 1482,613 1532,613 1532,624 1496,624 1496,639 1530,639 1530,651 1496,651 1496,669 1534,669 1534,681 "/>
   <polygon id="6" class="fil9" points="1560,681 1560,624 1540,624 1540,613 1594,613 1594,624 1574,624 1574,681 "/>
   <path id="7" class="fil9" d="M1657 681l-15 0 -6 -16 -27 0 -6 16 -14 0 26 -68 15 0 27 68zm-25 -27l-10 -25 -9 25 19 0z"/>
   <polygon id="8" class="fil9" points="1664,681 1664,613 1677,613 1677,681 "/>
   <polygon id="9" class="fil9" points="1691,681 1691,614 1704,614 1704,669 1738,669 1738,681 "/>
   <path class="fil10" d="M2457 2840l0 26c-95,0 -180,-38 -242,-100 -62,-62 -101,-147 -101,-242l0 -52 -79 0 158 -211 158 211 -79 0 0 64c0,123 66,236 173,297l12 7z"/>
   <path class="fil11" d="M2299 2536l0 -38 105 0 -211 -281 -210 281 105 0 0 26c0,203 165,369 369,369l26 0 0 -68 -25 -14c-98,-57 -159,-162 -159,-275zm-158 -12l0 -79 -53 0 105 -140 106 140 -53 0 0 91c0,119 58,230 152,299 -146,-28 -257,-156 -257,-311z"/>
   <path class="fil10" d="M2413 2167l0 -27c94,0 180,39 242,101 62,61 100,147 100,241l0 53 79 0 -158 211 -158 -211 79 0 0 -65c0,-122 -66,-236 -172,-297l-12 -6z"/>
   <path class="fil11" d="M2571 2470l0 39 -105 0 210 280 211 -280 -106 0 0 -27c0,-203 -165,-368 -368,-368l-26 0 0 68 25 14c98,56 159,161 159,274zm158 12l0 79 52 0 -105 141 -105 -141 53 0 0 -91c0,-118 -58,-229 -153,-298 147,27 258,156 258,310z"/>
  </g>
 </g>
</svg>
