<?xml version="1.0" encoding="UTF-8"?>
<!DOCTYPE svg PUBLIC "-//W3C//DTD SVG 1.1//EN" "http://www.w3.org/Graphics/SVG/1.1/DTD/svg11.dtd">
<!-- Creator: CorelDRAW X7 -->
<svg xmlns="http://www.w3.org/2000/svg" xml:space="preserve" width="3in" height="3in" version="1.1" style="shape-rendering:geometricPrecision; text-rendering:geometricPrecision; image-rendering:optimizeQuality; fill-rule:evenodd; clip-rule:evenodd"
viewBox="0 0 3000 3000"
 xmlns:xlink="http://www.w3.org/1999/xlink"
 enable-background="new 0 0 64 64">
 <defs>
  <style type="text/css">
   <![CDATA[
    .str0 {stroke:#A0D755;stroke-width:20.8307}
    .fil5 {fill:none}
    .fil1 {fill:#8C5F50}
    .fil0 {fill:#9B735A}
    .fil2 {fill:#F1F4FB}
    .fil4 {fill:#FFDC64}
    .fil3 {fill:#FFF082}
    .fil6 {fill:#666666;fill-rule:nonzero}
    .fil7 {fill:red;fill-rule:nonzero}
   ]]>
  </style>
 </defs>
 <g id="Layer_x0020_1">
  <metadata id="CorelCorpID_0Corel-Layer"/>
  <g id="_841378064">
   <path class="fil0" d="M2426 219l-805 0c0,64 -52,115 -115,115 -63,0 -116,-51 -116,-115l-805 0c-94,0 -172,77 -172,173l0 2417c0,94 78,172 172,172l1841 0c96,0 173,-78 173,-172l0 -2417c0,-96 -77,-173 -173,-173z"/>
   <path class="fil1" d="M2542 2060c-20,0 -39,1 -58,3l0 -1671c0,-32 -26,-58 -58,-58l-287 0c-32,0 -58,-26 -58,-57l0 -58 -460 0c0,64 -52,115 -115,115 -63,0 -116,-51 -116,-115l-459 0 0 58c0,31 -27,57 -58,57l-288 0c-31,0 -57,26 -57,58l0 2417c0,31 26,56 57,56l1276 0c7,40 18,78 30,116l535 0c96,0 173,-78 173,-172l0 -746c-18,-2 -39,-3 -57,-3z"/>
   <path class="fil2" d="M2311 2751l-1610 0c-32,0 -58,-26 -58,-58l0 -2186c0,-32 26,-58 58,-58l1610 0c33,0 58,26 58,58l0 2186c0,32 -25,58 -58,58z"/>
   <path class="fil3" d="M1851 105l-147 0c-40,-69 -113,-116 -198,-116 -86,0 -158,47 -198,116l-147 0c-64,0 -115,51 -115,114l0 230c0,32 25,58 57,58l806 0c32,0 58,-26 58,-58l0 -230c0,-63 -53,-114 -116,-114zm-345 201c-48,0 -87,-39 -87,-87 0,-48 39,-87 87,-87 48,0 86,39 86,87 0,48 -38,87 -86,87z"/>
   <path class="fil4" d="M1103 507l806 0c32,0 58,-26 58,-58l0 0c0,-32 -26,-57 -58,-57l-806 0c-32,0 -57,25 -57,57l0 0c0,32 25,58 57,58z"/>
   <rect class="fil5 str0" x="853" y="885" width="1307" height="1719"/>
   <rect class="fil5 str0" x="853" y="885" width="332" height="1719"/>
   <rect class="fil5 str0" x="853" y="885" width="1110" height="1719"/>
   <rect class="fil5 str0" x="853" y="1054" width="1307" height="1550"/>
   <rect class="fil5 str0" x="853" y="885" width="1307" height="1719"/>
   <rect class="fil5 str0" x="853" y="1183" width="1307" height="1422"/>
   <rect class="fil5 str0" x="853" y="1311" width="1307" height="1293"/>
   <rect class="fil5 str0" x="853" y="1467" width="1307" height="1137"/>
   <rect class="fil5 str0" x="853" y="1602" width="1307" height="1002"/>
   <rect class="fil5 str0" x="853" y="1758" width="1307" height="846"/>
   <rect class="fil5 str0" x="853" y="1894" width="1307" height="711"/>
   <rect class="fil5 str0" x="853" y="2036" width="1307" height="569"/>
   <polygon class="fil6" points="907,1015 907,950 884,950 884,936 946,936 946,950 923,950 923,1015 "/>
   <polygon id="_1" class="fil6" points="957,1015 957,936 1015,936 1015,950 973,950 973,967 1012,967 1012,981 973,981 973,1002 1017,1002 1017,1015 "/>
   <path id="_2" class="fil6" d="M1026 990l15 -2c1,5 3,9 6,12 3,2 7,3 11,3 6,0 9,-1 12,-3 3,-2 4,-5 4,-8 0,-2 -1,-3 -2,-4 -1,-2 -3,-3 -5,-4 -2,0 -7,-2 -13,-3 -9,-2 -15,-5 -18,-8 -5,-4 -7,-10 -7,-16 0,-4 1,-8 3,-11 3,-4 6,-6 10,-8 4,-2 9,-3 15,-3 10,0 18,2 23,7 5,4 7,10 7,17l-15 1c-1,-4 -3,-7 -5,-9 -2,-2 -5,-3 -10,-3 -4,0 -8,1 -10,3 -2,1 -3,3 -3,5 0,2 1,3 2,5 2,1 7,3 15,5 8,2 13,4 17,6 4,2 7,4 9,8 2,3 3,7 3,12 0,5 -1,9 -4,13 -2,4 -6,7 -11,9 -4,2 -10,3 -17,3 -10,0 -17,-3 -23,-7 -5,-5 -8,-12 -9,-20z"/>
   <polygon id="_3" class="fil6" points="1121,1015 1121,950 1098,950 1098,936 1160,936 1160,950 1137,950 1137,1015 "/>
   <path class="fil6" d="M1445 986l16 5c-3,9 -7,15 -12,19 -6,4 -13,6 -21,6 -11,0 -19,-3 -26,-10 -7,-7 -10,-17 -10,-30 0,-13 3,-23 10,-30 7,-7 16,-11 27,-11 10,0 17,3 23,9 4,3 7,8 8,14l-15 4c-1,-4 -3,-7 -6,-10 -3,-2 -7,-3 -11,-3 -6,0 -10,2 -14,6 -4,4 -6,11 -6,20 0,10 2,17 6,21 3,5 8,7 14,7 4,0 8,-2 11,-4 3,-3 5,-7 6,-13z"/>
   <path id="_1_0" class="fil6" d="M1471 976c0,-8 1,-14 4,-20 1,-4 4,-8 7,-11 3,-3 6,-5 10,-7 5,-2 11,-3 17,-3 12,0 21,4 28,11 7,7 10,17 10,30 0,13 -3,23 -10,30 -7,7 -16,11 -28,11 -11,0 -21,-4 -28,-11 -7,-7 -10,-17 -10,-30zm16 0c0,9 2,15 7,20 4,5 9,7 15,7 7,0 12,-2 16,-7 4,-4 6,-11 6,-20 0,-10 -2,-16 -6,-21 -4,-4 -9,-6 -16,-6 -6,0 -12,2 -16,6 -4,5 -6,12 -6,21z"/>
   <path id="_2_1" class="fil6" d="M1560 936l16 0 0 43c0,7 0,11 0,13 1,3 2,6 5,8 3,2 6,3 10,3 5,0 8,-1 10,-3 3,-2 4,-4 5,-7 0,-2 0,-7 0,-13l0 -44 16 0 0 42c0,9 0,16 -1,20 -1,4 -3,7 -5,10 -2,2 -5,5 -9,6 -4,2 -9,3 -15,3 -8,0 -13,-1 -17,-3 -4,-2 -7,-4 -9,-7 -3,-3 -4,-6 -5,-9 -1,-4 -1,-11 -1,-20l0 -42z"/>
   <polygon id="_3_2" class="fil6" points="1639,1015 1639,936 1654,936 1687,989 1687,936 1702,936 1702,1015 1686,1015 1654,963 1654,1015 "/>
   <polygon id="_4" class="fil6" points="1736,1015 1736,950 1713,950 1713,936 1775,936 1775,950 1752,950 1752,1015 "/>
   <path class="fil7" d="M884 695l40 0c7,0 13,1 17,1 4,1 8,2 11,4 3,2 5,5 7,9 2,3 3,7 3,11 0,5 -1,9 -3,13 -3,4 -6,7 -11,9 6,2 11,5 14,9 4,4 5,9 5,15 0,4 -1,9 -3,13 -2,4 -5,8 -9,10 -3,3 -8,5 -13,5 -3,0 -12,1 -24,1l-34 0 0 -100zm20 17l0 23 13 0c8,0 13,0 15,-1 3,0 6,-1 8,-3 2,-2 3,-5 3,-8 0,-3 -1,-5 -3,-7 -2,-2 -4,-3 -7,-4 -2,0 -8,0 -18,0l-11 0zm0 39l0 27 19 0c7,0 11,0 13,-1 3,0 6,-2 8,-4 2,-2 2,-5 2,-8 0,-3 0,-6 -2,-8 -1,-2 -3,-3 -6,-4 -3,-1 -9,-2 -18,-2l-16 0z"/>
   <polygon id="1" class="fil7" points="983,795 983,695 1004,695 1004,795 "/>
   <polygon id="2" class="fil7" points="1023,795 1023,696 1043,696 1043,778 1093,778 1093,795 "/>
   <polygon id="3" class="fil7" points="1108,795 1108,696 1128,696 1128,778 1178,778 1178,795 "/>
   <path id="4" class="fil7" d="M1228 795l0 -100 43 0c10,0 18,1 23,3 5,2 9,5 11,10 3,4 5,9 5,15 0,8 -2,14 -7,19 -4,5 -11,8 -19,9 4,2 8,5 10,8 3,3 7,9 12,16l12 20 -24 0 -15 -22c-5,-8 -8,-13 -10,-15 -2,-2 -4,-3 -6,-4 -2,0 -6,-1 -10,-1l-4 0 0 42 -21 0zm21 -58l14 0c10,0 16,0 18,-1 3,-1 5,-2 6,-4 1,-2 2,-5 2,-7 0,-4 -1,-7 -3,-9 -1,-2 -4,-3 -7,-4 -2,0 -7,0 -15,0l-15 0 0 25z"/>
   <polygon id="5" class="fil7" points="1329,795 1329,695 1402,695 1402,712 1349,712 1349,734 1399,734 1399,751 1349,751 1349,778 1404,778 1404,795 "/>
   <path id="6" class="fil7" d="M1421 795l0 -100 33 0c12,0 20,1 23,2 6,1 11,5 15,10 4,5 6,11 6,19 0,6 -2,11 -4,15 -2,4 -5,8 -8,10 -4,3 -7,4 -11,5 -4,1 -11,1 -20,1l-13 0 0 38 -21 0zm21 -83l0 28 10 0c8,0 14,0 16,-1 3,-1 5,-3 7,-5 1,-2 2,-5 2,-8 0,-3 -1,-6 -3,-9 -2,-2 -5,-4 -8,-4 -3,-1 -8,-1 -15,-1l-9 0z"/>
   <path id="7" class="fil7" d="M1510 746c0,-10 1,-19 4,-26 3,-5 6,-10 10,-14 4,-4 8,-7 13,-9 6,-2 13,-3 21,-3 15,0 26,4 35,13 9,9 13,22 13,38 0,16 -4,29 -13,38 -8,9 -20,14 -35,14 -15,0 -26,-5 -35,-14 -9,-9 -13,-21 -13,-37zm21 -1c0,11 2,20 7,26 6,5 12,8 20,8 8,0 15,-3 20,-8 5,-6 8,-15 8,-26 0,-12 -3,-20 -8,-26 -5,-5 -11,-8 -20,-8 -8,0 -15,3 -20,8 -5,6 -7,15 -7,26z"/>
   <path id="8" class="fil7" d="M1622 795l0 -100 42 0c11,0 19,1 24,3 4,2 8,5 11,10 3,4 4,9 4,15 0,8 -2,14 -6,19 -4,5 -11,8 -20,9 5,2 8,5 11,8 3,3 7,9 11,16l13 20 -24 0 -15 -22c-5,-8 -9,-13 -11,-15 -1,-2 -3,-3 -6,-4 -2,0 -5,-1 -10,-1l-4 0 0 42 -20 0zm20 -58l15 0c10,0 16,0 18,-1 2,-1 4,-2 6,-4 1,-2 2,-5 2,-7 0,-4 -1,-7 -3,-9 -2,-2 -4,-3 -7,-4 -2,0 -7,0 -15,0l-16 0 0 25z"/>
   <polygon id="9" class="fil7" points="1745,795 1745,712 1715,712 1715,695 1794,695 1794,712 1765,712 1765,795 "/>
   <polygon id="10" class="fil7" points="1846,795 1846,696 1866,696 1866,778 1916,778 1916,795 "/>
   <path id="11" class="fil7" d="M1926 746c0,-10 2,-19 5,-26 2,-5 5,-10 9,-14 4,-4 8,-7 13,-9 6,-2 13,-3 22,-3 14,0 26,4 35,13 9,9 13,22 13,38 0,16 -4,29 -13,38 -9,9 -21,14 -35,14 -15,0 -27,-5 -35,-14 -9,-9 -14,-21 -14,-37zm21 -1c0,11 3,20 8,26 5,5 12,8 20,8 8,0 14,-3 20,-8 5,-6 7,-15 7,-26 0,-12 -2,-20 -7,-26 -5,-5 -12,-8 -20,-8 -8,0 -15,3 -20,8 -5,6 -8,15 -8,26z"/>
   <path id="12" class="fil7" d="M2085 758l0 -17 43 0 0 40c-4,4 -10,8 -18,11 -8,3 -16,5 -24,5 -11,0 -20,-3 -28,-7 -7,-4 -13,-11 -17,-19 -4,-8 -6,-17 -6,-26 0,-11 2,-20 7,-28 4,-8 10,-14 19,-19 6,-3 14,-4 24,-4 12,0 22,2 28,7 7,6 12,13 14,22l-20 4c-2,-5 -4,-9 -8,-12 -4,-3 -9,-4 -14,-4 -9,0 -16,3 -21,8 -6,6 -8,14 -8,25 0,12 2,21 8,26 5,6 12,9 20,9 5,0 9,0 13,-2 4,-2 8,-4 11,-6l0 -13 -23 0z"/>
   <path class="fil7" d="M1138 1708l160 213 118 -89 -53 -71c-3,-4 -5,-8 -4,-11 0,-3 2,-5 4,-7 3,-2 6,-3 9,-3 3,1 6,3 9,8l67 89 -198 147c-4,4 -7,5 -11,5 -3,-1 -5,-2 -7,-5 -2,-2 -3,-5 -2,-8 0,-3 3,-6 7,-9l43 -32 -160 -213 -42 32c-5,3 -8,4 -11,4 -3,0 -6,-2 -8,-4 -2,-3 -3,-6 -2,-9 0,-3 3,-6 7,-9l103 -77c4,-4 8,-5 11,-5 3,0 6,2 8,5 2,2 2,5 2,8 -1,3 -3,6 -7,9l-43 32z"/>
   <path id="1" class="fil7" d="M1621 1516c18,24 29,50 35,78 6,27 4,53 -4,77 -9,24 -22,43 -42,58 -29,21 -63,28 -103,20 -41,-8 -75,-31 -104,-69 -28,-39 -41,-78 -37,-119 3,-41 19,-72 48,-94 20,-14 42,-22 67,-23 26,-2 51,4 76,17 25,13 46,32 64,55zm-18 14c-22,-29 -50,-49 -84,-59 -34,-11 -65,-6 -92,14 -25,19 -38,46 -39,81 -1,36 10,69 33,100 25,33 55,53 89,61 34,7 63,1 87,-16 26,-20 40,-48 39,-84 0,-35 -11,-68 -33,-97z"/>
   <path id="2" class="fil7" d="M1895 1363l57 77c-8,17 -17,33 -28,47 -10,14 -22,26 -36,36 -19,14 -38,24 -57,29 -19,6 -37,7 -54,4 -18,-2 -35,-8 -50,-16 -15,-9 -29,-23 -44,-42l-25 -33c-14,-19 -24,-42 -28,-68 -4,-25 -1,-50 8,-72 10,-22 25,-41 44,-56 29,-21 59,-32 91,-31 -5,-7 -8,-11 -9,-13 0,-2 0,-4 1,-6 0,-2 2,-4 4,-6 2,-1 5,-2 8,-2 3,1 6,3 10,8l30 40c3,4 5,8 4,11 0,3 -2,6 -4,8 -3,1 -5,2 -8,2 -3,-1 -6,-3 -9,-7 -10,-11 -25,-15 -46,-12 -20,4 -39,12 -57,25 -16,12 -28,27 -36,44 -8,17 -10,40 -7,69 3,19 10,36 23,53l24 33c22,29 49,46 80,50 31,4 63,-6 95,-30 10,-8 19,-17 27,-26 7,-9 15,-21 23,-36l-49 -66 -62 46c-4,3 -8,4 -11,4 -3,0 -5,-2 -7,-4 -2,-3 -3,-6 -2,-9 0,-3 3,-6 7,-9l86 -65c4,-3 8,-4 11,-4 3,0 5,2 7,5 2,1 3,3 3,6 0,2 -1,4 -2,6 -1,1 -5,5 -12,10z"/>
  </g>
 </g>
</svg>
