<?xml version="1.0" encoding="UTF-8"?>
<!DOCTYPE svg PUBLIC "-//W3C//DTD SVG 1.1//EN" "http://www.w3.org/Graphics/SVG/1.1/DTD/svg11.dtd">
<!-- Creator: CorelDRAW X7 -->
<svg xmlns="http://www.w3.org/2000/svg" xml:space="preserve" width="3in" height="3in" version="1.1" style="shape-rendering:geometricPrecision; text-rendering:geometricPrecision; image-rendering:optimizeQuality; fill-rule:evenodd; clip-rule:evenodd"
viewBox="0 0 3000 3000"
 xmlns:xlink="http://www.w3.org/1999/xlink"
 enable-background="new 0 0 64 64">
 <defs>
  <style type="text/css">
   <![CDATA[
    .str0 {stroke:#A0D755;stroke-width:20.8307}
    .fil8 {fill:none}
    .fil1 {fill:#8C5F50}
    .fil0 {fill:#9B735A}
    .fil7 {fill:#A0D755}
    .fil6 {fill:#B4E66E}
    .fil11 {fill:#D22E05}
    .fil3 {fill:#E4EAF8}
    .fil2 {fill:#F1F4FB}
    .fil5 {fill:#FFDC64}
    .fil4 {fill:#FFF082}
    .fil10 {fill:#FFFF99}
    .fil12 {fill:white}
    .fil9 {fill:#666666;fill-rule:nonzero}
   ]]>
  </style>
 </defs>
 <g id="Layer_x0020_1">
  <metadata id="CorelCorpID_0Corel-Layer"/>
  <g id="_841618816">
   <path class="fil0" d="M2115 204l-724 0c0,57 -46,103 -103,103 -57,0 -104,-46 -104,-103l-724 0c-85,0 -155,69 -155,155l0 2173c0,85 70,155 155,155l1655 0c86,0 156,-70 156,-155l0 -2173c0,-86 -70,-155 -156,-155z"/>
   <path class="fil1" d="M2219 1859c-18,0 -35,1 -52,3l0 -1503c0,-28 -23,-52 -52,-52l-258 0c-29,0 -52,-23 -52,-51l0 -52 -414 0c0,57 -46,103 -103,103 -57,0 -104,-46 -104,-103l-413 0 0 52c0,28 -24,51 -52,51l-259 0c-28,0 -51,24 -51,52l0 2173c0,28 23,51 51,51l1147 0c6,36 16,70 27,104l481 0c86,0 156,-70 156,-155l0 -670c-17,-2 -35,-3 -52,-3z"/>
   <path class="fil2" d="M2012 2480l-1448 0c-29,0 -52,-23 -52,-52l0 -1965c0,-29 23,-52 52,-52l1448 0c29,0 52,23 52,52l0 1965c0,29 -23,52 -52,52z"/>
   <path class="fil3" d="M2064 2428l0 -548c-268,69 -466,311 -466,600l414 0c29,0 52,-23 52,-52z"/>
   <path class="fil4" d="M1598 101l-132 0c-36,-62 -102,-104 -178,-104 -77,0 -142,42 -178,104l-132 0c-58,0 -104,46 -104,103l0 207c0,28 23,52 52,52l724 0c29,0 52,-24 52,-52l0 -207c0,-57 -47,-103 -104,-103zm-310 181c-43,0 -78,-35 -78,-78 0,-43 35,-78 78,-78 43,0 77,35 77,78 0,43 -34,78 -77,78z"/>
   <path class="fil5" d="M926 463l724 0c29,0 52,-24 52,-52l0 0c0,-29 -23,-52 -52,-52l-724 0c-29,0 -52,23 -52,52l0 0c0,28 23,52 52,52z"/>
   <circle class="fil6" cx="2219" cy="2480" r="517"/>
   <path class="fil7" d="M2478 2894c-286,0 -518,-232 -518,-518 0,-167 80,-316 204,-410 -260,27 -462,247 -462,514 0,286 231,517 517,517 118,0 226,-40 313,-106 -18,2 -36,3 -54,3z"/>
   <rect class="fil8 str0" x="660" y="655" width="1271" height="1673"/>
   <rect class="fil8 str0" x="660" y="655" width="323" height="1673"/>
   <rect class="fil8 str0" x="660" y="655" width="1080" height="1673"/>
   <rect class="fil8 str0" x="660" y="819" width="1271" height="1508"/>
   <rect class="fil8 str0" x="660" y="655" width="1271" height="1673"/>
   <rect class="fil8 str0" x="660" y="944" width="1271" height="1383"/>
   <rect class="fil8 str0" x="660" y="1069" width="1271" height="1258"/>
   <rect class="fil8 str0" x="660" y="1221" width="1271" height="1106"/>
   <rect class="fil8 str0" x="660" y="1353" width="1271" height="975"/>
   <rect class="fil8 str0" x="660" y="1504" width="1271" height="823"/>
   <rect class="fil8 str0" x="660" y="1636" width="1271" height="691"/>
   <rect class="fil8 str0" x="660" y="1774" width="1271" height="553"/>
   <path class="fil9" d="M727 715l24 0c4,0 8,0 11,1 4,1 8,4 11,7 1,2 4,6 5,9 1,5 2,10 2,15 0,6 0,11 -2,15 -2,4 -4,8 -6,11 -2,2 -6,4 -10,5 -3,1 -7,2 -11,2l-24 0 0 -65zm12 11l0 42 10 0c4,0 6,0 8,0 2,-1 4,-2 5,-3 2,-1 3,-3 4,-6 1,-3 1,-7 1,-12 0,-4 0,-8 -1,-11 -1,-3 -2,-5 -4,-7 -2,0 -4,-1 -6,-2 -1,0 -5,-1 -11,-1l-6 0z"/>
   <path id="_1" class="fil9" d="M849 780l-14 0 -6 -15 -25 0 -6 15 -13 0 24 -65 15 0 25 65zm-23 -26l-10 -24 -8 24 18 0z"/>
   <polygon id="_2" class="fil9" points="863,780 863,726 844,726 844,715 896,715 896,726 877,726 877,780 "/>
   <polygon id="_3" class="fil9" points="904,780 904,715 952,715 952,726 916,726 916,740 949,740 949,751 916,751 916,768 952,768 952,780 "/>
   <path id="_4" class="fil9" d="M1212 715l24 0c4,0 9,0 12,1 4,1 7,4 9,7 3,2 5,6 6,9 2,5 3,10 3,15 0,6 -1,11 -3,15 -1,4 -4,8 -7,11 -1,2 -4,4 -8,5 -3,1 -7,2 -11,2l-25 0 0 -65zm13 11l0 42 10 0c3,0 5,0 7,0 2,-1 4,-2 6,-3 1,-1 2,-3 3,-6 1,-3 1,-7 1,-12 0,-4 0,-8 -1,-11 -1,-3 -2,-5 -4,-7 -1,0 -4,-1 -6,-2 -2,0 -5,-1 -10,-1l-6 0z"/>
   <polygon id="_5" class="fil9" points="1276,780 1276,715 1324,715 1324,726 1290,726 1290,740 1322,740 1322,751 1290,751 1290,768 1326,768 1326,780 "/>
   <polygon id="_6" class="fil9" points="1350,780 1350,726 1331,726 1331,715 1382,715 1382,726 1363,726 1363,780 "/>
   <path id="_7" class="fil9" d="M1442 780l-14 0 -6 -15 -25 0 -6 15 -13 0 24 -65 15 0 25 65zm-24 -26l-9 -24 -9 24 18 0z"/>
   <polygon id="_8" class="fil9" points="1449,780 1449,715 1461,715 1461,780 "/>
   <polygon id="_9" class="fil9" points="1474,780 1474,716 1487,716 1487,768 1519,768 1519,780 "/>
   <path class="fil10" d="M2186 2227c-135,12 -160,122 -163,236 0,39 -1,91 -21,125 -16,26 -73,53 -51,89 14,23 50,16 83,16 132,0 265,0 398,0 33,0 67,7 78,-21 11,-29 -23,-50 -33,-61 -20,-22 -27,-27 -36,-65 -5,-27 -7,-65 -6,-93 -33,5 -55,8 -83,-8 -61,-34 -77,-111 -30,-168 11,-12 23,-17 30,-24 -28,-9 -44,-22 -80,-26 10,-82 -96,-80 -86,0z"/>
   <path class="fil11" d="M2382 2257c-124,28 -81,213 41,185 44,-9 85,-55 72,-114 -10,-44 -56,-83 -113,-71z"/>
   <path class="fil10" d="M2307 2704l-156 -1c8,36 36,65 78,65 44,0 69,-29 78,-64z"/>
   <path class="fil10" d="M2563 2573c-12,13 32,31 27,94 -3,38 -25,59 -28,67 -6,16 15,30 37,-27 19,-48 9,-86 -16,-126 -4,-7 -10,-19 -20,-8z"/>
   <path class="fil10" d="M1882 2571c-14,9 -35,61 -32,97 2,31 28,93 45,77 14,-13 -31,-31 -27,-94 2,-18 7,-35 15,-48 4,-7 10,-14 13,-19 5,-11 -4,-19 -14,-13z"/>
   <path class="fil12" d="M2367 2322l9 15c9,-3 13,-8 20,-12l1 75 23 1 0 -102c-21,0 -28,2 -48,18 0,1 -1,1 -1,1 -1,1 -1,1 -2,2l-2 2z"/>
   <path class="fil10" d="M2532 2727c14,1 19,-13 25,-24 6,-11 10,-26 11,-40 2,-53 -38,-91 -41,-64 -1,10 20,19 22,54 3,49 -32,55 -17,74z"/>
   <path class="fil10" d="M1920 2590c-17,8 -30,48 -30,73 1,19 18,71 35,63 23,-11 -44,-48 -3,-111 3,-5 8,-9 9,-14 0,-7 -5,-13 -11,-11z"/>
  </g>
 </g>
</svg>
