<?xml version="1.0" encoding="UTF-8"?>
<!DOCTYPE svg PUBLIC "-//W3C//DTD SVG 1.1//EN" "http://www.w3.org/Graphics/SVG/1.1/DTD/svg11.dtd">
<!-- Creator: CorelDRAW X7 -->
<svg xmlns="http://www.w3.org/2000/svg" xml:space="preserve" width="3in" height="3in" version="1.1" style="shape-rendering:geometricPrecision; text-rendering:geometricPrecision; image-rendering:optimizeQuality; fill-rule:evenodd; clip-rule:evenodd"
viewBox="0 0 3000 3000"
 xmlns:xlink="http://www.w3.org/1999/xlink"
 enable-background="new 0 0 64 64">
 <defs>
  <style type="text/css">
   <![CDATA[
    .str0 {stroke:#A0D755;stroke-width:20.8307}
    .fil8 {fill:none}
    .fil13 {fill:#88919F}
    .fil1 {fill:#8C5F50}
    .fil17 {fill:#976947}
    .fil0 {fill:#9B735A}
    .fil7 {fill:#A0D755}
    .fil6 {fill:#B4E66E}
    .fil10 {fill:#C08E59}
    .fil11 {fill:#C66A60}
    .fil16 {fill:#DB9B7C}
    .fil14 {fill:#E37C6D}
    .fil3 {fill:#E4EAF8}
    .fil15 {fill:#EBF7FE}
    .fil12 {fill:#EEBD99}
    .fil2 {fill:#F1F4FB}
    .fil5 {fill:#FFDC64}
    .fil4 {fill:#FFF082}
    .fil9 {fill:#666666;fill-rule:nonzero}
   ]]>
  </style>
 </defs>
 <g id="Layer_x0020_1">
  <metadata id="CorelCorpID_0Corel-Layer"/>
  <g id="_835143904">
   <path class="fil0" d="M2117 203l-724 0c0,57 -46,103 -103,103 -57,0 -104,-46 -104,-103l-724 0c-85,0 -155,69 -155,155l0 2173c0,85 70,155 155,155l1655 0c86,0 156,-70 156,-155l0 -2173c0,-86 -70,-155 -156,-155z"/>
   <path class="fil1" d="M2221 1858c-18,0 -35,1 -52,3l0 -1503c0,-28 -23,-52 -52,-52l-258 0c-29,0 -52,-23 -52,-51l0 -52 -414 0c0,57 -46,103 -103,103 -57,0 -104,-46 -104,-103l-413 0 0 52c0,28 -24,51 -52,51l-259 0c-28,0 -51,24 -51,52l0 2173c0,28 23,51 51,51l1147 0c6,36 16,70 27,104l481 0c86,0 156,-70 156,-155l0 -670c-17,-2 -35,-3 -52,-3z"/>
   <path class="fil2" d="M2014 2479l-1448 0c-29,0 -52,-23 -52,-52l0 -1965c0,-29 23,-52 52,-52l1448 0c29,0 52,23 52,52l0 1965c0,29 -23,52 -52,52z"/>
   <path class="fil3" d="M2066 2427l0 -548c-268,69 -466,311 -466,600l414 0c29,0 52,-23 52,-52z"/>
   <path class="fil4" d="M1600 100l-132 0c-36,-62 -102,-104 -178,-104 -77,0 -142,42 -178,104l-132 0c-58,0 -104,46 -104,103l0 207c0,28 23,52 52,52l724 0c29,0 52,-24 52,-52l0 -207c0,-57 -47,-103 -104,-103zm-310 181c-43,0 -78,-35 -78,-78 0,-43 35,-78 78,-78 43,0 77,35 77,78 0,43 -34,78 -77,78z"/>
   <path class="fil5" d="M928 462l724 0c29,0 52,-24 52,-52l0 0c0,-29 -23,-52 -52,-52l-724 0c-29,0 -52,23 -52,52l0 0c0,28 23,52 52,52z"/>
   <circle class="fil6" cx="2221" cy="2479" r="517"/>
   <path class="fil7" d="M2480 2893c-286,0 -518,-232 -518,-518 0,-167 80,-316 204,-410 -260,27 -462,247 -462,514 0,286 231,517 517,517 118,0 226,-40 313,-106 -18,2 -36,3 -54,3z"/>
   <rect class="fil8 str0" x="662" y="654" width="1271" height="1673"/>
   <rect class="fil8 str0" x="662" y="654" width="323" height="1673"/>
   <rect class="fil8 str0" x="662" y="654" width="1080" height="1673"/>
   <rect class="fil8 str0" x="662" y="818" width="1271" height="1508"/>
   <rect class="fil8 str0" x="662" y="654" width="1271" height="1673"/>
   <rect class="fil8 str0" x="662" y="943" width="1271" height="1383"/>
   <rect class="fil8 str0" x="662" y="1068" width="1271" height="1258"/>
   <rect class="fil8 str0" x="662" y="1220" width="1271" height="1106"/>
   <rect class="fil8 str0" x="662" y="1352" width="1271" height="975"/>
   <rect class="fil8 str0" x="662" y="1503" width="1271" height="823"/>
   <rect class="fil8 str0" x="662" y="1635" width="1271" height="691"/>
   <rect class="fil8 str0" x="662" y="1773" width="1271" height="553"/>
   <path class="fil9" d="M729 714l24 0c4,0 8,0 11,1 4,1 8,4 11,7 1,2 4,6 5,9 1,5 2,10 2,15 0,6 0,11 -2,15 -2,4 -4,8 -6,11 -2,2 -6,4 -10,5 -3,1 -7,2 -11,2l-24 0 0 -65zm12 11l0 42 10 0c4,0 6,0 8,0 2,-1 4,-2 5,-3 2,-1 3,-3 4,-6 1,-3 1,-7 1,-12 0,-4 0,-8 -1,-11 -1,-3 -2,-5 -4,-7 -2,0 -4,-1 -6,-2 -1,0 -5,-1 -11,-1l-6 0z"/>
   <path id="_1" class="fil9" d="M851 779l-14 0 -6 -15 -25 0 -6 15 -13 0 24 -65 15 0 25 65zm-23 -26l-10 -24 -8 24 18 0z"/>
   <polygon id="_2" class="fil9" points="865,779 865,725 846,725 846,714 898,714 898,725 879,725 879,779 "/>
   <polygon id="_3" class="fil9" points="906,779 906,714 954,714 954,725 918,725 918,739 951,739 951,750 918,750 918,767 954,767 954,779 "/>
   <path id="_4" class="fil9" d="M1214 714l24 0c4,0 9,0 12,1 4,1 7,4 9,7 3,2 5,6 6,9 2,5 3,10 3,15 0,6 -1,11 -3,15 -1,4 -4,8 -7,11 -1,2 -4,4 -8,5 -3,1 -7,2 -11,2l-25 0 0 -65zm13 11l0 42 10 0c3,0 5,0 7,0 2,-1 4,-2 6,-3 1,-1 2,-3 3,-6 1,-3 1,-7 1,-12 0,-4 0,-8 -1,-11 -1,-3 -2,-5 -4,-7 -1,0 -4,-1 -6,-2 -2,0 -5,-1 -10,-1l-6 0z"/>
   <polygon id="_5" class="fil9" points="1278,779 1278,714 1326,714 1326,725 1292,725 1292,739 1324,739 1324,750 1292,750 1292,767 1328,767 1328,779 "/>
   <polygon id="_6" class="fil9" points="1352,779 1352,725 1333,725 1333,714 1384,714 1384,725 1365,725 1365,779 "/>
   <path id="_7" class="fil9" d="M1444 779l-14 0 -6 -15 -25 0 -6 15 -13 0 24 -65 15 0 25 65zm-24 -26l-9 -24 -9 24 18 0z"/>
   <polygon id="_8" class="fil9" points="1451,779 1451,714 1463,714 1463,779 "/>
   <polygon id="_9" class="fil9" points="1476,779 1476,715 1489,715 1489,767 1521,767 1521,779 "/>
   <g>
    <path class="fil10" d="M2282 2512l19 0c37,0 73,5 95,-26 8,-11 7,-15 12,-27 3,13 -6,35 16,48 2,-4 9,-12 16,-21 17,-27 24,-57 22,-90l-5 -4c-2,-1 -4,-2 -7,-4 -20,-9 -68,-5 -96,-5 -34,-1 -62,21 -72,52 -3,13 -3,22 -3,38l0 31c0,6 -1,7 3,8z"/>
    <path class="fil10" d="M1959 2275l19 0c37,0 73,5 95,-26 8,-11 7,-15 12,-27 3,13 -6,35 15,48 5,-8 17,-15 29,-46 9,-20 11,-41 10,-65 -1,-1 0,0 -2,-2 -16,-14 -45,-11 -66,-11 -14,0 -27,0 -41,-1 -33,0 -61,22 -71,53 -4,13 -3,22 -3,38l0 31c0,6 -1,7 3,8z"/>
    <path class="fil11" d="M2123 2486l-6 25 -15 -13c-5,-1 -15,5 -21,7 -63,21 -112,21 -179,11l0 39 324 0c0,-27 2,-55 -5,-76 -7,-22 -18,-36 -32,-49 -2,6 -10,13 -14,18 -4,4 -10,10 -15,14 -8,6 -26,20 -37,24z"/>
    <path class="fil11" d="M2446 2723l-6 25 -14 -13 -44 14c-55,15 -102,12 -156,4l0 39 323 0c0,-27 2,-55 -5,-76 -7,-22 -18,-36 -32,-49 -2,6 -10,13 -14,18 -4,4 -10,10 -15,14 -8,6 -26,20 -37,24z"/>
    <path class="fil12" d="M2301 2512c0,22 -1,43 3,64 1,10 9,26 16,33 13,15 33,31 53,31 12,-7 37,-8 56,-42 16,-26 12,-53 12,-86 -8,-1 -11,-2 -17,-5 -22,-13 -13,-35 -16,-48 -5,12 -4,16 -12,27 -22,31 -58,26 -95,26z"/>
    <path class="fil12" d="M1978 2275c0,22 -1,43 2,64 2,10 10,26 16,33 2,2 3,2 4,4l3 3c0,0 0,1 1,1 11,10 29,23 46,23 5,-3 13,-4 18,-7 16,-8 29,-19 38,-35 16,-27 12,-53 12,-86 -9,-1 -12,-2 -18,-5 -21,-13 -12,-35 -15,-48 -5,12 -4,16 -12,27 -22,31 -58,26 -95,26z"/>
    <path class="fil13" d="M1967 2673l43 0c0,61 44,109 103,118 17,3 53,1 72,1l0 -1c-36,0 -70,-24 -90,-52 -12,-17 -20,-42 -20,-66l43 0 -75 -75 -76 75z"/>
    <path class="fil14" d="M2226 2753c54,8 101,11 156,-4l44 -14 -39 -39 -53 52c-3,-6 -21,-99 -21,-106 -29,7 -45,17 -62,36 -8,9 -14,21 -19,32 -5,13 -6,24 -6,43z"/>
    <path class="fil14" d="M1902 2516c67,10 116,10 179,-11 6,-2 16,-8 21,-7 -2,-5 -33,-35 -37,-38l-2 0 -52 51c-3,-6 -22,-99 -21,-106 -29,7 -45,17 -62,36 -8,9 -14,21 -19,32 -5,13 -7,24 -7,43z"/>
    <path class="fil15" d="M2313 2642c0,7 18,100 21,106l53 -52 39 39 14 13 6 -25c3,-14 16,-70 15,-81 -5,0 -7,-1 -14,-1 -6,0 -12,0 -17,0 -2,3 -38,49 -43,53l-21 -26c-7,-8 -16,-18 -21,-27 -6,0 -11,0 -17,0 -8,0 -9,1 -15,1z"/>
    <path class="fil16" d="M2050 2403c0,0 0,0 -1,0l-28 1c4,7 15,19 21,27 5,6 20,22 21,29l2 0c1,-7 16,-23 21,-29 4,-5 7,-9 10,-13 4,-5 8,-9 11,-14l-30 -1c31,0 68,-38 71,-64 3,-21 2,-42 2,-64l-32 0c0,33 4,59 -12,86 -9,16 -22,27 -38,35 -5,3 -13,4 -18,7z"/>
    <path class="fil16" d="M2373 2640c-2,2 -9,1 -13,1 -5,0 -10,0 -15,0 5,9 14,19 21,27l21 26c5,-4 41,-50 43,-53l-29 -1c30,0 67,-38 70,-64 3,-21 2,-42 2,-64l-32 0c0,33 4,60 -12,86 -19,34 -44,35 -56,42z"/>
    <path class="fil17" d="M2424 2507c6,3 9,4 17,5l32 0 19 0 3 0c0,-21 2,-55 -2,-72 -5,-18 -17,-36 -31,-44 2,33 -5,63 -22,90 -7,9 -14,17 -16,21z"/>
    <path class="fil17" d="M2100 2270c6,3 9,4 18,5l32 0 19 0 3 0c0,-21 2,-55 -2,-72 -5,-19 -17,-36 -31,-44 1,24 -1,45 -10,65 -12,31 -24,38 -29,46z"/>
    <path class="fil15" d="M1990 2405c-1,7 18,100 21,106l52 -51c-1,-7 -16,-23 -21,-29 -6,-8 -17,-20 -21,-27 -5,0 -11,0 -16,0 -8,0 -10,1 -15,1z"/>
    <path class="fil15" d="M2065 2460c4,3 35,33 37,38l15 13 6 -25c3,-14 16,-70 15,-81 -5,0 -7,-1 -15,-1 -5,0 -11,0 -16,0 -3,5 -7,9 -11,14 -3,4 -6,8 -10,13 -5,6 -20,22 -21,29z"/>
    <path class="fil14" d="M2446 2723c11,-4 29,-18 37,-24 5,-4 11,-10 15,-14 4,-5 12,-12 14,-18 -5,-3 -6,-5 -11,-8 -3,-3 -8,-5 -11,-7 -9,-4 -18,-7 -29,-10 1,11 -12,67 -15,81z"/>
    <path class="fil14" d="M2123 2486c11,-4 29,-18 37,-24 5,-4 11,-10 15,-14 4,-5 12,-12 14,-18 -5,-3 -6,-5 -11,-8 -3,-3 -8,-5 -12,-7 -8,-4 -18,-7 -28,-10 1,11 -12,67 -15,81z"/>
    <path class="fil12" d="M2471 2576c16,0 37,2 44,-22 6,-19 -4,-33 -19,-40 -1,0 -2,-1 -2,-1l-2 -1 -19 0c0,22 1,43 -2,64z"/>
    <path class="fil12" d="M2148 2339c14,0 20,2 29,-4 20,-11 27,-43 -4,-58l-4 -2 -19 0c0,22 1,43 -2,64z"/>
    <path class="fil16" d="M2304 2576c-4,-21 -3,-42 -3,-64l-19 0 -2 1c-16,8 -27,21 -21,41 8,24 28,22 45,22z"/>
    <path class="fil16" d="M1980 2339c-3,-21 -2,-42 -2,-64l-19 0c0,0 -1,0 -1,0l-10 5c-11,7 -17,23 -12,37 7,24 28,22 44,22z"/>
   </g>
  </g>
 </g>
</svg>
