<?xml version="1.0" encoding="UTF-8"?>
<!DOCTYPE svg PUBLIC "-//W3C//DTD SVG 1.1//EN" "http://www.w3.org/Graphics/SVG/1.1/DTD/svg11.dtd">
<!-- Creator: CorelDRAW X7 -->
<svg xmlns="http://www.w3.org/2000/svg" xml:space="preserve" width="3in" height="3in" version="1.1" style="shape-rendering:geometricPrecision; text-rendering:geometricPrecision; image-rendering:optimizeQuality; fill-rule:evenodd; clip-rule:evenodd"
viewBox="0 0 3000 3000"
 xmlns:xlink="http://www.w3.org/1999/xlink"
 enable-background="new 0 0 64 64">
 <defs>
  <style type="text/css">
   <![CDATA[
    .str0 {stroke:#A0D755;stroke-width:20.8307}
    .fil5 {fill:none}
    .fil1 {fill:#8C5F50}
    .fil0 {fill:#9B735A}
    .fil2 {fill:#F1F4FB}
    .fil4 {fill:#FFDC64}
    .fil3 {fill:#FFF082}
    .fil6 {fill:#666666;fill-rule:nonzero}
    .fil7 {fill:red;fill-rule:nonzero}
   ]]>
  </style>
 </defs>
 <g id="Layer_x0020_1">
  <metadata id="CorelCorpID_0Corel-Layer"/>
  <g id="_839022928">
   <path class="fil0" d="M2430 226l-805 0c0,64 -52,115 -115,115 -63,0 -116,-51 -116,-115l-805 0c-94,0 -172,77 -172,173l0 2417c0,94 78,172 172,172l1841 0c96,0 173,-78 173,-172l0 -2417c0,-96 -77,-173 -173,-173z"/>
   <path class="fil1" d="M2546 2067c-20,0 -39,1 -58,3l0 -1671c0,-32 -26,-58 -58,-58l-287 0c-32,0 -58,-26 -58,-57l0 -58 -460 0c0,64 -52,115 -115,115 -63,0 -116,-51 -116,-115l-459 0 0 58c0,31 -27,57 -58,57l-288 0c-31,0 -57,26 -57,58l0 2417c0,31 26,56 57,56l1276 0c7,40 18,78 30,116l535 0c96,0 173,-78 173,-172l0 -746c-18,-2 -39,-3 -57,-3z"/>
   <path class="fil2" d="M2315 2758l-1610 0c-32,0 -58,-26 -58,-58l0 -2186c0,-32 26,-58 58,-58l1610 0c33,0 58,26 58,58l0 2186c0,32 -25,58 -58,58z"/>
   <path class="fil3" d="M1855 112l-147 0c-40,-69 -113,-116 -198,-116 -86,0 -158,47 -198,116l-147 0c-64,0 -115,51 -115,114l0 230c0,32 25,58 57,58l806 0c32,0 58,-26 58,-58l0 -230c0,-63 -53,-114 -116,-114zm-345 201c-48,0 -87,-39 -87,-87 0,-48 39,-87 87,-87 48,0 86,39 86,87 0,48 -38,87 -86,87z"/>
   <path class="fil4" d="M1107 514l806 0c32,0 58,-26 58,-58l0 0c0,-32 -26,-57 -58,-57l-806 0c-32,0 -57,25 -57,57l0 0c0,32 25,58 57,58z"/>
   <g>
    <rect class="fil5 str0" x="857" y="892" width="1307" height="1719"/>
    <rect class="fil5 str0" x="857" y="892" width="332" height="1719"/>
    <rect class="fil5 str0" x="857" y="892" width="1110" height="1719"/>
    <rect class="fil5 str0" x="857" y="1061" width="1307" height="1550"/>
    <rect class="fil5 str0" x="857" y="892" width="1307" height="1719"/>
    <rect class="fil5 str0" x="857" y="1190" width="1307" height="1422"/>
    <rect class="fil5 str0" x="857" y="1318" width="1307" height="1293"/>
    <rect class="fil5 str0" x="857" y="1474" width="1307" height="1137"/>
    <rect class="fil5 str0" x="857" y="1609" width="1307" height="1002"/>
    <rect class="fil5 str0" x="857" y="1765" width="1307" height="846"/>
    <rect class="fil5 str0" x="857" y="1901" width="1307" height="711"/>
    <rect class="fil5 str0" x="857" y="2043" width="1307" height="569"/>
    <polygon class="fil6" points="911,1022 911,957 888,957 888,943 950,943 950,957 927,957 927,1022 "/>
    <polygon id="1" class="fil6" points="961,1022 961,943 1019,943 1019,957 977,957 977,974 1016,974 1016,988 977,988 977,1009 1021,1009 1021,1022 "/>
    <path id="2" class="fil6" d="M1030 997l15 -2c1,5 3,9 6,12 3,2 7,3 11,3 6,0 9,-1 12,-3 3,-2 4,-5 4,-8 0,-2 -1,-3 -2,-4 -1,-2 -3,-3 -5,-4 -2,0 -7,-2 -13,-3 -9,-2 -15,-5 -18,-8 -5,-4 -7,-10 -7,-16 0,-4 1,-8 3,-11 3,-4 6,-6 10,-8 4,-2 9,-3 15,-3 10,0 18,2 23,7 5,4 7,10 7,17l-15 1c-1,-4 -3,-7 -5,-9 -2,-2 -5,-3 -10,-3 -4,0 -8,1 -10,3 -2,1 -3,3 -3,5 0,2 1,3 2,5 2,1 7,3 15,5 8,2 13,4 17,6 4,2 7,4 9,8 2,3 3,7 3,12 0,5 -1,9 -4,13 -2,4 -6,7 -11,9 -4,2 -10,3 -17,3 -10,0 -17,-3 -23,-7 -5,-5 -8,-12 -9,-20z"/>
    <polygon id="3" class="fil6" points="1125,1022 1125,957 1102,957 1102,943 1164,943 1164,957 1141,957 1141,1022 "/>
    <path class="fil6" d="M1449 993l16 5c-3,9 -7,15 -12,19 -6,4 -13,6 -21,6 -11,0 -19,-3 -26,-10 -7,-7 -10,-17 -10,-30 0,-13 3,-23 10,-30 7,-7 16,-11 27,-11 10,0 17,3 23,9 4,3 7,8 8,14l-15 4c-1,-4 -3,-7 -6,-10 -3,-2 -7,-3 -11,-3 -6,0 -10,2 -14,6 -4,4 -6,11 -6,20 0,10 2,17 6,21 3,5 8,7 14,7 4,0 8,-2 11,-4 3,-3 5,-7 6,-13z"/>
    <path id="1" class="fil6" d="M1475 983c0,-8 1,-14 4,-20 1,-4 4,-8 7,-11 3,-3 6,-5 10,-7 5,-2 11,-3 17,-3 12,0 21,4 28,11 7,7 10,17 10,30 0,13 -3,23 -10,30 -7,7 -16,11 -28,11 -11,0 -21,-4 -28,-11 -7,-7 -10,-17 -10,-30zm16 0c0,9 2,15 7,20 4,5 9,7 15,7 7,0 12,-2 16,-7 4,-4 6,-11 6,-20 0,-10 -2,-16 -6,-21 -4,-4 -9,-6 -16,-6 -6,0 -12,2 -16,6 -4,5 -6,12 -6,21z"/>
    <path id="2" class="fil6" d="M1564 943l16 0 0 43c0,7 0,11 0,13 1,3 2,6 5,8 3,2 6,3 10,3 5,0 8,-1 10,-3 3,-2 4,-4 5,-7 0,-2 0,-7 0,-13l0 -44 16 0 0 42c0,9 0,16 -1,20 -1,4 -3,7 -5,10 -2,2 -5,5 -9,6 -4,2 -9,3 -15,3 -8,0 -13,-1 -17,-3 -4,-2 -7,-4 -9,-7 -3,-3 -4,-6 -5,-9 -1,-4 -1,-11 -1,-20l0 -42z"/>
    <polygon id="3" class="fil6" points="1643,1022 1643,943 1658,943 1691,996 1691,943 1706,943 1706,1022 1690,1022 1658,970 1658,1022 "/>
    <polygon id="4" class="fil6" points="1740,1022 1740,957 1717,957 1717,943 1779,943 1779,957 1756,957 1756,1022 "/>
   </g>
   <polygon class="fil7" points="1019,749 1019,666 990,666 990,649 1069,649 1069,666 1039,666 1039,749 "/>
   <path id="1" class="fil7" d="M1123 726l19 3c-3,7 -7,13 -12,16 -5,4 -12,6 -20,6 -12,0 -21,-4 -27,-12 -5,-7 -8,-15 -8,-25 0,-12 4,-22 10,-29 6,-6 14,-10 23,-10 11,0 20,4 26,11 6,7 9,18 9,33l-48 0c0,5 2,10 5,13 3,3 6,4 11,4 3,0 5,0 7,-2 2,-2 4,-4 5,-8zm1 -19c0,-6 -2,-10 -4,-13 -3,-3 -6,-4 -10,-4 -5,0 -8,1 -11,4 -2,4 -4,8 -4,13l29 0z"/>
   <path id="2" class="fil7" d="M1161 729l20 -3c0,3 2,6 4,8 3,2 6,3 11,3 5,0 9,-1 11,-3 2,-1 3,-3 3,-5 0,-1 -1,-2 -2,-3 -1,-1 -3,-2 -6,-3 -16,-3 -25,-6 -29,-9 -6,-4 -9,-10 -9,-16 0,-7 2,-12 7,-16 5,-5 13,-7 23,-7 10,0 18,2 22,5 5,3 8,8 10,15l-18 3c0,-3 -2,-5 -4,-7 -2,-1 -5,-2 -9,-2 -5,0 -9,1 -11,2 -2,1 -2,2 -2,4 0,1 0,3 2,4 1,1 7,3 17,5 11,2 18,5 22,8 4,4 6,9 6,15 0,6 -3,12 -9,17 -5,4 -13,7 -24,7 -10,0 -18,-2 -23,-6 -6,-4 -10,-9 -12,-16z"/>
   <path id="3" class="fil7" d="M1288 677l0 15 -13 0 0 29c0,6 0,10 1,11 0,1 0,1 1,2 1,1 2,1 4,1 1,0 4,-1 7,-2l2 15c-5,2 -10,3 -15,3 -4,0 -7,-1 -10,-2 -2,-1 -4,-3 -6,-4 -1,-2 -2,-5 -2,-8 -1,-2 -1,-7 -1,-13l0 -32 -9 0 0 -15 9 0 0 -14 19 -12 0 26 13 0z"/>
   <path id="4" class="fil7" d="M1345 717l20 -2c1,6 3,11 7,14 3,3 8,5 14,5 7,0 12,-2 15,-4 3,-3 5,-6 5,-10 0,-2 -1,-4 -2,-6 -2,-2 -4,-3 -8,-4 -2,-1 -7,-2 -16,-5 -10,-2 -18,-5 -22,-9 -6,-6 -9,-13 -9,-20 0,-6 1,-10 4,-15 3,-4 7,-8 12,-10 6,-2 12,-3 20,-3 12,0 22,2 28,8 6,5 10,13 10,22l-20 1c-1,-5 -3,-9 -6,-11 -3,-3 -7,-4 -12,-4 -6,0 -11,2 -14,4 -2,2 -3,4 -3,6 0,3 1,5 3,6 2,2 9,5 18,7 10,2 17,5 22,7 5,3 8,6 11,10 3,4 4,10 4,16 0,6 -2,11 -5,16 -3,5 -8,9 -13,11 -6,3 -13,4 -22,4 -13,0 -22,-3 -29,-9 -7,-6 -11,-14 -12,-25z"/>
   <path id="5" class="fil7" d="M1500 749l0 -11c-2,4 -6,7 -10,9 -4,3 -9,4 -14,4 -4,0 -9,-1 -13,-3 -4,-3 -6,-6 -8,-9 -2,-4 -3,-10 -3,-16l0 -46 19 0 0 33c0,10 1,16 2,19 0,2 1,4 3,5 2,2 5,2 7,2 4,0 7,-1 9,-2 3,-2 5,-4 6,-7 0,-3 1,-9 1,-20l0 -30 19 0 0 72 -18 0z"/>
   <path id="6" class="fil7" d="M1546 677l18 0 0 10c6,-8 13,-12 22,-12 5,0 9,1 12,3 3,2 6,5 8,9 4,-4 7,-7 11,-9 3,-2 7,-3 11,-3 6,0 10,1 14,4 3,2 6,5 8,9 1,3 2,8 2,15l0 46 -19 0 0 -41c0,-7 -1,-12 -2,-14 -2,-3 -5,-4 -8,-4 -3,0 -5,1 -8,2 -2,2 -4,4 -5,8 -1,3 -1,8 -1,14l0 35 -19 0 0 -39c0,-7 -1,-12 -1,-14 -1,-2 -2,-4 -4,-5 -1,-1 -3,-1 -5,-1 -3,0 -6,1 -8,2 -3,2 -4,4 -5,7 -1,3 -2,8 -2,15l0 35 -19 0 0 -72z"/>
   <path id="7" class="fil7" d="M1680 677l17 0 0 10c6,-8 14,-12 22,-12 5,0 9,1 12,3 4,2 7,5 9,9 3,-4 6,-7 10,-9 4,-2 8,-3 12,-3 5,0 10,1 13,4 4,2 7,5 8,9 2,3 2,8 2,15l0 46 -19 0 0 -41c0,-7 0,-12 -2,-14 -1,-3 -4,-4 -8,-4 -2,0 -5,1 -7,2 -3,2 -4,4 -5,8 -1,3 -2,8 -2,14l0 35 -19 0 0 -39c0,-7 0,-12 -1,-14 -1,-2 -2,-4 -3,-5 -2,-1 -4,-1 -6,-1 -3,0 -6,1 -8,2 -2,2 -4,4 -5,7 -1,3 -1,8 -1,15l0 35 -19 0 0 -72z"/>
   <path id="8" class="fil7" d="M1829 699l-18 -3c2,-7 6,-12 10,-16 5,-3 12,-5 22,-5 8,0 14,1 19,3 4,2 7,5 8,8 2,3 3,9 3,17l0 22c0,7 0,11 1,14 0,3 1,7 3,10l-19 0c0,-1 -1,-3 -2,-6 0,-1 0,-1 0,-2 -4,3 -7,6 -11,7 -4,2 -8,3 -12,3 -7,0 -13,-2 -17,-6 -5,-4 -7,-9 -7,-16 0,-4 1,-7 3,-10 2,-4 5,-6 8,-8 4,-1 9,-3 16,-4 9,-2 15,-3 18,-5l0 -2c0,-3 -1,-6 -3,-8 -1,-1 -5,-2 -10,-2 -3,0 -6,1 -8,2 -2,1 -3,4 -4,7zm25 16c-2,0 -6,1 -11,2 -6,2 -9,3 -11,4 -2,2 -4,4 -4,6 0,3 1,5 3,7 2,2 5,3 8,3 3,0 7,-1 10,-3 2,-2 4,-4 4,-6 1,-2 1,-5 1,-10l0 -3z"/>
   <path id="9" class="fil7" d="M1920 749l-19 0 0 -72 17 0 0 10c3,-5 6,-8 9,-9 2,-2 5,-3 8,-3 4,0 8,2 12,4l-5 17c-4,-3 -7,-4 -9,-4 -3,0 -5,1 -7,3 -2,1 -4,4 -5,8 -1,3 -1,12 -1,24l0 22z"/>
   <path id="10" class="fil7" d="M1956 677l21 0 17 51 17 -51 20 0 -26 69 -4 13c-2,4 -4,7 -5,9 -2,3 -4,4 -6,6 -2,1 -4,2 -7,3 -3,1 -6,1 -10,1 -3,0 -7,0 -10,-1l-2 -15c3,1 6,1 8,1 4,0 8,-1 10,-4 2,-2 4,-6 5,-10l-28 -72z"/>
  </g>
 </g>
</svg>
