<?xml version="1.0" standalone="no"?>
<!DOCTYPE svg PUBLIC "-//W3C//DTD SVG 20010904//EN"
 "http://www.w3.org/TR/2001/REC-SVG-20010904/DTD/svg10.dtd">
<svg version="1.0" xmlns="http://www.w3.org/2000/svg"
 width="512.000000pt" height="512.000000pt" viewBox="0 0 512.000000 512.000000"
 preserveAspectRatio="xMidYMid meet">

<g transform="translate(0.000000,512.000000) scale(0.100000,-0.100000)"
fill="#0000ff" stroke="none">
<path d="M3285 5107 c-27 -8 -75 -26 -105 -42 -30 -15 -564 -324 -1187 -686
l-1131 -659 -234 0 c-256 0 -298 -6 -393 -60 -109 -62 -202 -194 -225 -319
-13 -72 -14 -2874 0 -2955 30 -187 189 -346 376 -376 37 -6 824 -10 2064 -10
2202 0 2085 -3 2196 61 104 59 179 152 220 271 16 45 19 86 19 285 0 219 -1
233 -21 260 -40 53 -35 53 -520 53 -358 0 -469 3 -538 15 -325 57 -581 261
-708 565 -55 130 -63 177 -63 355 0 136 3 171 23 238 95 328 334 564 667 660
65 19 109 21 577 26 494 6 507 7 535 27 49 37 55 75 50 314 -6 278 -24 336
-135 448 -67 67 -132 104 -227 129 l-69 18 -338 590 c-339 594 -386 665 -472
724 -97 67 -253 96 -361 68z m200 -243 c40 -19 108 -85 98 -95 -5 -4 -411
-241 -904 -528 l-895 -521 -224 0 c-136 0 -220 4 -214 9 21 21 1940 1132 1978
1146 47 17 111 13 161 -11z m574 -915 c67 -116 121 -215 121 -220 0 -5 -216
-9 -502 -9 -276 0 -499 3 -495 6 10 11 740 434 748 434 4 0 62 -95 128 -211z"/>
<path d="M3832 2549 c-243 -41 -462 -235 -539 -476 -119 -375 99 -775 482
-885 79 -23 88 -23 575 -23 l495 0 65 31 c107 51 177 137 200 244 8 38 11 175
8 455 l-3 400 -27 57 c-34 73 -103 142 -176 176 l-57 27 -485 2 c-267 0 -509
-3 -538 -8z m216 -475 c107 -44 166 -176 128 -283 -24 -67 -60 -106 -121 -137
-116 -56 -246 -10 -307 110 -40 78 -18 206 45 263 66 61 174 81 255 47z"/>
</g>
</svg>
