<?xml version="1.0" encoding="UTF-8"?>
<!DOCTYPE svg PUBLIC "-//W3C//DTD SVG 1.1//EN" "http://www.w3.org/Graphics/SVG/1.1/DTD/svg11.dtd">
<!-- Creator: CorelDRAW X7 -->
<svg xmlns="http://www.w3.org/2000/svg" xml:space="preserve" width="4in" height="4in" version="1.1" style="shape-rendering:geometricPrecision; text-rendering:geometricPrecision; image-rendering:optimizeQuality; fill-rule:evenodd; clip-rule:evenodd"
viewBox="0 0 4000 4000"
 xmlns:xlink="http://www.w3.org/1999/xlink"
 enable-background="new 0 0 512 512">
 <defs>
  <style type="text/css">
   <![CDATA[
    .fil10 {fill:#333D47}
    .fil8 {fill:#CDCCCA}
    .fil7 {fill:#F2F2F2}
    .fil4 {fill:#FCD751}
    .fil6 {fill:#FECA5C}
    .fil5 {fill:#FFA229}
    .fil9 {fill:white}
    .fil3 {fill:black;fill-rule:nonzero}
    .fil2 {fill:#7C90B4;fill-rule:nonzero}
    .fil0 {fill:#C4CDDF;fill-rule:nonzero}
    .fil1 {fill:#E7ECF6;fill-rule:nonzero}
    .fil11 {fill:#F2F2F2;fill-rule:nonzero}
   ]]>
  </style>
 </defs>
 <g id="Layer_x0020_1">
  <metadata id="CorelCorpID_0Corel-Layer"/>
  <g id="_873880032">
   <g id="icon">
    <path class="fil0" d="M-4232472 4227727c-28,0 -52,-26 -47,-56 25,-163 160,-287 323,-287l237 0 253 343 -766 0z"/>
    <path class="fil1" d="M-4229730 4230406l0 -2688c0,-185 -150,-334 -335,-334l0 0 0 0 -2105 0 0 0 0 0c185,0 335,149 335,334l0 2688 2105 0z"/>
    <path class="fil2" d="M-4230643 4228294l1675 0c-4223692,4228366 -4223692,4228366 -4223692,4228366 0,0 0,0 0,0 0,0 0,0 0,0 0,0 0,0 0,0 0,0 0,0 0,0l4223692 -4225944c-4223692,4225944 -4223692,4225944 -4223692,4225944 0,0 0,0 0,0 0,0 0,0 0,0 0,0 0,0 0,0 0,0 0,0 0,0l4222017 -4225944c-4222017,4225944 -4222017,4225944 -4222017,4225944 0,0 0,0 0,0 0,0 0,0 0,0 0,0 0,0 0,0 0,0 0,0 0,0l4222017 -4228366c-4222017,4228366 -4222017,4228366 -4222017,4228366 0,0 0,0 0,0 0,0 0,0 0,0 0,0 0,0 0,0 0,0 0,0 0,0z"/>
    <path class="fil1" d="M-4230401 4228536l1191 0c-4223450,4228124 -4223450,4228124 -4223450,4228124 0,0 0,0 0,0 0,0 0,0 0,0 0,0 0,0 0,0 0,0 0,0 0,0l4223450 -4227594c-4223450,4227594 -4223450,4227594 -4223450,4227594 0,0 0,0 0,0 0,0 0,0 0,0 0,0 0,0 0,0 0,0 0,0 0,0l4222259 -4227594c-4222259,4227594 -4222259,4227594 -4222259,4227594 0,0 0,0 0,0 0,0 0,0 0,0 0,0 0,0 0,0 0,0 0,0 0,0l4222259 -4228124c-4222259,4228124 -4222259,4228124 -4222259,4228124 0,0 0,0 0,0 0,0 0,0 0,0 0,0 0,0 0,0 0,0 0,0 0,0z"/>
    <path class="fil1" d="M-4230401 4230237l267 0c-4222526,4226423 -4222526,4226423 -4222526,4226423 0,0 0,0 0,0 0,0 0,0 0,0 0,0 0,0 0,0 0,0 0,0 0,0l4222526 -4226186c-4222526,4226186 -4222526,4226186 -4222526,4226186 0,0 0,0 0,0 0,0 0,0 0,0 0,0 0,0 0,0 0,0 0,0 0,0l4222259 -4226186c-4222259,4226186 -4222259,4226186 -4222259,4226186 0,0 0,0 0,0 0,0 0,0 0,0 0,0 0,0 0,0 0,0 0,0 0,0l4222259 -4226423c-4222259,4226423 -4222259,4226423 -4222259,4226423 0,0 0,0 0,0 0,0 0,0 0,0 0,0 0,0 0,0 0,0 0,0 0,0z"/>
    <path class="fil1" d="M-4229477 4229795l267 0c-4223450,4226865 -4223450,4226865 -4223450,4226865 0,0 0,0 0,0 0,0 0,0 0,0 0,0 0,0 0,0 0,0 0,0 0,0l4223450 -4226186c-4223450,4226186 -4223450,4226186 -4223450,4226186 0,0 0,0 0,0 0,0 0,0 0,0 0,0 0,0 0,0 0,0 0,0 0,0l4223183 -4226186c-4223183,4226186 -4223183,4226186 -4223183,4226186 0,0 0,0 0,0 0,0 0,0 0,0 0,0 0,0 0,0 0,0 0,0 0,0l4223183 -4226865c-4223183,4226865 -4223183,4226865 -4223183,4226865 0,0 0,0 0,0 0,0 0,0 0,0 0,0 0,0 0,0 0,0 0,0 0,0z"/>
    <path class="fil1" d="M-4229939 4230237l267 0c-4222988,4226423 -4222988,4226423 -4222988,4226423 0,0 0,0 0,0 0,0 0,0 0,0 0,0 0,0 0,0 0,0 0,0 0,0l4222988 -4226186c-4222988,4226186 -4222988,4226186 -4222988,4226186 0,0 0,0 0,0 0,0 0,0 0,0 0,0 0,0 0,0 0,0 0,0 0,0l4222721 -4226186c-4222721,4226186 -4222721,4226186 -4222721,4226186 0,0 0,0 0,0 0,0 0,0 0,0 0,0 0,0 0,0 0,0 0,0 0,0l4222721 -4226423c-4222721,4226423 -4222721,4226423 -4222721,4226423 0,0 0,0 0,0 0,0 0,0 0,0 0,0 0,0 0,0 0,0 0,0 0,0z"/>
    <path class="fil1" d="M-4230401 4229795l267 0c-4222526,4226865 -4222526,4226865 -4222526,4226865 0,0 0,0 0,0 0,0 0,0 0,0 0,0 0,0 0,0 0,0 0,0 0,0l4222526 -4226628c-4222526,4226628 -4222526,4226628 -4222526,4226628 0,0 0,0 0,0 0,0 0,0 0,0 0,0 0,0 0,0 0,0 0,0 0,0l4222259 -4226628c-4222259,4226628 -4222259,4226628 -4222259,4226628 0,0 0,0 0,0 0,0 0,0 0,0 0,0 0,0 0,0 0,0 0,0 0,0l4222259 -4226865c-4222259,4226865 -4222259,4226865 -4222259,4226865 0,0 0,0 0,0 0,0 0,0 0,0 0,0 0,0 0,0 0,0 0,0 0,0z"/>
    <path class="fil1" d="M-4229939 4229795l267 0c-4222988,4226865 -4222988,4226865 -4222988,4226865 0,0 0,0 0,0 0,0 0,0 0,0 0,0 0,0 0,0 0,0 0,0 0,0l4222988 -4226628c-4222988,4226628 -4222988,4226628 -4222988,4226628 0,0 0,0 0,0 0,0 0,0 0,0 0,0 0,0 0,0 0,0 0,0 0,0l4222721 -4226628c-4222721,4226628 -4222721,4226628 -4222721,4226628 0,0 0,0 0,0 0,0 0,0 0,0 0,0 0,0 0,0 0,0 0,0 0,0l4222721 -4226865c-4222721,4226865 -4222721,4226865 -4222721,4226865 0,0 0,0 0,0 0,0 0,0 0,0 0,0 0,0 0,0 0,0 0,0 0,0z"/>
    <path class="fil1" d="M-4230401 4229353l267 0c-4222526,4227307 -4222526,4227307 -4222526,4227307 0,0 0,0 0,0 0,0 0,0 0,0 0,0 0,0 0,0 0,0 0,0 0,0l4222526 -4227069c-4222526,4227069 -4222526,4227069 -4222526,4227069 0,0 0,0 0,0 0,0 0,0 0,0 0,0 0,0 0,0 0,0 0,0 0,0l4222259 -4227069c-4222259,4227069 -4222259,4227069 -4222259,4227069 0,0 0,0 0,0 0,0 0,0 0,0 0,0 0,0 0,0 0,0 0,0 0,0l4222259 -4227307c-4222259,4227307 -4222259,4227307 -4222259,4227307 0,0 0,0 0,0 0,0 0,0 0,0 0,0 0,0 0,0 0,0 0,0 0,0z"/>
    <path class="fil1" d="M-4229477 4229353l267 0c-4223450,4227307 -4223450,4227307 -4223450,4227307 0,0 0,0 0,0 0,0 0,0 0,0 0,0 0,0 0,0 0,0 0,0 0,0l4223450 -4227069c-4223450,4227069 -4223450,4227069 -4223450,4227069 0,0 0,0 0,0 0,0 0,0 0,0 0,0 0,0 0,0 0,0 0,0 0,0l4223183 -4227069c-4223183,4227069 -4223183,4227069 -4223183,4227069 0,0 0,0 0,0 0,0 0,0 0,0 0,0 0,0 0,0 0,0 0,0 0,0l4223183 -4227307c-4223183,4227307 -4223183,4227307 -4223183,4227307 0,0 0,0 0,0 0,0 0,0 0,0 0,0 0,0 0,0 0,0 0,0 0,0z"/>
    <path class="fil1" d="M-4229939 4229353l267 0c-4222988,4227307 -4222988,4227307 -4222988,4227307 0,0 0,0 0,0 0,0 0,0 0,0 0,0 0,0 0,0 0,0 0,0 0,0l4222988 -4227069c-4222988,4227069 -4222988,4227069 -4222988,4227069 0,0 0,0 0,0 0,0 0,0 0,0 0,0 0,0 0,0 0,0 0,0 0,0l4222721 -4227069c-4222721,4227069 -4222721,4227069 -4222721,4227069 0,0 0,0 0,0 0,0 0,0 0,0 0,0 0,0 0,0 0,0 0,0 0,0l4222721 -4227307c-4222721,4227307 -4222721,4227307 -4222721,4227307 0,0 0,0 0,0 0,0 0,0 0,0 0,0 0,0 0,0 0,0 0,0 0,0z"/>
    <path class="fil3" d="M-4229730 4228334c-23,0 -41,-18 -41,-40l0 -547c0,-178 -145,-323 -323,-323 -23,0 -41,-18 -41,-41 0,-22 18,-40 41,-40 223,0 404,181 404,404l0 547c0,22 -18,40 -40,40z"/>
    <path class="fil3" d="M-4230643 4230449l-1163 0c-22,0 -41,-18 -41,-40l0 -2621 -687 0c-22,0 -41,-18 -41,-41 0,-223 182,-404 405,-404 223,0 405,181 405,404l0 2621 1122 0c23,0 41,19 41,41 0,22 -18,40 -41,40zm-1848 -2742l642 0c-20,-159 -156,-283 -321,-283 -165,0 -301,124 -321,283z"/>
    <path class="fil3" d="M-4230094 4227424l-2076 0c-22,0 -41,-18 -41,-41 0,-22 19,-40 41,-40l2076 0c22,0 40,18 40,40 0,23 -18,41 -40,41z"/>
    <path class="fil3" d="M-4228968 4230757l-1675 0c-22,0 -40,-18 -40,-41l0 -2422c0,-23 18,-41 40,-41l1675 0c22,0 40,18 40,41l0 2422c0,23 -18,41 -40,41zm-1634 -81l1593 0 0 -2342 -1593 0 0 2342z"/>
    <path class="fil3" d="M-4229210 4229106l-1191 0c-22,0 -40,-18 -40,-40l0 -530c0,-23 18,-41 40,-41l1191 0c22,0 40,18 40,41l0 530c0,22 -18,40 -40,40zm-1150 -81l1109 0 0 -449 -1109 0 0 449z"/>
    <path class="fil3" d="M-4230134 4230515l-267 0c-22,0 -40,-19 -40,-41l0 -237c0,-23 18,-41 40,-41l267 0c22,0 40,18 40,41l0 237c0,22 -18,41 -40,41zm-226 -81l185 0 0 -157 -185 0 0 157z"/>
    <path class="fil3" d="M-4229210 4230515l-267 0c-22,0 -40,-19 -40,-41l0 -679c0,-22 18,-40 40,-40l267 0c22,0 40,18 40,40l0 679c0,22 -18,41 -40,41zm-226 -81l185 0 0 -598 -185 0 0 598z"/>
    <path class="fil3" d="M-4229672 4230515l-267 0c-22,0 -40,-19 -40,-41l0 -237c0,-23 18,-41 40,-41l267 0c22,0 40,18 40,41l0 237c0,22 -18,41 -40,41zm-226 -81l185 0 0 -157 -185 0 0 157z"/>
    <path class="fil3" d="M-4230134 4230073l-267 0c-22,0 -40,-18 -40,-40l0 -238c0,-22 18,-40 40,-40l267 0c22,0 40,18 40,40l0 238c0,22 -18,40 -40,40zm-226 -81l185 0 0 -156 -185 0 0 156z"/>
    <path class="fil3" d="M-4229672 4230073l-267 0c-22,0 -40,-18 -40,-40l0 -238c0,-22 18,-40 40,-40l267 0c22,0 40,18 40,40l0 238c0,22 -18,40 -40,40zm-226 -81l185 0 0 -156 -185 0 0 156z"/>
    <path class="fil3" d="M-4230134 4229632l-267 0c-22,0 -40,-19 -40,-41l0 -237c0,-23 18,-41 40,-41l267 0c22,0 40,18 40,41l0 237c0,22 -18,41 -40,41zm-226 -82l185 0 0 -156 -185 0 0 156z"/>
    <path class="fil3" d="M-4229210 4229632l-267 0c-22,0 -40,-19 -40,-41l0 -237c0,-23 18,-41 40,-41l267 0c22,0 40,18 40,41l0 237c0,22 -18,41 -40,41zm-226 -82l185 0 0 -156 -185 0 0 156z"/>
    <path class="fil3" d="M-4229672 4229632l-267 0c-22,0 -40,-19 -40,-41l0 -237c0,-23 18,-41 40,-41l267 0c22,0 40,18 40,41l0 237c0,22 -18,41 -40,41zm-226 -82l185 0 0 -156 -185 0 0 156z"/>
    <path class="fil3" d="M-4230028 4227884l-1480 0c-22,0 -41,-18 -41,-40 0,-23 19,-41 41,-41l1480 0c22,0 41,18 41,41 0,22 -19,40 -41,40z"/>
    <path class="fil3" d="M-4231026 4228310l-482 0c-22,0 -41,-18 -41,-41 0,-22 19,-40 41,-40l482 0c23,0 41,18 41,40 0,23 -18,41 -41,41z"/>
    <path class="fil3" d="M-4231026 4228735l-482 0c-22,0 -41,-18 -41,-40 0,-23 19,-41 41,-41l482 0c23,0 41,18 41,41 0,22 -18,40 -41,40z"/>
    <path class="fil3" d="M-4231026 4229161l-482 0c-22,0 -41,-18 -41,-41 0,-22 19,-40 41,-40l482 0c23,0 41,18 41,40 0,23 -18,41 -41,41z"/>
    <path class="fil3" d="M-4231026 4229586l-482 0c-22,0 -41,-18 -41,-40 0,-23 19,-41 41,-41l482 0c23,0 41,18 41,41 0,22 -18,40 -41,40z"/>
    <path class="fil3" d="M-4231026 4230012l-482 0c-22,0 -41,-18 -41,-41 0,-22 19,-40 41,-40l482 0c23,0 41,18 41,40 0,23 -18,41 -41,41z"/>
   </g>
   <polygon class="fil4" points="-1,3059 -1,1336 1527,2239 "/>
   <polygon class="fil4" points="3049,3059 3049,1336 1521,2239 "/>
   <polygon class="fil5" points="-1,3059 1521,2239 3049,3059 "/>
   <polygon class="fil6" points="1521,11 -1,1336 1521,2239 3049,1336 "/>
   <polygon class="fil7" points="1524,2237 2714,1533 2714,421 346,421 346,1541 "/>
   <polygon class="fil8" points="700,943 1895,943 1895,891 700,891 "/>
   <polygon class="fil9" points="2051,1026 2269,1026 2269,808 2051,808 "/>
   <polygon class="fil8" points="700,1271 1895,1271 1895,1219 700,1219 "/>
   <polygon class="fil9" points="2051,1354 2269,1354 2269,1136 2051,1136 "/>
   <polygon class="fil8" points="700,1554 1895,1554 1895,1502 700,1502 "/>
   <polygon class="fil8" points="700,1642 1895,1642 1895,1591 700,1591 "/>
   <polygon class="fil9" points="2051,1681 2269,1681 2269,1463 2051,1463 "/>
   <polygon class="fil10" points="2148,994 2066,917 2087,895 2145,951 2226,852 2249,871 "/>
   <polygon class="fil10" points="2150,1315 2069,1238 2089,1217 2148,1273 2228,1174 2251,1193 "/>
   <polygon class="fil9" points="2269,1797 2269,1791 2051,1791 2051,1926 "/>
   <polygon class="fil8" points="909,1874 997,1926 1895,1926 1895,1874 "/>
   <g>
    <path class="fil11" d="M3787 2589c-66,0 -126,-38 -156,-97 -6,-11 -12,-23 -19,-34 -7,-12 -14,-23 -21,-35 -36,-55 -39,-126 -6,-183l0 0c48,-84 20,-190 -64,-239l-231 -133c-83,-48 -190,-19 -238,64l0 0c-32,57 -94,90 -159,87 -29,-2 -57,-2 -86,0 -65,3 -126,-31 -159,-87l0 0c-48,-83 -155,-112 -238,-64l-231 133c-83,49 -112,155 -64,239l0 0c33,56 31,126 -4,181 -16,24 -30,49 -43,74 -30,58 -89,95 -155,95l0 0c-96,-1 -174,78 -174,174l0 267c0,96 78,174 174,174l0 0c67,0 126,38 157,97 6,12 12,23 19,35 6,12 13,23 20,34 36,56 39,126 6,184 -48,83 -19,190 64,238l231 133c83,49 190,20 238,-63l0 -1c33,-56 95,-89 160,-86 28,1 57,1 85,0 65,-3 127,30 159,87l0 0c48,83 155,112 238,63l231 -133c84,-48 112,-155 64,-238l0 0c-32,-57 -31,-127 5,-181 15,-24 29,-49 42,-74 30,-58 90,-95 155,-95l0 0c97,0 175,-78 175,-174l0 -267c0,-96 -78,-175 -175,-175zm-937 1003c-383,0 -694,-312 -694,-695 0,-383 311,-694 694,-694 383,0 695,311 695,694 0,383 -312,695 -695,695z"/>
    <path class="fil3" d="M3204 3975c-18,0 -35,-2 -52,-7 -52,-14 -95,-47 -122,-93 -28,-48 -80,-77 -136,-74 -29,1 -58,1 -88,0 -56,-3 -108,26 -136,74 -55,95 -177,128 -273,73l-231 -133c-95,-55 -128,-177 -73,-273 28,-48 26,-109 -5,-157 -7,-12 -14,-24 -21,-35 -7,-12 -14,-24 -20,-36 -27,-52 -78,-84 -134,-84 -110,0 -199,-89 -199,-199l0 -267c0,-110 89,-200 199,-200 56,0 107,-31 133,-81 13,-26 28,-51 44,-76 30,-47 31,-106 3,-155 -26,-46 -33,-100 -20,-151 14,-52 47,-95 93,-121l231 -134c96,-55 218,-22 273,73 28,49 80,77 136,74 29,-1 59,-1 88,0 56,3 108,-25 136,-74 27,-46 70,-79 122,-93 51,-14 105,-6 151,20l231 134c95,55 128,177 73,272 -28,49 -26,109 5,158 8,11 15,23 22,35 7,12 13,24 20,36 26,51 77,83 133,83 110,0 200,90 200,200l0 267c0,110 -90,199 -200,199 -56,0 -107,31 -132,81 -13,26 -28,52 -44,76 -30,47 -32,107 -4,155 27,46 34,100 20,152 -14,51 -47,94 -93,121l-231 133c-31,18 -65,27 -99,27zm-302 -225c71,0 136,38 172,100 41,71 133,96 204,54l231 -133c71,-41 95,-132 54,-204 -37,-65 -35,-144 5,-207 15,-23 29,-47 42,-72 34,-67 102,-108 177,-108 82,0 149,-67 149,-149l0 -267c0,-82 -67,-149 -149,-149 -75,0 -143,-43 -178,-111 -6,-11 -13,-23 -19,-34 -6,-11 -13,-22 -20,-33 -42,-65 -44,-145 -7,-210 42,-71 17,-163 -54,-204l-231 -133c-35,-20 -75,-25 -113,-15 -39,10 -71,35 -91,70 -37,65 -107,103 -182,99 -28,-1 -56,-1 -83,0 -75,4 -145,-35 -183,-99 -41,-72 -132,-96 -203,-55l-231 133c-35,20 -59,52 -70,91 -10,38 -5,78 15,113 38,65 36,144 -5,208 -15,23 -29,47 -41,71 -35,67 -103,109 -178,109 -82,0 -149,67 -149,149l0 267c0,82 67,149 149,149 75,0 144,42 179,110 6,12 12,23 19,34 6,12 13,23 20,33 41,65 44,146 6,210 -41,72 -16,163 55,204l231 133c71,42 162,17 203,-54 38,-65 108,-103 183,-100 27,2 55,2 83,0 3,0 6,0 10,0zm-52 -133c-397,0 -720,-323 -720,-720 0,-397 323,-720 720,-720 397,0 720,323 720,720 0,397 -323,720 -720,720zm0 -1389c-369,0 -669,300 -669,669 0,369 300,670 669,670 369,0 670,-301 670,-670 0,-369 -301,-669 -670,-669z"/>
   </g>
  </g>
 </g>
</svg>
