<svg id="Capa_1" enable-background="new 0 0 504.5 504.5" height="512" viewBox="0 0 504.5 504.5" width="512" xmlns="http://www.w3.org/2000/svg"><g><path d="m343.25 437c0 20.711-16.789 37.5-37.5 37.5h-213c-20.711 0-37.5-16.789-37.5-37.5v-392c0-20.711 16.789-37.5 37.5-37.5h213c20.711 0 37.5 16.789 37.5 37.5z" fill="#f8f7f7"/><path d="m340.81 455.5c-6.44 11.34-18.64 19-32.62 19h-213c-20.71 0-37.5-16.79-37.5-37.5v-392c0-13.98 7.65-26.18 19-32.62v424.62c0 10.2 8.3 18.5 18.5 18.5z" fill="#e8e8e8"/><g><path d="m305.75 482h-213c-24.813 0-45-20.187-45-45v-392c0-24.813 20.187-45 45-45h213c24.813 0 45 20.187 45 45v392c0 24.813-20.187 45-45 45zm-213-467c-16.542 0-30 13.458-30 30v392c0 16.542 13.458 30 30 30h213c16.542 0 30-13.458 30-30v-392c0-16.542-13.458-30-30-30z" fill="#766d78"/></g><g><path d="m212.25 45h-50c-4.143 0-7.5-3.358-7.5-7.5s3.357-7.5 7.5-7.5h50c4.143 0 7.5 3.358 7.5 7.5s-3.357 7.5-7.5 7.5z" fill="#e8e8e8"/></g><path d="m290.876 275.505-181.899-.578c-8.284 0-15-6.716-15-15l-1.679-170.615c0-7.948 4.634-16.264 12.451-16.779.331-.022.664-.033 1-.033h187c8.284 0 15 6.716 15 15v174c0 .336-.011.67-.033 1-.514 7.818-8.892 13.005-16.84 13.005z" fill="#d6ccf2"/><path d="m307.71 262.5c-.51 7.82-7.02 14-14.96 14h-187c-8.28 0-15-6.72-15-15v-174c0-7.94 6.18-14.45 14-14.96v182.96c0 3.87 3.13 7 7 7z" fill="#c8b8f4"/><path d="m271.75 245.202-145.14.738c-2.761 0-5-2.239-5-5l.14-132.44c0-2.761 2.239-5 5-5l8-1h56.75l6.982 1.922 8.018-1.922h18.67l8.734 1.014 7.486-1.014h31.36c2.761 0 5 2.239 5 5v125l-1 7.702c0 2.761-2.239 5-5 5z" fill="#9e959e"/><path d="m277.75 232.5v9c0 2.761-2.239 5-5 5h-66.25l-6.476-3.06-8.524 3.06h-65.75c-2.761 0-5-2.239-5-5v-36.23l1.067-6.472-1.067-10.988v-80.31c0-2.761 2.239-5 5-5h9v126c0 2.209 1.791 4 4 4z" fill="#8e868e"/><g><g><path d="m183 328h-92.25c-4.142 0-7.5-3.357-7.5-7.5s3.358-7.5 7.5-7.5h92.25c4.142 0 7.5 3.357 7.5 7.5s-3.358 7.5-7.5 7.5z" fill="#e8e8e8"/></g><g><path d="m221 378h-130.25c-4.142 0-7.5-3.357-7.5-7.5s3.358-7.5 7.5-7.5h130.25c4.143 0 7.5 3.357 7.5 7.5s-3.357 7.5-7.5 7.5z" fill="#e8e8e8"/></g><g><path d="m256.149 408h-103.607c-4.142 0-7.5-3.357-7.5-7.5s3.358-7.5 7.5-7.5h103.607c4.143 0 7.5 3.357 7.5 7.5s-3.357 7.5-7.5 7.5z" fill="#e8e8e8"/></g><g><path d="m122.542 408h-31.792c-4.142 0-7.5-3.357-7.5-7.5s3.358-7.5 7.5-7.5h31.792c4.142 0 7.5 3.357 7.5 7.5s-3.357 7.5-7.5 7.5z" fill="#e8e8e8"/></g><g><path d="m263.649 438h-36.895c-4.143 0-7.5-3.357-7.5-7.5s3.357-7.5 7.5-7.5h36.895c4.143 0 7.5 3.357 7.5 7.5s-3.357 7.5-7.5 7.5z" fill="#e8e8e8"/></g><g><path d="m196.755 438h-106.005c-4.142 0-7.5-3.357-7.5-7.5s3.358-7.5 7.5-7.5h106.005c4.142 0 7.5 3.357 7.5 7.5s-3.358 7.5-7.5 7.5z" fill="#e8e8e8"/></g></g><g><path d="m206.5 102.5v144l-6.82-1.959-8.18 1.959v-144z" fill="#f8f7f7"/></g><g><path d="m246.5 131.5c0 30.27-16 56.88-40 71.8-4.71 2.94-9.73 5.42-15 7.38-9.19 3.44-19.13 5.32-29.5 5.32-14.49 0-28.69-3.71-41.25-10.73l2.759-6.307-2.759-11.153c.22.13.42.25.62.37 2.65 1.59 4.56 2.74 4.7 2.83 10.8 6.53 23.23 9.99 35.93 9.99 10.54 0 20.54-2.36 29.5-6.58 5.42-2.55 10.46-5.78 15-9.58 15.27-12.76 25-31.93 25-53.34 0-8.27-1.43-16.35-4.26-24.03-.14-.35-.98-2.37-2.07-4.97h16.22c3.39 9.28 5.11 19.04 5.11 29z" fill="#f8f7f7"/></g><g><path d="m191.5 232.5h15v14h-15z" fill="#e8e8e8"/></g><g><path d="m134.75 195.45v16.05c-4.84-1.65-9.52-3.73-14-6.23v-17.46c.22.13.42.25.62.37 2.65 1.59 4.56 2.74 4.7 2.83 2.79 1.69 5.69 3.17 8.68 4.44z" fill="#e8e8e8"/></g><path d="m456.75 399.5c0-55.289-42.733-100.597-96.972-104.698-2.65-.2-5.327.601-8.028.601-57.99 0-102.956 46.242-102.956 104.231s44.966 103.733 102.956 103.733c2.882 0 5.736 1.017 8.559.789 53.987-4.355 96.441-49.548 96.441-104.656z" fill="#bae6ef"/><path d="m361.75 504.02c-3.29.32-6.63.48-10 .48-57.99 0-105-47.01-105-105s47.01-105 105-105c3.37 0 6.71.16 10 .48-53.3 5.03-95 49.9-95 104.52s41.7 99.49 95 104.52z" fill="#94d8e6"/><path d="m334.995 440.25h32.477l1.278 13v2c0 8.284-6.716 15-15 15h-5c-.678 0-1.346-.045-2.001-.132-7.338-.978-11.754-7.262-11.754-14.868z" fill="#ffd163"/><path d="m368.75 440.25v13h-19c-1.657 0-3 1.343-3 3v13.86c-7.34-.97-13-7.26-13-14.86v-15l16.548-2.828z" fill="#ffb65f"/><g><path d="m351.25 367.063c-4.143 0-7.5-3.357-7.5-7.5v-30.813c0-4.143 3.357-7.5 7.5-7.5s7.5 3.357 7.5 7.5v30.813c0 4.142-3.357 7.5-7.5 7.5z" fill="#ffb65f"/></g><path d="m389.875 378.75c0-16.569-13.431-30-30-30h-2.197l-4.849.083-9.893.178c-16.569 0-28.748 13.434-28.748 30.003v.72c0 9.73-3.39 19.705-9.468 27.303l-5.809 7.261c-2.312 2.89-3.88 5.002-3.88 8.703v.274c0 9.001 5.971 16.24 14.972 16.24l13.211.736h70.304c9.001 0 16.298-7.297 16.298-16.298 0-3.867-1.375-7.609-3.88-10.555l-5.862-6.896c-6.583-7.748-10.199-17.585-10.199-27.752z" fill="#ffd163"/><path d="m358.45 348.75c-16.57 0-30 13.43-30 30v.72c0 9.73-3.31 19.17-9.39 26.77l-5.81 7.26c-2.31 2.89-3.57 6.48-3.57 10.18v.27c0 9 7.3 16.3 16.3 16.3h-16c-9 0-16.3-7.3-16.3-16.3v-.27c0-3.7 1.26-7.29 3.57-10.18l5.81-7.26c6.08-7.6 9.39-17.04 9.39-26.77v-.72c0-16.57 13.43-30 30-30z" fill="#ffb65f"/><circle cx="237.25" cy="37.5" fill="#e8e8e8" r="7.5"/></g></svg>