<?xml version="1.0" encoding="UTF-8"?>
<!DOCTYPE svg PUBLIC "-//W3C//DTD SVG 1.1//EN" "http://www.w3.org/Graphics/SVG/1.1/DTD/svg11.dtd">
<!-- Creator: CorelDRAW X7 -->
<svg xmlns="http://www.w3.org/2000/svg" xml:space="preserve" width="3in" height="3in" version="1.1" style="shape-rendering:geometricPrecision; text-rendering:geometricPrecision; image-rendering:optimizeQuality; fill-rule:evenodd; clip-rule:evenodd"
viewBox="0 0 3000 3000"
 xmlns:xlink="http://www.w3.org/1999/xlink">
 <defs>
  <style type="text/css">
   <![CDATA[
    .fil2 {fill:#19AF19}
    .fil1 {fill:#A6A6A6}
    .fil0 {fill:#E6E6E6}
   ]]>
  </style>
 </defs>
 <g id="Layer_x0020_1">
  <metadata id="CorelCorpID_0Corel-Layer"/>
  <g id="_706575104">
   <polygon class="fil0" points="595,1197 280,1197 17,1460 17,1881 595,1881 "/>
   <polygon class="fil1" points="280,1197 17,1460 280,1460 "/>
   <polygon class="fil0" points="1384,1197 1068,1197 806,1460 806,1881 1384,1881 "/>
   <polygon class="fil1" points="1068,1197 806,1460 1068,1460 "/>
   <polygon class="fil0" points="2173,1197 1857,1197 1594,1460 1594,1881 2173,1881 "/>
   <polygon class="fil1" points="1857,1197 1594,1460 1857,1460 "/>
   <polygon class="fil0" points="2961,1197 2646,1197 2383,1460 2383,1881 2961,1881 "/>
   <polygon class="fil1" points="2646,1197 2383,1460 2646,1460 "/>
   <polygon class="fil0" points="2961,2091 2646,2091 2383,2354 2383,2775 2961,2775 "/>
   <polygon class="fil1" points="2646,2091 2383,2354 2646,2354 "/>
   <polygon class="fil0" points="2173,2091 1857,2091 1594,2354 1594,2775 2173,2775 "/>
   <polygon class="fil1" points="1857,2091 1594,2354 1857,2354 "/>
   <polygon class="fil0" points="1384,2091 1068,2091 806,2354 806,2775 1384,2775 "/>
   <polygon class="fil1" points="1068,2091 806,2354 1068,2354 "/>
   <polygon class="fil0" points="595,2091 280,2091 17,2354 17,2775 595,2775 "/>
   <polygon class="fil1" points="280,2091 17,2354 280,2354 "/>
   <path class="fil2" d="M227 1776c0,0 0,0 0,0 -14,0 -27,-6 -37,-16l-105 -105 74 -74 68 68 226 -226 74 74 -263 263c-9,10 -23,16 -37,16 0,0 0,0 0,0l0 0z"/>
   <path class="fil2" d="M1805 1776c0,0 -1,0 -1,0 -13,0 -27,-6 -37,-16l-105 -105 75 -74 68 68 225 -226 75 74 -263 263c-10,10 -23,16 -37,16 0,0 0,0 0,0l0 0z"/>
   <path class="fil2" d="M2593 1776c0,0 0,0 0,0 -14,0 -27,-6 -37,-16l-105 -105 74 -74 68 68 226 -226 74 74 -263 263c-9,10 -23,16 -37,16 0,0 0,0 0,0l0 0z"/>
   <path class="fil2" d="M227 2669c0,0 0,0 0,0 -14,0 -27,-5 -37,-15l-105 -105 74 -74 68 68 226 -226 74 74 -263 263c-9,10 -23,15 -37,15 0,0 0,0 0,0l0 0z"/>
   <polygon class="fil0" points="595,297 280,297 17,560 17,981 595,981 "/>
   <polygon class="fil1" points="280,297 17,560 280,560 "/>
   <polygon class="fil0" points="1384,297 1068,297 806,560 806,981 1384,981 "/>
   <polygon class="fil1" points="1068,297 806,560 1068,560 "/>
   <polygon class="fil0" points="2173,297 1857,297 1594,560 1594,981 2173,981 "/>
   <polygon class="fil1" points="1857,297 1594,560 1857,560 "/>
   <polygon class="fil0" points="2961,297 2646,297 2383,560 2383,981 2961,981 "/>
   <polygon class="fil1" points="2646,297 2383,560 2646,560 "/>
   <path class="fil2" d="M1016 876c0,0 0,0 0,0 -14,0 -27,-6 -37,-16l-105 -105 74 -74 68 68 226 -226 74 74 -263 263c-10,10 -23,16 -37,16 0,0 0,0 0,0l0 0z"/>
   <path class="fil2" d="M2593 876c0,0 0,0 0,0 -14,0 -27,-6 -37,-16l-105 -105 74 -74 68 68 226 -226 74 74 -263 263c-9,10 -23,16 -37,16 0,0 0,0 0,0l0 0z"/>
  </g>
 </g>
</svg>
